%TF.GenerationSoftware,KiCad,Pcbnew,8.0.7*%
%TF.CreationDate,2024-12-25T21:37:58+08:00*%
%TF.ProjectId,The Button,54686520-4275-4747-946f-6e2e6b696361,rev?*%
%TF.SameCoordinates,Original*%
%TF.FileFunction,Soldermask,Top*%
%TF.FilePolarity,Negative*%
%FSLAX46Y46*%
G04 Gerber Fmt 4.6, Leading zero omitted, Abs format (unit mm)*
G04 Created by KiCad (PCBNEW 8.0.7) date 2024-12-25 21:37:58*
%MOMM*%
%LPD*%
G01*
G04 APERTURE LIST*
G04 Aperture macros list*
%AMRoundRect*
0 Rectangle with rounded corners*
0 $1 Rounding radius*
0 $2 $3 $4 $5 $6 $7 $8 $9 X,Y pos of 4 corners*
0 Add a 4 corners polygon primitive as box body*
4,1,4,$2,$3,$4,$5,$6,$7,$8,$9,$2,$3,0*
0 Add four circle primitives for the rounded corners*
1,1,$1+$1,$2,$3*
1,1,$1+$1,$4,$5*
1,1,$1+$1,$6,$7*
1,1,$1+$1,$8,$9*
0 Add four rect primitives between the rounded corners*
20,1,$1+$1,$2,$3,$4,$5,0*
20,1,$1+$1,$4,$5,$6,$7,0*
20,1,$1+$1,$6,$7,$8,$9,0*
20,1,$1+$1,$8,$9,$2,$3,0*%
G04 Aperture macros list end*
%ADD10RoundRect,0.250000X-0.350000X-0.450000X0.350000X-0.450000X0.350000X0.450000X-0.350000X0.450000X0*%
%ADD11RoundRect,0.250000X-0.475000X0.337500X-0.475000X-0.337500X0.475000X-0.337500X0.475000X0.337500X0*%
%ADD12RoundRect,0.250000X-0.325000X-0.450000X0.325000X-0.450000X0.325000X0.450000X-0.325000X0.450000X0*%
%ADD13RoundRect,0.375000X-0.625000X-0.375000X0.625000X-0.375000X0.625000X0.375000X-0.625000X0.375000X0*%
%ADD14RoundRect,0.500000X-0.500000X-1.400000X0.500000X-1.400000X0.500000X1.400000X-0.500000X1.400000X0*%
%ADD15R,1.700000X1.700000*%
%ADD16O,1.700000X1.700000*%
%ADD17RoundRect,0.150000X-0.512500X-0.150000X0.512500X-0.150000X0.512500X0.150000X-0.512500X0.150000X0*%
%ADD18RoundRect,0.250000X0.350000X0.450000X-0.350000X0.450000X-0.350000X-0.450000X0.350000X-0.450000X0*%
%ADD19RoundRect,0.250000X-0.337500X-0.475000X0.337500X-0.475000X0.337500X0.475000X-0.337500X0.475000X0*%
%ADD20RoundRect,0.250000X-0.450000X0.350000X-0.450000X-0.350000X0.450000X-0.350000X0.450000X0.350000X0*%
%ADD21O,0.889000X1.905000*%
%ADD22C,0.609600*%
%ADD23R,2.180000X1.600000*%
%ADD24RoundRect,0.250000X0.475000X-0.337500X0.475000X0.337500X-0.475000X0.337500X-0.475000X-0.337500X0*%
%ADD25RoundRect,0.125000X0.625000X0.125000X-0.625000X0.125000X-0.625000X-0.125000X0.625000X-0.125000X0*%
%ADD26RoundRect,0.125000X0.125000X0.625000X-0.125000X0.625000X-0.125000X-0.625000X0.125000X-0.625000X0*%
G04 APERTURE END LIST*
D10*
%TO.C,R7*%
X174975000Y-93500000D03*
X176975000Y-93500000D03*
%TD*%
D11*
%TO.C,C12*%
X170500000Y-31000000D03*
X170500000Y-33075000D03*
%TD*%
%TO.C,C3*%
X164000000Y-89500000D03*
X164000000Y-91575000D03*
%TD*%
%TO.C,C8*%
X175000000Y-88150000D03*
X175000000Y-90225000D03*
%TD*%
D12*
%TO.C,D4*%
X164450000Y-96500000D03*
X166500000Y-96500000D03*
%TD*%
D13*
%TO.C,U1*%
X177500000Y-84500000D03*
X177500000Y-86800000D03*
D14*
X183800000Y-86800000D03*
D13*
X177500000Y-89100000D03*
%TD*%
D15*
%TO.C,J5*%
X189500000Y-85500000D03*
D16*
X189500000Y-88040000D03*
X189500000Y-90580000D03*
X189500000Y-93120000D03*
X189500000Y-95660000D03*
%TD*%
D17*
%TO.C,U5*%
X152225000Y-93600000D03*
X152225000Y-94550000D03*
X152225000Y-95500000D03*
X154500000Y-95500000D03*
X154500000Y-94550000D03*
X154500000Y-93600000D03*
%TD*%
D15*
%TO.C,J1*%
X193500000Y-88000000D03*
D16*
X196040000Y-88000000D03*
X198580000Y-88000000D03*
%TD*%
D10*
%TO.C,R10*%
X181000000Y-92000000D03*
X183000000Y-92000000D03*
%TD*%
D12*
%TO.C,D1*%
X176950000Y-81000000D03*
X179000000Y-81000000D03*
%TD*%
D11*
%TO.C,C11*%
X167000000Y-31000000D03*
X167000000Y-33075000D03*
%TD*%
D18*
%TO.C,R1*%
X183500000Y-81000000D03*
X181500000Y-81000000D03*
%TD*%
D11*
%TO.C,C13*%
X174000000Y-31000000D03*
X174000000Y-33075000D03*
%TD*%
%TO.C,C6*%
X166500000Y-87462500D03*
X166500000Y-89537500D03*
%TD*%
D18*
%TO.C,R6*%
X162000000Y-96500000D03*
X160000000Y-96500000D03*
%TD*%
D19*
%TO.C,C10*%
X166425000Y-83500000D03*
X168500000Y-83500000D03*
%TD*%
D20*
%TO.C,R11*%
X166500000Y-91500000D03*
X166500000Y-93500000D03*
%TD*%
D15*
%TO.C,J3*%
X183000000Y-27000000D03*
D16*
X185540000Y-27000000D03*
X188080000Y-27000000D03*
X190620000Y-27000000D03*
%TD*%
D12*
%TO.C,D3*%
X175500000Y-96500000D03*
X177550000Y-96500000D03*
%TD*%
D10*
%TO.C,R5*%
X196500000Y-85000000D03*
X198500000Y-85000000D03*
%TD*%
D21*
%TO.C,J2*%
X169300000Y-89549998D03*
X172500000Y-89549998D03*
X169300000Y-94349999D03*
X172500000Y-94349999D03*
D22*
X170500000Y-94399999D03*
X170500000Y-93499998D03*
X170500000Y-92600000D03*
X170500000Y-91699999D03*
X170500000Y-90799999D03*
X170500000Y-89900000D03*
X170500000Y-89000000D03*
X171280001Y-89450000D03*
X171280001Y-90350000D03*
X171280001Y-91249999D03*
X171280001Y-92149999D03*
X171280001Y-93050000D03*
X171280001Y-93949998D03*
X171280001Y-94849999D03*
%TD*%
D23*
%TO.C,SW8*%
X198180000Y-81500000D03*
X189000000Y-81500000D03*
%TD*%
D24*
%TO.C,C9*%
X175000000Y-86187500D03*
X175000000Y-84112500D03*
%TD*%
D19*
%TO.C,C7*%
X166462500Y-85500000D03*
X168537500Y-85500000D03*
%TD*%
D24*
%TO.C,C4*%
X164000000Y-87500000D03*
X164000000Y-85425000D03*
%TD*%
D25*
%TO.C,U2*%
X160350000Y-89000000D03*
X160350000Y-88200000D03*
X160350000Y-87400000D03*
X160350000Y-86600000D03*
X160350000Y-85800000D03*
X160350000Y-85000000D03*
X160350000Y-84200000D03*
X160350000Y-83400000D03*
D26*
X158975000Y-82025000D03*
X158175000Y-82025000D03*
X157375000Y-82025000D03*
X156575000Y-82025000D03*
X155775000Y-82025000D03*
X154975000Y-82025000D03*
X154175000Y-82025000D03*
X153375000Y-82025000D03*
D25*
X152000000Y-83400000D03*
X152000000Y-84200000D03*
X152000000Y-85000000D03*
X152000000Y-85800000D03*
X152000000Y-86600000D03*
X152000000Y-87400000D03*
X152000000Y-88200000D03*
X152000000Y-89000000D03*
D26*
X153375000Y-90375000D03*
X154175000Y-90375000D03*
X154975000Y-90375000D03*
X155775000Y-90375000D03*
X156575000Y-90375000D03*
X157375000Y-90375000D03*
X158175000Y-90375000D03*
X158975000Y-90375000D03*
%TD*%
D15*
%TO.C,J4*%
X175580000Y-27500000D03*
D16*
X173040000Y-27500000D03*
X170500000Y-27500000D03*
X167960000Y-27500000D03*
%TD*%
M02*
