%TF.GenerationSoftware,KiCad,Pcbnew,8.0.7*%
%TF.CreationDate,2024-12-25T21:37:55+08:00*%
%TF.ProjectId,The Button,54686520-4275-4747-946f-6e2e6b696361,rev?*%
%TF.SameCoordinates,Original*%
%TF.FileFunction,Drillmap*%
%TF.FilePolarity,Positive*%
%FSLAX45Y45*%
G04 Gerber Fmt 4.5, Leading zero omitted, Abs format (unit mm)*
G04 Created by KiCad (PCBNEW 8.0.7) date 2024-12-25 21:37:55*
%MOMM*%
%LPD*%
G01*
G04 APERTURE LIST*
%ADD10C,0.050000*%
%ADD11C,0.609600*%
%ADD12C,0.200000*%
G04 APERTURE END LIST*
D10*
X15550000Y-2400000D02*
X19500000Y-2400000D01*
X15000000Y-9100000D02*
X14650000Y-9100000D01*
X20050000Y-7950000D02*
X17500000Y-7950000D01*
X19500000Y-3900000D02*
X19500000Y-2400000D01*
X14650000Y-7950000D02*
X16550000Y-7950000D01*
X20050000Y-9100000D02*
X20050000Y-7950000D01*
X19200000Y-9100000D02*
X20050000Y-9100000D01*
X17500000Y-3900000D02*
X19500000Y-3900000D01*
X19200000Y-9800000D02*
X19200000Y-9100000D01*
X14650000Y-9100000D02*
X14650000Y-7950000D01*
X15000000Y-9800000D02*
X15000000Y-9100000D01*
X16550000Y-3900000D02*
X15550000Y-3900000D01*
X15550000Y-3900000D02*
X15550000Y-2400000D01*
X19200000Y-9800000D02*
X15000000Y-9800000D01*
X17500000Y-7950000D02*
X17500000Y-3900000D01*
X16550000Y-7950000D02*
X16550000Y-3900000D01*
D11*
X16946000Y-9004530D02*
X16946000Y-8905470D01*
X16946000Y-9484530D02*
X16946000Y-9385470D01*
X17232000Y-9004530D02*
X17232000Y-8905470D01*
X17232000Y-9484530D02*
X17232000Y-9385470D01*
D12*
X14908277Y-10113984D02*
X14908277Y-9913984D01*
X14908277Y-9913984D02*
X14955896Y-9913984D01*
X14955896Y-9913984D02*
X14984467Y-9923508D01*
X14984467Y-9923508D02*
X15003515Y-9942555D01*
X15003515Y-9942555D02*
X15013039Y-9961603D01*
X15013039Y-9961603D02*
X15022562Y-9999698D01*
X15022562Y-9999698D02*
X15022562Y-10028270D01*
X15022562Y-10028270D02*
X15013039Y-10066365D01*
X15013039Y-10066365D02*
X15003515Y-10085412D01*
X15003515Y-10085412D02*
X14984467Y-10104460D01*
X14984467Y-10104460D02*
X14955896Y-10113984D01*
X14955896Y-10113984D02*
X14908277Y-10113984D01*
X15108277Y-10113984D02*
X15108277Y-9980650D01*
X15108277Y-10018746D02*
X15117801Y-9999698D01*
X15117801Y-9999698D02*
X15127324Y-9990174D01*
X15127324Y-9990174D02*
X15146372Y-9980650D01*
X15146372Y-9980650D02*
X15165420Y-9980650D01*
X15232086Y-10113984D02*
X15232086Y-9980650D01*
X15232086Y-9913984D02*
X15222562Y-9923508D01*
X15222562Y-9923508D02*
X15232086Y-9933031D01*
X15232086Y-9933031D02*
X15241610Y-9923508D01*
X15241610Y-9923508D02*
X15232086Y-9913984D01*
X15232086Y-9913984D02*
X15232086Y-9933031D01*
X15355896Y-10113984D02*
X15336848Y-10104460D01*
X15336848Y-10104460D02*
X15327324Y-10085412D01*
X15327324Y-10085412D02*
X15327324Y-9913984D01*
X15460658Y-10113984D02*
X15441610Y-10104460D01*
X15441610Y-10104460D02*
X15432086Y-10085412D01*
X15432086Y-10085412D02*
X15432086Y-9913984D01*
X15689229Y-10113984D02*
X15689229Y-9913984D01*
X15689229Y-9913984D02*
X15755896Y-10056841D01*
X15755896Y-10056841D02*
X15822562Y-9913984D01*
X15822562Y-9913984D02*
X15822562Y-10113984D01*
X16003515Y-10113984D02*
X16003515Y-10009222D01*
X16003515Y-10009222D02*
X15993991Y-9990174D01*
X15993991Y-9990174D02*
X15974943Y-9980650D01*
X15974943Y-9980650D02*
X15936848Y-9980650D01*
X15936848Y-9980650D02*
X15917801Y-9990174D01*
X16003515Y-10104460D02*
X15984467Y-10113984D01*
X15984467Y-10113984D02*
X15936848Y-10113984D01*
X15936848Y-10113984D02*
X15917801Y-10104460D01*
X15917801Y-10104460D02*
X15908277Y-10085412D01*
X15908277Y-10085412D02*
X15908277Y-10066365D01*
X15908277Y-10066365D02*
X15917801Y-10047317D01*
X15917801Y-10047317D02*
X15936848Y-10037793D01*
X15936848Y-10037793D02*
X15984467Y-10037793D01*
X15984467Y-10037793D02*
X16003515Y-10028270D01*
X16098753Y-9980650D02*
X16098753Y-10180650D01*
X16098753Y-9990174D02*
X16117801Y-9980650D01*
X16117801Y-9980650D02*
X16155896Y-9980650D01*
X16155896Y-9980650D02*
X16174943Y-9990174D01*
X16174943Y-9990174D02*
X16184467Y-9999698D01*
X16184467Y-9999698D02*
X16193991Y-10018746D01*
X16193991Y-10018746D02*
X16193991Y-10075889D01*
X16193991Y-10075889D02*
X16184467Y-10094936D01*
X16184467Y-10094936D02*
X16174943Y-10104460D01*
X16174943Y-10104460D02*
X16155896Y-10113984D01*
X16155896Y-10113984D02*
X16117801Y-10113984D01*
X16117801Y-10113984D02*
X16098753Y-10104460D01*
X16279705Y-10094936D02*
X16289229Y-10104460D01*
X16289229Y-10104460D02*
X16279705Y-10113984D01*
X16279705Y-10113984D02*
X16270182Y-10104460D01*
X16270182Y-10104460D02*
X16279705Y-10094936D01*
X16279705Y-10094936D02*
X16279705Y-10113984D01*
X16279705Y-9990174D02*
X16289229Y-9999698D01*
X16289229Y-9999698D02*
X16279705Y-10009222D01*
X16279705Y-10009222D02*
X16270182Y-9999698D01*
X16270182Y-9999698D02*
X16279705Y-9990174D01*
X16279705Y-9990174D02*
X16279705Y-10009222D01*
M02*
