%TF.GenerationSoftware,KiCad,Pcbnew,8.0.8*%
%TF.CreationDate,2025-01-17T17:00:29+08:00*%
%TF.ProjectId,The Button,54686520-4275-4747-946f-6e2e6b696361,rev?*%
%TF.SameCoordinates,Original*%
%TF.FileFunction,Legend,Bot*%
%TF.FilePolarity,Positive*%
%FSLAX46Y46*%
G04 Gerber Fmt 4.6, Leading zero omitted, Abs format (unit mm)*
G04 Created by KiCad (PCBNEW 8.0.8) date 2025-01-17 17:00:29*
%MOMM*%
%LPD*%
G01*
G04 APERTURE LIST*
%ADD10C,0.100000*%
%ADD11C,0.300000*%
%ADD12C,0.150000*%
%ADD13C,0.120000*%
%ADD14C,0.508000*%
G04 APERTURE END LIST*
D10*
X170188771Y-80077068D02*
X171688771Y-80077068D01*
X170974485Y-80077068D02*
X170974485Y-79219925D01*
X170188771Y-79219925D02*
X171688771Y-79219925D01*
X170260200Y-77934210D02*
X170188771Y-78077067D01*
X170188771Y-78077067D02*
X170188771Y-78362782D01*
X170188771Y-78362782D02*
X170260200Y-78505639D01*
X170260200Y-78505639D02*
X170403057Y-78577067D01*
X170403057Y-78577067D02*
X170974485Y-78577067D01*
X170974485Y-78577067D02*
X171117342Y-78505639D01*
X171117342Y-78505639D02*
X171188771Y-78362782D01*
X171188771Y-78362782D02*
X171188771Y-78077067D01*
X171188771Y-78077067D02*
X171117342Y-77934210D01*
X171117342Y-77934210D02*
X170974485Y-77862782D01*
X170974485Y-77862782D02*
X170831628Y-77862782D01*
X170831628Y-77862782D02*
X170688771Y-78577067D01*
X171188771Y-77362782D02*
X170188771Y-77005639D01*
X171188771Y-76648496D02*
X170188771Y-77005639D01*
X170188771Y-77005639D02*
X169831628Y-77148496D01*
X169831628Y-77148496D02*
X169760200Y-77219925D01*
X169760200Y-77219925D02*
X169688771Y-77362782D01*
X170260200Y-76005639D02*
X170188771Y-76005639D01*
X170188771Y-76005639D02*
X170045914Y-76077068D01*
X170045914Y-76077068D02*
X169974485Y-76148496D01*
X171188771Y-74434210D02*
X171188771Y-73862782D01*
X171688771Y-74219925D02*
X170403057Y-74219925D01*
X170403057Y-74219925D02*
X170260200Y-74148496D01*
X170260200Y-74148496D02*
X170188771Y-74005639D01*
X170188771Y-74005639D02*
X170188771Y-73862782D01*
X170188771Y-73362782D02*
X171688771Y-73362782D01*
X170188771Y-72719925D02*
X170974485Y-72719925D01*
X170974485Y-72719925D02*
X171117342Y-72791353D01*
X171117342Y-72791353D02*
X171188771Y-72934210D01*
X171188771Y-72934210D02*
X171188771Y-73148496D01*
X171188771Y-73148496D02*
X171117342Y-73291353D01*
X171117342Y-73291353D02*
X171045914Y-73362782D01*
X170188771Y-71362782D02*
X170974485Y-71362782D01*
X170974485Y-71362782D02*
X171117342Y-71434210D01*
X171117342Y-71434210D02*
X171188771Y-71577067D01*
X171188771Y-71577067D02*
X171188771Y-71862782D01*
X171188771Y-71862782D02*
X171117342Y-72005639D01*
X170260200Y-71362782D02*
X170188771Y-71505639D01*
X170188771Y-71505639D02*
X170188771Y-71862782D01*
X170188771Y-71862782D02*
X170260200Y-72005639D01*
X170260200Y-72005639D02*
X170403057Y-72077067D01*
X170403057Y-72077067D02*
X170545914Y-72077067D01*
X170545914Y-72077067D02*
X170688771Y-72005639D01*
X170688771Y-72005639D02*
X170760200Y-71862782D01*
X170760200Y-71862782D02*
X170760200Y-71505639D01*
X170760200Y-71505639D02*
X170831628Y-71362782D01*
X171188771Y-70648496D02*
X170188771Y-70648496D01*
X171045914Y-70648496D02*
X171117342Y-70577067D01*
X171117342Y-70577067D02*
X171188771Y-70434210D01*
X171188771Y-70434210D02*
X171188771Y-70219924D01*
X171188771Y-70219924D02*
X171117342Y-70077067D01*
X171117342Y-70077067D02*
X170974485Y-70005639D01*
X170974485Y-70005639D02*
X170188771Y-70005639D01*
X170188771Y-69291353D02*
X171688771Y-69291353D01*
X170760200Y-69148496D02*
X170188771Y-68719924D01*
X171188771Y-68719924D02*
X170617342Y-69291353D01*
X170260200Y-68148495D02*
X170188771Y-68005638D01*
X170188771Y-68005638D02*
X170188771Y-67719924D01*
X170188771Y-67719924D02*
X170260200Y-67577067D01*
X170260200Y-67577067D02*
X170403057Y-67505638D01*
X170403057Y-67505638D02*
X170474485Y-67505638D01*
X170474485Y-67505638D02*
X170617342Y-67577067D01*
X170617342Y-67577067D02*
X170688771Y-67719924D01*
X170688771Y-67719924D02*
X170688771Y-67934210D01*
X170688771Y-67934210D02*
X170760200Y-68077067D01*
X170760200Y-68077067D02*
X170903057Y-68148495D01*
X170903057Y-68148495D02*
X170974485Y-68148495D01*
X170974485Y-68148495D02*
X171117342Y-68077067D01*
X171117342Y-68077067D02*
X171188771Y-67934210D01*
X171188771Y-67934210D02*
X171188771Y-67719924D01*
X171188771Y-67719924D02*
X171117342Y-67577067D01*
X171188771Y-65934209D02*
X171188771Y-65362781D01*
X170188771Y-65719924D02*
X171474485Y-65719924D01*
X171474485Y-65719924D02*
X171617342Y-65648495D01*
X171617342Y-65648495D02*
X171688771Y-65505638D01*
X171688771Y-65505638D02*
X171688771Y-65362781D01*
X170188771Y-64648495D02*
X170260200Y-64791352D01*
X170260200Y-64791352D02*
X170331628Y-64862781D01*
X170331628Y-64862781D02*
X170474485Y-64934209D01*
X170474485Y-64934209D02*
X170903057Y-64934209D01*
X170903057Y-64934209D02*
X171045914Y-64862781D01*
X171045914Y-64862781D02*
X171117342Y-64791352D01*
X171117342Y-64791352D02*
X171188771Y-64648495D01*
X171188771Y-64648495D02*
X171188771Y-64434209D01*
X171188771Y-64434209D02*
X171117342Y-64291352D01*
X171117342Y-64291352D02*
X171045914Y-64219924D01*
X171045914Y-64219924D02*
X170903057Y-64148495D01*
X170903057Y-64148495D02*
X170474485Y-64148495D01*
X170474485Y-64148495D02*
X170331628Y-64219924D01*
X170331628Y-64219924D02*
X170260200Y-64291352D01*
X170260200Y-64291352D02*
X170188771Y-64434209D01*
X170188771Y-64434209D02*
X170188771Y-64648495D01*
X170188771Y-63505638D02*
X171188771Y-63505638D01*
X170903057Y-63505638D02*
X171045914Y-63434209D01*
X171045914Y-63434209D02*
X171117342Y-63362781D01*
X171117342Y-63362781D02*
X171188771Y-63219923D01*
X171188771Y-63219923D02*
X171188771Y-63077066D01*
X170188771Y-61219924D02*
X170260200Y-61362781D01*
X170260200Y-61362781D02*
X170403057Y-61434210D01*
X170403057Y-61434210D02*
X171688771Y-61434210D01*
X170188771Y-60434210D02*
X170260200Y-60577067D01*
X170260200Y-60577067D02*
X170331628Y-60648496D01*
X170331628Y-60648496D02*
X170474485Y-60719924D01*
X170474485Y-60719924D02*
X170903057Y-60719924D01*
X170903057Y-60719924D02*
X171045914Y-60648496D01*
X171045914Y-60648496D02*
X171117342Y-60577067D01*
X171117342Y-60577067D02*
X171188771Y-60434210D01*
X171188771Y-60434210D02*
X171188771Y-60219924D01*
X171188771Y-60219924D02*
X171117342Y-60077067D01*
X171117342Y-60077067D02*
X171045914Y-60005639D01*
X171045914Y-60005639D02*
X170903057Y-59934210D01*
X170903057Y-59934210D02*
X170474485Y-59934210D01*
X170474485Y-59934210D02*
X170331628Y-60005639D01*
X170331628Y-60005639D02*
X170260200Y-60077067D01*
X170260200Y-60077067D02*
X170188771Y-60219924D01*
X170188771Y-60219924D02*
X170188771Y-60434210D01*
X170188771Y-59077067D02*
X170260200Y-59219924D01*
X170260200Y-59219924D02*
X170331628Y-59291353D01*
X170331628Y-59291353D02*
X170474485Y-59362781D01*
X170474485Y-59362781D02*
X170903057Y-59362781D01*
X170903057Y-59362781D02*
X171045914Y-59291353D01*
X171045914Y-59291353D02*
X171117342Y-59219924D01*
X171117342Y-59219924D02*
X171188771Y-59077067D01*
X171188771Y-59077067D02*
X171188771Y-58862781D01*
X171188771Y-58862781D02*
X171117342Y-58719924D01*
X171117342Y-58719924D02*
X171045914Y-58648496D01*
X171045914Y-58648496D02*
X170903057Y-58577067D01*
X170903057Y-58577067D02*
X170474485Y-58577067D01*
X170474485Y-58577067D02*
X170331628Y-58648496D01*
X170331628Y-58648496D02*
X170260200Y-58719924D01*
X170260200Y-58719924D02*
X170188771Y-58862781D01*
X170188771Y-58862781D02*
X170188771Y-59077067D01*
X170188771Y-57934210D02*
X171688771Y-57934210D01*
X170760200Y-57791353D02*
X170188771Y-57362781D01*
X171188771Y-57362781D02*
X170617342Y-57934210D01*
X170188771Y-56719924D02*
X171188771Y-56719924D01*
X171688771Y-56719924D02*
X171617342Y-56791352D01*
X171617342Y-56791352D02*
X171545914Y-56719924D01*
X171545914Y-56719924D02*
X171617342Y-56648495D01*
X171617342Y-56648495D02*
X171688771Y-56719924D01*
X171688771Y-56719924D02*
X171545914Y-56719924D01*
X171188771Y-56005638D02*
X170188771Y-56005638D01*
X171045914Y-56005638D02*
X171117342Y-55934209D01*
X171117342Y-55934209D02*
X171188771Y-55791352D01*
X171188771Y-55791352D02*
X171188771Y-55577066D01*
X171188771Y-55577066D02*
X171117342Y-55434209D01*
X171117342Y-55434209D02*
X170974485Y-55362781D01*
X170974485Y-55362781D02*
X170188771Y-55362781D01*
X171188771Y-54005638D02*
X169974485Y-54005638D01*
X169974485Y-54005638D02*
X169831628Y-54077066D01*
X169831628Y-54077066D02*
X169760200Y-54148495D01*
X169760200Y-54148495D02*
X169688771Y-54291352D01*
X169688771Y-54291352D02*
X169688771Y-54505638D01*
X169688771Y-54505638D02*
X169760200Y-54648495D01*
X170260200Y-54005638D02*
X170188771Y-54148495D01*
X170188771Y-54148495D02*
X170188771Y-54434209D01*
X170188771Y-54434209D02*
X170260200Y-54577066D01*
X170260200Y-54577066D02*
X170331628Y-54648495D01*
X170331628Y-54648495D02*
X170474485Y-54719923D01*
X170474485Y-54719923D02*
X170903057Y-54719923D01*
X170903057Y-54719923D02*
X171045914Y-54648495D01*
X171045914Y-54648495D02*
X171117342Y-54577066D01*
X171117342Y-54577066D02*
X171188771Y-54434209D01*
X171188771Y-54434209D02*
X171188771Y-54148495D01*
X171188771Y-54148495D02*
X171117342Y-54005638D01*
X170188771Y-51934209D02*
X170260200Y-52077066D01*
X170260200Y-52077066D02*
X170331628Y-52148495D01*
X170331628Y-52148495D02*
X170474485Y-52219923D01*
X170474485Y-52219923D02*
X170903057Y-52219923D01*
X170903057Y-52219923D02*
X171045914Y-52148495D01*
X171045914Y-52148495D02*
X171117342Y-52077066D01*
X171117342Y-52077066D02*
X171188771Y-51934209D01*
X171188771Y-51934209D02*
X171188771Y-51719923D01*
X171188771Y-51719923D02*
X171117342Y-51577066D01*
X171117342Y-51577066D02*
X171045914Y-51505638D01*
X171045914Y-51505638D02*
X170903057Y-51434209D01*
X170903057Y-51434209D02*
X170474485Y-51434209D01*
X170474485Y-51434209D02*
X170331628Y-51505638D01*
X170331628Y-51505638D02*
X170260200Y-51577066D01*
X170260200Y-51577066D02*
X170188771Y-51719923D01*
X170188771Y-51719923D02*
X170188771Y-51934209D01*
X171188771Y-50791352D02*
X170188771Y-50791352D01*
X171045914Y-50791352D02*
X171117342Y-50719923D01*
X171117342Y-50719923D02*
X171188771Y-50577066D01*
X171188771Y-50577066D02*
X171188771Y-50362780D01*
X171188771Y-50362780D02*
X171117342Y-50219923D01*
X171117342Y-50219923D02*
X170974485Y-50148495D01*
X170974485Y-50148495D02*
X170188771Y-50148495D01*
X171188771Y-48505637D02*
X171188771Y-47934209D01*
X171688771Y-48291352D02*
X170403057Y-48291352D01*
X170403057Y-48291352D02*
X170260200Y-48219923D01*
X170260200Y-48219923D02*
X170188771Y-48077066D01*
X170188771Y-48077066D02*
X170188771Y-47934209D01*
X170188771Y-47434209D02*
X171688771Y-47434209D01*
X170188771Y-46791352D02*
X170974485Y-46791352D01*
X170974485Y-46791352D02*
X171117342Y-46862780D01*
X171117342Y-46862780D02*
X171188771Y-47005637D01*
X171188771Y-47005637D02*
X171188771Y-47219923D01*
X171188771Y-47219923D02*
X171117342Y-47362780D01*
X171117342Y-47362780D02*
X171045914Y-47434209D01*
X170188771Y-46077066D02*
X171188771Y-46077066D01*
X171688771Y-46077066D02*
X171617342Y-46148494D01*
X171617342Y-46148494D02*
X171545914Y-46077066D01*
X171545914Y-46077066D02*
X171617342Y-46005637D01*
X171617342Y-46005637D02*
X171688771Y-46077066D01*
X171688771Y-46077066D02*
X171545914Y-46077066D01*
X170260200Y-45434208D02*
X170188771Y-45291351D01*
X170188771Y-45291351D02*
X170188771Y-45005637D01*
X170188771Y-45005637D02*
X170260200Y-44862780D01*
X170260200Y-44862780D02*
X170403057Y-44791351D01*
X170403057Y-44791351D02*
X170474485Y-44791351D01*
X170474485Y-44791351D02*
X170617342Y-44862780D01*
X170617342Y-44862780D02*
X170688771Y-45005637D01*
X170688771Y-45005637D02*
X170688771Y-45219923D01*
X170688771Y-45219923D02*
X170760200Y-45362780D01*
X170760200Y-45362780D02*
X170903057Y-45434208D01*
X170903057Y-45434208D02*
X170974485Y-45434208D01*
X170974485Y-45434208D02*
X171117342Y-45362780D01*
X171117342Y-45362780D02*
X171188771Y-45219923D01*
X171188771Y-45219923D02*
X171188771Y-45005637D01*
X171188771Y-45005637D02*
X171117342Y-44862780D01*
X170260200Y-43077065D02*
X170188771Y-42934208D01*
X170188771Y-42934208D02*
X170188771Y-42648494D01*
X170188771Y-42648494D02*
X170260200Y-42505637D01*
X170260200Y-42505637D02*
X170403057Y-42434208D01*
X170403057Y-42434208D02*
X170474485Y-42434208D01*
X170474485Y-42434208D02*
X170617342Y-42505637D01*
X170617342Y-42505637D02*
X170688771Y-42648494D01*
X170688771Y-42648494D02*
X170688771Y-42862780D01*
X170688771Y-42862780D02*
X170760200Y-43005637D01*
X170760200Y-43005637D02*
X170903057Y-43077065D01*
X170903057Y-43077065D02*
X170974485Y-43077065D01*
X170974485Y-43077065D02*
X171117342Y-43005637D01*
X171117342Y-43005637D02*
X171188771Y-42862780D01*
X171188771Y-42862780D02*
X171188771Y-42648494D01*
X171188771Y-42648494D02*
X171117342Y-42505637D01*
X170188771Y-41791351D02*
X171188771Y-41791351D01*
X171688771Y-41791351D02*
X171617342Y-41862779D01*
X171617342Y-41862779D02*
X171545914Y-41791351D01*
X171545914Y-41791351D02*
X171617342Y-41719922D01*
X171617342Y-41719922D02*
X171688771Y-41791351D01*
X171688771Y-41791351D02*
X171545914Y-41791351D01*
X170188771Y-40434208D02*
X171688771Y-40434208D01*
X170260200Y-40434208D02*
X170188771Y-40577065D01*
X170188771Y-40577065D02*
X170188771Y-40862779D01*
X170188771Y-40862779D02*
X170260200Y-41005636D01*
X170260200Y-41005636D02*
X170331628Y-41077065D01*
X170331628Y-41077065D02*
X170474485Y-41148493D01*
X170474485Y-41148493D02*
X170903057Y-41148493D01*
X170903057Y-41148493D02*
X171045914Y-41077065D01*
X171045914Y-41077065D02*
X171117342Y-41005636D01*
X171117342Y-41005636D02*
X171188771Y-40862779D01*
X171188771Y-40862779D02*
X171188771Y-40577065D01*
X171188771Y-40577065D02*
X171117342Y-40434208D01*
X170260200Y-39148493D02*
X170188771Y-39291350D01*
X170188771Y-39291350D02*
X170188771Y-39577065D01*
X170188771Y-39577065D02*
X170260200Y-39719922D01*
X170260200Y-39719922D02*
X170403057Y-39791350D01*
X170403057Y-39791350D02*
X170974485Y-39791350D01*
X170974485Y-39791350D02*
X171117342Y-39719922D01*
X171117342Y-39719922D02*
X171188771Y-39577065D01*
X171188771Y-39577065D02*
X171188771Y-39291350D01*
X171188771Y-39291350D02*
X171117342Y-39148493D01*
X171117342Y-39148493D02*
X170974485Y-39077065D01*
X170974485Y-39077065D02*
X170831628Y-39077065D01*
X170831628Y-39077065D02*
X170688771Y-39791350D01*
X170331628Y-37291351D02*
X170260200Y-37219922D01*
X170260200Y-37219922D02*
X170188771Y-37291351D01*
X170188771Y-37291351D02*
X170260200Y-37362779D01*
X170260200Y-37362779D02*
X170331628Y-37291351D01*
X170331628Y-37291351D02*
X170188771Y-37291351D01*
X171117342Y-37291351D02*
X171045914Y-37219922D01*
X171045914Y-37219922D02*
X170974485Y-37291351D01*
X170974485Y-37291351D02*
X171045914Y-37362779D01*
X171045914Y-37362779D02*
X171117342Y-37291351D01*
X171117342Y-37291351D02*
X170974485Y-37291351D01*
X169617342Y-36719922D02*
X169688771Y-36648493D01*
X169688771Y-36648493D02*
X169903057Y-36505636D01*
X169903057Y-36505636D02*
X170045914Y-36434208D01*
X170045914Y-36434208D02*
X170260200Y-36362779D01*
X170260200Y-36362779D02*
X170617342Y-36291350D01*
X170617342Y-36291350D02*
X170903057Y-36291350D01*
X170903057Y-36291350D02*
X171260200Y-36362779D01*
X171260200Y-36362779D02*
X171474485Y-36434208D01*
X171474485Y-36434208D02*
X171617342Y-36505636D01*
X171617342Y-36505636D02*
X171831628Y-36648493D01*
X171831628Y-36648493D02*
X171903057Y-36719922D01*
D11*
X154000000Y-94500000D02*
X157300000Y-94500000D01*
X158500000Y-94500000D02*
X160000000Y-94500000D01*
D10*
X162600877Y-94750038D02*
X162981830Y-94750038D01*
X162981830Y-94750038D02*
X163172306Y-94845276D01*
X163172306Y-94845276D02*
X163267544Y-94940514D01*
X163267544Y-94940514D02*
X163458020Y-95226228D01*
X163458020Y-95226228D02*
X163553258Y-95607180D01*
X163553258Y-95607180D02*
X163553258Y-96369085D01*
X163553258Y-96369085D02*
X163458020Y-96559561D01*
X163458020Y-96559561D02*
X163362782Y-96654800D01*
X163362782Y-96654800D02*
X163172306Y-96750038D01*
X163172306Y-96750038D02*
X162791353Y-96750038D01*
X162791353Y-96750038D02*
X162600877Y-96654800D01*
X162600877Y-96654800D02*
X162505639Y-96559561D01*
X162505639Y-96559561D02*
X162410401Y-96369085D01*
X162410401Y-96369085D02*
X162410401Y-95892895D01*
X162410401Y-95892895D02*
X162505639Y-95702419D01*
X162505639Y-95702419D02*
X162600877Y-95607180D01*
X162600877Y-95607180D02*
X162791353Y-95511942D01*
X162791353Y-95511942D02*
X163172306Y-95511942D01*
X163172306Y-95511942D02*
X163362782Y-95607180D01*
X163362782Y-95607180D02*
X163458020Y-95702419D01*
X163458020Y-95702419D02*
X163553258Y-95892895D01*
X161553258Y-96750038D02*
X161553258Y-95416704D01*
X161553258Y-95607180D02*
X161458020Y-95511942D01*
X161458020Y-95511942D02*
X161267544Y-95416704D01*
X161267544Y-95416704D02*
X160981829Y-95416704D01*
X160981829Y-95416704D02*
X160791353Y-95511942D01*
X160791353Y-95511942D02*
X160696115Y-95702419D01*
X160696115Y-95702419D02*
X160696115Y-96750038D01*
X160696115Y-95702419D02*
X160600877Y-95511942D01*
X160600877Y-95511942D02*
X160410401Y-95416704D01*
X160410401Y-95416704D02*
X160124687Y-95416704D01*
X160124687Y-95416704D02*
X159934210Y-95511942D01*
X159934210Y-95511942D02*
X159838972Y-95702419D01*
X159838972Y-95702419D02*
X159838972Y-96750038D01*
X158886591Y-96750038D02*
X158886591Y-95416704D01*
X158886591Y-95607180D02*
X158791353Y-95511942D01*
X158791353Y-95511942D02*
X158600877Y-95416704D01*
X158600877Y-95416704D02*
X158315162Y-95416704D01*
X158315162Y-95416704D02*
X158124686Y-95511942D01*
X158124686Y-95511942D02*
X158029448Y-95702419D01*
X158029448Y-95702419D02*
X158029448Y-96750038D01*
X158029448Y-95702419D02*
X157934210Y-95511942D01*
X157934210Y-95511942D02*
X157743734Y-95416704D01*
X157743734Y-95416704D02*
X157458020Y-95416704D01*
X157458020Y-95416704D02*
X157267543Y-95511942D01*
X157267543Y-95511942D02*
X157172305Y-95702419D01*
X157172305Y-95702419D02*
X157172305Y-96750038D01*
D11*
X160000000Y-80500000D02*
X160000000Y-83800000D01*
X160000000Y-85000000D02*
X160000000Y-85060000D01*
X160000000Y-86260000D02*
X160000000Y-89560000D01*
X160000000Y-90760000D02*
X160000000Y-90820000D01*
X160000000Y-92020000D02*
X160000000Y-94500000D01*
X160000000Y-27500000D02*
X160000000Y-30800000D01*
X160000000Y-32000000D02*
X160000000Y-32060000D01*
X160000000Y-33260000D02*
X160000000Y-36560000D01*
X160000000Y-37760000D02*
X160000000Y-37820000D01*
D10*
X160500000Y-27500000D02*
X160000000Y-27500000D01*
X166500000Y-27500000D02*
X168000000Y-27500000D01*
X152083295Y-86100877D02*
X150749961Y-86100877D01*
X152845200Y-86577068D02*
X151416628Y-87053258D01*
X151416628Y-87053258D02*
X151416628Y-85815163D01*
X150749961Y-85053258D02*
X152083295Y-85053258D01*
X151892819Y-85053258D02*
X151988057Y-84958020D01*
X151988057Y-84958020D02*
X152083295Y-84767544D01*
X152083295Y-84767544D02*
X152083295Y-84481829D01*
X152083295Y-84481829D02*
X151988057Y-84291353D01*
X151988057Y-84291353D02*
X151797580Y-84196115D01*
X151797580Y-84196115D02*
X150749961Y-84196115D01*
X151797580Y-84196115D02*
X151988057Y-84100877D01*
X151988057Y-84100877D02*
X152083295Y-83910401D01*
X152083295Y-83910401D02*
X152083295Y-83624687D01*
X152083295Y-83624687D02*
X151988057Y-83434210D01*
X151988057Y-83434210D02*
X151797580Y-83338972D01*
X151797580Y-83338972D02*
X150749961Y-83338972D01*
X150749961Y-82386591D02*
X152083295Y-82386591D01*
X151892819Y-82386591D02*
X151988057Y-82291353D01*
X151988057Y-82291353D02*
X152083295Y-82100877D01*
X152083295Y-82100877D02*
X152083295Y-81815162D01*
X152083295Y-81815162D02*
X151988057Y-81624686D01*
X151988057Y-81624686D02*
X151797580Y-81529448D01*
X151797580Y-81529448D02*
X150749961Y-81529448D01*
X151797580Y-81529448D02*
X151988057Y-81434210D01*
X151988057Y-81434210D02*
X152083295Y-81243734D01*
X152083295Y-81243734D02*
X152083295Y-80958020D01*
X152083295Y-80958020D02*
X151988057Y-80767543D01*
X151988057Y-80767543D02*
X151797580Y-80672305D01*
X151797580Y-80672305D02*
X150749961Y-80672305D01*
D11*
X150000000Y-88000000D02*
X150000000Y-91000000D01*
X154000000Y-88000000D02*
X153940000Y-88000000D01*
X152740000Y-88000000D02*
X152680000Y-88000000D01*
X151480000Y-88000000D02*
X151420000Y-88000000D01*
X150220000Y-88000000D02*
X150160000Y-88000000D01*
X154000000Y-94500000D02*
X154000000Y-88000000D01*
D10*
X161250038Y-82399122D02*
X161250038Y-82018169D01*
X161250038Y-82018169D02*
X161345276Y-81827693D01*
X161345276Y-81827693D02*
X161440514Y-81732455D01*
X161440514Y-81732455D02*
X161726228Y-81541979D01*
X161726228Y-81541979D02*
X162107180Y-81446741D01*
X162107180Y-81446741D02*
X162869085Y-81446741D01*
X162869085Y-81446741D02*
X163059561Y-81541979D01*
X163059561Y-81541979D02*
X163154800Y-81637217D01*
X163154800Y-81637217D02*
X163250038Y-81827693D01*
X163250038Y-81827693D02*
X163250038Y-82208646D01*
X163250038Y-82208646D02*
X163154800Y-82399122D01*
X163154800Y-82399122D02*
X163059561Y-82494360D01*
X163059561Y-82494360D02*
X162869085Y-82589598D01*
X162869085Y-82589598D02*
X162392895Y-82589598D01*
X162392895Y-82589598D02*
X162202419Y-82494360D01*
X162202419Y-82494360D02*
X162107180Y-82399122D01*
X162107180Y-82399122D02*
X162011942Y-82208646D01*
X162011942Y-82208646D02*
X162011942Y-81827693D01*
X162011942Y-81827693D02*
X162107180Y-81637217D01*
X162107180Y-81637217D02*
X162202419Y-81541979D01*
X162202419Y-81541979D02*
X162392895Y-81446741D01*
X161250038Y-83256265D02*
X161250038Y-84589598D01*
X161250038Y-84589598D02*
X163250038Y-83732455D01*
X163250038Y-85351503D02*
X161916704Y-85351503D01*
X162107180Y-85351503D02*
X162011942Y-85446741D01*
X162011942Y-85446741D02*
X161916704Y-85637217D01*
X161916704Y-85637217D02*
X161916704Y-85922932D01*
X161916704Y-85922932D02*
X162011942Y-86113408D01*
X162011942Y-86113408D02*
X162202419Y-86208646D01*
X162202419Y-86208646D02*
X163250038Y-86208646D01*
X162202419Y-86208646D02*
X162011942Y-86303884D01*
X162011942Y-86303884D02*
X161916704Y-86494360D01*
X161916704Y-86494360D02*
X161916704Y-86780074D01*
X161916704Y-86780074D02*
X162011942Y-86970551D01*
X162011942Y-86970551D02*
X162202419Y-87065789D01*
X162202419Y-87065789D02*
X163250038Y-87065789D01*
X163250038Y-88018170D02*
X161916704Y-88018170D01*
X162107180Y-88018170D02*
X162011942Y-88113408D01*
X162011942Y-88113408D02*
X161916704Y-88303884D01*
X161916704Y-88303884D02*
X161916704Y-88589599D01*
X161916704Y-88589599D02*
X162011942Y-88780075D01*
X162011942Y-88780075D02*
X162202419Y-88875313D01*
X162202419Y-88875313D02*
X163250038Y-88875313D01*
X162202419Y-88875313D02*
X162011942Y-88970551D01*
X162011942Y-88970551D02*
X161916704Y-89161027D01*
X161916704Y-89161027D02*
X161916704Y-89446741D01*
X161916704Y-89446741D02*
X162011942Y-89637218D01*
X162011942Y-89637218D02*
X162202419Y-89732456D01*
X162202419Y-89732456D02*
X163250038Y-89732456D01*
D12*
X192333333Y-82654819D02*
X192333333Y-83369104D01*
X192333333Y-83369104D02*
X192380952Y-83511961D01*
X192380952Y-83511961D02*
X192476190Y-83607200D01*
X192476190Y-83607200D02*
X192619047Y-83654819D01*
X192619047Y-83654819D02*
X192714285Y-83654819D01*
X191857142Y-83654819D02*
X191857142Y-82654819D01*
X191857142Y-82654819D02*
X191476190Y-82654819D01*
X191476190Y-82654819D02*
X191380952Y-82702438D01*
X191380952Y-82702438D02*
X191333333Y-82750057D01*
X191333333Y-82750057D02*
X191285714Y-82845295D01*
X191285714Y-82845295D02*
X191285714Y-82988152D01*
X191285714Y-82988152D02*
X191333333Y-83083390D01*
X191333333Y-83083390D02*
X191380952Y-83131009D01*
X191380952Y-83131009D02*
X191476190Y-83178628D01*
X191476190Y-83178628D02*
X191857142Y-83178628D01*
X190904761Y-82750057D02*
X190857142Y-82702438D01*
X190857142Y-82702438D02*
X190761904Y-82654819D01*
X190761904Y-82654819D02*
X190523809Y-82654819D01*
X190523809Y-82654819D02*
X190428571Y-82702438D01*
X190428571Y-82702438D02*
X190380952Y-82750057D01*
X190380952Y-82750057D02*
X190333333Y-82845295D01*
X190333333Y-82845295D02*
X190333333Y-82940533D01*
X190333333Y-82940533D02*
X190380952Y-83083390D01*
X190380952Y-83083390D02*
X190952380Y-83654819D01*
X190952380Y-83654819D02*
X190333333Y-83654819D01*
X192290241Y-86613465D02*
X192290241Y-87327750D01*
X192290241Y-87327750D02*
X192337860Y-87470607D01*
X192337860Y-87470607D02*
X192433098Y-87565846D01*
X192433098Y-87565846D02*
X192575955Y-87613465D01*
X192575955Y-87613465D02*
X192671193Y-87613465D01*
X191814050Y-87613465D02*
X191814050Y-86613465D01*
X191814050Y-86613465D02*
X191433098Y-86613465D01*
X191433098Y-86613465D02*
X191337860Y-86661084D01*
X191337860Y-86661084D02*
X191290241Y-86708703D01*
X191290241Y-86708703D02*
X191242622Y-86803941D01*
X191242622Y-86803941D02*
X191242622Y-86946798D01*
X191242622Y-86946798D02*
X191290241Y-87042036D01*
X191290241Y-87042036D02*
X191337860Y-87089655D01*
X191337860Y-87089655D02*
X191433098Y-87137274D01*
X191433098Y-87137274D02*
X191814050Y-87137274D01*
X190290241Y-87613465D02*
X190861669Y-87613465D01*
X190575955Y-87613465D02*
X190575955Y-86613465D01*
X190575955Y-86613465D02*
X190671193Y-86756322D01*
X190671193Y-86756322D02*
X190766431Y-86851560D01*
X190766431Y-86851560D02*
X190861669Y-86899179D01*
D13*
%TO.C,JP2*%
X190100000Y-84000000D02*
X192900000Y-84000000D01*
X192900000Y-84000000D02*
X192900000Y-86000000D01*
X190100000Y-86000000D02*
X190100000Y-84000000D01*
X192900000Y-86000000D02*
X190100000Y-86000000D01*
%TO.C,JP1*%
X192856908Y-89958646D02*
X190056908Y-89958646D01*
X190056908Y-89958646D02*
X190056908Y-87958646D01*
X192856908Y-87958646D02*
X192856908Y-89958646D01*
X190056908Y-87958646D02*
X192856908Y-87958646D01*
D14*
%TO.C,J2*%
X168629400Y-94399999D02*
G75*
G02*
X167867400Y-94399999I-381000J0D01*
G01*
X167867400Y-94399999D02*
G75*
G02*
X168629400Y-94399999I381000J0D01*
G01*
%TD*%
M02*
