M48
; DRILL file {KiCad 8.0.7} date 2024-12-26T00:03:09+0800
; FORMAT={-:-/ absolute / inch / decimal}
; #@! TF.CreationDate,2024-12-26T00:03:09+08:00
; #@! TF.GenerationSoftware,Kicad,Pcbnew,8.0.7
; #@! TF.FileFunction,Plated,1,2,PTH
FMAT,2
INCH
; #@! TA.AperFunction,Plated,PTH,ViaDrill
T1C0.0118
; #@! TA.AperFunction,Plated,PTH,ComponentDrill
T2C0.0160
; #@! TA.AperFunction,Plated,PTH,ComponentDrill
T3C0.0394
%
G90
G05
T1
X5.8661Y-3.4055
X5.8858Y-3.5433
X5.9646Y-3.7992
X5.9843Y-3.2283
X5.9925Y-3.6024
X6.0039Y-3.7992
X6.0236Y-3.7205
X6.0827Y-3.2874
X6.0827Y-3.3465
X6.0827Y-3.7992
X6.1004Y-3.1693
X6.1024Y-3.4252
X6.1329Y-3.4163
X6.1614Y-3.7205
X6.2008Y-3.2965
X6.2008Y-3.6531
X6.2205Y-3.3268
X6.2205Y-3.4055
X6.2766Y-3.6479
X6.2983Y-3.6224
X6.2992Y-3.2177
X6.2992Y-3.5827
X6.3367Y-3.7221
X6.3386Y-3.7598
X6.3583Y-3.2374
X6.3583Y-3.6024
X6.378Y-3.5236
X6.4116Y-3.2935
X6.4567Y-3.6481
X6.5241Y-3.7908
X6.5551Y-3.6811
X6.5748Y-3.1102
X6.5748Y-3.1693
X6.5945Y-3.3268
X6.6142Y-3.7205
X6.6339Y-3.5827
X6.6339Y-3.622
X6.6535Y-1.1614
X6.6732Y-1.3583
X6.7027Y-3.1397
X6.752Y-3.1693
X6.7717Y-1.1811
X6.811Y-3.189
X6.8307Y-3.2677
X6.8307Y-3.6024
X6.8307Y-3.7598
X6.8652Y-3.7279
X6.9094Y-3.7992
X6.9902Y-3.7992
X7.1063Y-3.3661
X7.1457Y-3.6811
X7.2441Y-1.2992
X7.272Y-3.6614
X7.3228Y-3.189
X7.3425Y-3.4449
X7.3425Y-3.7992
X7.4606Y-1.1811
X7.5591Y-3.5039
X7.6181Y-3.2087
T2
X6.7126Y-3.5039
X6.7126Y-3.5394
X6.7126Y-3.5748
X6.7126Y-3.6102
X6.7126Y-3.6457
X6.7126Y-3.6811
X6.7126Y-3.7165
X6.7433Y-3.5217
X6.7433Y-3.5571
X6.7433Y-3.5925
X6.7433Y-3.628
X6.7433Y-3.6634
X6.7433Y-3.6988
X6.7433Y-3.7343
T3
X6.6126Y-1.0827
X6.7126Y-1.0827
X6.8126Y-1.0827
X6.9126Y-1.0827
X7.2047Y-1.063
X7.3047Y-1.063
X7.4047Y-1.063
X7.4606Y-3.3661
X7.4606Y-3.4661
X7.4606Y-3.5661
X7.4606Y-3.6661
X7.4606Y-3.7661
X7.5047Y-1.063
X7.6181Y-3.4646
X7.7181Y-3.4646
X7.8181Y-3.4646
M30
