%TF.GenerationSoftware,KiCad,Pcbnew,8.0.7*%
%TF.CreationDate,2024-12-26T00:03:12+08:00*%
%TF.ProjectId,The Button,54686520-4275-4747-946f-6e2e6b696361,rev?*%
%TF.SameCoordinates,Original*%
%TF.FileFunction,Copper,L2,Bot*%
%TF.FilePolarity,Positive*%
%FSLAX46Y46*%
G04 Gerber Fmt 4.6, Leading zero omitted, Abs format (unit mm)*
G04 Created by KiCad (PCBNEW 8.0.7) date 2024-12-26 00:03:12*
%MOMM*%
%LPD*%
G01*
G04 APERTURE LIST*
%TA.AperFunction,ComponentPad*%
%ADD10R,1.700000X1.700000*%
%TD*%
%TA.AperFunction,ComponentPad*%
%ADD11O,1.700000X1.700000*%
%TD*%
%TA.AperFunction,ComponentPad*%
%ADD12C,0.609600*%
%TD*%
%TA.AperFunction,ViaPad*%
%ADD13C,0.600000*%
%TD*%
%TA.AperFunction,Conductor*%
%ADD14C,0.200000*%
%TD*%
%TA.AperFunction,Conductor*%
%ADD15C,0.160000*%
%TD*%
G04 APERTURE END LIST*
D10*
%TO.P,J5,1,Pin_1*%
%TO.N,VDD_3V*%
X189500000Y-85500000D03*
D11*
%TO.P,J5,2,Pin_2*%
%TO.N,SWDIO*%
X189500000Y-88040000D03*
%TO.P,J5,3,Pin_3*%
%TO.N,SWDCLK*%
X189500000Y-90580000D03*
%TO.P,J5,4,Pin_4*%
%TO.N,NRST*%
X189500000Y-93120000D03*
%TO.P,J5,5,Pin_5*%
%TO.N,GND*%
X189500000Y-95660000D03*
%TD*%
D10*
%TO.P,J1,1,Pin_1*%
%TO.N,GND*%
X193500000Y-88000000D03*
D11*
%TO.P,J1,2,Pin_2*%
X196040000Y-88000000D03*
%TO.P,J1,3,Pin_3*%
X198580000Y-88000000D03*
%TD*%
D10*
%TO.P,J3,1,Pin_1*%
%TO.N,GND*%
X183000000Y-27000000D03*
D11*
%TO.P,J3,2,Pin_2*%
%TO.N,Net-(J3-Pin_2)*%
X185540000Y-27000000D03*
%TO.P,J3,3,Pin_3*%
%TO.N,Net-(J3-Pin_3)*%
X188080000Y-27000000D03*
%TO.P,J3,4,Pin_4*%
%TO.N,Net-(J3-Pin_4)*%
X190620000Y-27000000D03*
%TD*%
D12*
%TO.P,J2,A1,GND*%
%TO.N,GND*%
X170500000Y-94399999D03*
%TO.P,J2,A4,VBUS*%
%TO.N,VDDA_5V*%
X170500000Y-93499998D03*
%TO.P,J2,A5,CC1*%
%TO.N,Net-(J2-CC1)*%
X170500000Y-92600000D03*
%TO.P,J2,A6,DP1*%
%TO.N,D_P*%
X170500000Y-91699999D03*
%TO.P,J2,A7,DN1*%
%TO.N,D_N*%
X170500000Y-90799999D03*
%TO.P,J2,A9,VBUS*%
%TO.N,VDDA_5V*%
X170500000Y-89900000D03*
%TO.P,J2,A12,GND*%
%TO.N,GND*%
X170500000Y-89000000D03*
%TO.P,J2,B1,GND*%
X171280001Y-89450000D03*
%TO.P,J2,B4,VBUS*%
%TO.N,VDDA_5V*%
X171280001Y-90350000D03*
%TO.P,J2,B5,CC2*%
%TO.N,Net-(J2-CC2)*%
X171280001Y-91249999D03*
%TO.P,J2,B6,DP2*%
%TO.N,D_P*%
X171280001Y-92149999D03*
%TO.P,J2,B7,DN2*%
%TO.N,D_N*%
X171280001Y-93050000D03*
%TO.P,J2,B9,VBUS*%
%TO.N,VDDA_5V*%
X171280001Y-93949998D03*
%TO.P,J2,B12,GND*%
%TO.N,GND*%
X171280001Y-94849999D03*
%TD*%
D10*
%TO.P,J4,1,Pin_1*%
%TO.N,GND*%
X175580000Y-27500000D03*
D11*
%TO.P,J4,2,Pin_2*%
%TO.N,/BTN_LO*%
X173040000Y-27500000D03*
%TO.P,J4,3,Pin_3*%
%TO.N,/BTN_HI*%
X170500000Y-27500000D03*
%TO.P,J4,4,Pin_4*%
%TO.N,/BTN_KEY*%
X167960000Y-27500000D03*
%TD*%
D13*
%TO.N,GND*%
X171500000Y-80500000D03*
X162000000Y-89500000D03*
X172000000Y-30000000D03*
X189500000Y-30000000D03*
X186500000Y-96500000D03*
X180500000Y-85500000D03*
X184710000Y-93000000D03*
X170247954Y-79747954D03*
X173000000Y-81000000D03*
X162853575Y-83654610D03*
X186500000Y-87500000D03*
X153000000Y-94500000D03*
X184000000Y-33000000D03*
X166500000Y-93500000D03*
X159977283Y-92009659D03*
X149000000Y-86500000D03*
X158000000Y-86500000D03*
X173500000Y-83000000D03*
X155000000Y-87000000D03*
X157500000Y-83730000D03*
X181500000Y-93500000D03*
X149500000Y-90000000D03*
X193500000Y-81500000D03*
X151500000Y-96500000D03*
X152210000Y-91502046D03*
X156500000Y-94500000D03*
X169500000Y-34500000D03*
X167500000Y-84500000D03*
X152000000Y-82000000D03*
X186000000Y-81000000D03*
X169000000Y-29500000D03*
%TO.N,/BTN_KEY*%
X154950457Y-80500000D03*
X167000000Y-79000000D03*
%TO.N,/BTN_HI*%
X154500000Y-83500000D03*
X167000000Y-80500000D03*
%TO.N,/BTN_LO*%
X158000000Y-84500000D03*
X154500000Y-85000000D03*
%TO.N,USR_LED_2*%
X160000000Y-91000000D03*
X164000000Y-92662500D03*
X155775000Y-86775000D03*
X177550000Y-96500002D03*
%TO.N,Net-(D3-K)*%
X174375088Y-94687585D03*
X175500000Y-96500000D03*
%TO.N,USR_LED_1*%
X161500000Y-91500000D03*
X165712500Y-96287500D03*
%TO.N,D_N*%
X173500000Y-95500000D03*
X168000000Y-94500000D03*
X154500000Y-96500000D03*
X168500000Y-91000000D03*
X152500000Y-96500000D03*
%TO.N,Net-(J2-CC2)*%
X173500000Y-91500000D03*
%TO.N,Net-(J2-CC1)*%
X168500000Y-92000000D03*
%TO.N,Net-(J3-Pin_2)*%
X160000000Y-81730000D03*
X161500000Y-82230000D03*
%TO.N,SWDIO*%
X161000000Y-95500000D03*
X157500000Y-92790000D03*
%TO.N,SWDCLK*%
X159426814Y-92657338D03*
X160953448Y-94542459D03*
X192000000Y-89000000D03*
%TD*%
D14*
%TO.N,GND*%
X170500000Y-94500000D02*
X170930002Y-94500000D01*
X170930002Y-94500000D02*
X171280001Y-94849999D01*
X170950000Y-89450000D02*
X170500000Y-89000000D01*
X171280001Y-89450000D02*
X170950000Y-89450000D01*
X170500000Y-94399999D02*
X170500000Y-94500000D01*
%TO.N,/BTN_KEY*%
X165500000Y-81000000D02*
X155450457Y-81000000D01*
X155450457Y-81000000D02*
X154950457Y-80500000D01*
X167000000Y-79500000D02*
X165500000Y-81000000D01*
X167000000Y-79000000D02*
X167000000Y-79500000D01*
%TO.N,/BTN_HI*%
X154500000Y-83500000D02*
X156000000Y-83500000D01*
X162000000Y-83500000D02*
X163500000Y-82000000D01*
X165500000Y-82000000D02*
X167000000Y-80500000D01*
X163500000Y-82000000D02*
X165500000Y-82000000D01*
X161000000Y-83500000D02*
X162000000Y-83500000D01*
X160500000Y-83000000D02*
X161000000Y-83500000D01*
X156000000Y-83500000D02*
X156500000Y-83000000D01*
X156500000Y-83000000D02*
X160500000Y-83000000D01*
D15*
%TO.N,/BTN_LO*%
X157500000Y-85000000D02*
X158000000Y-84500000D01*
X154500000Y-85000000D02*
X157500000Y-85000000D01*
D14*
%TO.N,USR_LED_2*%
X164000000Y-92662500D02*
X168567500Y-97230000D01*
X155775000Y-86775000D02*
X160000000Y-91000000D01*
X168567500Y-97230000D02*
X176820002Y-97230000D01*
X176820002Y-97230000D02*
X177550000Y-96500002D01*
%TO.N,Net-(D3-K)*%
X174375088Y-94687585D02*
X174375088Y-95375088D01*
X174375088Y-95375088D02*
X175500000Y-96500000D01*
D15*
%TO.N,USR_LED_1*%
X161500000Y-92000000D02*
X165712500Y-96212500D01*
X161500000Y-91500000D02*
X161500000Y-92000000D01*
X165712500Y-96212500D02*
X165712500Y-96287500D01*
%TO.N,D_N*%
X167790000Y-94290000D02*
X167790000Y-91710000D01*
X173500000Y-93000000D02*
X173000000Y-92500000D01*
X173500000Y-95500000D02*
X173500000Y-93000000D01*
X171830001Y-92500000D02*
X171280001Y-93050000D01*
X168000000Y-94500000D02*
X167790000Y-94290000D01*
D14*
X154500000Y-96500000D02*
X152500000Y-96500000D01*
D15*
X167790000Y-91710000D02*
X168500000Y-91000000D01*
X173000000Y-92500000D02*
X171830001Y-92500000D01*
%TO.N,Net-(J2-CC2)*%
X173500000Y-91500000D02*
X173000000Y-91500000D01*
X173000000Y-91500000D02*
X172749999Y-91249999D01*
X172749999Y-91249999D02*
X171280001Y-91249999D01*
%TO.N,Net-(J2-CC1)*%
X170100000Y-92600000D02*
X169500000Y-92000000D01*
X169500000Y-92000000D02*
X168500000Y-92000000D01*
X170500000Y-92600000D02*
X170100000Y-92600000D01*
%TO.N,Net-(J3-Pin_2)*%
X161000000Y-81730000D02*
X160000000Y-81730000D01*
X161500000Y-82230000D02*
X161000000Y-81730000D01*
%TO.N,SWDIO*%
X161000000Y-95500000D02*
X160000000Y-95500000D01*
X157500000Y-93000000D02*
X157500000Y-92790000D01*
X160000000Y-95500000D02*
X157500000Y-93000000D01*
%TO.N,SWDCLK*%
X159426814Y-93015825D02*
X160953448Y-94542459D01*
X159426814Y-92657338D02*
X159426814Y-93015825D01*
X192000000Y-89000000D02*
X191080000Y-89000000D01*
X191080000Y-89000000D02*
X189500000Y-90580000D01*
%TD*%
%TA.AperFunction,Conductor*%
%TO.N,GND*%
G36*
X194442539Y-24520185D02*
G01*
X194488294Y-24572989D01*
X194499500Y-24624500D01*
X194499500Y-38375500D01*
X194479815Y-38442539D01*
X194427011Y-38488294D01*
X194375500Y-38499500D01*
X174934108Y-38499500D01*
X174806812Y-38533608D01*
X174692686Y-38599500D01*
X174692683Y-38599502D01*
X174599502Y-38692683D01*
X174599500Y-38692686D01*
X174533608Y-38806812D01*
X174499500Y-38934108D01*
X174499500Y-79565891D01*
X174533608Y-79693187D01*
X174566554Y-79750250D01*
X174599500Y-79807314D01*
X174692686Y-79900500D01*
X174806814Y-79966392D01*
X174934108Y-80000500D01*
X175065892Y-80000500D01*
X199875500Y-80000500D01*
X199942539Y-80020185D01*
X199988294Y-80072989D01*
X199999500Y-80124500D01*
X199999500Y-87290427D01*
X199979815Y-87357466D01*
X199927011Y-87403221D01*
X199857853Y-87413165D01*
X199794297Y-87384140D01*
X199763119Y-87342833D01*
X199753603Y-87322427D01*
X199753599Y-87322420D01*
X199618113Y-87128926D01*
X199618108Y-87128920D01*
X199451082Y-86961894D01*
X199257578Y-86826399D01*
X199043492Y-86726570D01*
X199043486Y-86726567D01*
X198830000Y-86669364D01*
X198830000Y-87566988D01*
X198772993Y-87534075D01*
X198645826Y-87500000D01*
X198514174Y-87500000D01*
X198387007Y-87534075D01*
X198330000Y-87566988D01*
X198330000Y-86669364D01*
X198329999Y-86669364D01*
X198116513Y-86726567D01*
X198116507Y-86726570D01*
X197902422Y-86826399D01*
X197902420Y-86826400D01*
X197708926Y-86961886D01*
X197708920Y-86961891D01*
X197541891Y-87128920D01*
X197541890Y-87128922D01*
X197411575Y-87315031D01*
X197356998Y-87358655D01*
X197287499Y-87365848D01*
X197225145Y-87334326D01*
X197208425Y-87315031D01*
X197078109Y-87128922D01*
X197078108Y-87128920D01*
X196911082Y-86961894D01*
X196717578Y-86826399D01*
X196503492Y-86726570D01*
X196503486Y-86726567D01*
X196290000Y-86669364D01*
X196290000Y-87566988D01*
X196232993Y-87534075D01*
X196105826Y-87500000D01*
X195974174Y-87500000D01*
X195847007Y-87534075D01*
X195790000Y-87566988D01*
X195790000Y-86669364D01*
X195789999Y-86669364D01*
X195576513Y-86726567D01*
X195576507Y-86726570D01*
X195362422Y-86826399D01*
X195362420Y-86826400D01*
X195168926Y-86961886D01*
X195046477Y-87084335D01*
X194985154Y-87117819D01*
X194915462Y-87112835D01*
X194859529Y-87070963D01*
X194842614Y-87039986D01*
X194793354Y-86907913D01*
X194793350Y-86907906D01*
X194707190Y-86792812D01*
X194707187Y-86792809D01*
X194592093Y-86706649D01*
X194592086Y-86706645D01*
X194457379Y-86656403D01*
X194457372Y-86656401D01*
X194397844Y-86650000D01*
X193750000Y-86650000D01*
X193750000Y-87566988D01*
X193692993Y-87534075D01*
X193565826Y-87500000D01*
X193434174Y-87500000D01*
X193307007Y-87534075D01*
X193250000Y-87566988D01*
X193250000Y-86650000D01*
X192602155Y-86650000D01*
X192542627Y-86656401D01*
X192542620Y-86656403D01*
X192407913Y-86706645D01*
X192407906Y-86706649D01*
X192292812Y-86792809D01*
X192292809Y-86792812D01*
X192206649Y-86907906D01*
X192206645Y-86907913D01*
X192156403Y-87042620D01*
X192156401Y-87042627D01*
X192150000Y-87102155D01*
X192150000Y-87750000D01*
X193066988Y-87750000D01*
X193034075Y-87807007D01*
X193000000Y-87934174D01*
X193000000Y-88065826D01*
X193034075Y-88192993D01*
X193066988Y-88250000D01*
X192150000Y-88250000D01*
X192150000Y-88375500D01*
X192130315Y-88442539D01*
X192077511Y-88488294D01*
X192026000Y-88499500D01*
X191928036Y-88499500D01*
X191789949Y-88540045D01*
X191668869Y-88617858D01*
X191617884Y-88676701D01*
X191559107Y-88714477D01*
X191524170Y-88719500D01*
X191116928Y-88719500D01*
X191043071Y-88719500D01*
X190995511Y-88732244D01*
X190971730Y-88738616D01*
X190907770Y-88775543D01*
X190907767Y-88775545D01*
X190907768Y-88775545D01*
X190082759Y-89600553D01*
X190021436Y-89634038D01*
X189951744Y-89629054D01*
X189936626Y-89622231D01*
X189903957Y-89604769D01*
X189890059Y-89600553D01*
X189705934Y-89544700D01*
X189705932Y-89544699D01*
X189705934Y-89544699D01*
X189500000Y-89524417D01*
X189294067Y-89544699D01*
X189096043Y-89604769D01*
X189060056Y-89624005D01*
X188913550Y-89702315D01*
X188913548Y-89702316D01*
X188913547Y-89702317D01*
X188753589Y-89833589D01*
X188622317Y-89993547D01*
X188622315Y-89993550D01*
X188613668Y-90009728D01*
X188524769Y-90176043D01*
X188464699Y-90374067D01*
X188444417Y-90580000D01*
X188464699Y-90785932D01*
X188476503Y-90824844D01*
X188524768Y-90983954D01*
X188622315Y-91166450D01*
X188638200Y-91185806D01*
X188753589Y-91326410D01*
X188838001Y-91395684D01*
X188913550Y-91457685D01*
X189096046Y-91555232D01*
X189294066Y-91615300D01*
X189294065Y-91615300D01*
X189312529Y-91617118D01*
X189500000Y-91635583D01*
X189705934Y-91615300D01*
X189903954Y-91555232D01*
X190086450Y-91457685D01*
X190246410Y-91326410D01*
X190377685Y-91166450D01*
X190475232Y-90983954D01*
X190535300Y-90785934D01*
X190555583Y-90580000D01*
X190535300Y-90374066D01*
X190475232Y-90176046D01*
X190457767Y-90143373D01*
X190443526Y-90074972D01*
X190468525Y-90009728D01*
X190479436Y-89997248D01*
X191159868Y-89316819D01*
X191221191Y-89283334D01*
X191247549Y-89280500D01*
X191524170Y-89280500D01*
X191591209Y-89300185D01*
X191617884Y-89323299D01*
X191668869Y-89382141D01*
X191668871Y-89382142D01*
X191668872Y-89382143D01*
X191789947Y-89459953D01*
X191789950Y-89459954D01*
X191789949Y-89459954D01*
X191928036Y-89500499D01*
X191928038Y-89500500D01*
X191928039Y-89500500D01*
X192071962Y-89500500D01*
X192071962Y-89500499D01*
X192210053Y-89459953D01*
X192331128Y-89382143D01*
X192351646Y-89358462D01*
X192410423Y-89320689D01*
X192480293Y-89320687D01*
X192488693Y-89323483D01*
X192542620Y-89343596D01*
X192542627Y-89343598D01*
X192602155Y-89349999D01*
X192602172Y-89350000D01*
X193250000Y-89350000D01*
X193250000Y-88433012D01*
X193307007Y-88465925D01*
X193434174Y-88500000D01*
X193565826Y-88500000D01*
X193692993Y-88465925D01*
X193750000Y-88433012D01*
X193750000Y-89350000D01*
X194397828Y-89350000D01*
X194397844Y-89349999D01*
X194457372Y-89343598D01*
X194457379Y-89343596D01*
X194592086Y-89293354D01*
X194592093Y-89293350D01*
X194707187Y-89207190D01*
X194707190Y-89207187D01*
X194793350Y-89092093D01*
X194793354Y-89092086D01*
X194842614Y-88960013D01*
X194884485Y-88904079D01*
X194949949Y-88879662D01*
X195018222Y-88894513D01*
X195046477Y-88915665D01*
X195168917Y-89038105D01*
X195362421Y-89173600D01*
X195576507Y-89273429D01*
X195576516Y-89273433D01*
X195790000Y-89330634D01*
X195790000Y-88433012D01*
X195847007Y-88465925D01*
X195974174Y-88500000D01*
X196105826Y-88500000D01*
X196232993Y-88465925D01*
X196290000Y-88433012D01*
X196290000Y-89330633D01*
X196503483Y-89273433D01*
X196503492Y-89273429D01*
X196717578Y-89173600D01*
X196911082Y-89038105D01*
X197078105Y-88871082D01*
X197208425Y-88684968D01*
X197263002Y-88641344D01*
X197332501Y-88634151D01*
X197394855Y-88665673D01*
X197411575Y-88684968D01*
X197541894Y-88871082D01*
X197708917Y-89038105D01*
X197902421Y-89173600D01*
X198116507Y-89273429D01*
X198116516Y-89273433D01*
X198330000Y-89330634D01*
X198330000Y-88433012D01*
X198387007Y-88465925D01*
X198514174Y-88500000D01*
X198645826Y-88500000D01*
X198772993Y-88465925D01*
X198830000Y-88433012D01*
X198830000Y-89330633D01*
X199043483Y-89273433D01*
X199043492Y-89273429D01*
X199257578Y-89173600D01*
X199451082Y-89038105D01*
X199618105Y-88871082D01*
X199753600Y-88677578D01*
X199763118Y-88657167D01*
X199809290Y-88604728D01*
X199876484Y-88585576D01*
X199943365Y-88605792D01*
X199988700Y-88658957D01*
X199999500Y-88709572D01*
X199999500Y-90375500D01*
X199979815Y-90442539D01*
X199927011Y-90488294D01*
X199875500Y-90499500D01*
X191934108Y-90499500D01*
X191806812Y-90533608D01*
X191692686Y-90599500D01*
X191692683Y-90599502D01*
X191599502Y-90692683D01*
X191599500Y-90692686D01*
X191533608Y-90806812D01*
X191499500Y-90934108D01*
X191499500Y-97375500D01*
X191479815Y-97442539D01*
X191427011Y-97488294D01*
X191375500Y-97499500D01*
X177274835Y-97499500D01*
X177207796Y-97479815D01*
X177162041Y-97427011D01*
X177152097Y-97357853D01*
X177181122Y-97294297D01*
X177187154Y-97287819D01*
X177438151Y-97036821D01*
X177499474Y-97003336D01*
X177525832Y-97000502D01*
X177621962Y-97000502D01*
X177621962Y-97000501D01*
X177760053Y-96959955D01*
X177881128Y-96882145D01*
X177975377Y-96773375D01*
X178035165Y-96642459D01*
X178055647Y-96500002D01*
X178035165Y-96357545D01*
X177975377Y-96226629D01*
X177881128Y-96117859D01*
X177760053Y-96040049D01*
X177760051Y-96040048D01*
X177760049Y-96040047D01*
X177760050Y-96040047D01*
X177621963Y-95999502D01*
X177621961Y-95999502D01*
X177478039Y-95999502D01*
X177478036Y-95999502D01*
X177339949Y-96040047D01*
X177218873Y-96117858D01*
X177124623Y-96226628D01*
X177124622Y-96226630D01*
X177064834Y-96357545D01*
X177044353Y-96500002D01*
X177044353Y-96500003D01*
X177045661Y-96509105D01*
X177035713Y-96578263D01*
X177010603Y-96614426D01*
X176731848Y-96893182D01*
X176670528Y-96926666D01*
X176644169Y-96929500D01*
X176047024Y-96929500D01*
X175979985Y-96909815D01*
X175934230Y-96857011D01*
X175924286Y-96787853D01*
X175934230Y-96753988D01*
X175985164Y-96642459D01*
X175985165Y-96642457D01*
X176005647Y-96500000D01*
X175985165Y-96357543D01*
X175925377Y-96226627D01*
X175831128Y-96117857D01*
X175710053Y-96040047D01*
X175710051Y-96040046D01*
X175710049Y-96040045D01*
X175710050Y-96040045D01*
X175571963Y-95999500D01*
X175571961Y-95999500D01*
X175475833Y-95999500D01*
X175408794Y-95979815D01*
X175388152Y-95963181D01*
X174834970Y-95409999D01*
X188169364Y-95409999D01*
X188169364Y-95410000D01*
X189066988Y-95410000D01*
X189034075Y-95467007D01*
X189000000Y-95594174D01*
X189000000Y-95725826D01*
X189034075Y-95852993D01*
X189066988Y-95910000D01*
X188169364Y-95910000D01*
X188226567Y-96123486D01*
X188226570Y-96123492D01*
X188326399Y-96337578D01*
X188461894Y-96531082D01*
X188628917Y-96698105D01*
X188822421Y-96833600D01*
X189036507Y-96933429D01*
X189036516Y-96933433D01*
X189250000Y-96990634D01*
X189250000Y-96093012D01*
X189307007Y-96125925D01*
X189434174Y-96160000D01*
X189565826Y-96160000D01*
X189692993Y-96125925D01*
X189750000Y-96093012D01*
X189750000Y-96990633D01*
X189963483Y-96933433D01*
X189963492Y-96933429D01*
X190177578Y-96833600D01*
X190371082Y-96698105D01*
X190538105Y-96531082D01*
X190673600Y-96337578D01*
X190773429Y-96123492D01*
X190773432Y-96123486D01*
X190830636Y-95910000D01*
X189933012Y-95910000D01*
X189965925Y-95852993D01*
X190000000Y-95725826D01*
X190000000Y-95594174D01*
X189965925Y-95467007D01*
X189933012Y-95410000D01*
X190830636Y-95410000D01*
X190830635Y-95409999D01*
X190773432Y-95196513D01*
X190773429Y-95196507D01*
X190673600Y-94982422D01*
X190673599Y-94982420D01*
X190538113Y-94788926D01*
X190538108Y-94788920D01*
X190371082Y-94621894D01*
X190177578Y-94486399D01*
X189963492Y-94386570D01*
X189963486Y-94386567D01*
X189841349Y-94353841D01*
X189781689Y-94317476D01*
X189751160Y-94254629D01*
X189759455Y-94185253D01*
X189803940Y-94131375D01*
X189837444Y-94115407D01*
X189903954Y-94095232D01*
X190086450Y-93997685D01*
X190246410Y-93866410D01*
X190377685Y-93706450D01*
X190475232Y-93523954D01*
X190535300Y-93325934D01*
X190555583Y-93120000D01*
X190535300Y-92914066D01*
X190475232Y-92716046D01*
X190377685Y-92533550D01*
X190295345Y-92433218D01*
X190246410Y-92373589D01*
X190126513Y-92275194D01*
X190086450Y-92242315D01*
X189903954Y-92144768D01*
X189705934Y-92084700D01*
X189705932Y-92084699D01*
X189705934Y-92084699D01*
X189500000Y-92064417D01*
X189294067Y-92084699D01*
X189096043Y-92144769D01*
X189039776Y-92174845D01*
X188913550Y-92242315D01*
X188913548Y-92242316D01*
X188913547Y-92242317D01*
X188753589Y-92373589D01*
X188622317Y-92533547D01*
X188524769Y-92716043D01*
X188464699Y-92914067D01*
X188444417Y-93120000D01*
X188464699Y-93325932D01*
X188464720Y-93326000D01*
X188524768Y-93523954D01*
X188622315Y-93706450D01*
X188622317Y-93706452D01*
X188753589Y-93866410D01*
X188850209Y-93945702D01*
X188913550Y-93997685D01*
X189096046Y-94095232D01*
X189162551Y-94115405D01*
X189220989Y-94153702D01*
X189249446Y-94217514D01*
X189238887Y-94286581D01*
X189192663Y-94338975D01*
X189158650Y-94353841D01*
X189036514Y-94386567D01*
X189036507Y-94386570D01*
X188822422Y-94486399D01*
X188822420Y-94486400D01*
X188628926Y-94621886D01*
X188628920Y-94621891D01*
X188461891Y-94788920D01*
X188461886Y-94788926D01*
X188326400Y-94982420D01*
X188326399Y-94982422D01*
X188226570Y-95196507D01*
X188226567Y-95196513D01*
X188169364Y-95409999D01*
X174834970Y-95409999D01*
X174711907Y-95286936D01*
X174678422Y-95225613D01*
X174675588Y-95199255D01*
X174675588Y-95151323D01*
X174695273Y-95084284D01*
X174705875Y-95070120D01*
X174706212Y-95069729D01*
X174706216Y-95069728D01*
X174800465Y-94960958D01*
X174860253Y-94830042D01*
X174880735Y-94687585D01*
X174860253Y-94545128D01*
X174800465Y-94414212D01*
X174706216Y-94305442D01*
X174585141Y-94227632D01*
X174585139Y-94227631D01*
X174585137Y-94227630D01*
X174585138Y-94227630D01*
X174447051Y-94187085D01*
X174447049Y-94187085D01*
X174303127Y-94187085D01*
X174303124Y-94187085D01*
X174165037Y-94227630D01*
X174043961Y-94305441D01*
X173998213Y-94358237D01*
X173939434Y-94396011D01*
X173869565Y-94396011D01*
X173810787Y-94358236D01*
X173781762Y-94294680D01*
X173780500Y-94277034D01*
X173780500Y-92963074D01*
X173780500Y-92963072D01*
X173761384Y-92891731D01*
X173724456Y-92827769D01*
X173672231Y-92775544D01*
X173672230Y-92775543D01*
X173231525Y-92334839D01*
X173231524Y-92334837D01*
X173172232Y-92275545D01*
X173172224Y-92275539D01*
X173108272Y-92238617D01*
X173108273Y-92238617D01*
X173108048Y-92238556D01*
X173107259Y-92238345D01*
X173107248Y-92238339D01*
X173107248Y-92238342D01*
X173036929Y-92219500D01*
X173036928Y-92219500D01*
X171907936Y-92219500D01*
X171840897Y-92199815D01*
X171795142Y-92147011D01*
X171785198Y-92113147D01*
X171774239Y-92036928D01*
X171769818Y-92006176D01*
X171769816Y-92006169D01*
X171723713Y-91905220D01*
X171709458Y-91874004D01*
X171629042Y-91781199D01*
X171600018Y-91717645D01*
X171609961Y-91648487D01*
X171629039Y-91618801D01*
X171668472Y-91573294D01*
X171727251Y-91535521D01*
X171762183Y-91530499D01*
X172582451Y-91530499D01*
X172649490Y-91550184D01*
X172670126Y-91566813D01*
X172827769Y-91724456D01*
X172891731Y-91761384D01*
X172963071Y-91780500D01*
X172963072Y-91780500D01*
X173024170Y-91780500D01*
X173091209Y-91800185D01*
X173117884Y-91823299D01*
X173168869Y-91882141D01*
X173168871Y-91882142D01*
X173168872Y-91882143D01*
X173289947Y-91959953D01*
X173289950Y-91959954D01*
X173289949Y-91959954D01*
X173428036Y-92000499D01*
X173428038Y-92000500D01*
X173428039Y-92000500D01*
X173571962Y-92000500D01*
X173571962Y-92000499D01*
X173710053Y-91959953D01*
X173831128Y-91882143D01*
X173925377Y-91773373D01*
X173985165Y-91642457D01*
X174005647Y-91500000D01*
X173985165Y-91357543D01*
X173925377Y-91226627D01*
X173831128Y-91117857D01*
X173710053Y-91040047D01*
X173710051Y-91040046D01*
X173710049Y-91040045D01*
X173710050Y-91040045D01*
X173571963Y-90999500D01*
X173571961Y-90999500D01*
X173428039Y-90999500D01*
X173428036Y-90999500D01*
X173289949Y-91040045D01*
X173161411Y-91122652D01*
X173159795Y-91120138D01*
X173109826Y-91142932D01*
X173040672Y-91132957D01*
X173004554Y-91107867D01*
X172922231Y-91025544D01*
X172922230Y-91025543D01*
X172858268Y-90988615D01*
X172858265Y-90988614D01*
X172840871Y-90983953D01*
X172840870Y-90983952D01*
X172786928Y-90969499D01*
X172786927Y-90969499D01*
X171762183Y-90969499D01*
X171695144Y-90949814D01*
X171668470Y-90926702D01*
X171629044Y-90881202D01*
X171600019Y-90817646D01*
X171609963Y-90748488D01*
X171629045Y-90718796D01*
X171709458Y-90625995D01*
X171748709Y-90540047D01*
X171769816Y-90493829D01*
X171769816Y-90493825D01*
X171769818Y-90493823D01*
X171771130Y-90484697D01*
X171800153Y-90421142D01*
X171858930Y-90383366D01*
X171928800Y-90383364D01*
X171981549Y-90414661D01*
X172012686Y-90445798D01*
X172126814Y-90511690D01*
X172254108Y-90545798D01*
X172254110Y-90545798D01*
X172385890Y-90545798D01*
X172385892Y-90545798D01*
X172513186Y-90511690D01*
X172627314Y-90445798D01*
X172720500Y-90352612D01*
X172786392Y-90238484D01*
X172820500Y-90111190D01*
X172820500Y-88988806D01*
X172786392Y-88861512D01*
X172784100Y-88857543D01*
X172766891Y-88827735D01*
X172720500Y-88747384D01*
X172627314Y-88654198D01*
X172570250Y-88621252D01*
X172513187Y-88588306D01*
X172449539Y-88571252D01*
X172385892Y-88554198D01*
X172254108Y-88554198D01*
X172126812Y-88588306D01*
X172012686Y-88654198D01*
X172012683Y-88654200D01*
X171919502Y-88747381D01*
X171919495Y-88747390D01*
X171918635Y-88748881D01*
X171917580Y-88749886D01*
X171914552Y-88753833D01*
X171913936Y-88753360D01*
X171868065Y-88797093D01*
X171799457Y-88810312D01*
X171745280Y-88791868D01*
X171631399Y-88720312D01*
X171460213Y-88660412D01*
X171273503Y-88639375D01*
X171272656Y-88639328D01*
X171220141Y-88633411D01*
X170764457Y-89089095D01*
X170703134Y-89122580D01*
X170667348Y-89120020D01*
X170672265Y-89115104D01*
X170703200Y-89040419D01*
X170703200Y-88959581D01*
X170672265Y-88884896D01*
X170615104Y-88827735D01*
X170540419Y-88796800D01*
X170459581Y-88796800D01*
X170384896Y-88827735D01*
X170327735Y-88884896D01*
X170296800Y-88959581D01*
X170296800Y-89040419D01*
X170327735Y-89115104D01*
X170334104Y-89121473D01*
X170279889Y-89117596D01*
X170235542Y-89089095D01*
X169779857Y-88633409D01*
X169779784Y-88633418D01*
X169710962Y-88621365D01*
X169703907Y-88617591D01*
X169680539Y-88604099D01*
X169653187Y-88588307D01*
X169589539Y-88571253D01*
X169525892Y-88554199D01*
X169394108Y-88554199D01*
X169266812Y-88588307D01*
X169152686Y-88654199D01*
X169152683Y-88654201D01*
X169059502Y-88747382D01*
X169059500Y-88747385D01*
X168993608Y-88861511D01*
X168959500Y-88988807D01*
X168959500Y-90111190D01*
X168993608Y-90238486D01*
X169001381Y-90251949D01*
X169059500Y-90352613D01*
X169152686Y-90445799D01*
X169235861Y-90493820D01*
X169266810Y-90511689D01*
X169266814Y-90511691D01*
X169394108Y-90545799D01*
X169394110Y-90545799D01*
X169525890Y-90545799D01*
X169525892Y-90545799D01*
X169653186Y-90511691D01*
X169767314Y-90445799D01*
X169860500Y-90352613D01*
X169918619Y-90251947D01*
X169969185Y-90203734D01*
X170037792Y-90190510D01*
X170102656Y-90216478D01*
X170119717Y-90232746D01*
X170150955Y-90268796D01*
X170179981Y-90332351D01*
X170170038Y-90401510D01*
X170150956Y-90431201D01*
X170070547Y-90523998D01*
X170070541Y-90524007D01*
X170010184Y-90656169D01*
X170010182Y-90656177D01*
X169989504Y-90799999D01*
X170010182Y-90943820D01*
X170010184Y-90943828D01*
X170070541Y-91075990D01*
X170070543Y-91075994D01*
X170128545Y-91142932D01*
X170150957Y-91168796D01*
X170179982Y-91232352D01*
X170170038Y-91301510D01*
X170150957Y-91331202D01*
X170070544Y-91424002D01*
X170070541Y-91424007D01*
X170010184Y-91556169D01*
X170010182Y-91556177D01*
X169989504Y-91699999D01*
X170002446Y-91790013D01*
X169992502Y-91859172D01*
X169946747Y-91911976D01*
X169879708Y-91931660D01*
X169812668Y-91911975D01*
X169792027Y-91895341D01*
X169731526Y-91834840D01*
X169731524Y-91834837D01*
X169672232Y-91775545D01*
X169672231Y-91775544D01*
X169608269Y-91738616D01*
X169608264Y-91738614D01*
X169565731Y-91727217D01*
X169565730Y-91727216D01*
X169536931Y-91719500D01*
X169536929Y-91719500D01*
X169536928Y-91719500D01*
X168975830Y-91719500D01*
X168908791Y-91699815D01*
X168882116Y-91676701D01*
X168831128Y-91617857D01*
X168831129Y-91617857D01*
X168810058Y-91604316D01*
X168764302Y-91551513D01*
X168754358Y-91482354D01*
X168783382Y-91418798D01*
X168810058Y-91395684D01*
X168831125Y-91382145D01*
X168831125Y-91382144D01*
X168831128Y-91382143D01*
X168925377Y-91273373D01*
X168985165Y-91142457D01*
X169005647Y-91000000D01*
X168985165Y-90857543D01*
X168925377Y-90726627D01*
X168831128Y-90617857D01*
X168710053Y-90540047D01*
X168710051Y-90540046D01*
X168710049Y-90540045D01*
X168710050Y-90540045D01*
X168571963Y-90499500D01*
X168571961Y-90499500D01*
X168428039Y-90499500D01*
X168428036Y-90499500D01*
X168289949Y-90540045D01*
X168168873Y-90617856D01*
X168074623Y-90726626D01*
X168074622Y-90726628D01*
X168014834Y-90857543D01*
X167994353Y-91000000D01*
X167999216Y-91033825D01*
X167989272Y-91102983D01*
X167964159Y-91139152D01*
X167617771Y-91485542D01*
X167565545Y-91537767D01*
X167565541Y-91537772D01*
X167532785Y-91594507D01*
X167532786Y-91594508D01*
X167528615Y-91601731D01*
X167509811Y-91671913D01*
X167509802Y-91671945D01*
X167509500Y-91673070D01*
X167509500Y-94326927D01*
X167510561Y-94334985D01*
X167509794Y-94335085D01*
X167512217Y-94375750D01*
X167494353Y-94499999D01*
X167514834Y-94642456D01*
X167535444Y-94687585D01*
X167574623Y-94773373D01*
X167668872Y-94882143D01*
X167789947Y-94959953D01*
X167789950Y-94959954D01*
X167789949Y-94959954D01*
X167928036Y-95000499D01*
X167928038Y-95000500D01*
X167928039Y-95000500D01*
X168071962Y-95000500D01*
X168071962Y-95000499D01*
X168192514Y-94965103D01*
X168210050Y-94959954D01*
X168210050Y-94959953D01*
X168210053Y-94959953D01*
X168331128Y-94882143D01*
X168425377Y-94773373D01*
X168485165Y-94642457D01*
X168505647Y-94500000D01*
X168485165Y-94357543D01*
X168425377Y-94226627D01*
X168331128Y-94117857D01*
X168276118Y-94082504D01*
X168210051Y-94040045D01*
X168159565Y-94025222D01*
X168100787Y-93987448D01*
X168071762Y-93923892D01*
X168070500Y-93906245D01*
X168070500Y-92546012D01*
X168090185Y-92478973D01*
X168142989Y-92433218D01*
X168212147Y-92423274D01*
X168261540Y-92441697D01*
X168289947Y-92459953D01*
X168289948Y-92459953D01*
X168289949Y-92459954D01*
X168428036Y-92500499D01*
X168428038Y-92500500D01*
X168428039Y-92500500D01*
X168571962Y-92500500D01*
X168571962Y-92500499D01*
X168710053Y-92459953D01*
X168831128Y-92382143D01*
X168882116Y-92323299D01*
X168940893Y-92285523D01*
X168975830Y-92280500D01*
X169332452Y-92280500D01*
X169399491Y-92300185D01*
X169420132Y-92316818D01*
X169875543Y-92772230D01*
X169875544Y-92772231D01*
X169927769Y-92824456D01*
X169927771Y-92824457D01*
X169927775Y-92824460D01*
X169966833Y-92847010D01*
X169966836Y-92847011D01*
X169991731Y-92861384D01*
X170041166Y-92874630D01*
X170100824Y-92910994D01*
X170102764Y-92913180D01*
X170150957Y-92968797D01*
X170179981Y-93032350D01*
X170170038Y-93101509D01*
X170150956Y-93131200D01*
X170070547Y-93223997D01*
X170070541Y-93224006D01*
X170010184Y-93356168D01*
X170010182Y-93356175D01*
X170002585Y-93409018D01*
X169973559Y-93472573D01*
X169914781Y-93510347D01*
X169844911Y-93510347D01*
X169792166Y-93479051D01*
X169767316Y-93454201D01*
X169767314Y-93454199D01*
X169705994Y-93418796D01*
X169653187Y-93388307D01*
X169589539Y-93371253D01*
X169525892Y-93354199D01*
X169394108Y-93354199D01*
X169266812Y-93388307D01*
X169152686Y-93454199D01*
X169152683Y-93454201D01*
X169059502Y-93547382D01*
X169059500Y-93547385D01*
X168993608Y-93661511D01*
X168962933Y-93775993D01*
X168959500Y-93788807D01*
X168959500Y-94911191D01*
X168972566Y-94959953D01*
X168993608Y-95038486D01*
X169020050Y-95084284D01*
X169059500Y-95152613D01*
X169152686Y-95245799D01*
X169266814Y-95311691D01*
X169394108Y-95345799D01*
X169394110Y-95345799D01*
X169525890Y-95345799D01*
X169525892Y-95345799D01*
X169653186Y-95311691D01*
X169767314Y-95245799D01*
X169860500Y-95152613D01*
X169882543Y-95114432D01*
X169933110Y-95066218D01*
X170001717Y-95052994D01*
X170055902Y-95071440D01*
X170148597Y-95129685D01*
X170319787Y-95189586D01*
X170506493Y-95210622D01*
X170507349Y-95210671D01*
X170559857Y-95216588D01*
X171015543Y-94760903D01*
X171076866Y-94727418D01*
X171112653Y-94729977D01*
X171107736Y-94734895D01*
X171076801Y-94809580D01*
X171076801Y-94890418D01*
X171107736Y-94965103D01*
X171164897Y-95022264D01*
X171239582Y-95053199D01*
X171320420Y-95053199D01*
X171395105Y-95022264D01*
X171452266Y-94965103D01*
X171483201Y-94890418D01*
X171483201Y-94809580D01*
X171452266Y-94734895D01*
X171445895Y-94728524D01*
X171500110Y-94732402D01*
X171544458Y-94760903D01*
X171885185Y-95101630D01*
X171904890Y-95127309D01*
X171919499Y-95152612D01*
X171919500Y-95152613D01*
X172012686Y-95245799D01*
X172126814Y-95311691D01*
X172254108Y-95345799D01*
X172254110Y-95345799D01*
X172385890Y-95345799D01*
X172385892Y-95345799D01*
X172513186Y-95311691D01*
X172627314Y-95245799D01*
X172720500Y-95152613D01*
X172786392Y-95038485D01*
X172820500Y-94911191D01*
X172820500Y-93788807D01*
X172786392Y-93661513D01*
X172720500Y-93547385D01*
X172627314Y-93454199D01*
X172565994Y-93418796D01*
X172513187Y-93388307D01*
X172449539Y-93371253D01*
X172385892Y-93354199D01*
X172254108Y-93354199D01*
X172126812Y-93388307D01*
X172012686Y-93454199D01*
X172012683Y-93454201D01*
X171919502Y-93547382D01*
X171919500Y-93547385D01*
X171878706Y-93618042D01*
X171828138Y-93666257D01*
X171759531Y-93679479D01*
X171694667Y-93653511D01*
X171677607Y-93637245D01*
X171660967Y-93618042D01*
X171629043Y-93581200D01*
X171600019Y-93517648D01*
X171609962Y-93448489D01*
X171629045Y-93418796D01*
X171655464Y-93388307D01*
X171709458Y-93325995D01*
X171756034Y-93224006D01*
X171769816Y-93193829D01*
X171769818Y-93193821D01*
X171772935Y-93172143D01*
X171790497Y-93050000D01*
X171785023Y-93011932D01*
X171794966Y-92942778D01*
X171820078Y-92906609D01*
X171909870Y-92816818D01*
X171971193Y-92783333D01*
X171997550Y-92780500D01*
X172832452Y-92780500D01*
X172899491Y-92800185D01*
X172920133Y-92816819D01*
X173183181Y-93079867D01*
X173216666Y-93141190D01*
X173219500Y-93167548D01*
X173219500Y-95017611D01*
X173199815Y-95084650D01*
X173174109Y-95110363D01*
X173175572Y-95112052D01*
X173168866Y-95117862D01*
X173074625Y-95226622D01*
X173074622Y-95226628D01*
X173014834Y-95357543D01*
X172994353Y-95500000D01*
X173014834Y-95642456D01*
X173052282Y-95724454D01*
X173074623Y-95773373D01*
X173168872Y-95882143D01*
X173289947Y-95959953D01*
X173289950Y-95959954D01*
X173289949Y-95959954D01*
X173397107Y-95991417D01*
X173424633Y-95999500D01*
X173428036Y-96000499D01*
X173428038Y-96000500D01*
X173428039Y-96000500D01*
X173571962Y-96000500D01*
X173571962Y-96000499D01*
X173686029Y-95967007D01*
X173710050Y-95959954D01*
X173710050Y-95959953D01*
X173710053Y-95959953D01*
X173831128Y-95882143D01*
X173925377Y-95773373D01*
X173983811Y-95645421D01*
X174029563Y-95592621D01*
X174096603Y-95572936D01*
X174163642Y-95592620D01*
X174184284Y-95609255D01*
X174960604Y-96385575D01*
X174994089Y-96446898D01*
X174995661Y-96490902D01*
X174994353Y-96500000D01*
X174995662Y-96509105D01*
X175014834Y-96642456D01*
X175065770Y-96753988D01*
X175075714Y-96823147D01*
X175046689Y-96886702D01*
X174987911Y-96924477D01*
X174952976Y-96929500D01*
X168743333Y-96929500D01*
X168676294Y-96909815D01*
X168655652Y-96893181D01*
X167332612Y-95570141D01*
X170913411Y-95570141D01*
X170928600Y-95579685D01*
X171099788Y-95639586D01*
X171279998Y-95659891D01*
X171280004Y-95659891D01*
X171460216Y-95639586D01*
X171631399Y-95579686D01*
X171631403Y-95579684D01*
X171646590Y-95570140D01*
X171280002Y-95203552D01*
X171280001Y-95203552D01*
X170913411Y-95570141D01*
X167332612Y-95570141D01*
X164539395Y-92776924D01*
X164505910Y-92715601D01*
X164504339Y-92671594D01*
X164505647Y-92662500D01*
X164485165Y-92520043D01*
X164425377Y-92389127D01*
X164331128Y-92280357D01*
X164210053Y-92202547D01*
X164210051Y-92202546D01*
X164210049Y-92202545D01*
X164210050Y-92202545D01*
X164071963Y-92162000D01*
X164071961Y-92162000D01*
X163928039Y-92162000D01*
X163928036Y-92162000D01*
X163789949Y-92202545D01*
X163668873Y-92280356D01*
X163574623Y-92389126D01*
X163574622Y-92389128D01*
X163514834Y-92520043D01*
X163494353Y-92662500D01*
X163514834Y-92804956D01*
X163573062Y-92932456D01*
X163574623Y-92935873D01*
X163668872Y-93044643D01*
X163789947Y-93122453D01*
X163789950Y-93122454D01*
X163789949Y-93122454D01*
X163853760Y-93141190D01*
X163925280Y-93162190D01*
X163928036Y-93162999D01*
X163928038Y-93163000D01*
X164024167Y-93163000D01*
X164091206Y-93182685D01*
X164111848Y-93199319D01*
X168200348Y-97287819D01*
X168233833Y-97349142D01*
X168228849Y-97418834D01*
X168186977Y-97474767D01*
X168121513Y-97499184D01*
X168112667Y-97499500D01*
X150624500Y-97499500D01*
X150557461Y-97479815D01*
X150511706Y-97427011D01*
X150500500Y-97375500D01*
X150500500Y-96500000D01*
X151994353Y-96500000D01*
X152014834Y-96642456D01*
X152062786Y-96747454D01*
X152074623Y-96773373D01*
X152168872Y-96882143D01*
X152289947Y-96959953D01*
X152289950Y-96959954D01*
X152289949Y-96959954D01*
X152394435Y-96990633D01*
X152425287Y-96999692D01*
X152428036Y-97000499D01*
X152428038Y-97000500D01*
X152428039Y-97000500D01*
X152571962Y-97000500D01*
X152571962Y-97000499D01*
X152710043Y-96959956D01*
X152710050Y-96959954D01*
X152710050Y-96959953D01*
X152710053Y-96959953D01*
X152831128Y-96882143D01*
X152864788Y-96843296D01*
X152923567Y-96805523D01*
X152958501Y-96800500D01*
X154041499Y-96800500D01*
X154108538Y-96820185D01*
X154135211Y-96843296D01*
X154168872Y-96882143D01*
X154289947Y-96959953D01*
X154289950Y-96959954D01*
X154289949Y-96959954D01*
X154394435Y-96990633D01*
X154425287Y-96999692D01*
X154428036Y-97000499D01*
X154428038Y-97000500D01*
X154428039Y-97000500D01*
X154571962Y-97000500D01*
X154571962Y-97000499D01*
X154710043Y-96959956D01*
X154710050Y-96959954D01*
X154710050Y-96959953D01*
X154710053Y-96959953D01*
X154831128Y-96882143D01*
X154925377Y-96773373D01*
X154985165Y-96642457D01*
X155005647Y-96500000D01*
X154985165Y-96357543D01*
X154925377Y-96226627D01*
X154831128Y-96117857D01*
X154710053Y-96040047D01*
X154710051Y-96040046D01*
X154710049Y-96040045D01*
X154710050Y-96040045D01*
X154571963Y-95999500D01*
X154571961Y-95999500D01*
X154428039Y-95999500D01*
X154428036Y-95999500D01*
X154289949Y-96040045D01*
X154168873Y-96117856D01*
X154168872Y-96117856D01*
X154168872Y-96117857D01*
X154163995Y-96123486D01*
X154135212Y-96156703D01*
X154076433Y-96194477D01*
X154041499Y-96199500D01*
X152958501Y-96199500D01*
X152891462Y-96179815D01*
X152864788Y-96156703D01*
X152831128Y-96117857D01*
X152710053Y-96040047D01*
X152710051Y-96040046D01*
X152710049Y-96040045D01*
X152710050Y-96040045D01*
X152571963Y-95999500D01*
X152571961Y-95999500D01*
X152428039Y-95999500D01*
X152428036Y-95999500D01*
X152289949Y-96040045D01*
X152168873Y-96117856D01*
X152168872Y-96117856D01*
X152168872Y-96117857D01*
X152163989Y-96123492D01*
X152074623Y-96226626D01*
X152074622Y-96226628D01*
X152014834Y-96357543D01*
X151994353Y-96500000D01*
X150500500Y-96500000D01*
X150500500Y-92790000D01*
X156994353Y-92790000D01*
X157014834Y-92932456D01*
X157074622Y-93063371D01*
X157074623Y-93063373D01*
X157168872Y-93172143D01*
X157289947Y-93249953D01*
X157349219Y-93267356D01*
X157401965Y-93298651D01*
X159827769Y-95724456D01*
X159891731Y-95761384D01*
X159963071Y-95780500D01*
X159963072Y-95780500D01*
X160524170Y-95780500D01*
X160591209Y-95800185D01*
X160617884Y-95823299D01*
X160668869Y-95882141D01*
X160668871Y-95882142D01*
X160668872Y-95882143D01*
X160789947Y-95959953D01*
X160789950Y-95959954D01*
X160789949Y-95959954D01*
X160897107Y-95991417D01*
X160924633Y-95999500D01*
X160928036Y-96000499D01*
X160928038Y-96000500D01*
X160928039Y-96000500D01*
X161071962Y-96000500D01*
X161071962Y-96000499D01*
X161186029Y-95967007D01*
X161210050Y-95959954D01*
X161210050Y-95959953D01*
X161210053Y-95959953D01*
X161331128Y-95882143D01*
X161425377Y-95773373D01*
X161485165Y-95642457D01*
X161505647Y-95500000D01*
X161485165Y-95357543D01*
X161425377Y-95226627D01*
X161331128Y-95117857D01*
X161331125Y-95117855D01*
X161331125Y-95117854D01*
X161314054Y-95106884D01*
X161268298Y-95054081D01*
X161258354Y-94984922D01*
X161287375Y-94921370D01*
X161378825Y-94815832D01*
X161438613Y-94684916D01*
X161459095Y-94542459D01*
X161438613Y-94400002D01*
X161378825Y-94269086D01*
X161284576Y-94160316D01*
X161163501Y-94082506D01*
X161163499Y-94082505D01*
X161163497Y-94082504D01*
X161163498Y-94082504D01*
X161025411Y-94041959D01*
X161025409Y-94041959D01*
X160900997Y-94041959D01*
X160833958Y-94022274D01*
X160813316Y-94005640D01*
X160355058Y-93547382D01*
X159877389Y-93069714D01*
X159843905Y-93008392D01*
X159848889Y-92938701D01*
X159852277Y-92930522D01*
X159859792Y-92914067D01*
X159911979Y-92799795D01*
X159932461Y-92657338D01*
X159911979Y-92514881D01*
X159852191Y-92383965D01*
X159757942Y-92275195D01*
X159636867Y-92197385D01*
X159636865Y-92197384D01*
X159636863Y-92197383D01*
X159636864Y-92197383D01*
X159498777Y-92156838D01*
X159498775Y-92156838D01*
X159354853Y-92156838D01*
X159354850Y-92156838D01*
X159216763Y-92197383D01*
X159095687Y-92275194D01*
X159001437Y-92383964D01*
X159001436Y-92383966D01*
X158941648Y-92514881D01*
X158921167Y-92657338D01*
X158941648Y-92799794D01*
X158969776Y-92861384D01*
X159001437Y-92930711D01*
X159095686Y-93039481D01*
X159112056Y-93050001D01*
X159112221Y-93050107D01*
X159157976Y-93102911D01*
X159164955Y-93122324D01*
X159165430Y-93124094D01*
X159187424Y-93162190D01*
X159202357Y-93188054D01*
X159202359Y-93188057D01*
X159261648Y-93247346D01*
X159261654Y-93247351D01*
X160417607Y-94403305D01*
X160451092Y-94464628D01*
X160452664Y-94508631D01*
X160447801Y-94542457D01*
X160447801Y-94542458D01*
X160468282Y-94684915D01*
X160515783Y-94788926D01*
X160528071Y-94815832D01*
X160622320Y-94924602D01*
X160639393Y-94935574D01*
X160685148Y-94988378D01*
X160695092Y-95057537D01*
X160666069Y-95121090D01*
X160617885Y-95176700D01*
X160559108Y-95214476D01*
X160524170Y-95219500D01*
X160167549Y-95219500D01*
X160100510Y-95199815D01*
X160079868Y-95183181D01*
X159050389Y-94153702D01*
X157997127Y-93100441D01*
X157963643Y-93039119D01*
X157968627Y-92969427D01*
X157972008Y-92961266D01*
X157985165Y-92932457D01*
X158005647Y-92790000D01*
X157985165Y-92647543D01*
X157925377Y-92516627D01*
X157831128Y-92407857D01*
X157710053Y-92330047D01*
X157710051Y-92330046D01*
X157710049Y-92330045D01*
X157710050Y-92330045D01*
X157571963Y-92289500D01*
X157571961Y-92289500D01*
X157428039Y-92289500D01*
X157428036Y-92289500D01*
X157289949Y-92330045D01*
X157168873Y-92407856D01*
X157074623Y-92516626D01*
X157074622Y-92516628D01*
X157014834Y-92647543D01*
X156994353Y-92790000D01*
X150500500Y-92790000D01*
X150500500Y-90934110D01*
X150500500Y-90934108D01*
X150466392Y-90806814D01*
X150400500Y-90692686D01*
X150307314Y-90599500D01*
X150250250Y-90566554D01*
X150193187Y-90533608D01*
X150111382Y-90511689D01*
X150065892Y-90499500D01*
X150065891Y-90499500D01*
X147124500Y-90499500D01*
X147057461Y-90479815D01*
X147011706Y-90427011D01*
X147000500Y-90375500D01*
X147000500Y-86775000D01*
X155269353Y-86775000D01*
X155289834Y-86917456D01*
X155329678Y-87004700D01*
X155349623Y-87048373D01*
X155443872Y-87157143D01*
X155564947Y-87234953D01*
X155564950Y-87234954D01*
X155564949Y-87234954D01*
X155672107Y-87266417D01*
X155700280Y-87274690D01*
X155703036Y-87275499D01*
X155703038Y-87275500D01*
X155799167Y-87275500D01*
X155866206Y-87295185D01*
X155886848Y-87311819D01*
X159460604Y-90885575D01*
X159494089Y-90946898D01*
X159495661Y-90990902D01*
X159494353Y-90999999D01*
X159514834Y-91142456D01*
X159553275Y-91226628D01*
X159574623Y-91273373D01*
X159668872Y-91382143D01*
X159789947Y-91459953D01*
X159789950Y-91459954D01*
X159789949Y-91459954D01*
X159877096Y-91485542D01*
X159926336Y-91500000D01*
X159928036Y-91500499D01*
X159928038Y-91500500D01*
X159928039Y-91500500D01*
X160071962Y-91500500D01*
X160071962Y-91500499D01*
X160073661Y-91500000D01*
X160994353Y-91500000D01*
X161014834Y-91642456D01*
X161053544Y-91727217D01*
X161074623Y-91773373D01*
X161168872Y-91882143D01*
X161168874Y-91882144D01*
X161175577Y-91887953D01*
X161173331Y-91890543D01*
X161208265Y-91930811D01*
X161219500Y-91982388D01*
X161219500Y-92036928D01*
X161238616Y-92108269D01*
X161260983Y-92147011D01*
X161275543Y-92172229D01*
X161275545Y-92172232D01*
X161334834Y-92231521D01*
X161334840Y-92231526D01*
X165186087Y-96082774D01*
X165219572Y-96144097D01*
X165221144Y-96188102D01*
X165206853Y-96287499D01*
X165227334Y-96429956D01*
X165255168Y-96490902D01*
X165287123Y-96560873D01*
X165381372Y-96669643D01*
X165502447Y-96747453D01*
X165502450Y-96747454D01*
X165502449Y-96747454D01*
X165590723Y-96773373D01*
X165640038Y-96787853D01*
X165640536Y-96787999D01*
X165640538Y-96788000D01*
X165640539Y-96788000D01*
X165784462Y-96788000D01*
X165784462Y-96787999D01*
X165922553Y-96747453D01*
X166043628Y-96669643D01*
X166137877Y-96560873D01*
X166197665Y-96429957D01*
X166218147Y-96287500D01*
X166197665Y-96145043D01*
X166137877Y-96014127D01*
X166043628Y-95905357D01*
X165922553Y-95827547D01*
X165922551Y-95827546D01*
X165922549Y-95827545D01*
X165922550Y-95827545D01*
X165784463Y-95787000D01*
X165784461Y-95787000D01*
X165735049Y-95787000D01*
X165668010Y-95767315D01*
X165647368Y-95750681D01*
X161888483Y-91991796D01*
X161854998Y-91930473D01*
X161859982Y-91860781D01*
X161882449Y-91822914D01*
X161925377Y-91773373D01*
X161985165Y-91642457D01*
X162005647Y-91500000D01*
X161985165Y-91357543D01*
X161925377Y-91226627D01*
X161831128Y-91117857D01*
X161710053Y-91040047D01*
X161710051Y-91040046D01*
X161710049Y-91040045D01*
X161710050Y-91040045D01*
X161571963Y-90999500D01*
X161571961Y-90999500D01*
X161428039Y-90999500D01*
X161428036Y-90999500D01*
X161289949Y-91040045D01*
X161168873Y-91117856D01*
X161074623Y-91226626D01*
X161074622Y-91226628D01*
X161014834Y-91357543D01*
X160994353Y-91500000D01*
X160073661Y-91500000D01*
X160210053Y-91459953D01*
X160331128Y-91382143D01*
X160425377Y-91273373D01*
X160485165Y-91142457D01*
X160505647Y-91000000D01*
X160485165Y-90857543D01*
X160425377Y-90726627D01*
X160331128Y-90617857D01*
X160210053Y-90540047D01*
X160210051Y-90540046D01*
X160210049Y-90540045D01*
X160210050Y-90540045D01*
X160071963Y-90499500D01*
X160071961Y-90499500D01*
X159975833Y-90499500D01*
X159908794Y-90479815D01*
X159888152Y-90463181D01*
X157704828Y-88279857D01*
X170133409Y-88279857D01*
X170500000Y-88646446D01*
X170500001Y-88646446D01*
X170866589Y-88279857D01*
X170866588Y-88279856D01*
X170851400Y-88270313D01*
X170680212Y-88210412D01*
X170500003Y-88190108D01*
X170499997Y-88190108D01*
X170319789Y-88210412D01*
X170148600Y-88270313D01*
X170133409Y-88279857D01*
X157704828Y-88279857D01*
X157464971Y-88040000D01*
X188444417Y-88040000D01*
X188464699Y-88245932D01*
X188464700Y-88245934D01*
X188524768Y-88443954D01*
X188622315Y-88626450D01*
X188628635Y-88634151D01*
X188753589Y-88786410D01*
X188840266Y-88857543D01*
X188913550Y-88917685D01*
X189096046Y-89015232D01*
X189294066Y-89075300D01*
X189294065Y-89075300D01*
X189312529Y-89077118D01*
X189500000Y-89095583D01*
X189705934Y-89075300D01*
X189903954Y-89015232D01*
X190086450Y-88917685D01*
X190246410Y-88786410D01*
X190377685Y-88626450D01*
X190475232Y-88443954D01*
X190535300Y-88245934D01*
X190555583Y-88040000D01*
X190535300Y-87834066D01*
X190475232Y-87636046D01*
X190377685Y-87453550D01*
X190299807Y-87358655D01*
X190246410Y-87293589D01*
X190086452Y-87162317D01*
X190086453Y-87162317D01*
X190086450Y-87162315D01*
X189903954Y-87064768D01*
X189705934Y-87004700D01*
X189705932Y-87004699D01*
X189705934Y-87004699D01*
X189500000Y-86984417D01*
X189294067Y-87004699D01*
X189096043Y-87064769D01*
X189026100Y-87102155D01*
X188913550Y-87162315D01*
X188913548Y-87162316D01*
X188913547Y-87162317D01*
X188753589Y-87293589D01*
X188622317Y-87453547D01*
X188524769Y-87636043D01*
X188464699Y-87834067D01*
X188444417Y-88040000D01*
X157464971Y-88040000D01*
X156314395Y-86889424D01*
X156280910Y-86828101D01*
X156279339Y-86784094D01*
X156280647Y-86775000D01*
X156260165Y-86632543D01*
X156200377Y-86501627D01*
X156106128Y-86392857D01*
X155985053Y-86315047D01*
X155985051Y-86315046D01*
X155985049Y-86315045D01*
X155985050Y-86315045D01*
X155846963Y-86274500D01*
X155846961Y-86274500D01*
X155703039Y-86274500D01*
X155703036Y-86274500D01*
X155564949Y-86315045D01*
X155443873Y-86392856D01*
X155349623Y-86501626D01*
X155349622Y-86501628D01*
X155289834Y-86632543D01*
X155269353Y-86775000D01*
X147000500Y-86775000D01*
X147000500Y-85000000D01*
X153994353Y-85000000D01*
X154014834Y-85142456D01*
X154023773Y-85162029D01*
X154074623Y-85273373D01*
X154168872Y-85382143D01*
X154289947Y-85459953D01*
X154289950Y-85459954D01*
X154289949Y-85459954D01*
X154428036Y-85500499D01*
X154428038Y-85500500D01*
X154428039Y-85500500D01*
X154571962Y-85500500D01*
X154571962Y-85500499D01*
X154710053Y-85459953D01*
X154831128Y-85382143D01*
X154882116Y-85323299D01*
X154940893Y-85285523D01*
X154975830Y-85280500D01*
X157536927Y-85280500D01*
X157536929Y-85280500D01*
X157608269Y-85261384D01*
X157672231Y-85224456D01*
X157724456Y-85172231D01*
X157724456Y-85172229D01*
X157734657Y-85162029D01*
X157734660Y-85162024D01*
X157859868Y-85036817D01*
X157921191Y-85003334D01*
X157947548Y-85000500D01*
X158071962Y-85000500D01*
X158071962Y-85000499D01*
X158210053Y-84959953D01*
X158331128Y-84882143D01*
X158425377Y-84773373D01*
X158485165Y-84642457D01*
X158486921Y-84630247D01*
X188449500Y-84630247D01*
X188449500Y-86369752D01*
X188461131Y-86428229D01*
X188461132Y-86428230D01*
X188505447Y-86494552D01*
X188571769Y-86538867D01*
X188571770Y-86538868D01*
X188630247Y-86550499D01*
X188630250Y-86550500D01*
X188630252Y-86550500D01*
X190369750Y-86550500D01*
X190369751Y-86550499D01*
X190384568Y-86547552D01*
X190428229Y-86538868D01*
X190428229Y-86538867D01*
X190428231Y-86538867D01*
X190494552Y-86494552D01*
X190538867Y-86428231D01*
X190538867Y-86428229D01*
X190538868Y-86428229D01*
X190550499Y-86369752D01*
X190550500Y-86369750D01*
X190550500Y-84630249D01*
X190550499Y-84630247D01*
X190538868Y-84571770D01*
X190538867Y-84571769D01*
X190494552Y-84505447D01*
X190428230Y-84461132D01*
X190428229Y-84461131D01*
X190369752Y-84449500D01*
X190369748Y-84449500D01*
X188630252Y-84449500D01*
X188630247Y-84449500D01*
X188571770Y-84461131D01*
X188571769Y-84461132D01*
X188505447Y-84505447D01*
X188461132Y-84571769D01*
X188461131Y-84571770D01*
X188449500Y-84630247D01*
X158486921Y-84630247D01*
X158505647Y-84500000D01*
X158485165Y-84357543D01*
X158425377Y-84226627D01*
X158331128Y-84117857D01*
X158210053Y-84040047D01*
X158210051Y-84040046D01*
X158210049Y-84040045D01*
X158210050Y-84040045D01*
X158071963Y-83999500D01*
X158071961Y-83999500D01*
X157928039Y-83999500D01*
X157928036Y-83999500D01*
X157789949Y-84040045D01*
X157668873Y-84117856D01*
X157574623Y-84226626D01*
X157574622Y-84226628D01*
X157514834Y-84357543D01*
X157494353Y-84500000D01*
X157499216Y-84533825D01*
X157489272Y-84602983D01*
X157464160Y-84639151D01*
X157420132Y-84683180D01*
X157358809Y-84716666D01*
X157332450Y-84719500D01*
X154975830Y-84719500D01*
X154908791Y-84699815D01*
X154882116Y-84676701D01*
X154831130Y-84617858D01*
X154759415Y-84571770D01*
X154710053Y-84540047D01*
X154710051Y-84540046D01*
X154710049Y-84540045D01*
X154710050Y-84540045D01*
X154571963Y-84499500D01*
X154571961Y-84499500D01*
X154428039Y-84499500D01*
X154428036Y-84499500D01*
X154289949Y-84540045D01*
X154168873Y-84617856D01*
X154074623Y-84726626D01*
X154074622Y-84726628D01*
X154014834Y-84857543D01*
X153994353Y-85000000D01*
X147000500Y-85000000D01*
X147000500Y-80124500D01*
X147020185Y-80057461D01*
X147072989Y-80011706D01*
X147124500Y-80000500D01*
X154449498Y-80000500D01*
X154516537Y-80020185D01*
X154562292Y-80072989D01*
X154572236Y-80142147D01*
X154543211Y-80205703D01*
X154525080Y-80226627D01*
X154525079Y-80226628D01*
X154465291Y-80357543D01*
X154444810Y-80500000D01*
X154465291Y-80642456D01*
X154491343Y-80699500D01*
X154525080Y-80773373D01*
X154619329Y-80882143D01*
X154740404Y-80959953D01*
X154740407Y-80959954D01*
X154740406Y-80959954D01*
X154847564Y-80991417D01*
X154875737Y-80999690D01*
X154878493Y-81000499D01*
X154878495Y-81000500D01*
X154974624Y-81000500D01*
X155041663Y-81020185D01*
X155062305Y-81036819D01*
X155265946Y-81240460D01*
X155334469Y-81280022D01*
X155410895Y-81300500D01*
X155490019Y-81300500D01*
X159452976Y-81300500D01*
X159520015Y-81320185D01*
X159565770Y-81372989D01*
X159575714Y-81442147D01*
X159565770Y-81476012D01*
X159514834Y-81587543D01*
X159494353Y-81730000D01*
X159514834Y-81872456D01*
X159553275Y-81956628D01*
X159574623Y-82003373D01*
X159668872Y-82112143D01*
X159789947Y-82189953D01*
X159789950Y-82189954D01*
X159789949Y-82189954D01*
X159897107Y-82221417D01*
X159926336Y-82230000D01*
X159928036Y-82230499D01*
X159928038Y-82230500D01*
X159928039Y-82230500D01*
X160071962Y-82230500D01*
X160071962Y-82230499D01*
X160210053Y-82189953D01*
X160331128Y-82112143D01*
X160382116Y-82053299D01*
X160440893Y-82015523D01*
X160475830Y-82010500D01*
X160832451Y-82010500D01*
X160899490Y-82030185D01*
X160920132Y-82046819D01*
X160964159Y-82090846D01*
X160997644Y-82152169D01*
X160999216Y-82196172D01*
X160994353Y-82230000D01*
X160997297Y-82250481D01*
X161014834Y-82372456D01*
X161074622Y-82503371D01*
X161074623Y-82503373D01*
X161168872Y-82612143D01*
X161289947Y-82689953D01*
X161289950Y-82689954D01*
X161289949Y-82689954D01*
X161428036Y-82730499D01*
X161428038Y-82730500D01*
X161428039Y-82730500D01*
X161571962Y-82730500D01*
X161571962Y-82730499D01*
X161710053Y-82689953D01*
X161831128Y-82612143D01*
X161925377Y-82503373D01*
X161985165Y-82372457D01*
X162005647Y-82230000D01*
X161985165Y-82087543D01*
X161925377Y-81956627D01*
X161831128Y-81847857D01*
X161710053Y-81770047D01*
X161710051Y-81770046D01*
X161710049Y-81770045D01*
X161710050Y-81770045D01*
X161571963Y-81729500D01*
X161571961Y-81729500D01*
X161447549Y-81729500D01*
X161380510Y-81709815D01*
X161359871Y-81693185D01*
X161231520Y-81564834D01*
X161231516Y-81564829D01*
X161178868Y-81512181D01*
X161145383Y-81450858D01*
X161150367Y-81381166D01*
X161192239Y-81325233D01*
X161257703Y-81300816D01*
X161266549Y-81300500D01*
X165475167Y-81300500D01*
X165542206Y-81320185D01*
X165587961Y-81372989D01*
X165597905Y-81442147D01*
X165568880Y-81505703D01*
X165562848Y-81512181D01*
X165411848Y-81663181D01*
X165350525Y-81696666D01*
X165324167Y-81699500D01*
X163460438Y-81699500D01*
X163422224Y-81709739D01*
X163384009Y-81719979D01*
X163384004Y-81719982D01*
X163315495Y-81759535D01*
X163315487Y-81759541D01*
X161911848Y-83163181D01*
X161850525Y-83196666D01*
X161824167Y-83199500D01*
X161175833Y-83199500D01*
X161108794Y-83179815D01*
X161088152Y-83163181D01*
X160684512Y-82759541D01*
X160684504Y-82759535D01*
X160615995Y-82719982D01*
X160615990Y-82719979D01*
X160590513Y-82713152D01*
X160539562Y-82699500D01*
X156539562Y-82699500D01*
X156460438Y-82699500D01*
X156384010Y-82719978D01*
X156315489Y-82759540D01*
X156315486Y-82759542D01*
X155911848Y-83163181D01*
X155850525Y-83196666D01*
X155824167Y-83199500D01*
X154958501Y-83199500D01*
X154891462Y-83179815D01*
X154864788Y-83156703D01*
X154831128Y-83117857D01*
X154710053Y-83040047D01*
X154710051Y-83040046D01*
X154710049Y-83040045D01*
X154710050Y-83040045D01*
X154571963Y-82999500D01*
X154571961Y-82999500D01*
X154428039Y-82999500D01*
X154428036Y-82999500D01*
X154289949Y-83040045D01*
X154168873Y-83117856D01*
X154074623Y-83226626D01*
X154074622Y-83226628D01*
X154014834Y-83357543D01*
X153994353Y-83500000D01*
X154014834Y-83642456D01*
X154059592Y-83740460D01*
X154074623Y-83773373D01*
X154168872Y-83882143D01*
X154289947Y-83959953D01*
X154289950Y-83959954D01*
X154289949Y-83959954D01*
X154397107Y-83991417D01*
X154424633Y-83999500D01*
X154428036Y-84000499D01*
X154428038Y-84000500D01*
X154428039Y-84000500D01*
X154571962Y-84000500D01*
X154571962Y-84000499D01*
X154710053Y-83959953D01*
X154831128Y-83882143D01*
X154864788Y-83843296D01*
X154923567Y-83805523D01*
X154958501Y-83800500D01*
X156039560Y-83800500D01*
X156039562Y-83800500D01*
X156115989Y-83780021D01*
X156184511Y-83740460D01*
X156240460Y-83684511D01*
X156588152Y-83336819D01*
X156649475Y-83303334D01*
X156675833Y-83300500D01*
X160324167Y-83300500D01*
X160391206Y-83320185D01*
X160411848Y-83336819D01*
X160815489Y-83740460D01*
X160872492Y-83773371D01*
X160884008Y-83780020D01*
X160884012Y-83780022D01*
X160960438Y-83800500D01*
X160960440Y-83800500D01*
X162039560Y-83800500D01*
X162039562Y-83800500D01*
X162115989Y-83780021D01*
X162184511Y-83740460D01*
X162240460Y-83684511D01*
X163588152Y-82336819D01*
X163649475Y-82303334D01*
X163675833Y-82300500D01*
X165539560Y-82300500D01*
X165539562Y-82300500D01*
X165615989Y-82280021D01*
X165684511Y-82240460D01*
X165740460Y-82184511D01*
X166888151Y-81036818D01*
X166949474Y-81003334D01*
X166975832Y-81000500D01*
X167071962Y-81000500D01*
X167071962Y-81000499D01*
X167210053Y-80959953D01*
X167331128Y-80882143D01*
X167425377Y-80773373D01*
X167485165Y-80642457D01*
X167505647Y-80500000D01*
X167485165Y-80357543D01*
X167425377Y-80226627D01*
X167331128Y-80117857D01*
X167210053Y-80040047D01*
X167210050Y-80040045D01*
X167159246Y-80025128D01*
X167100468Y-79987353D01*
X167071443Y-79923798D01*
X167081387Y-79854639D01*
X167106496Y-79818474D01*
X167240460Y-79684511D01*
X167280021Y-79615989D01*
X167300500Y-79539562D01*
X167300500Y-79463738D01*
X167320185Y-79396699D01*
X167330787Y-79382535D01*
X167331124Y-79382144D01*
X167331128Y-79382143D01*
X167425377Y-79273373D01*
X167485165Y-79142457D01*
X167505647Y-79000000D01*
X167485165Y-78857543D01*
X167425377Y-78726627D01*
X167331128Y-78617857D01*
X167210053Y-78540047D01*
X167210051Y-78540046D01*
X167210049Y-78540045D01*
X167210050Y-78540045D01*
X167071963Y-78499500D01*
X167071961Y-78499500D01*
X166928039Y-78499500D01*
X166928036Y-78499500D01*
X166789949Y-78540045D01*
X166668873Y-78617856D01*
X166574623Y-78726626D01*
X166574622Y-78726628D01*
X166514834Y-78857543D01*
X166494353Y-79000000D01*
X166514834Y-79142456D01*
X166574622Y-79273371D01*
X166574625Y-79273376D01*
X166604418Y-79307760D01*
X166633442Y-79371316D01*
X166623498Y-79440474D01*
X166598385Y-79476642D01*
X165411848Y-80663181D01*
X165350525Y-80696666D01*
X165324167Y-80699500D01*
X155626290Y-80699500D01*
X155559251Y-80679815D01*
X155538609Y-80663181D01*
X155489852Y-80614424D01*
X155456367Y-80553101D01*
X155454796Y-80509094D01*
X155456104Y-80500000D01*
X155435622Y-80357543D01*
X155375834Y-80226627D01*
X155357702Y-80205702D01*
X155328678Y-80142147D01*
X155338622Y-80072989D01*
X155384376Y-80020185D01*
X155451416Y-80000500D01*
X165565890Y-80000500D01*
X165565892Y-80000500D01*
X165693186Y-79966392D01*
X165807314Y-79900500D01*
X165900500Y-79807314D01*
X165966392Y-79693186D01*
X166000500Y-79565892D01*
X166000500Y-38934108D01*
X165966392Y-38806814D01*
X165900500Y-38692686D01*
X165807314Y-38599500D01*
X165750250Y-38566554D01*
X165693187Y-38533608D01*
X165629539Y-38516554D01*
X165565892Y-38499500D01*
X165565891Y-38499500D01*
X156124500Y-38499500D01*
X156057461Y-38479815D01*
X156011706Y-38427011D01*
X156000500Y-38375500D01*
X156000500Y-27500000D01*
X166904417Y-27500000D01*
X166924699Y-27705932D01*
X166924700Y-27705934D01*
X166984768Y-27903954D01*
X167082315Y-28086450D01*
X167086946Y-28092093D01*
X167213589Y-28246410D01*
X167310209Y-28325702D01*
X167373550Y-28377685D01*
X167556046Y-28475232D01*
X167754066Y-28535300D01*
X167754065Y-28535300D01*
X167772529Y-28537118D01*
X167960000Y-28555583D01*
X168165934Y-28535300D01*
X168363954Y-28475232D01*
X168546450Y-28377685D01*
X168706410Y-28246410D01*
X168837685Y-28086450D01*
X168935232Y-27903954D01*
X168995300Y-27705934D01*
X169015583Y-27500000D01*
X169444417Y-27500000D01*
X169464699Y-27705932D01*
X169464700Y-27705934D01*
X169524768Y-27903954D01*
X169622315Y-28086450D01*
X169626946Y-28092093D01*
X169753589Y-28246410D01*
X169850209Y-28325702D01*
X169913550Y-28377685D01*
X170096046Y-28475232D01*
X170294066Y-28535300D01*
X170294065Y-28535300D01*
X170312529Y-28537118D01*
X170500000Y-28555583D01*
X170705934Y-28535300D01*
X170903954Y-28475232D01*
X171086450Y-28377685D01*
X171246410Y-28246410D01*
X171377685Y-28086450D01*
X171475232Y-27903954D01*
X171535300Y-27705934D01*
X171555583Y-27500000D01*
X171984417Y-27500000D01*
X172004699Y-27705932D01*
X172004700Y-27705934D01*
X172064768Y-27903954D01*
X172162315Y-28086450D01*
X172166946Y-28092093D01*
X172293589Y-28246410D01*
X172390209Y-28325702D01*
X172453550Y-28377685D01*
X172636046Y-28475232D01*
X172834066Y-28535300D01*
X172834065Y-28535300D01*
X172852529Y-28537118D01*
X173040000Y-28555583D01*
X173245934Y-28535300D01*
X173443954Y-28475232D01*
X173626450Y-28377685D01*
X173786410Y-28246410D01*
X173917685Y-28086450D01*
X173996643Y-27938730D01*
X174045605Y-27888888D01*
X174113742Y-27873428D01*
X174179422Y-27897260D01*
X174221791Y-27952818D01*
X174230000Y-27997186D01*
X174230000Y-28397844D01*
X174236401Y-28457372D01*
X174236403Y-28457379D01*
X174286645Y-28592086D01*
X174286649Y-28592093D01*
X174372809Y-28707187D01*
X174372812Y-28707190D01*
X174487906Y-28793350D01*
X174487913Y-28793354D01*
X174622620Y-28843596D01*
X174622627Y-28843598D01*
X174682155Y-28849999D01*
X174682172Y-28850000D01*
X175330000Y-28850000D01*
X175330000Y-27933012D01*
X175387007Y-27965925D01*
X175514174Y-28000000D01*
X175645826Y-28000000D01*
X175772993Y-27965925D01*
X175830000Y-27933012D01*
X175830000Y-28850000D01*
X176477828Y-28850000D01*
X176477844Y-28849999D01*
X176537372Y-28843598D01*
X176537379Y-28843596D01*
X176672086Y-28793354D01*
X176672093Y-28793350D01*
X176787187Y-28707190D01*
X176787190Y-28707187D01*
X176873350Y-28592093D01*
X176873354Y-28592086D01*
X176923596Y-28457379D01*
X176923598Y-28457372D01*
X176929999Y-28397844D01*
X176930000Y-28397827D01*
X176930000Y-27750000D01*
X176013012Y-27750000D01*
X176045925Y-27692993D01*
X176080000Y-27565826D01*
X176080000Y-27434174D01*
X176045925Y-27307007D01*
X176013012Y-27250000D01*
X176930000Y-27250000D01*
X176930000Y-26602172D01*
X176929999Y-26602155D01*
X176923598Y-26542627D01*
X176923596Y-26542620D01*
X176873354Y-26407913D01*
X176873350Y-26407906D01*
X176787190Y-26292812D01*
X176787187Y-26292809D01*
X176672093Y-26206649D01*
X176672086Y-26206645D01*
X176537379Y-26156403D01*
X176537372Y-26156401D01*
X176477844Y-26150000D01*
X175830000Y-26150000D01*
X175830000Y-27066988D01*
X175772993Y-27034075D01*
X175645826Y-27000000D01*
X175514174Y-27000000D01*
X175387007Y-27034075D01*
X175330000Y-27066988D01*
X175330000Y-26150000D01*
X174682155Y-26150000D01*
X174622627Y-26156401D01*
X174622620Y-26156403D01*
X174487913Y-26206645D01*
X174487906Y-26206649D01*
X174372812Y-26292809D01*
X174372809Y-26292812D01*
X174286649Y-26407906D01*
X174286645Y-26407913D01*
X174236403Y-26542620D01*
X174236401Y-26542627D01*
X174230000Y-26602155D01*
X174230000Y-27002813D01*
X174210315Y-27069852D01*
X174157511Y-27115607D01*
X174088353Y-27125551D01*
X174024797Y-27096526D01*
X173996642Y-27061267D01*
X173917685Y-26913550D01*
X173830248Y-26807007D01*
X173786410Y-26753589D01*
X173626452Y-26622317D01*
X173626453Y-26622317D01*
X173626450Y-26622315D01*
X173443954Y-26524768D01*
X173245934Y-26464700D01*
X173245932Y-26464699D01*
X173245934Y-26464699D01*
X173040000Y-26444417D01*
X172834067Y-26464699D01*
X172636043Y-26524769D01*
X172525898Y-26583643D01*
X172453550Y-26622315D01*
X172453548Y-26622316D01*
X172453547Y-26622317D01*
X172293589Y-26753589D01*
X172162317Y-26913547D01*
X172064769Y-27096043D01*
X172004699Y-27294067D01*
X171984417Y-27500000D01*
X171555583Y-27500000D01*
X171535300Y-27294066D01*
X171475232Y-27096046D01*
X171377685Y-26913550D01*
X171290248Y-26807007D01*
X171246410Y-26753589D01*
X171086452Y-26622317D01*
X171086453Y-26622317D01*
X171086450Y-26622315D01*
X170903954Y-26524768D01*
X170705934Y-26464700D01*
X170705932Y-26464699D01*
X170705934Y-26464699D01*
X170500000Y-26444417D01*
X170294067Y-26464699D01*
X170096043Y-26524769D01*
X169985898Y-26583643D01*
X169913550Y-26622315D01*
X169913548Y-26622316D01*
X169913547Y-26622317D01*
X169753589Y-26753589D01*
X169622317Y-26913547D01*
X169524769Y-27096043D01*
X169464699Y-27294067D01*
X169444417Y-27500000D01*
X169015583Y-27500000D01*
X168995300Y-27294066D01*
X168935232Y-27096046D01*
X168837685Y-26913550D01*
X168750248Y-26807007D01*
X168706410Y-26753589D01*
X168546452Y-26622317D01*
X168546453Y-26622317D01*
X168546450Y-26622315D01*
X168363954Y-26524768D01*
X168165934Y-26464700D01*
X168165932Y-26464699D01*
X168165934Y-26464699D01*
X167960000Y-26444417D01*
X167754067Y-26464699D01*
X167556043Y-26524769D01*
X167445898Y-26583643D01*
X167373550Y-26622315D01*
X167373548Y-26622316D01*
X167373547Y-26622317D01*
X167213589Y-26753589D01*
X167082317Y-26913547D01*
X166984769Y-27096043D01*
X166924699Y-27294067D01*
X166904417Y-27500000D01*
X156000500Y-27500000D01*
X156000500Y-26102155D01*
X181650000Y-26102155D01*
X181650000Y-26750000D01*
X182566988Y-26750000D01*
X182534075Y-26807007D01*
X182500000Y-26934174D01*
X182500000Y-27065826D01*
X182534075Y-27192993D01*
X182566988Y-27250000D01*
X181650000Y-27250000D01*
X181650000Y-27897844D01*
X181656401Y-27957372D01*
X181656403Y-27957379D01*
X181706645Y-28092086D01*
X181706649Y-28092093D01*
X181792809Y-28207187D01*
X181792812Y-28207190D01*
X181907906Y-28293350D01*
X181907913Y-28293354D01*
X182042620Y-28343596D01*
X182042627Y-28343598D01*
X182102155Y-28349999D01*
X182102172Y-28350000D01*
X182750000Y-28350000D01*
X182750000Y-27433012D01*
X182807007Y-27465925D01*
X182934174Y-27500000D01*
X183065826Y-27500000D01*
X183192993Y-27465925D01*
X183250000Y-27433012D01*
X183250000Y-28350000D01*
X183897828Y-28350000D01*
X183897844Y-28349999D01*
X183957372Y-28343598D01*
X183957379Y-28343596D01*
X184092086Y-28293354D01*
X184092093Y-28293350D01*
X184207187Y-28207190D01*
X184207190Y-28207187D01*
X184293350Y-28092093D01*
X184293354Y-28092086D01*
X184343596Y-27957379D01*
X184343598Y-27957372D01*
X184349999Y-27897844D01*
X184350000Y-27897827D01*
X184350000Y-27497186D01*
X184369685Y-27430147D01*
X184422489Y-27384392D01*
X184491647Y-27374448D01*
X184555203Y-27403473D01*
X184583356Y-27438729D01*
X184662315Y-27586450D01*
X184662317Y-27586452D01*
X184793589Y-27746410D01*
X184867428Y-27807007D01*
X184953550Y-27877685D01*
X185136046Y-27975232D01*
X185334066Y-28035300D01*
X185334065Y-28035300D01*
X185352529Y-28037118D01*
X185540000Y-28055583D01*
X185745934Y-28035300D01*
X185943954Y-27975232D01*
X186126450Y-27877685D01*
X186286410Y-27746410D01*
X186417685Y-27586450D01*
X186515232Y-27403954D01*
X186575300Y-27205934D01*
X186595583Y-27000000D01*
X187024417Y-27000000D01*
X187044699Y-27205932D01*
X187074734Y-27304944D01*
X187104768Y-27403954D01*
X187202315Y-27586450D01*
X187202317Y-27586452D01*
X187333589Y-27746410D01*
X187407428Y-27807007D01*
X187493550Y-27877685D01*
X187676046Y-27975232D01*
X187874066Y-28035300D01*
X187874065Y-28035300D01*
X187892529Y-28037118D01*
X188080000Y-28055583D01*
X188285934Y-28035300D01*
X188483954Y-27975232D01*
X188666450Y-27877685D01*
X188826410Y-27746410D01*
X188957685Y-27586450D01*
X189055232Y-27403954D01*
X189115300Y-27205934D01*
X189135583Y-27000000D01*
X189564417Y-27000000D01*
X189584699Y-27205932D01*
X189614734Y-27304944D01*
X189644768Y-27403954D01*
X189742315Y-27586450D01*
X189742317Y-27586452D01*
X189873589Y-27746410D01*
X189947428Y-27807007D01*
X190033550Y-27877685D01*
X190216046Y-27975232D01*
X190414066Y-28035300D01*
X190414065Y-28035300D01*
X190432529Y-28037118D01*
X190620000Y-28055583D01*
X190825934Y-28035300D01*
X191023954Y-27975232D01*
X191206450Y-27877685D01*
X191366410Y-27746410D01*
X191497685Y-27586450D01*
X191595232Y-27403954D01*
X191655300Y-27205934D01*
X191675583Y-27000000D01*
X191655300Y-26794066D01*
X191595232Y-26596046D01*
X191497685Y-26413550D01*
X191445702Y-26350209D01*
X191366410Y-26253589D01*
X191206452Y-26122317D01*
X191206453Y-26122317D01*
X191206450Y-26122315D01*
X191023954Y-26024768D01*
X190825934Y-25964700D01*
X190825932Y-25964699D01*
X190825934Y-25964699D01*
X190620000Y-25944417D01*
X190414067Y-25964699D01*
X190216043Y-26024769D01*
X190182634Y-26042627D01*
X190033550Y-26122315D01*
X190033548Y-26122316D01*
X190033547Y-26122317D01*
X189873589Y-26253589D01*
X189742317Y-26413547D01*
X189644769Y-26596043D01*
X189584699Y-26794067D01*
X189564417Y-27000000D01*
X189135583Y-27000000D01*
X189115300Y-26794066D01*
X189055232Y-26596046D01*
X188957685Y-26413550D01*
X188905702Y-26350209D01*
X188826410Y-26253589D01*
X188666452Y-26122317D01*
X188666453Y-26122317D01*
X188666450Y-26122315D01*
X188483954Y-26024768D01*
X188285934Y-25964700D01*
X188285932Y-25964699D01*
X188285934Y-25964699D01*
X188080000Y-25944417D01*
X187874067Y-25964699D01*
X187676043Y-26024769D01*
X187642634Y-26042627D01*
X187493550Y-26122315D01*
X187493548Y-26122316D01*
X187493547Y-26122317D01*
X187333589Y-26253589D01*
X187202317Y-26413547D01*
X187104769Y-26596043D01*
X187044699Y-26794067D01*
X187024417Y-27000000D01*
X186595583Y-27000000D01*
X186575300Y-26794066D01*
X186515232Y-26596046D01*
X186417685Y-26413550D01*
X186365702Y-26350209D01*
X186286410Y-26253589D01*
X186126452Y-26122317D01*
X186126453Y-26122317D01*
X186126450Y-26122315D01*
X185943954Y-26024768D01*
X185745934Y-25964700D01*
X185745932Y-25964699D01*
X185745934Y-25964699D01*
X185540000Y-25944417D01*
X185334067Y-25964699D01*
X185136043Y-26024769D01*
X185102634Y-26042627D01*
X184953550Y-26122315D01*
X184953548Y-26122316D01*
X184953547Y-26122317D01*
X184793589Y-26253589D01*
X184666941Y-26407913D01*
X184662315Y-26413550D01*
X184593325Y-26542620D01*
X184583358Y-26561267D01*
X184534395Y-26611111D01*
X184466257Y-26626571D01*
X184400578Y-26602739D01*
X184358209Y-26547181D01*
X184350000Y-26502813D01*
X184350000Y-26102172D01*
X184349999Y-26102155D01*
X184343598Y-26042627D01*
X184343596Y-26042620D01*
X184293354Y-25907913D01*
X184293350Y-25907906D01*
X184207190Y-25792812D01*
X184207187Y-25792809D01*
X184092093Y-25706649D01*
X184092086Y-25706645D01*
X183957379Y-25656403D01*
X183957372Y-25656401D01*
X183897844Y-25650000D01*
X183250000Y-25650000D01*
X183250000Y-26566988D01*
X183192993Y-26534075D01*
X183065826Y-26500000D01*
X182934174Y-26500000D01*
X182807007Y-26534075D01*
X182750000Y-26566988D01*
X182750000Y-25650000D01*
X182102155Y-25650000D01*
X182042627Y-25656401D01*
X182042620Y-25656403D01*
X181907913Y-25706645D01*
X181907906Y-25706649D01*
X181792812Y-25792809D01*
X181792809Y-25792812D01*
X181706649Y-25907906D01*
X181706645Y-25907913D01*
X181656403Y-26042620D01*
X181656401Y-26042627D01*
X181650000Y-26102155D01*
X156000500Y-26102155D01*
X156000500Y-24624500D01*
X156020185Y-24557461D01*
X156072989Y-24511706D01*
X156124500Y-24500500D01*
X194375500Y-24500500D01*
X194442539Y-24520185D01*
G37*
%TD.AperFunction*%
%TA.AperFunction,Conductor*%
G36*
X195574075Y-87807007D02*
G01*
X195540000Y-87934174D01*
X195540000Y-88065826D01*
X195574075Y-88192993D01*
X195606988Y-88250000D01*
X193933012Y-88250000D01*
X193965925Y-88192993D01*
X194000000Y-88065826D01*
X194000000Y-87934174D01*
X193965925Y-87807007D01*
X193933012Y-87750000D01*
X195606988Y-87750000D01*
X195574075Y-87807007D01*
G37*
%TD.AperFunction*%
%TA.AperFunction,Conductor*%
G36*
X198114075Y-87807007D02*
G01*
X198080000Y-87934174D01*
X198080000Y-88065826D01*
X198114075Y-88192993D01*
X198146988Y-88250000D01*
X196473012Y-88250000D01*
X196505925Y-88192993D01*
X196540000Y-88065826D01*
X196540000Y-87934174D01*
X196505925Y-87807007D01*
X196473012Y-87750000D01*
X198146988Y-87750000D01*
X198114075Y-87807007D01*
G37*
%TD.AperFunction*%
%TD*%
M02*
