%TF.GenerationSoftware,KiCad,Pcbnew,8.0.7*%
%TF.CreationDate,2024-12-26T00:03:12+08:00*%
%TF.ProjectId,The Button,54686520-4275-4747-946f-6e2e6b696361,rev?*%
%TF.SameCoordinates,Original*%
%TF.FileFunction,Legend,Top*%
%TF.FilePolarity,Positive*%
%FSLAX46Y46*%
G04 Gerber Fmt 4.6, Leading zero omitted, Abs format (unit mm)*
G04 Created by KiCad (PCBNEW 8.0.7) date 2024-12-26 00:03:12*
%MOMM*%
%LPD*%
G01*
G04 APERTURE LIST*
%ADD10C,0.300000*%
%ADD11C,0.100000*%
%ADD12C,0.150000*%
%ADD13C,0.120000*%
%ADD14C,0.152400*%
%ADD15C,0.508000*%
G04 APERTURE END LIST*
D10*
X182127509Y-32659774D02*
X182056080Y-32802632D01*
X182056080Y-32802632D02*
X182056080Y-33016917D01*
X182056080Y-33016917D02*
X182127509Y-33231203D01*
X182127509Y-33231203D02*
X182270366Y-33374060D01*
X182270366Y-33374060D02*
X182413223Y-33445489D01*
X182413223Y-33445489D02*
X182698937Y-33516917D01*
X182698937Y-33516917D02*
X182913223Y-33516917D01*
X182913223Y-33516917D02*
X183198937Y-33445489D01*
X183198937Y-33445489D02*
X183341794Y-33374060D01*
X183341794Y-33374060D02*
X183484652Y-33231203D01*
X183484652Y-33231203D02*
X183556080Y-33016917D01*
X183556080Y-33016917D02*
X183556080Y-32874060D01*
X183556080Y-32874060D02*
X183484652Y-32659774D01*
X183484652Y-32659774D02*
X183413223Y-32588346D01*
X183413223Y-32588346D02*
X182913223Y-32588346D01*
X182913223Y-32588346D02*
X182913223Y-32874060D01*
X183556080Y-31945489D02*
X182056080Y-31945489D01*
X182056080Y-31945489D02*
X183556080Y-31088346D01*
X183556080Y-31088346D02*
X182056080Y-31088346D01*
X183556080Y-30374060D02*
X182056080Y-30374060D01*
X182056080Y-30374060D02*
X182056080Y-30016917D01*
X182056080Y-30016917D02*
X182127509Y-29802631D01*
X182127509Y-29802631D02*
X182270366Y-29659774D01*
X182270366Y-29659774D02*
X182413223Y-29588345D01*
X182413223Y-29588345D02*
X182698937Y-29516917D01*
X182698937Y-29516917D02*
X182913223Y-29516917D01*
X182913223Y-29516917D02*
X183198937Y-29588345D01*
X183198937Y-29588345D02*
X183341794Y-29659774D01*
X183341794Y-29659774D02*
X183484652Y-29802631D01*
X183484652Y-29802631D02*
X183556080Y-30016917D01*
X183556080Y-30016917D02*
X183556080Y-30374060D01*
X185970996Y-33445489D02*
X184470996Y-33445489D01*
X184470996Y-33445489D02*
X184470996Y-32874060D01*
X184470996Y-32874060D02*
X184542425Y-32731203D01*
X184542425Y-32731203D02*
X184613853Y-32659774D01*
X184613853Y-32659774D02*
X184756710Y-32588346D01*
X184756710Y-32588346D02*
X184970996Y-32588346D01*
X184970996Y-32588346D02*
X185113853Y-32659774D01*
X185113853Y-32659774D02*
X185185282Y-32731203D01*
X185185282Y-32731203D02*
X185256710Y-32874060D01*
X185256710Y-32874060D02*
X185256710Y-33445489D01*
X185542425Y-32016917D02*
X185542425Y-31302632D01*
X185970996Y-32159774D02*
X184470996Y-31659774D01*
X184470996Y-31659774D02*
X185970996Y-31159774D01*
X184613853Y-30731203D02*
X184542425Y-30659775D01*
X184542425Y-30659775D02*
X184470996Y-30516918D01*
X184470996Y-30516918D02*
X184470996Y-30159775D01*
X184470996Y-30159775D02*
X184542425Y-30016918D01*
X184542425Y-30016918D02*
X184613853Y-29945489D01*
X184613853Y-29945489D02*
X184756710Y-29874060D01*
X184756710Y-29874060D02*
X184899568Y-29874060D01*
X184899568Y-29874060D02*
X185113853Y-29945489D01*
X185113853Y-29945489D02*
X185970996Y-30802632D01*
X185970996Y-30802632D02*
X185970996Y-29874060D01*
X188385912Y-33445489D02*
X186885912Y-33445489D01*
X186885912Y-33445489D02*
X186885912Y-32874060D01*
X186885912Y-32874060D02*
X186957341Y-32731203D01*
X186957341Y-32731203D02*
X187028769Y-32659774D01*
X187028769Y-32659774D02*
X187171626Y-32588346D01*
X187171626Y-32588346D02*
X187385912Y-32588346D01*
X187385912Y-32588346D02*
X187528769Y-32659774D01*
X187528769Y-32659774D02*
X187600198Y-32731203D01*
X187600198Y-32731203D02*
X187671626Y-32874060D01*
X187671626Y-32874060D02*
X187671626Y-33445489D01*
X187957341Y-32016917D02*
X187957341Y-31302632D01*
X188385912Y-32159774D02*
X186885912Y-31659774D01*
X186885912Y-31659774D02*
X188385912Y-31159774D01*
X188385912Y-29874060D02*
X188385912Y-30731203D01*
X188385912Y-30302632D02*
X186885912Y-30302632D01*
X186885912Y-30302632D02*
X187100198Y-30445489D01*
X187100198Y-30445489D02*
X187243055Y-30588346D01*
X187243055Y-30588346D02*
X187314484Y-30731203D01*
X190800828Y-33445489D02*
X189300828Y-33445489D01*
X189300828Y-33445489D02*
X189300828Y-32874060D01*
X189300828Y-32874060D02*
X189372257Y-32731203D01*
X189372257Y-32731203D02*
X189443685Y-32659774D01*
X189443685Y-32659774D02*
X189586542Y-32588346D01*
X189586542Y-32588346D02*
X189800828Y-32588346D01*
X189800828Y-32588346D02*
X189943685Y-32659774D01*
X189943685Y-32659774D02*
X190015114Y-32731203D01*
X190015114Y-32731203D02*
X190086542Y-32874060D01*
X190086542Y-32874060D02*
X190086542Y-33445489D01*
X190372257Y-32016917D02*
X190372257Y-31302632D01*
X190800828Y-32159774D02*
X189300828Y-31659774D01*
X189300828Y-31659774D02*
X190800828Y-31159774D01*
X189300828Y-30374060D02*
X189300828Y-30231203D01*
X189300828Y-30231203D02*
X189372257Y-30088346D01*
X189372257Y-30088346D02*
X189443685Y-30016918D01*
X189443685Y-30016918D02*
X189586542Y-29945489D01*
X189586542Y-29945489D02*
X189872257Y-29874060D01*
X189872257Y-29874060D02*
X190229400Y-29874060D01*
X190229400Y-29874060D02*
X190515114Y-29945489D01*
X190515114Y-29945489D02*
X190657971Y-30016918D01*
X190657971Y-30016918D02*
X190729400Y-30088346D01*
X190729400Y-30088346D02*
X190800828Y-30231203D01*
X190800828Y-30231203D02*
X190800828Y-30374060D01*
X190800828Y-30374060D02*
X190729400Y-30516918D01*
X190729400Y-30516918D02*
X190657971Y-30588346D01*
X190657971Y-30588346D02*
X190515114Y-30659775D01*
X190515114Y-30659775D02*
X190229400Y-30731203D01*
X190229400Y-30731203D02*
X189872257Y-30731203D01*
X189872257Y-30731203D02*
X189586542Y-30659775D01*
X189586542Y-30659775D02*
X189443685Y-30588346D01*
X189443685Y-30588346D02*
X189372257Y-30516918D01*
X189372257Y-30516918D02*
X189300828Y-30374060D01*
X158056080Y-29445489D02*
X156556080Y-29445489D01*
X158056080Y-28588346D02*
X157198937Y-29231203D01*
X156556080Y-28588346D02*
X157413223Y-29445489D01*
X157984652Y-27374060D02*
X158056080Y-27516917D01*
X158056080Y-27516917D02*
X158056080Y-27802632D01*
X158056080Y-27802632D02*
X157984652Y-27945489D01*
X157984652Y-27945489D02*
X157841794Y-28016917D01*
X157841794Y-28016917D02*
X157270366Y-28016917D01*
X157270366Y-28016917D02*
X157127509Y-27945489D01*
X157127509Y-27945489D02*
X157056080Y-27802632D01*
X157056080Y-27802632D02*
X157056080Y-27516917D01*
X157056080Y-27516917D02*
X157127509Y-27374060D01*
X157127509Y-27374060D02*
X157270366Y-27302632D01*
X157270366Y-27302632D02*
X157413223Y-27302632D01*
X157413223Y-27302632D02*
X157556080Y-28016917D01*
X157056080Y-26802632D02*
X158056080Y-26445489D01*
X157056080Y-26088346D02*
X158056080Y-26445489D01*
X158056080Y-26445489D02*
X158413223Y-26588346D01*
X158413223Y-26588346D02*
X158484652Y-26659775D01*
X158484652Y-26659775D02*
X158556080Y-26802632D01*
X160470996Y-29445489D02*
X158970996Y-29445489D01*
X159685282Y-29445489D02*
X159685282Y-28588346D01*
X160470996Y-28588346D02*
X158970996Y-28588346D01*
X160470996Y-27874060D02*
X159470996Y-27874060D01*
X158970996Y-27874060D02*
X159042425Y-27945488D01*
X159042425Y-27945488D02*
X159113853Y-27874060D01*
X159113853Y-27874060D02*
X159042425Y-27802631D01*
X159042425Y-27802631D02*
X158970996Y-27874060D01*
X158970996Y-27874060D02*
X159113853Y-27874060D01*
X162885912Y-28731203D02*
X162885912Y-29445489D01*
X162885912Y-29445489D02*
X161385912Y-29445489D01*
X162885912Y-28016917D02*
X162814484Y-28159774D01*
X162814484Y-28159774D02*
X162743055Y-28231203D01*
X162743055Y-28231203D02*
X162600198Y-28302631D01*
X162600198Y-28302631D02*
X162171626Y-28302631D01*
X162171626Y-28302631D02*
X162028769Y-28231203D01*
X162028769Y-28231203D02*
X161957341Y-28159774D01*
X161957341Y-28159774D02*
X161885912Y-28016917D01*
X161885912Y-28016917D02*
X161885912Y-27802631D01*
X161885912Y-27802631D02*
X161957341Y-27659774D01*
X161957341Y-27659774D02*
X162028769Y-27588346D01*
X162028769Y-27588346D02*
X162171626Y-27516917D01*
X162171626Y-27516917D02*
X162600198Y-27516917D01*
X162600198Y-27516917D02*
X162743055Y-27588346D01*
X162743055Y-27588346D02*
X162814484Y-27659774D01*
X162814484Y-27659774D02*
X162885912Y-27802631D01*
X162885912Y-27802631D02*
X162885912Y-28016917D01*
X163872257Y-28659774D02*
X163800828Y-28802632D01*
X163800828Y-28802632D02*
X163800828Y-29016917D01*
X163800828Y-29016917D02*
X163872257Y-29231203D01*
X163872257Y-29231203D02*
X164015114Y-29374060D01*
X164015114Y-29374060D02*
X164157971Y-29445489D01*
X164157971Y-29445489D02*
X164443685Y-29516917D01*
X164443685Y-29516917D02*
X164657971Y-29516917D01*
X164657971Y-29516917D02*
X164943685Y-29445489D01*
X164943685Y-29445489D02*
X165086542Y-29374060D01*
X165086542Y-29374060D02*
X165229400Y-29231203D01*
X165229400Y-29231203D02*
X165300828Y-29016917D01*
X165300828Y-29016917D02*
X165300828Y-28874060D01*
X165300828Y-28874060D02*
X165229400Y-28659774D01*
X165229400Y-28659774D02*
X165157971Y-28588346D01*
X165157971Y-28588346D02*
X164657971Y-28588346D01*
X164657971Y-28588346D02*
X164657971Y-28874060D01*
X164300828Y-27945489D02*
X165300828Y-27945489D01*
X164443685Y-27945489D02*
X164372257Y-27874060D01*
X164372257Y-27874060D02*
X164300828Y-27731203D01*
X164300828Y-27731203D02*
X164300828Y-27516917D01*
X164300828Y-27516917D02*
X164372257Y-27374060D01*
X164372257Y-27374060D02*
X164515114Y-27302632D01*
X164515114Y-27302632D02*
X165300828Y-27302632D01*
X165300828Y-25945489D02*
X163800828Y-25945489D01*
X165229400Y-25945489D02*
X165300828Y-26088346D01*
X165300828Y-26088346D02*
X165300828Y-26374060D01*
X165300828Y-26374060D02*
X165229400Y-26516917D01*
X165229400Y-26516917D02*
X165157971Y-26588346D01*
X165157971Y-26588346D02*
X165015114Y-26659774D01*
X165015114Y-26659774D02*
X164586542Y-26659774D01*
X164586542Y-26659774D02*
X164443685Y-26588346D01*
X164443685Y-26588346D02*
X164372257Y-26516917D01*
X164372257Y-26516917D02*
X164300828Y-26374060D01*
X164300828Y-26374060D02*
X164300828Y-26088346D01*
X164300828Y-26088346D02*
X164372257Y-25945489D01*
X167385912Y-63659774D02*
X167385912Y-62802632D01*
X168885912Y-63231203D02*
X167385912Y-63231203D01*
X168885912Y-62302632D02*
X167385912Y-62302632D01*
X168885912Y-61659775D02*
X168100198Y-61659775D01*
X168100198Y-61659775D02*
X167957341Y-61731203D01*
X167957341Y-61731203D02*
X167885912Y-61874060D01*
X167885912Y-61874060D02*
X167885912Y-62088346D01*
X167885912Y-62088346D02*
X167957341Y-62231203D01*
X167957341Y-62231203D02*
X168028769Y-62302632D01*
X168814484Y-60374060D02*
X168885912Y-60516917D01*
X168885912Y-60516917D02*
X168885912Y-60802632D01*
X168885912Y-60802632D02*
X168814484Y-60945489D01*
X168814484Y-60945489D02*
X168671626Y-61016917D01*
X168671626Y-61016917D02*
X168100198Y-61016917D01*
X168100198Y-61016917D02*
X167957341Y-60945489D01*
X167957341Y-60945489D02*
X167885912Y-60802632D01*
X167885912Y-60802632D02*
X167885912Y-60516917D01*
X167885912Y-60516917D02*
X167957341Y-60374060D01*
X167957341Y-60374060D02*
X168100198Y-60302632D01*
X168100198Y-60302632D02*
X168243055Y-60302632D01*
X168243055Y-60302632D02*
X168385912Y-61016917D01*
X168100198Y-58016918D02*
X168171626Y-57802632D01*
X168171626Y-57802632D02*
X168243055Y-57731203D01*
X168243055Y-57731203D02*
X168385912Y-57659775D01*
X168385912Y-57659775D02*
X168600198Y-57659775D01*
X168600198Y-57659775D02*
X168743055Y-57731203D01*
X168743055Y-57731203D02*
X168814484Y-57802632D01*
X168814484Y-57802632D02*
X168885912Y-57945489D01*
X168885912Y-57945489D02*
X168885912Y-58516918D01*
X168885912Y-58516918D02*
X167385912Y-58516918D01*
X167385912Y-58516918D02*
X167385912Y-58016918D01*
X167385912Y-58016918D02*
X167457341Y-57874061D01*
X167457341Y-57874061D02*
X167528769Y-57802632D01*
X167528769Y-57802632D02*
X167671626Y-57731203D01*
X167671626Y-57731203D02*
X167814484Y-57731203D01*
X167814484Y-57731203D02*
X167957341Y-57802632D01*
X167957341Y-57802632D02*
X168028769Y-57874061D01*
X168028769Y-57874061D02*
X168100198Y-58016918D01*
X168100198Y-58016918D02*
X168100198Y-58516918D01*
X167885912Y-56374061D02*
X168885912Y-56374061D01*
X167885912Y-57016918D02*
X168671626Y-57016918D01*
X168671626Y-57016918D02*
X168814484Y-56945489D01*
X168814484Y-56945489D02*
X168885912Y-56802632D01*
X168885912Y-56802632D02*
X168885912Y-56588346D01*
X168885912Y-56588346D02*
X168814484Y-56445489D01*
X168814484Y-56445489D02*
X168743055Y-56374061D01*
X167885912Y-55874060D02*
X167885912Y-55302632D01*
X167385912Y-55659775D02*
X168671626Y-55659775D01*
X168671626Y-55659775D02*
X168814484Y-55588346D01*
X168814484Y-55588346D02*
X168885912Y-55445489D01*
X168885912Y-55445489D02*
X168885912Y-55302632D01*
X167885912Y-55016917D02*
X167885912Y-54445489D01*
X167385912Y-54802632D02*
X168671626Y-54802632D01*
X168671626Y-54802632D02*
X168814484Y-54731203D01*
X168814484Y-54731203D02*
X168885912Y-54588346D01*
X168885912Y-54588346D02*
X168885912Y-54445489D01*
X168885912Y-53731203D02*
X168814484Y-53874060D01*
X168814484Y-53874060D02*
X168743055Y-53945489D01*
X168743055Y-53945489D02*
X168600198Y-54016917D01*
X168600198Y-54016917D02*
X168171626Y-54016917D01*
X168171626Y-54016917D02*
X168028769Y-53945489D01*
X168028769Y-53945489D02*
X167957341Y-53874060D01*
X167957341Y-53874060D02*
X167885912Y-53731203D01*
X167885912Y-53731203D02*
X167885912Y-53516917D01*
X167885912Y-53516917D02*
X167957341Y-53374060D01*
X167957341Y-53374060D02*
X168028769Y-53302632D01*
X168028769Y-53302632D02*
X168171626Y-53231203D01*
X168171626Y-53231203D02*
X168600198Y-53231203D01*
X168600198Y-53231203D02*
X168743055Y-53302632D01*
X168743055Y-53302632D02*
X168814484Y-53374060D01*
X168814484Y-53374060D02*
X168885912Y-53516917D01*
X168885912Y-53516917D02*
X168885912Y-53731203D01*
X167885912Y-52588346D02*
X168885912Y-52588346D01*
X168028769Y-52588346D02*
X167957341Y-52516917D01*
X167957341Y-52516917D02*
X167885912Y-52374060D01*
X167885912Y-52374060D02*
X167885912Y-52159774D01*
X167885912Y-52159774D02*
X167957341Y-52016917D01*
X167957341Y-52016917D02*
X168100198Y-51945489D01*
X168100198Y-51945489D02*
X168885912Y-51945489D01*
X167885912Y-50231203D02*
X168885912Y-49874060D01*
X168885912Y-49874060D02*
X167885912Y-49516917D01*
X167528769Y-49016917D02*
X167457341Y-48945489D01*
X167457341Y-48945489D02*
X167385912Y-48802632D01*
X167385912Y-48802632D02*
X167385912Y-48445489D01*
X167385912Y-48445489D02*
X167457341Y-48302632D01*
X167457341Y-48302632D02*
X167528769Y-48231203D01*
X167528769Y-48231203D02*
X167671626Y-48159774D01*
X167671626Y-48159774D02*
X167814484Y-48159774D01*
X167814484Y-48159774D02*
X168028769Y-48231203D01*
X168028769Y-48231203D02*
X168885912Y-49088346D01*
X168885912Y-49088346D02*
X168885912Y-48159774D01*
X171300828Y-63445489D02*
X169800828Y-63445489D01*
X170372257Y-63445489D02*
X170300828Y-63302632D01*
X170300828Y-63302632D02*
X170300828Y-63016917D01*
X170300828Y-63016917D02*
X170372257Y-62874060D01*
X170372257Y-62874060D02*
X170443685Y-62802632D01*
X170443685Y-62802632D02*
X170586542Y-62731203D01*
X170586542Y-62731203D02*
X171015114Y-62731203D01*
X171015114Y-62731203D02*
X171157971Y-62802632D01*
X171157971Y-62802632D02*
X171229400Y-62874060D01*
X171229400Y-62874060D02*
X171300828Y-63016917D01*
X171300828Y-63016917D02*
X171300828Y-63302632D01*
X171300828Y-63302632D02*
X171229400Y-63445489D01*
X170300828Y-62231203D02*
X171300828Y-61874060D01*
X170300828Y-61516917D02*
X171300828Y-61874060D01*
X171300828Y-61874060D02*
X171657971Y-62016917D01*
X171657971Y-62016917D02*
X171729400Y-62088346D01*
X171729400Y-62088346D02*
X171800828Y-62231203D01*
X171300828Y-59802632D02*
X169800828Y-59802632D01*
X169800828Y-59802632D02*
X170872257Y-59302632D01*
X170872257Y-59302632D02*
X169800828Y-58802632D01*
X169800828Y-58802632D02*
X171300828Y-58802632D01*
X171300828Y-57445489D02*
X170515114Y-57445489D01*
X170515114Y-57445489D02*
X170372257Y-57516917D01*
X170372257Y-57516917D02*
X170300828Y-57659774D01*
X170300828Y-57659774D02*
X170300828Y-57945489D01*
X170300828Y-57945489D02*
X170372257Y-58088346D01*
X171229400Y-57445489D02*
X171300828Y-57588346D01*
X171300828Y-57588346D02*
X171300828Y-57945489D01*
X171300828Y-57945489D02*
X171229400Y-58088346D01*
X171229400Y-58088346D02*
X171086542Y-58159774D01*
X171086542Y-58159774D02*
X170943685Y-58159774D01*
X170943685Y-58159774D02*
X170800828Y-58088346D01*
X170800828Y-58088346D02*
X170729400Y-57945489D01*
X170729400Y-57945489D02*
X170729400Y-57588346D01*
X170729400Y-57588346D02*
X170657971Y-57445489D01*
X171229400Y-56159774D02*
X171300828Y-56302631D01*
X171300828Y-56302631D02*
X171300828Y-56588346D01*
X171300828Y-56588346D02*
X171229400Y-56731203D01*
X171229400Y-56731203D02*
X171086542Y-56802631D01*
X171086542Y-56802631D02*
X170515114Y-56802631D01*
X170515114Y-56802631D02*
X170372257Y-56731203D01*
X170372257Y-56731203D02*
X170300828Y-56588346D01*
X170300828Y-56588346D02*
X170300828Y-56302631D01*
X170300828Y-56302631D02*
X170372257Y-56159774D01*
X170372257Y-56159774D02*
X170515114Y-56088346D01*
X170515114Y-56088346D02*
X170657971Y-56088346D01*
X170657971Y-56088346D02*
X170800828Y-56802631D01*
X171300828Y-55445489D02*
X169800828Y-55445489D01*
X170372257Y-55445489D02*
X170300828Y-55302632D01*
X170300828Y-55302632D02*
X170300828Y-55016917D01*
X170300828Y-55016917D02*
X170372257Y-54874060D01*
X170372257Y-54874060D02*
X170443685Y-54802632D01*
X170443685Y-54802632D02*
X170586542Y-54731203D01*
X170586542Y-54731203D02*
X171015114Y-54731203D01*
X171015114Y-54731203D02*
X171157971Y-54802632D01*
X171157971Y-54802632D02*
X171229400Y-54874060D01*
X171229400Y-54874060D02*
X171300828Y-55016917D01*
X171300828Y-55016917D02*
X171300828Y-55302632D01*
X171300828Y-55302632D02*
X171229400Y-55445489D01*
X171229400Y-53516917D02*
X171300828Y-53659774D01*
X171300828Y-53659774D02*
X171300828Y-53945489D01*
X171300828Y-53945489D02*
X171229400Y-54088346D01*
X171229400Y-54088346D02*
X171086542Y-54159774D01*
X171086542Y-54159774D02*
X170515114Y-54159774D01*
X170515114Y-54159774D02*
X170372257Y-54088346D01*
X170372257Y-54088346D02*
X170300828Y-53945489D01*
X170300828Y-53945489D02*
X170300828Y-53659774D01*
X170300828Y-53659774D02*
X170372257Y-53516917D01*
X170372257Y-53516917D02*
X170515114Y-53445489D01*
X170515114Y-53445489D02*
X170657971Y-53445489D01*
X170657971Y-53445489D02*
X170800828Y-54159774D01*
X171157971Y-52802632D02*
X171229400Y-52731203D01*
X171229400Y-52731203D02*
X171300828Y-52802632D01*
X171300828Y-52802632D02*
X171229400Y-52874060D01*
X171229400Y-52874060D02*
X171157971Y-52802632D01*
X171157971Y-52802632D02*
X171300828Y-52802632D01*
X171300828Y-52088346D02*
X170300828Y-52088346D01*
X170443685Y-52088346D02*
X170372257Y-52016917D01*
X170372257Y-52016917D02*
X170300828Y-51874060D01*
X170300828Y-51874060D02*
X170300828Y-51659774D01*
X170300828Y-51659774D02*
X170372257Y-51516917D01*
X170372257Y-51516917D02*
X170515114Y-51445489D01*
X170515114Y-51445489D02*
X171300828Y-51445489D01*
X170515114Y-51445489D02*
X170372257Y-51374060D01*
X170372257Y-51374060D02*
X170300828Y-51231203D01*
X170300828Y-51231203D02*
X170300828Y-51016917D01*
X170300828Y-51016917D02*
X170372257Y-50874060D01*
X170372257Y-50874060D02*
X170515114Y-50802631D01*
X170515114Y-50802631D02*
X171300828Y-50802631D01*
X171229400Y-49516917D02*
X171300828Y-49659774D01*
X171300828Y-49659774D02*
X171300828Y-49945489D01*
X171300828Y-49945489D02*
X171229400Y-50088346D01*
X171229400Y-50088346D02*
X171086542Y-50159774D01*
X171086542Y-50159774D02*
X170515114Y-50159774D01*
X170515114Y-50159774D02*
X170372257Y-50088346D01*
X170372257Y-50088346D02*
X170300828Y-49945489D01*
X170300828Y-49945489D02*
X170300828Y-49659774D01*
X170300828Y-49659774D02*
X170372257Y-49516917D01*
X170372257Y-49516917D02*
X170515114Y-49445489D01*
X170515114Y-49445489D02*
X170657971Y-49445489D01*
X170657971Y-49445489D02*
X170800828Y-50159774D01*
D11*
X187627580Y-85208646D02*
X187627580Y-85827693D01*
X187627580Y-85827693D02*
X187246628Y-85494360D01*
X187246628Y-85494360D02*
X187246628Y-85637217D01*
X187246628Y-85637217D02*
X187199009Y-85732455D01*
X187199009Y-85732455D02*
X187151390Y-85780074D01*
X187151390Y-85780074D02*
X187056152Y-85827693D01*
X187056152Y-85827693D02*
X186818057Y-85827693D01*
X186818057Y-85827693D02*
X186722819Y-85780074D01*
X186722819Y-85780074D02*
X186675200Y-85732455D01*
X186675200Y-85732455D02*
X186627580Y-85637217D01*
X186627580Y-85637217D02*
X186627580Y-85351503D01*
X186627580Y-85351503D02*
X186675200Y-85256265D01*
X186675200Y-85256265D02*
X186722819Y-85208646D01*
X187627580Y-86113408D02*
X186627580Y-86446741D01*
X186627580Y-86446741D02*
X187627580Y-86780074D01*
X186627580Y-87875313D02*
X187627580Y-87875313D01*
X187627580Y-88541979D02*
X187627580Y-88732455D01*
X187627580Y-88732455D02*
X187579961Y-88827693D01*
X187579961Y-88827693D02*
X187484723Y-88922931D01*
X187484723Y-88922931D02*
X187294247Y-88970550D01*
X187294247Y-88970550D02*
X186960914Y-88970550D01*
X186960914Y-88970550D02*
X186770438Y-88922931D01*
X186770438Y-88922931D02*
X186675200Y-88827693D01*
X186675200Y-88827693D02*
X186627580Y-88732455D01*
X186627580Y-88732455D02*
X186627580Y-88541979D01*
X186627580Y-88541979D02*
X186675200Y-88446741D01*
X186675200Y-88446741D02*
X186770438Y-88351503D01*
X186770438Y-88351503D02*
X186960914Y-88303884D01*
X186960914Y-88303884D02*
X187294247Y-88303884D01*
X187294247Y-88303884D02*
X187484723Y-88351503D01*
X187484723Y-88351503D02*
X187579961Y-88446741D01*
X187579961Y-88446741D02*
X187627580Y-88541979D01*
X186722819Y-90732455D02*
X186675200Y-90684836D01*
X186675200Y-90684836D02*
X186627580Y-90541979D01*
X186627580Y-90541979D02*
X186627580Y-90446741D01*
X186627580Y-90446741D02*
X186675200Y-90303884D01*
X186675200Y-90303884D02*
X186770438Y-90208646D01*
X186770438Y-90208646D02*
X186865676Y-90161027D01*
X186865676Y-90161027D02*
X187056152Y-90113408D01*
X187056152Y-90113408D02*
X187199009Y-90113408D01*
X187199009Y-90113408D02*
X187389485Y-90161027D01*
X187389485Y-90161027D02*
X187484723Y-90208646D01*
X187484723Y-90208646D02*
X187579961Y-90303884D01*
X187579961Y-90303884D02*
X187627580Y-90446741D01*
X187627580Y-90446741D02*
X187627580Y-90541979D01*
X187627580Y-90541979D02*
X187579961Y-90684836D01*
X187579961Y-90684836D02*
X187532342Y-90732455D01*
X186627580Y-91637217D02*
X186627580Y-91161027D01*
X186627580Y-91161027D02*
X187627580Y-91161027D01*
X186627580Y-91970551D02*
X187627580Y-91970551D01*
X186627580Y-92541979D02*
X187199009Y-92113408D01*
X187627580Y-92541979D02*
X187056152Y-91970551D01*
X186627580Y-94303884D02*
X187103771Y-93970551D01*
X186627580Y-93732456D02*
X187627580Y-93732456D01*
X187627580Y-93732456D02*
X187627580Y-94113408D01*
X187627580Y-94113408D02*
X187579961Y-94208646D01*
X187579961Y-94208646D02*
X187532342Y-94256265D01*
X187532342Y-94256265D02*
X187437104Y-94303884D01*
X187437104Y-94303884D02*
X187294247Y-94303884D01*
X187294247Y-94303884D02*
X187199009Y-94256265D01*
X187199009Y-94256265D02*
X187151390Y-94208646D01*
X187151390Y-94208646D02*
X187103771Y-94113408D01*
X187103771Y-94113408D02*
X187103771Y-93732456D01*
X186675200Y-94684837D02*
X186627580Y-94827694D01*
X186627580Y-94827694D02*
X186627580Y-95065789D01*
X186627580Y-95065789D02*
X186675200Y-95161027D01*
X186675200Y-95161027D02*
X186722819Y-95208646D01*
X186722819Y-95208646D02*
X186818057Y-95256265D01*
X186818057Y-95256265D02*
X186913295Y-95256265D01*
X186913295Y-95256265D02*
X187008533Y-95208646D01*
X187008533Y-95208646D02*
X187056152Y-95161027D01*
X187056152Y-95161027D02*
X187103771Y-95065789D01*
X187103771Y-95065789D02*
X187151390Y-94875313D01*
X187151390Y-94875313D02*
X187199009Y-94780075D01*
X187199009Y-94780075D02*
X187246628Y-94732456D01*
X187246628Y-94732456D02*
X187341866Y-94684837D01*
X187341866Y-94684837D02*
X187437104Y-94684837D01*
X187437104Y-94684837D02*
X187532342Y-94732456D01*
X187532342Y-94732456D02*
X187579961Y-94780075D01*
X187579961Y-94780075D02*
X187627580Y-94875313D01*
X187627580Y-94875313D02*
X187627580Y-95113408D01*
X187627580Y-95113408D02*
X187579961Y-95256265D01*
X187627580Y-95541980D02*
X187627580Y-96113408D01*
X186627580Y-95827694D02*
X187627580Y-95827694D01*
X176708646Y-82372419D02*
X177327693Y-82372419D01*
X177327693Y-82372419D02*
X176994360Y-82753371D01*
X176994360Y-82753371D02*
X177137217Y-82753371D01*
X177137217Y-82753371D02*
X177232455Y-82800990D01*
X177232455Y-82800990D02*
X177280074Y-82848609D01*
X177280074Y-82848609D02*
X177327693Y-82943847D01*
X177327693Y-82943847D02*
X177327693Y-83181942D01*
X177327693Y-83181942D02*
X177280074Y-83277180D01*
X177280074Y-83277180D02*
X177232455Y-83324800D01*
X177232455Y-83324800D02*
X177137217Y-83372419D01*
X177137217Y-83372419D02*
X176851503Y-83372419D01*
X176851503Y-83372419D02*
X176756265Y-83324800D01*
X176756265Y-83324800D02*
X176708646Y-83277180D01*
X177613408Y-82372419D02*
X177946741Y-83372419D01*
X177946741Y-83372419D02*
X178280074Y-82372419D01*
X178518170Y-82372419D02*
X179137217Y-82372419D01*
X179137217Y-82372419D02*
X178803884Y-82753371D01*
X178803884Y-82753371D02*
X178946741Y-82753371D01*
X178946741Y-82753371D02*
X179041979Y-82800990D01*
X179041979Y-82800990D02*
X179089598Y-82848609D01*
X179089598Y-82848609D02*
X179137217Y-82943847D01*
X179137217Y-82943847D02*
X179137217Y-83181942D01*
X179137217Y-83181942D02*
X179089598Y-83277180D01*
X179089598Y-83277180D02*
X179041979Y-83324800D01*
X179041979Y-83324800D02*
X178946741Y-83372419D01*
X178946741Y-83372419D02*
X178661027Y-83372419D01*
X178661027Y-83372419D02*
X178565789Y-83324800D01*
X178565789Y-83324800D02*
X178518170Y-83277180D01*
X192137217Y-84348609D02*
X192280074Y-84396228D01*
X192280074Y-84396228D02*
X192327693Y-84443847D01*
X192327693Y-84443847D02*
X192375312Y-84539085D01*
X192375312Y-84539085D02*
X192375312Y-84681942D01*
X192375312Y-84681942D02*
X192327693Y-84777180D01*
X192327693Y-84777180D02*
X192280074Y-84824800D01*
X192280074Y-84824800D02*
X192184836Y-84872419D01*
X192184836Y-84872419D02*
X191803884Y-84872419D01*
X191803884Y-84872419D02*
X191803884Y-83872419D01*
X191803884Y-83872419D02*
X192137217Y-83872419D01*
X192137217Y-83872419D02*
X192232455Y-83920038D01*
X192232455Y-83920038D02*
X192280074Y-83967657D01*
X192280074Y-83967657D02*
X192327693Y-84062895D01*
X192327693Y-84062895D02*
X192327693Y-84158133D01*
X192327693Y-84158133D02*
X192280074Y-84253371D01*
X192280074Y-84253371D02*
X192232455Y-84300990D01*
X192232455Y-84300990D02*
X192137217Y-84348609D01*
X192137217Y-84348609D02*
X191803884Y-84348609D01*
X192994360Y-83872419D02*
X193184836Y-83872419D01*
X193184836Y-83872419D02*
X193280074Y-83920038D01*
X193280074Y-83920038D02*
X193375312Y-84015276D01*
X193375312Y-84015276D02*
X193422931Y-84205752D01*
X193422931Y-84205752D02*
X193422931Y-84539085D01*
X193422931Y-84539085D02*
X193375312Y-84729561D01*
X193375312Y-84729561D02*
X193280074Y-84824800D01*
X193280074Y-84824800D02*
X193184836Y-84872419D01*
X193184836Y-84872419D02*
X192994360Y-84872419D01*
X192994360Y-84872419D02*
X192899122Y-84824800D01*
X192899122Y-84824800D02*
X192803884Y-84729561D01*
X192803884Y-84729561D02*
X192756265Y-84539085D01*
X192756265Y-84539085D02*
X192756265Y-84205752D01*
X192756265Y-84205752D02*
X192803884Y-84015276D01*
X192803884Y-84015276D02*
X192899122Y-83920038D01*
X192899122Y-83920038D02*
X192994360Y-83872419D01*
X194041979Y-83872419D02*
X194232455Y-83872419D01*
X194232455Y-83872419D02*
X194327693Y-83920038D01*
X194327693Y-83920038D02*
X194422931Y-84015276D01*
X194422931Y-84015276D02*
X194470550Y-84205752D01*
X194470550Y-84205752D02*
X194470550Y-84539085D01*
X194470550Y-84539085D02*
X194422931Y-84729561D01*
X194422931Y-84729561D02*
X194327693Y-84824800D01*
X194327693Y-84824800D02*
X194232455Y-84872419D01*
X194232455Y-84872419D02*
X194041979Y-84872419D01*
X194041979Y-84872419D02*
X193946741Y-84824800D01*
X193946741Y-84824800D02*
X193851503Y-84729561D01*
X193851503Y-84729561D02*
X193803884Y-84539085D01*
X193803884Y-84539085D02*
X193803884Y-84205752D01*
X193803884Y-84205752D02*
X193851503Y-84015276D01*
X193851503Y-84015276D02*
X193946741Y-83920038D01*
X193946741Y-83920038D02*
X194041979Y-83872419D01*
X194756265Y-83872419D02*
X195327693Y-83872419D01*
X195041979Y-84872419D02*
X195041979Y-83872419D01*
D12*
X178808333Y-94454819D02*
X178475000Y-93978628D01*
X178236905Y-94454819D02*
X178236905Y-93454819D01*
X178236905Y-93454819D02*
X178617857Y-93454819D01*
X178617857Y-93454819D02*
X178713095Y-93502438D01*
X178713095Y-93502438D02*
X178760714Y-93550057D01*
X178760714Y-93550057D02*
X178808333Y-93645295D01*
X178808333Y-93645295D02*
X178808333Y-93788152D01*
X178808333Y-93788152D02*
X178760714Y-93883390D01*
X178760714Y-93883390D02*
X178713095Y-93931009D01*
X178713095Y-93931009D02*
X178617857Y-93978628D01*
X178617857Y-93978628D02*
X178236905Y-93978628D01*
X179141667Y-93454819D02*
X179808333Y-93454819D01*
X179808333Y-93454819D02*
X179379762Y-94454819D01*
X172539580Y-32680357D02*
X172587200Y-32727976D01*
X172587200Y-32727976D02*
X172634819Y-32870833D01*
X172634819Y-32870833D02*
X172634819Y-32966071D01*
X172634819Y-32966071D02*
X172587200Y-33108928D01*
X172587200Y-33108928D02*
X172491961Y-33204166D01*
X172491961Y-33204166D02*
X172396723Y-33251785D01*
X172396723Y-33251785D02*
X172206247Y-33299404D01*
X172206247Y-33299404D02*
X172063390Y-33299404D01*
X172063390Y-33299404D02*
X171872914Y-33251785D01*
X171872914Y-33251785D02*
X171777676Y-33204166D01*
X171777676Y-33204166D02*
X171682438Y-33108928D01*
X171682438Y-33108928D02*
X171634819Y-32966071D01*
X171634819Y-32966071D02*
X171634819Y-32870833D01*
X171634819Y-32870833D02*
X171682438Y-32727976D01*
X171682438Y-32727976D02*
X171730057Y-32680357D01*
X172634819Y-31727976D02*
X172634819Y-32299404D01*
X172634819Y-32013690D02*
X171634819Y-32013690D01*
X171634819Y-32013690D02*
X171777676Y-32108928D01*
X171777676Y-32108928D02*
X171872914Y-32204166D01*
X171872914Y-32204166D02*
X171920533Y-32299404D01*
X171730057Y-31347023D02*
X171682438Y-31299404D01*
X171682438Y-31299404D02*
X171634819Y-31204166D01*
X171634819Y-31204166D02*
X171634819Y-30966071D01*
X171634819Y-30966071D02*
X171682438Y-30870833D01*
X171682438Y-30870833D02*
X171730057Y-30823214D01*
X171730057Y-30823214D02*
X171825295Y-30775595D01*
X171825295Y-30775595D02*
X171920533Y-30775595D01*
X171920533Y-30775595D02*
X172063390Y-30823214D01*
X172063390Y-30823214D02*
X172634819Y-31394642D01*
X172634819Y-31394642D02*
X172634819Y-30775595D01*
X162359580Y-90666666D02*
X162407200Y-90714285D01*
X162407200Y-90714285D02*
X162454819Y-90857142D01*
X162454819Y-90857142D02*
X162454819Y-90952380D01*
X162454819Y-90952380D02*
X162407200Y-91095237D01*
X162407200Y-91095237D02*
X162311961Y-91190475D01*
X162311961Y-91190475D02*
X162216723Y-91238094D01*
X162216723Y-91238094D02*
X162026247Y-91285713D01*
X162026247Y-91285713D02*
X161883390Y-91285713D01*
X161883390Y-91285713D02*
X161692914Y-91238094D01*
X161692914Y-91238094D02*
X161597676Y-91190475D01*
X161597676Y-91190475D02*
X161502438Y-91095237D01*
X161502438Y-91095237D02*
X161454819Y-90952380D01*
X161454819Y-90952380D02*
X161454819Y-90857142D01*
X161454819Y-90857142D02*
X161502438Y-90714285D01*
X161502438Y-90714285D02*
X161550057Y-90666666D01*
X161454819Y-90333332D02*
X161454819Y-89714285D01*
X161454819Y-89714285D02*
X161835771Y-90047618D01*
X161835771Y-90047618D02*
X161835771Y-89904761D01*
X161835771Y-89904761D02*
X161883390Y-89809523D01*
X161883390Y-89809523D02*
X161931009Y-89761904D01*
X161931009Y-89761904D02*
X162026247Y-89714285D01*
X162026247Y-89714285D02*
X162264342Y-89714285D01*
X162264342Y-89714285D02*
X162359580Y-89761904D01*
X162359580Y-89761904D02*
X162407200Y-89809523D01*
X162407200Y-89809523D02*
X162454819Y-89904761D01*
X162454819Y-89904761D02*
X162454819Y-90190475D01*
X162454819Y-90190475D02*
X162407200Y-90285713D01*
X162407200Y-90285713D02*
X162359580Y-90333332D01*
X174333333Y-92359580D02*
X174285714Y-92407200D01*
X174285714Y-92407200D02*
X174142857Y-92454819D01*
X174142857Y-92454819D02*
X174047619Y-92454819D01*
X174047619Y-92454819D02*
X173904762Y-92407200D01*
X173904762Y-92407200D02*
X173809524Y-92311961D01*
X173809524Y-92311961D02*
X173761905Y-92216723D01*
X173761905Y-92216723D02*
X173714286Y-92026247D01*
X173714286Y-92026247D02*
X173714286Y-91883390D01*
X173714286Y-91883390D02*
X173761905Y-91692914D01*
X173761905Y-91692914D02*
X173809524Y-91597676D01*
X173809524Y-91597676D02*
X173904762Y-91502438D01*
X173904762Y-91502438D02*
X174047619Y-91454819D01*
X174047619Y-91454819D02*
X174142857Y-91454819D01*
X174142857Y-91454819D02*
X174285714Y-91502438D01*
X174285714Y-91502438D02*
X174333333Y-91550057D01*
X174904762Y-91883390D02*
X174809524Y-91835771D01*
X174809524Y-91835771D02*
X174761905Y-91788152D01*
X174761905Y-91788152D02*
X174714286Y-91692914D01*
X174714286Y-91692914D02*
X174714286Y-91645295D01*
X174714286Y-91645295D02*
X174761905Y-91550057D01*
X174761905Y-91550057D02*
X174809524Y-91502438D01*
X174809524Y-91502438D02*
X174904762Y-91454819D01*
X174904762Y-91454819D02*
X175095238Y-91454819D01*
X175095238Y-91454819D02*
X175190476Y-91502438D01*
X175190476Y-91502438D02*
X175238095Y-91550057D01*
X175238095Y-91550057D02*
X175285714Y-91645295D01*
X175285714Y-91645295D02*
X175285714Y-91692914D01*
X175285714Y-91692914D02*
X175238095Y-91788152D01*
X175238095Y-91788152D02*
X175190476Y-91835771D01*
X175190476Y-91835771D02*
X175095238Y-91883390D01*
X175095238Y-91883390D02*
X174904762Y-91883390D01*
X174904762Y-91883390D02*
X174809524Y-91931009D01*
X174809524Y-91931009D02*
X174761905Y-91978628D01*
X174761905Y-91978628D02*
X174714286Y-92073866D01*
X174714286Y-92073866D02*
X174714286Y-92264342D01*
X174714286Y-92264342D02*
X174761905Y-92359580D01*
X174761905Y-92359580D02*
X174809524Y-92407200D01*
X174809524Y-92407200D02*
X174904762Y-92454819D01*
X174904762Y-92454819D02*
X175095238Y-92454819D01*
X175095238Y-92454819D02*
X175190476Y-92407200D01*
X175190476Y-92407200D02*
X175238095Y-92359580D01*
X175238095Y-92359580D02*
X175285714Y-92264342D01*
X175285714Y-92264342D02*
X175285714Y-92073866D01*
X175285714Y-92073866D02*
X175238095Y-91978628D01*
X175238095Y-91978628D02*
X175190476Y-91931009D01*
X175190476Y-91931009D02*
X175095238Y-91883390D01*
X163261905Y-95454819D02*
X163261905Y-94454819D01*
X163261905Y-94454819D02*
X163500000Y-94454819D01*
X163500000Y-94454819D02*
X163642857Y-94502438D01*
X163642857Y-94502438D02*
X163738095Y-94597676D01*
X163738095Y-94597676D02*
X163785714Y-94692914D01*
X163785714Y-94692914D02*
X163833333Y-94883390D01*
X163833333Y-94883390D02*
X163833333Y-95026247D01*
X163833333Y-95026247D02*
X163785714Y-95216723D01*
X163785714Y-95216723D02*
X163738095Y-95311961D01*
X163738095Y-95311961D02*
X163642857Y-95407200D01*
X163642857Y-95407200D02*
X163500000Y-95454819D01*
X163500000Y-95454819D02*
X163261905Y-95454819D01*
X164690476Y-94788152D02*
X164690476Y-95454819D01*
X164452381Y-94407200D02*
X164214286Y-95121485D01*
X164214286Y-95121485D02*
X164833333Y-95121485D01*
X179038095Y-80754819D02*
X179038095Y-81564342D01*
X179038095Y-81564342D02*
X179085714Y-81659580D01*
X179085714Y-81659580D02*
X179133333Y-81707200D01*
X179133333Y-81707200D02*
X179228571Y-81754819D01*
X179228571Y-81754819D02*
X179419047Y-81754819D01*
X179419047Y-81754819D02*
X179514285Y-81707200D01*
X179514285Y-81707200D02*
X179561904Y-81659580D01*
X179561904Y-81659580D02*
X179609523Y-81564342D01*
X179609523Y-81564342D02*
X179609523Y-80754819D01*
X180609523Y-81754819D02*
X180038095Y-81754819D01*
X180323809Y-81754819D02*
X180323809Y-80754819D01*
X180323809Y-80754819D02*
X180228571Y-80897676D01*
X180228571Y-80897676D02*
X180133333Y-80992914D01*
X180133333Y-80992914D02*
X180038095Y-81040533D01*
X152600595Y-91604819D02*
X152600595Y-92414342D01*
X152600595Y-92414342D02*
X152648214Y-92509580D01*
X152648214Y-92509580D02*
X152695833Y-92557200D01*
X152695833Y-92557200D02*
X152791071Y-92604819D01*
X152791071Y-92604819D02*
X152981547Y-92604819D01*
X152981547Y-92604819D02*
X153076785Y-92557200D01*
X153076785Y-92557200D02*
X153124404Y-92509580D01*
X153124404Y-92509580D02*
X153172023Y-92414342D01*
X153172023Y-92414342D02*
X153172023Y-91604819D01*
X154124404Y-91604819D02*
X153648214Y-91604819D01*
X153648214Y-91604819D02*
X153600595Y-92081009D01*
X153600595Y-92081009D02*
X153648214Y-92033390D01*
X153648214Y-92033390D02*
X153743452Y-91985771D01*
X153743452Y-91985771D02*
X153981547Y-91985771D01*
X153981547Y-91985771D02*
X154076785Y-92033390D01*
X154076785Y-92033390D02*
X154124404Y-92081009D01*
X154124404Y-92081009D02*
X154172023Y-92176247D01*
X154172023Y-92176247D02*
X154172023Y-92414342D01*
X154172023Y-92414342D02*
X154124404Y-92509580D01*
X154124404Y-92509580D02*
X154076785Y-92557200D01*
X154076785Y-92557200D02*
X153981547Y-92604819D01*
X153981547Y-92604819D02*
X153743452Y-92604819D01*
X153743452Y-92604819D02*
X153648214Y-92557200D01*
X153648214Y-92557200D02*
X153600595Y-92509580D01*
X192166666Y-89454819D02*
X192166666Y-90169104D01*
X192166666Y-90169104D02*
X192119047Y-90311961D01*
X192119047Y-90311961D02*
X192023809Y-90407200D01*
X192023809Y-90407200D02*
X191880952Y-90454819D01*
X191880952Y-90454819D02*
X191785714Y-90454819D01*
X193166666Y-90454819D02*
X192595238Y-90454819D01*
X192880952Y-90454819D02*
X192880952Y-89454819D01*
X192880952Y-89454819D02*
X192785714Y-89597676D01*
X192785714Y-89597676D02*
X192690476Y-89692914D01*
X192690476Y-89692914D02*
X192595238Y-89740533D01*
X184857142Y-92454819D02*
X184523809Y-91978628D01*
X184285714Y-92454819D02*
X184285714Y-91454819D01*
X184285714Y-91454819D02*
X184666666Y-91454819D01*
X184666666Y-91454819D02*
X184761904Y-91502438D01*
X184761904Y-91502438D02*
X184809523Y-91550057D01*
X184809523Y-91550057D02*
X184857142Y-91645295D01*
X184857142Y-91645295D02*
X184857142Y-91788152D01*
X184857142Y-91788152D02*
X184809523Y-91883390D01*
X184809523Y-91883390D02*
X184761904Y-91931009D01*
X184761904Y-91931009D02*
X184666666Y-91978628D01*
X184666666Y-91978628D02*
X184285714Y-91978628D01*
X185809523Y-92454819D02*
X185238095Y-92454819D01*
X185523809Y-92454819D02*
X185523809Y-91454819D01*
X185523809Y-91454819D02*
X185428571Y-91597676D01*
X185428571Y-91597676D02*
X185333333Y-91692914D01*
X185333333Y-91692914D02*
X185238095Y-91740533D01*
X186428571Y-91454819D02*
X186523809Y-91454819D01*
X186523809Y-91454819D02*
X186619047Y-91502438D01*
X186619047Y-91502438D02*
X186666666Y-91550057D01*
X186666666Y-91550057D02*
X186714285Y-91645295D01*
X186714285Y-91645295D02*
X186761904Y-91835771D01*
X186761904Y-91835771D02*
X186761904Y-92073866D01*
X186761904Y-92073866D02*
X186714285Y-92264342D01*
X186714285Y-92264342D02*
X186666666Y-92359580D01*
X186666666Y-92359580D02*
X186619047Y-92407200D01*
X186619047Y-92407200D02*
X186523809Y-92454819D01*
X186523809Y-92454819D02*
X186428571Y-92454819D01*
X186428571Y-92454819D02*
X186333333Y-92407200D01*
X186333333Y-92407200D02*
X186285714Y-92359580D01*
X186285714Y-92359580D02*
X186238095Y-92264342D01*
X186238095Y-92264342D02*
X186190476Y-92073866D01*
X186190476Y-92073866D02*
X186190476Y-91835771D01*
X186190476Y-91835771D02*
X186238095Y-91645295D01*
X186238095Y-91645295D02*
X186285714Y-91550057D01*
X186285714Y-91550057D02*
X186333333Y-91502438D01*
X186333333Y-91502438D02*
X186428571Y-91454819D01*
X174261905Y-81454819D02*
X174261905Y-80454819D01*
X174261905Y-80454819D02*
X174500000Y-80454819D01*
X174500000Y-80454819D02*
X174642857Y-80502438D01*
X174642857Y-80502438D02*
X174738095Y-80597676D01*
X174738095Y-80597676D02*
X174785714Y-80692914D01*
X174785714Y-80692914D02*
X174833333Y-80883390D01*
X174833333Y-80883390D02*
X174833333Y-81026247D01*
X174833333Y-81026247D02*
X174785714Y-81216723D01*
X174785714Y-81216723D02*
X174738095Y-81311961D01*
X174738095Y-81311961D02*
X174642857Y-81407200D01*
X174642857Y-81407200D02*
X174500000Y-81454819D01*
X174500000Y-81454819D02*
X174261905Y-81454819D01*
X175785714Y-81454819D02*
X175214286Y-81454819D01*
X175500000Y-81454819D02*
X175500000Y-80454819D01*
X175500000Y-80454819D02*
X175404762Y-80597676D01*
X175404762Y-80597676D02*
X175309524Y-80692914D01*
X175309524Y-80692914D02*
X175214286Y-80740533D01*
X169039580Y-32680357D02*
X169087200Y-32727976D01*
X169087200Y-32727976D02*
X169134819Y-32870833D01*
X169134819Y-32870833D02*
X169134819Y-32966071D01*
X169134819Y-32966071D02*
X169087200Y-33108928D01*
X169087200Y-33108928D02*
X168991961Y-33204166D01*
X168991961Y-33204166D02*
X168896723Y-33251785D01*
X168896723Y-33251785D02*
X168706247Y-33299404D01*
X168706247Y-33299404D02*
X168563390Y-33299404D01*
X168563390Y-33299404D02*
X168372914Y-33251785D01*
X168372914Y-33251785D02*
X168277676Y-33204166D01*
X168277676Y-33204166D02*
X168182438Y-33108928D01*
X168182438Y-33108928D02*
X168134819Y-32966071D01*
X168134819Y-32966071D02*
X168134819Y-32870833D01*
X168134819Y-32870833D02*
X168182438Y-32727976D01*
X168182438Y-32727976D02*
X168230057Y-32680357D01*
X169134819Y-31727976D02*
X169134819Y-32299404D01*
X169134819Y-32013690D02*
X168134819Y-32013690D01*
X168134819Y-32013690D02*
X168277676Y-32108928D01*
X168277676Y-32108928D02*
X168372914Y-32204166D01*
X168372914Y-32204166D02*
X168420533Y-32299404D01*
X169134819Y-30775595D02*
X169134819Y-31347023D01*
X169134819Y-31061309D02*
X168134819Y-31061309D01*
X168134819Y-31061309D02*
X168277676Y-31156547D01*
X168277676Y-31156547D02*
X168372914Y-31251785D01*
X168372914Y-31251785D02*
X168420533Y-31347023D01*
X182333333Y-83104819D02*
X182000000Y-82628628D01*
X181761905Y-83104819D02*
X181761905Y-82104819D01*
X181761905Y-82104819D02*
X182142857Y-82104819D01*
X182142857Y-82104819D02*
X182238095Y-82152438D01*
X182238095Y-82152438D02*
X182285714Y-82200057D01*
X182285714Y-82200057D02*
X182333333Y-82295295D01*
X182333333Y-82295295D02*
X182333333Y-82438152D01*
X182333333Y-82438152D02*
X182285714Y-82533390D01*
X182285714Y-82533390D02*
X182238095Y-82581009D01*
X182238095Y-82581009D02*
X182142857Y-82628628D01*
X182142857Y-82628628D02*
X181761905Y-82628628D01*
X183285714Y-83104819D02*
X182714286Y-83104819D01*
X183000000Y-83104819D02*
X183000000Y-82104819D01*
X183000000Y-82104819D02*
X182904762Y-82247676D01*
X182904762Y-82247676D02*
X182809524Y-82342914D01*
X182809524Y-82342914D02*
X182714286Y-82390533D01*
X176039580Y-32680357D02*
X176087200Y-32727976D01*
X176087200Y-32727976D02*
X176134819Y-32870833D01*
X176134819Y-32870833D02*
X176134819Y-32966071D01*
X176134819Y-32966071D02*
X176087200Y-33108928D01*
X176087200Y-33108928D02*
X175991961Y-33204166D01*
X175991961Y-33204166D02*
X175896723Y-33251785D01*
X175896723Y-33251785D02*
X175706247Y-33299404D01*
X175706247Y-33299404D02*
X175563390Y-33299404D01*
X175563390Y-33299404D02*
X175372914Y-33251785D01*
X175372914Y-33251785D02*
X175277676Y-33204166D01*
X175277676Y-33204166D02*
X175182438Y-33108928D01*
X175182438Y-33108928D02*
X175134819Y-32966071D01*
X175134819Y-32966071D02*
X175134819Y-32870833D01*
X175134819Y-32870833D02*
X175182438Y-32727976D01*
X175182438Y-32727976D02*
X175230057Y-32680357D01*
X176134819Y-31727976D02*
X176134819Y-32299404D01*
X176134819Y-32013690D02*
X175134819Y-32013690D01*
X175134819Y-32013690D02*
X175277676Y-32108928D01*
X175277676Y-32108928D02*
X175372914Y-32204166D01*
X175372914Y-32204166D02*
X175420533Y-32299404D01*
X175134819Y-31394642D02*
X175134819Y-30775595D01*
X175134819Y-30775595D02*
X175515771Y-31108928D01*
X175515771Y-31108928D02*
X175515771Y-30966071D01*
X175515771Y-30966071D02*
X175563390Y-30870833D01*
X175563390Y-30870833D02*
X175611009Y-30823214D01*
X175611009Y-30823214D02*
X175706247Y-30775595D01*
X175706247Y-30775595D02*
X175944342Y-30775595D01*
X175944342Y-30775595D02*
X176039580Y-30823214D01*
X176039580Y-30823214D02*
X176087200Y-30870833D01*
X176087200Y-30870833D02*
X176134819Y-30966071D01*
X176134819Y-30966071D02*
X176134819Y-31251785D01*
X176134819Y-31251785D02*
X176087200Y-31347023D01*
X176087200Y-31347023D02*
X176039580Y-31394642D01*
X170333333Y-83859580D02*
X170285714Y-83907200D01*
X170285714Y-83907200D02*
X170142857Y-83954819D01*
X170142857Y-83954819D02*
X170047619Y-83954819D01*
X170047619Y-83954819D02*
X169904762Y-83907200D01*
X169904762Y-83907200D02*
X169809524Y-83811961D01*
X169809524Y-83811961D02*
X169761905Y-83716723D01*
X169761905Y-83716723D02*
X169714286Y-83526247D01*
X169714286Y-83526247D02*
X169714286Y-83383390D01*
X169714286Y-83383390D02*
X169761905Y-83192914D01*
X169761905Y-83192914D02*
X169809524Y-83097676D01*
X169809524Y-83097676D02*
X169904762Y-83002438D01*
X169904762Y-83002438D02*
X170047619Y-82954819D01*
X170047619Y-82954819D02*
X170142857Y-82954819D01*
X170142857Y-82954819D02*
X170285714Y-83002438D01*
X170285714Y-83002438D02*
X170333333Y-83050057D01*
X171190476Y-82954819D02*
X171000000Y-82954819D01*
X171000000Y-82954819D02*
X170904762Y-83002438D01*
X170904762Y-83002438D02*
X170857143Y-83050057D01*
X170857143Y-83050057D02*
X170761905Y-83192914D01*
X170761905Y-83192914D02*
X170714286Y-83383390D01*
X170714286Y-83383390D02*
X170714286Y-83764342D01*
X170714286Y-83764342D02*
X170761905Y-83859580D01*
X170761905Y-83859580D02*
X170809524Y-83907200D01*
X170809524Y-83907200D02*
X170904762Y-83954819D01*
X170904762Y-83954819D02*
X171095238Y-83954819D01*
X171095238Y-83954819D02*
X171190476Y-83907200D01*
X171190476Y-83907200D02*
X171238095Y-83859580D01*
X171238095Y-83859580D02*
X171285714Y-83764342D01*
X171285714Y-83764342D02*
X171285714Y-83526247D01*
X171285714Y-83526247D02*
X171238095Y-83431009D01*
X171238095Y-83431009D02*
X171190476Y-83383390D01*
X171190476Y-83383390D02*
X171095238Y-83335771D01*
X171095238Y-83335771D02*
X170904762Y-83335771D01*
X170904762Y-83335771D02*
X170809524Y-83383390D01*
X170809524Y-83383390D02*
X170761905Y-83431009D01*
X170761905Y-83431009D02*
X170714286Y-83526247D01*
X157333333Y-96954819D02*
X157000000Y-96478628D01*
X156761905Y-96954819D02*
X156761905Y-95954819D01*
X156761905Y-95954819D02*
X157142857Y-95954819D01*
X157142857Y-95954819D02*
X157238095Y-96002438D01*
X157238095Y-96002438D02*
X157285714Y-96050057D01*
X157285714Y-96050057D02*
X157333333Y-96145295D01*
X157333333Y-96145295D02*
X157333333Y-96288152D01*
X157333333Y-96288152D02*
X157285714Y-96383390D01*
X157285714Y-96383390D02*
X157238095Y-96431009D01*
X157238095Y-96431009D02*
X157142857Y-96478628D01*
X157142857Y-96478628D02*
X156761905Y-96478628D01*
X158190476Y-95954819D02*
X158000000Y-95954819D01*
X158000000Y-95954819D02*
X157904762Y-96002438D01*
X157904762Y-96002438D02*
X157857143Y-96050057D01*
X157857143Y-96050057D02*
X157761905Y-96192914D01*
X157761905Y-96192914D02*
X157714286Y-96383390D01*
X157714286Y-96383390D02*
X157714286Y-96764342D01*
X157714286Y-96764342D02*
X157761905Y-96859580D01*
X157761905Y-96859580D02*
X157809524Y-96907200D01*
X157809524Y-96907200D02*
X157904762Y-96954819D01*
X157904762Y-96954819D02*
X158095238Y-96954819D01*
X158095238Y-96954819D02*
X158190476Y-96907200D01*
X158190476Y-96907200D02*
X158238095Y-96859580D01*
X158238095Y-96859580D02*
X158285714Y-96764342D01*
X158285714Y-96764342D02*
X158285714Y-96526247D01*
X158285714Y-96526247D02*
X158238095Y-96431009D01*
X158238095Y-96431009D02*
X158190476Y-96383390D01*
X158190476Y-96383390D02*
X158095238Y-96335771D01*
X158095238Y-96335771D02*
X157904762Y-96335771D01*
X157904762Y-96335771D02*
X157809524Y-96383390D01*
X157809524Y-96383390D02*
X157761905Y-96431009D01*
X157761905Y-96431009D02*
X157714286Y-96526247D01*
X167282142Y-81859580D02*
X167234523Y-81907200D01*
X167234523Y-81907200D02*
X167091666Y-81954819D01*
X167091666Y-81954819D02*
X166996428Y-81954819D01*
X166996428Y-81954819D02*
X166853571Y-81907200D01*
X166853571Y-81907200D02*
X166758333Y-81811961D01*
X166758333Y-81811961D02*
X166710714Y-81716723D01*
X166710714Y-81716723D02*
X166663095Y-81526247D01*
X166663095Y-81526247D02*
X166663095Y-81383390D01*
X166663095Y-81383390D02*
X166710714Y-81192914D01*
X166710714Y-81192914D02*
X166758333Y-81097676D01*
X166758333Y-81097676D02*
X166853571Y-81002438D01*
X166853571Y-81002438D02*
X166996428Y-80954819D01*
X166996428Y-80954819D02*
X167091666Y-80954819D01*
X167091666Y-80954819D02*
X167234523Y-81002438D01*
X167234523Y-81002438D02*
X167282142Y-81050057D01*
X168234523Y-81954819D02*
X167663095Y-81954819D01*
X167948809Y-81954819D02*
X167948809Y-80954819D01*
X167948809Y-80954819D02*
X167853571Y-81097676D01*
X167853571Y-81097676D02*
X167758333Y-81192914D01*
X167758333Y-81192914D02*
X167663095Y-81240533D01*
X168853571Y-80954819D02*
X168948809Y-80954819D01*
X168948809Y-80954819D02*
X169044047Y-81002438D01*
X169044047Y-81002438D02*
X169091666Y-81050057D01*
X169091666Y-81050057D02*
X169139285Y-81145295D01*
X169139285Y-81145295D02*
X169186904Y-81335771D01*
X169186904Y-81335771D02*
X169186904Y-81573866D01*
X169186904Y-81573866D02*
X169139285Y-81764342D01*
X169139285Y-81764342D02*
X169091666Y-81859580D01*
X169091666Y-81859580D02*
X169044047Y-81907200D01*
X169044047Y-81907200D02*
X168948809Y-81954819D01*
X168948809Y-81954819D02*
X168853571Y-81954819D01*
X168853571Y-81954819D02*
X168758333Y-81907200D01*
X168758333Y-81907200D02*
X168710714Y-81859580D01*
X168710714Y-81859580D02*
X168663095Y-81764342D01*
X168663095Y-81764342D02*
X168615476Y-81573866D01*
X168615476Y-81573866D02*
X168615476Y-81335771D01*
X168615476Y-81335771D02*
X168663095Y-81145295D01*
X168663095Y-81145295D02*
X168710714Y-81050057D01*
X168710714Y-81050057D02*
X168758333Y-81002438D01*
X168758333Y-81002438D02*
X168853571Y-80954819D01*
X163357142Y-93954819D02*
X163023809Y-93478628D01*
X162785714Y-93954819D02*
X162785714Y-92954819D01*
X162785714Y-92954819D02*
X163166666Y-92954819D01*
X163166666Y-92954819D02*
X163261904Y-93002438D01*
X163261904Y-93002438D02*
X163309523Y-93050057D01*
X163309523Y-93050057D02*
X163357142Y-93145295D01*
X163357142Y-93145295D02*
X163357142Y-93288152D01*
X163357142Y-93288152D02*
X163309523Y-93383390D01*
X163309523Y-93383390D02*
X163261904Y-93431009D01*
X163261904Y-93431009D02*
X163166666Y-93478628D01*
X163166666Y-93478628D02*
X162785714Y-93478628D01*
X164309523Y-93954819D02*
X163738095Y-93954819D01*
X164023809Y-93954819D02*
X164023809Y-92954819D01*
X164023809Y-92954819D02*
X163928571Y-93097676D01*
X163928571Y-93097676D02*
X163833333Y-93192914D01*
X163833333Y-93192914D02*
X163738095Y-93240533D01*
X165261904Y-93954819D02*
X164690476Y-93954819D01*
X164976190Y-93954819D02*
X164976190Y-92954819D01*
X164976190Y-92954819D02*
X164880952Y-93097676D01*
X164880952Y-93097676D02*
X164785714Y-93192914D01*
X164785714Y-93192914D02*
X164690476Y-93240533D01*
X179684819Y-27333333D02*
X180399104Y-27333333D01*
X180399104Y-27333333D02*
X180541961Y-27380952D01*
X180541961Y-27380952D02*
X180637200Y-27476190D01*
X180637200Y-27476190D02*
X180684819Y-27619047D01*
X180684819Y-27619047D02*
X180684819Y-27714285D01*
X179684819Y-26952380D02*
X179684819Y-26333333D01*
X179684819Y-26333333D02*
X180065771Y-26666666D01*
X180065771Y-26666666D02*
X180065771Y-26523809D01*
X180065771Y-26523809D02*
X180113390Y-26428571D01*
X180113390Y-26428571D02*
X180161009Y-26380952D01*
X180161009Y-26380952D02*
X180256247Y-26333333D01*
X180256247Y-26333333D02*
X180494342Y-26333333D01*
X180494342Y-26333333D02*
X180589580Y-26380952D01*
X180589580Y-26380952D02*
X180637200Y-26428571D01*
X180637200Y-26428571D02*
X180684819Y-26523809D01*
X180684819Y-26523809D02*
X180684819Y-26809523D01*
X180684819Y-26809523D02*
X180637200Y-26904761D01*
X180637200Y-26904761D02*
X180589580Y-26952380D01*
X178811905Y-96954819D02*
X178811905Y-95954819D01*
X178811905Y-95954819D02*
X179050000Y-95954819D01*
X179050000Y-95954819D02*
X179192857Y-96002438D01*
X179192857Y-96002438D02*
X179288095Y-96097676D01*
X179288095Y-96097676D02*
X179335714Y-96192914D01*
X179335714Y-96192914D02*
X179383333Y-96383390D01*
X179383333Y-96383390D02*
X179383333Y-96526247D01*
X179383333Y-96526247D02*
X179335714Y-96716723D01*
X179335714Y-96716723D02*
X179288095Y-96811961D01*
X179288095Y-96811961D02*
X179192857Y-96907200D01*
X179192857Y-96907200D02*
X179050000Y-96954819D01*
X179050000Y-96954819D02*
X178811905Y-96954819D01*
X179716667Y-95954819D02*
X180335714Y-95954819D01*
X180335714Y-95954819D02*
X180002381Y-96335771D01*
X180002381Y-96335771D02*
X180145238Y-96335771D01*
X180145238Y-96335771D02*
X180240476Y-96383390D01*
X180240476Y-96383390D02*
X180288095Y-96431009D01*
X180288095Y-96431009D02*
X180335714Y-96526247D01*
X180335714Y-96526247D02*
X180335714Y-96764342D01*
X180335714Y-96764342D02*
X180288095Y-96859580D01*
X180288095Y-96859580D02*
X180240476Y-96907200D01*
X180240476Y-96907200D02*
X180145238Y-96954819D01*
X180145238Y-96954819D02*
X179859524Y-96954819D01*
X179859524Y-96954819D02*
X179764286Y-96907200D01*
X179764286Y-96907200D02*
X179716667Y-96859580D01*
X200454819Y-85166666D02*
X199978628Y-85499999D01*
X200454819Y-85738094D02*
X199454819Y-85738094D01*
X199454819Y-85738094D02*
X199454819Y-85357142D01*
X199454819Y-85357142D02*
X199502438Y-85261904D01*
X199502438Y-85261904D02*
X199550057Y-85214285D01*
X199550057Y-85214285D02*
X199645295Y-85166666D01*
X199645295Y-85166666D02*
X199788152Y-85166666D01*
X199788152Y-85166666D02*
X199883390Y-85214285D01*
X199883390Y-85214285D02*
X199931009Y-85261904D01*
X199931009Y-85261904D02*
X199978628Y-85357142D01*
X199978628Y-85357142D02*
X199978628Y-85738094D01*
X199454819Y-84261904D02*
X199454819Y-84738094D01*
X199454819Y-84738094D02*
X199931009Y-84785713D01*
X199931009Y-84785713D02*
X199883390Y-84738094D01*
X199883390Y-84738094D02*
X199835771Y-84642856D01*
X199835771Y-84642856D02*
X199835771Y-84404761D01*
X199835771Y-84404761D02*
X199883390Y-84309523D01*
X199883390Y-84309523D02*
X199931009Y-84261904D01*
X199931009Y-84261904D02*
X200026247Y-84214285D01*
X200026247Y-84214285D02*
X200264342Y-84214285D01*
X200264342Y-84214285D02*
X200359580Y-84261904D01*
X200359580Y-84261904D02*
X200407200Y-84309523D01*
X200407200Y-84309523D02*
X200454819Y-84404761D01*
X200454819Y-84404761D02*
X200454819Y-84642856D01*
X200454819Y-84642856D02*
X200407200Y-84738094D01*
X200407200Y-84738094D02*
X200359580Y-84785713D01*
X169666666Y-86454819D02*
X169666666Y-87169104D01*
X169666666Y-87169104D02*
X169619047Y-87311961D01*
X169619047Y-87311961D02*
X169523809Y-87407200D01*
X169523809Y-87407200D02*
X169380952Y-87454819D01*
X169380952Y-87454819D02*
X169285714Y-87454819D01*
X170095238Y-86550057D02*
X170142857Y-86502438D01*
X170142857Y-86502438D02*
X170238095Y-86454819D01*
X170238095Y-86454819D02*
X170476190Y-86454819D01*
X170476190Y-86454819D02*
X170571428Y-86502438D01*
X170571428Y-86502438D02*
X170619047Y-86550057D01*
X170619047Y-86550057D02*
X170666666Y-86645295D01*
X170666666Y-86645295D02*
X170666666Y-86740533D01*
X170666666Y-86740533D02*
X170619047Y-86883390D01*
X170619047Y-86883390D02*
X170047619Y-87454819D01*
X170047619Y-87454819D02*
X170666666Y-87454819D01*
X173679580Y-85316666D02*
X173727200Y-85364285D01*
X173727200Y-85364285D02*
X173774819Y-85507142D01*
X173774819Y-85507142D02*
X173774819Y-85602380D01*
X173774819Y-85602380D02*
X173727200Y-85745237D01*
X173727200Y-85745237D02*
X173631961Y-85840475D01*
X173631961Y-85840475D02*
X173536723Y-85888094D01*
X173536723Y-85888094D02*
X173346247Y-85935713D01*
X173346247Y-85935713D02*
X173203390Y-85935713D01*
X173203390Y-85935713D02*
X173012914Y-85888094D01*
X173012914Y-85888094D02*
X172917676Y-85840475D01*
X172917676Y-85840475D02*
X172822438Y-85745237D01*
X172822438Y-85745237D02*
X172774819Y-85602380D01*
X172774819Y-85602380D02*
X172774819Y-85507142D01*
X172774819Y-85507142D02*
X172822438Y-85364285D01*
X172822438Y-85364285D02*
X172870057Y-85316666D01*
X173774819Y-84840475D02*
X173774819Y-84649999D01*
X173774819Y-84649999D02*
X173727200Y-84554761D01*
X173727200Y-84554761D02*
X173679580Y-84507142D01*
X173679580Y-84507142D02*
X173536723Y-84411904D01*
X173536723Y-84411904D02*
X173346247Y-84364285D01*
X173346247Y-84364285D02*
X172965295Y-84364285D01*
X172965295Y-84364285D02*
X172870057Y-84411904D01*
X172870057Y-84411904D02*
X172822438Y-84459523D01*
X172822438Y-84459523D02*
X172774819Y-84554761D01*
X172774819Y-84554761D02*
X172774819Y-84745237D01*
X172774819Y-84745237D02*
X172822438Y-84840475D01*
X172822438Y-84840475D02*
X172870057Y-84888094D01*
X172870057Y-84888094D02*
X172965295Y-84935713D01*
X172965295Y-84935713D02*
X173203390Y-84935713D01*
X173203390Y-84935713D02*
X173298628Y-84888094D01*
X173298628Y-84888094D02*
X173346247Y-84840475D01*
X173346247Y-84840475D02*
X173393866Y-84745237D01*
X173393866Y-84745237D02*
X173393866Y-84554761D01*
X173393866Y-84554761D02*
X173346247Y-84459523D01*
X173346247Y-84459523D02*
X173298628Y-84411904D01*
X173298628Y-84411904D02*
X173203390Y-84364285D01*
X170333333Y-85859580D02*
X170285714Y-85907200D01*
X170285714Y-85907200D02*
X170142857Y-85954819D01*
X170142857Y-85954819D02*
X170047619Y-85954819D01*
X170047619Y-85954819D02*
X169904762Y-85907200D01*
X169904762Y-85907200D02*
X169809524Y-85811961D01*
X169809524Y-85811961D02*
X169761905Y-85716723D01*
X169761905Y-85716723D02*
X169714286Y-85526247D01*
X169714286Y-85526247D02*
X169714286Y-85383390D01*
X169714286Y-85383390D02*
X169761905Y-85192914D01*
X169761905Y-85192914D02*
X169809524Y-85097676D01*
X169809524Y-85097676D02*
X169904762Y-85002438D01*
X169904762Y-85002438D02*
X170047619Y-84954819D01*
X170047619Y-84954819D02*
X170142857Y-84954819D01*
X170142857Y-84954819D02*
X170285714Y-85002438D01*
X170285714Y-85002438D02*
X170333333Y-85050057D01*
X170666667Y-84954819D02*
X171333333Y-84954819D01*
X171333333Y-84954819D02*
X170904762Y-85954819D01*
X162359580Y-86666666D02*
X162407200Y-86714285D01*
X162407200Y-86714285D02*
X162454819Y-86857142D01*
X162454819Y-86857142D02*
X162454819Y-86952380D01*
X162454819Y-86952380D02*
X162407200Y-87095237D01*
X162407200Y-87095237D02*
X162311961Y-87190475D01*
X162311961Y-87190475D02*
X162216723Y-87238094D01*
X162216723Y-87238094D02*
X162026247Y-87285713D01*
X162026247Y-87285713D02*
X161883390Y-87285713D01*
X161883390Y-87285713D02*
X161692914Y-87238094D01*
X161692914Y-87238094D02*
X161597676Y-87190475D01*
X161597676Y-87190475D02*
X161502438Y-87095237D01*
X161502438Y-87095237D02*
X161454819Y-86952380D01*
X161454819Y-86952380D02*
X161454819Y-86857142D01*
X161454819Y-86857142D02*
X161502438Y-86714285D01*
X161502438Y-86714285D02*
X161550057Y-86666666D01*
X161788152Y-85809523D02*
X162454819Y-85809523D01*
X161407200Y-86047618D02*
X162121485Y-86285713D01*
X162121485Y-86285713D02*
X162121485Y-85666666D01*
X155413095Y-91534819D02*
X155413095Y-92344342D01*
X155413095Y-92344342D02*
X155460714Y-92439580D01*
X155460714Y-92439580D02*
X155508333Y-92487200D01*
X155508333Y-92487200D02*
X155603571Y-92534819D01*
X155603571Y-92534819D02*
X155794047Y-92534819D01*
X155794047Y-92534819D02*
X155889285Y-92487200D01*
X155889285Y-92487200D02*
X155936904Y-92439580D01*
X155936904Y-92439580D02*
X155984523Y-92344342D01*
X155984523Y-92344342D02*
X155984523Y-91534819D01*
X156413095Y-91630057D02*
X156460714Y-91582438D01*
X156460714Y-91582438D02*
X156555952Y-91534819D01*
X156555952Y-91534819D02*
X156794047Y-91534819D01*
X156794047Y-91534819D02*
X156889285Y-91582438D01*
X156889285Y-91582438D02*
X156936904Y-91630057D01*
X156936904Y-91630057D02*
X156984523Y-91725295D01*
X156984523Y-91725295D02*
X156984523Y-91820533D01*
X156984523Y-91820533D02*
X156936904Y-91963390D01*
X156936904Y-91963390D02*
X156365476Y-92534819D01*
X156365476Y-92534819D02*
X156984523Y-92534819D01*
X177804819Y-27833333D02*
X178519104Y-27833333D01*
X178519104Y-27833333D02*
X178661961Y-27880952D01*
X178661961Y-27880952D02*
X178757200Y-27976190D01*
X178757200Y-27976190D02*
X178804819Y-28119047D01*
X178804819Y-28119047D02*
X178804819Y-28214285D01*
X178138152Y-26928571D02*
X178804819Y-26928571D01*
X177757200Y-27166666D02*
X178471485Y-27404761D01*
X178471485Y-27404761D02*
X178471485Y-26785714D01*
D13*
%TO.C,R7*%
X175747936Y-92765000D02*
X176202064Y-92765000D01*
X175747936Y-94235000D02*
X176202064Y-94235000D01*
%TO.C,C12*%
X169765000Y-31776248D02*
X169765000Y-32298752D01*
X171235000Y-31776248D02*
X171235000Y-32298752D01*
%TO.C,C3*%
X163265000Y-90276248D02*
X163265000Y-90798752D01*
X164735000Y-90276248D02*
X164735000Y-90798752D01*
%TO.C,C8*%
X174265000Y-88926248D02*
X174265000Y-89448752D01*
X175735000Y-88926248D02*
X175735000Y-89448752D01*
%TO.C,D4*%
X163615000Y-95540000D02*
X163615000Y-97460000D01*
X163615000Y-97460000D02*
X166475000Y-97460000D01*
X166475000Y-95540000D02*
X163615000Y-95540000D01*
%TO.C,U1*%
X178800000Y-83390000D02*
X182560000Y-83390000D01*
X178800000Y-90210000D02*
X182560000Y-90210000D01*
X182560000Y-83390000D02*
X182560000Y-84650000D01*
X182560000Y-90210000D02*
X182560000Y-88950000D01*
X177520000Y-83490000D02*
X177280000Y-83160000D01*
X177760000Y-83160000D01*
X177520000Y-83490000D01*
G36*
X177520000Y-83490000D02*
G01*
X177280000Y-83160000D01*
X177760000Y-83160000D01*
X177520000Y-83490000D01*
G37*
%TO.C,J5*%
X188170000Y-86770000D02*
X188170000Y-96990000D01*
X188170000Y-86770000D02*
X190830000Y-86770000D01*
X188170000Y-96990000D02*
X190830000Y-96990000D01*
X189500000Y-84170000D02*
X190830000Y-84170000D01*
X190830000Y-84170000D02*
X190830000Y-85500000D01*
X190830000Y-86770000D02*
X190830000Y-96990000D01*
%TO.C,U5*%
X153362500Y-92990000D02*
X152562500Y-92990000D01*
X153362500Y-92990000D02*
X154162500Y-92990000D01*
X153362500Y-96110000D02*
X152562500Y-96110000D01*
X153362500Y-96110000D02*
X154162500Y-96110000D01*
X152062500Y-93040000D02*
X151822500Y-92710000D01*
X152302500Y-92710000D01*
X152062500Y-93040000D01*
G36*
X152062500Y-93040000D02*
G01*
X151822500Y-92710000D01*
X152302500Y-92710000D01*
X152062500Y-93040000D01*
G37*
%TO.C,J1*%
X192170000Y-86670000D02*
X193500000Y-86670000D01*
X192170000Y-88000000D02*
X192170000Y-86670000D01*
X194770000Y-86670000D02*
X199910000Y-86670000D01*
X194770000Y-89330000D02*
X194770000Y-86670000D01*
X194770000Y-89330000D02*
X199910000Y-89330000D01*
X199910000Y-89330000D02*
X199910000Y-86670000D01*
%TO.C,R10*%
X181772936Y-91265000D02*
X182227064Y-91265000D01*
X181772936Y-92735000D02*
X182227064Y-92735000D01*
%TO.C,D1*%
X176115000Y-80040000D02*
X176115000Y-81960000D01*
X176115000Y-81960000D02*
X178975000Y-81960000D01*
X178975000Y-80040000D02*
X176115000Y-80040000D01*
%TO.C,C11*%
X166265000Y-31776248D02*
X166265000Y-32298752D01*
X167735000Y-31776248D02*
X167735000Y-32298752D01*
%TO.C,R1*%
X182727064Y-80265000D02*
X182272936Y-80265000D01*
X182727064Y-81735000D02*
X182272936Y-81735000D01*
%TO.C,C13*%
X173265000Y-31776248D02*
X173265000Y-32298752D01*
X174735000Y-31776248D02*
X174735000Y-32298752D01*
%TO.C,C6*%
X165765000Y-88238748D02*
X165765000Y-88761252D01*
X167235000Y-88238748D02*
X167235000Y-88761252D01*
%TO.C,R6*%
X161227064Y-95765000D02*
X160772936Y-95765000D01*
X161227064Y-97235000D02*
X160772936Y-97235000D01*
%TO.C,C10*%
X167201248Y-82765000D02*
X167723752Y-82765000D01*
X167201248Y-84235000D02*
X167723752Y-84235000D01*
%TO.C,R11*%
X165765000Y-92272936D02*
X165765000Y-92727064D01*
X167235000Y-92272936D02*
X167235000Y-92727064D01*
%TO.C,J3*%
X181670000Y-25670000D02*
X183000000Y-25670000D01*
X181670000Y-27000000D02*
X181670000Y-25670000D01*
X184270000Y-25670000D02*
X191950000Y-25670000D01*
X184270000Y-28330000D02*
X184270000Y-25670000D01*
X184270000Y-28330000D02*
X191950000Y-28330000D01*
X191950000Y-28330000D02*
X191950000Y-25670000D01*
%TO.C,D3*%
X174665000Y-95540000D02*
X174665000Y-97460000D01*
X174665000Y-97460000D02*
X177525000Y-97460000D01*
X177525000Y-95540000D02*
X174665000Y-95540000D01*
%TO.C,R5*%
X197272936Y-84265000D02*
X197727064Y-84265000D01*
X197272936Y-85735000D02*
X197727064Y-85735000D01*
D14*
%TO.C,J2*%
X168883400Y-87772999D02*
X168883400Y-88520813D01*
X168883400Y-90579184D02*
X168883400Y-93320814D01*
X168883400Y-95379184D02*
X168883400Y-102581199D01*
X168883400Y-102581199D02*
X172896600Y-102581199D01*
X172896600Y-87772999D02*
X168883400Y-87772999D01*
X172896600Y-88520813D02*
X172896600Y-87772999D01*
X172896600Y-93320814D02*
X172896600Y-90579184D01*
X172896600Y-102581199D02*
X172896600Y-95379184D01*
D15*
X168504960Y-94681669D02*
G75*
G02*
X168504960Y-94118329I-256560J281670D01*
G01*
D13*
%TO.C,SW8*%
X190530000Y-79690000D02*
X196650000Y-79690000D01*
X190530000Y-83310000D02*
X190530000Y-79690000D01*
X196650000Y-79690000D02*
X196650000Y-83310000D01*
X196650000Y-83310000D02*
X190530000Y-83310000D01*
%TO.C,C9*%
X174265000Y-85411252D02*
X174265000Y-84888748D01*
X175735000Y-85411252D02*
X175735000Y-84888748D01*
%TO.C,C7*%
X167238748Y-84765000D02*
X167761252Y-84765000D01*
X167238748Y-86235000D02*
X167761252Y-86235000D01*
%TO.C,C4*%
X163265000Y-86723752D02*
X163265000Y-86201248D01*
X164735000Y-86723752D02*
X164735000Y-86201248D01*
%TO.C,U2*%
X152565000Y-82590000D02*
X152565000Y-82890000D01*
X152565000Y-89810000D02*
X152565000Y-89510000D01*
X152865000Y-82590000D02*
X152565000Y-82590000D01*
X152865000Y-89810000D02*
X152565000Y-89810000D01*
X159485000Y-82590000D02*
X159785000Y-82590000D01*
X159485000Y-89810000D02*
X159785000Y-89810000D01*
X159785000Y-82590000D02*
X159785000Y-82890000D01*
X159785000Y-89810000D02*
X159785000Y-89510000D01*
X160727500Y-89980000D02*
X160047500Y-89980000D01*
X160387500Y-89510000D01*
X160727500Y-89980000D01*
G36*
X160727500Y-89980000D02*
G01*
X160047500Y-89980000D01*
X160387500Y-89510000D01*
X160727500Y-89980000D01*
G37*
%TO.C,J4*%
X166630000Y-26170000D02*
X166630000Y-28830000D01*
X174310000Y-26170000D02*
X166630000Y-26170000D01*
X174310000Y-26170000D02*
X174310000Y-28830000D01*
X174310000Y-28830000D02*
X166630000Y-28830000D01*
X176910000Y-27500000D02*
X176910000Y-28830000D01*
X176910000Y-28830000D02*
X175580000Y-28830000D01*
%TD*%
M02*
