M48
; DRILL file {KiCad 8.0.8} date 2025-01-17T17:15:20+0800
; FORMAT={-:-/ absolute / inch / decimal}
; #@! TF.CreationDate,2025-01-17T17:15:20+08:00
; #@! TF.GenerationSoftware,Kicad,Pcbnew,8.0.8
; #@! TF.FileFunction,Plated,1,2,PTH
FMAT,2
INCH
; #@! TA.AperFunction,Plated,PTH,ViaDrill
T1C0.0118
; #@! TA.AperFunction,Plated,PTH,ComponentDrill
T2C0.0160
; #@! TA.AperFunction,Plated,PTH,ComponentDrill
T3C0.0374
; #@! TA.AperFunction,Plated,PTH,ComponentDrill
T4C0.0394
%
G90
G05
T1
X5.9941Y-3.2283
X6.0039Y-3.5039
X6.2008Y-3.7992
X6.2894Y-3.6319
X6.3583Y-3.2776
X6.3681Y-3.435
X6.4764Y-3.7106
X6.5354Y-3.2087
X6.5748Y-1.6142
X6.5748Y-1.9685
X6.5748Y-2.4803
X6.5748Y-3.0118
X6.5945Y-3.3465
X6.5945Y-3.563
X6.6142Y-1.437
X6.6339Y-3.2874
X6.6732Y-1.6634
X6.6732Y-2.185
X6.6732Y-2.6083
X6.6732Y-3.2087
X6.7126Y-3.4154
X6.7323Y-3.3465
X6.7323Y-3.8583
X6.7421Y-1.7323
X6.7421Y-2.2933
X6.7421Y-2.7756
X6.7421Y-3.2579
X6.752Y-1.4764
X6.8012Y-1.565
X6.8012Y-1.8406
X6.8012Y-2.3917
X6.8012Y-2.9232
X6.8307Y-3.248
X6.8307Y-3.7992
X6.8406Y-3.7106
X6.8504Y-3.3465
X6.8548Y-3.507
X6.8602Y-1.9587
X6.8602Y-2.5
X6.8602Y-3.0413
X6.904Y-3.5453
X6.9882Y-1.437
X6.9936Y-3.5827
X7.0079Y-3.2874
X7.0671Y-3.76
X7.1063Y-3.3957
X7.185Y-3.622
X7.2146Y-3.563
X7.2441Y-3.5236
X7.2638Y-3.8287
X7.2736Y-3.6909
X7.2835Y-3.3268
X7.2925Y-3.6024
X7.3622Y-3.5433
X7.372Y-3.7008
X7.3993Y-3.5027
X7.4409Y-3.3071
X7.4409Y-3.4646
X7.4697Y-3.4312
X7.4803Y-3.7894
X7.5197Y-3.6811
X7.6378Y-3.2677
X7.7461Y-3.2677
X7.8051Y-3.3366
X7.8382Y-3.2087
T2
X6.7126Y-3.5039
X6.7126Y-3.5394
X6.7126Y-3.5748
X6.7126Y-3.6102
X6.7126Y-3.6457
X6.7126Y-3.6811
X6.7126Y-3.7165
X6.7433Y-3.5217
X6.7433Y-3.5571
X6.7433Y-3.5925
X6.7433Y-3.628
X6.7433Y-3.6634
X6.7433Y-3.6988
X6.7433Y-3.7343
T3
X7.4596Y-1.0827
X7.4596Y-1.1811
X7.4596Y-1.2795
T4
X6.278Y-1.3976
X6.378Y-1.3976
X6.6919Y-1.1122
X6.6919Y-1.2106
X6.9445Y-3.2087
X7.0445Y-3.2087
X7.0856Y-1.1122
X7.0856Y-1.2106
X7.1445Y-3.2087
X7.2445Y-3.2087
X7.3445Y-3.2087
M30
