%TF.GenerationSoftware,KiCad,Pcbnew,8.0.8*%
%TF.CreationDate,2025-01-17T17:15:23+08:00*%
%TF.ProjectId,The Button,54686520-4275-4747-946f-6e2e6b696361,rev?*%
%TF.SameCoordinates,Original*%
%TF.FileFunction,Copper,L1,Top*%
%TF.FilePolarity,Positive*%
%FSLAX46Y46*%
G04 Gerber Fmt 4.6, Leading zero omitted, Abs format (unit mm)*
G04 Created by KiCad (PCBNEW 8.0.8) date 2025-01-17 17:15:23*
%MOMM*%
%LPD*%
G01*
G04 APERTURE LIST*
G04 Aperture macros list*
%AMRoundRect*
0 Rectangle with rounded corners*
0 $1 Rounding radius*
0 $2 $3 $4 $5 $6 $7 $8 $9 X,Y pos of 4 corners*
0 Add a 4 corners polygon primitive as box body*
4,1,4,$2,$3,$4,$5,$6,$7,$8,$9,$2,$3,0*
0 Add four circle primitives for the rounded corners*
1,1,$1+$1,$2,$3*
1,1,$1+$1,$4,$5*
1,1,$1+$1,$6,$7*
1,1,$1+$1,$8,$9*
0 Add four rect primitives between the rounded corners*
20,1,$1+$1,$2,$3,$4,$5,0*
20,1,$1+$1,$4,$5,$6,$7,0*
20,1,$1+$1,$6,$7,$8,$9,0*
20,1,$1+$1,$8,$9,$2,$3,0*%
G04 Aperture macros list end*
%TA.AperFunction,ComponentPad*%
%ADD10R,1.700000X1.700000*%
%TD*%
%TA.AperFunction,ComponentPad*%
%ADD11O,1.700000X1.700000*%
%TD*%
%TA.AperFunction,SMDPad,CuDef*%
%ADD12RoundRect,0.250000X-0.350000X-0.450000X0.350000X-0.450000X0.350000X0.450000X-0.350000X0.450000X0*%
%TD*%
%TA.AperFunction,SMDPad,CuDef*%
%ADD13RoundRect,0.250000X0.475000X-0.337500X0.475000X0.337500X-0.475000X0.337500X-0.475000X-0.337500X0*%
%TD*%
%TA.AperFunction,SMDPad,CuDef*%
%ADD14RoundRect,0.250000X-0.325000X-0.450000X0.325000X-0.450000X0.325000X0.450000X-0.325000X0.450000X0*%
%TD*%
%TA.AperFunction,SMDPad,CuDef*%
%ADD15RoundRect,0.375000X-0.625000X-0.375000X0.625000X-0.375000X0.625000X0.375000X-0.625000X0.375000X0*%
%TD*%
%TA.AperFunction,SMDPad,CuDef*%
%ADD16RoundRect,0.500000X-0.500000X-1.400000X0.500000X-1.400000X0.500000X1.400000X-0.500000X1.400000X0*%
%TD*%
%TA.AperFunction,SMDPad,CuDef*%
%ADD17RoundRect,0.250000X-0.337500X-0.475000X0.337500X-0.475000X0.337500X0.475000X-0.337500X0.475000X0*%
%TD*%
%TA.AperFunction,SMDPad,CuDef*%
%ADD18RoundRect,0.150000X0.512500X0.150000X-0.512500X0.150000X-0.512500X-0.150000X0.512500X-0.150000X0*%
%TD*%
%TA.AperFunction,ComponentPad*%
%ADD19RoundRect,0.250000X0.750000X-0.600000X0.750000X0.600000X-0.750000X0.600000X-0.750000X-0.600000X0*%
%TD*%
%TA.AperFunction,ComponentPad*%
%ADD20O,2.000000X1.700000*%
%TD*%
%TA.AperFunction,SMDPad,CuDef*%
%ADD21RoundRect,0.250000X-0.450000X0.325000X-0.450000X-0.325000X0.450000X-0.325000X0.450000X0.325000X0*%
%TD*%
%TA.AperFunction,SMDPad,CuDef*%
%ADD22RoundRect,0.250000X0.450000X-0.350000X0.450000X0.350000X-0.450000X0.350000X-0.450000X-0.350000X0*%
%TD*%
%TA.AperFunction,SMDPad,CuDef*%
%ADD23RoundRect,0.250000X0.350000X0.450000X-0.350000X0.450000X-0.350000X-0.450000X0.350000X-0.450000X0*%
%TD*%
%TA.AperFunction,ComponentPad*%
%ADD24RoundRect,0.250000X0.725000X-0.600000X0.725000X0.600000X-0.725000X0.600000X-0.725000X-0.600000X0*%
%TD*%
%TA.AperFunction,ComponentPad*%
%ADD25O,1.950000X1.700000*%
%TD*%
%TA.AperFunction,SMDPad,CuDef*%
%ADD26O,0.889000X1.905000*%
%TD*%
%TA.AperFunction,ComponentPad*%
%ADD27C,0.609600*%
%TD*%
%TA.AperFunction,SMDPad,CuDef*%
%ADD28R,2.180000X1.600000*%
%TD*%
%TA.AperFunction,SMDPad,CuDef*%
%ADD29RoundRect,0.125000X0.625000X0.125000X-0.625000X0.125000X-0.625000X-0.125000X0.625000X-0.125000X0*%
%TD*%
%TA.AperFunction,SMDPad,CuDef*%
%ADD30RoundRect,0.125000X0.125000X0.625000X-0.125000X0.625000X-0.125000X-0.625000X0.125000X-0.625000X0*%
%TD*%
%TA.AperFunction,ViaPad*%
%ADD31C,0.600000*%
%TD*%
%TA.AperFunction,Conductor*%
%ADD32C,0.200000*%
%TD*%
%TA.AperFunction,Conductor*%
%ADD33C,0.300000*%
%TD*%
G04 APERTURE END LIST*
D10*
%TO.P,J7,1,Pin_1*%
%TO.N,Net-(J7-Pin_1)*%
X162000000Y-35500000D03*
D11*
%TO.P,J7,2,Pin_2*%
%TO.N,GND*%
X159460000Y-35500000D03*
%TD*%
D12*
%TO.P,R7,1*%
%TO.N,Net-(D3-K)*%
X175500000Y-94000000D03*
%TO.P,R7,2*%
%TO.N,GND*%
X177500000Y-94000000D03*
%TD*%
D13*
%TO.P,C3,1*%
%TO.N,VDD_3V*%
X194000000Y-89537500D03*
%TO.P,C3,2*%
%TO.N,GND*%
X194000000Y-87462500D03*
%TD*%
%TO.P,C8,1*%
%TO.N,VDDA_5V*%
X155500000Y-88537500D03*
%TO.P,C8,2*%
%TO.N,GND*%
X155500000Y-86462500D03*
%TD*%
D14*
%TO.P,D4,1,K*%
%TO.N,Net-(D4-K)*%
X164450000Y-96500000D03*
%TO.P,D4,2,A*%
%TO.N,USR_LED_1*%
X166500000Y-96500000D03*
%TD*%
D15*
%TO.P,U1,1,GND*%
%TO.N,GND*%
X158350000Y-83200000D03*
%TO.P,U1,2,VO*%
%TO.N,VDD_3V*%
X158350000Y-85500000D03*
D16*
X164650000Y-85500000D03*
D15*
%TO.P,U1,3,VI*%
%TO.N,VDDA_5V*%
X158350000Y-87800000D03*
%TD*%
D11*
%TO.P,J5,5,Pin_5*%
%TO.N,GND*%
X176390000Y-81500000D03*
%TO.P,J5,4,Pin_4*%
%TO.N,NRST*%
X178930000Y-81500000D03*
%TO.P,J5,3,Pin_3*%
%TO.N,SWDCLK*%
X181470000Y-81500000D03*
%TO.P,J5,2,Pin_2*%
%TO.N,SWDIO*%
X184010000Y-81500000D03*
D10*
%TO.P,J5,1,Pin_1*%
%TO.N,VDD_3V*%
X186550000Y-81500000D03*
%TD*%
D17*
%TO.P,C1,1*%
%TO.N,BTN_HI*%
X170462500Y-35500000D03*
%TO.P,C1,2*%
%TO.N,GND*%
X172537500Y-35500000D03*
%TD*%
D18*
%TO.P,U5,1,I/O1*%
%TO.N,D_P*%
X177637500Y-91950000D03*
%TO.P,U5,2,GND*%
%TO.N,GND*%
X177637500Y-91000000D03*
%TO.P,U5,3,I/O2*%
%TO.N,D_N*%
X177637500Y-90050000D03*
%TO.P,U5,4,I/O2*%
X175362500Y-90050000D03*
%TO.P,U5,5,VBUS*%
%TO.N,VDDA_5V*%
X175362500Y-91000000D03*
%TO.P,U5,6,I/O1*%
%TO.N,D_P*%
X175362500Y-91950000D03*
%TD*%
D19*
%TO.P,J1,1,Pin_1*%
%TO.N,BTN_HI*%
X169975000Y-30750000D03*
D20*
%TO.P,J1,2,Pin_2*%
%TO.N,GND*%
X169975000Y-28250000D03*
%TD*%
D12*
%TO.P,R10,1*%
%TO.N,Net-(J2-CC2)*%
X175500000Y-88000000D03*
%TO.P,R10,2*%
%TO.N,GND*%
X177500000Y-88000000D03*
%TD*%
D21*
%TO.P,D1,1,K*%
%TO.N,GND*%
X149000000Y-82475000D03*
%TO.P,D1,2,A*%
%TO.N,Net-(D1-A)*%
X149000000Y-84525000D03*
%TD*%
D17*
%TO.P,C2,1*%
%TO.N,BTN_LO*%
X180462500Y-35500000D03*
%TO.P,C2,2*%
%TO.N,GND*%
X182537500Y-35500000D03*
%TD*%
D22*
%TO.P,R1,1*%
%TO.N,VDD_3V*%
X149000000Y-88500000D03*
%TO.P,R1,2*%
%TO.N,Net-(D1-A)*%
X149000000Y-86500000D03*
%TD*%
D13*
%TO.P,C6,1*%
%TO.N,VDD_3V*%
X198000000Y-89537500D03*
%TO.P,C6,2*%
%TO.N,GND*%
X198000000Y-87462500D03*
%TD*%
D23*
%TO.P,R6,1*%
%TO.N,Net-(D4-K)*%
X162000000Y-96500000D03*
%TO.P,R6,2*%
%TO.N,GND*%
X160000000Y-96500000D03*
%TD*%
D17*
%TO.P,C10,1*%
%TO.N,NRST*%
X191962500Y-85500000D03*
%TO.P,C10,2*%
%TO.N,GND*%
X194037500Y-85500000D03*
%TD*%
D23*
%TO.P,R11,1*%
%TO.N,Net-(J2-CC1)*%
X166500000Y-92500000D03*
%TO.P,R11,2*%
%TO.N,GND*%
X164500000Y-92500000D03*
%TD*%
D14*
%TO.P,D3,1,K*%
%TO.N,Net-(D3-K)*%
X175500000Y-96500000D03*
%TO.P,D3,2,A*%
%TO.N,USR_LED_2*%
X177550000Y-96500000D03*
%TD*%
D12*
%TO.P,R5,1*%
%TO.N,SWDCLK*%
X185000000Y-84500000D03*
%TO.P,R5,2*%
%TO.N,GND*%
X187000000Y-84500000D03*
%TD*%
D24*
%TO.P,J6,1,Pin_1*%
%TO.N,BTN_KEY*%
X189475000Y-32500000D03*
D25*
%TO.P,J6,2,Pin_2*%
%TO.N,GND*%
X189475000Y-30000000D03*
%TO.P,J6,3,Pin_3*%
%TO.N,unconnected-(J6-Pin_3-Pad3)*%
X189475000Y-27500000D03*
%TD*%
D26*
%TO.P,J2,15*%
%TO.N,N/C*%
X169300000Y-89549998D03*
%TO.P,J2,16*%
X172500000Y-89549998D03*
%TO.P,J2,17*%
X169300000Y-94349999D03*
%TO.P,J2,18*%
X172500000Y-94349999D03*
D27*
%TO.P,J2,A1,GND*%
%TO.N,GND*%
X170500000Y-94399999D03*
%TO.P,J2,A4,VBUS*%
%TO.N,VDDA_5V*%
X170500000Y-93499998D03*
%TO.P,J2,A5,CC1*%
%TO.N,Net-(J2-CC1)*%
X170500000Y-92600000D03*
%TO.P,J2,A6,DP1*%
%TO.N,D_P*%
X170500000Y-91699999D03*
%TO.P,J2,A7,DN1*%
%TO.N,D_N*%
X170500000Y-90799999D03*
%TO.P,J2,A9,VBUS*%
%TO.N,VDDA_5V*%
X170500000Y-89900000D03*
%TO.P,J2,A12,GND*%
%TO.N,GND*%
X170500000Y-89000000D03*
%TO.P,J2,B1,GND*%
X171280001Y-89450000D03*
%TO.P,J2,B4,VBUS*%
%TO.N,VDDA_5V*%
X171280001Y-90350000D03*
%TO.P,J2,B5,CC2*%
%TO.N,Net-(J2-CC2)*%
X171280001Y-91249999D03*
%TO.P,J2,B6,DP2*%
%TO.N,D_P*%
X171280001Y-92149999D03*
%TO.P,J2,B7,DN2*%
%TO.N,D_N*%
X171280001Y-93050000D03*
%TO.P,J2,B9,VBUS*%
%TO.N,VDDA_5V*%
X171280001Y-93949998D03*
%TO.P,J2,B12,GND*%
%TO.N,GND*%
X171280001Y-94849999D03*
%TD*%
D28*
%TO.P,SW8,2,B*%
%TO.N,VDD_3V*%
X199090000Y-81500000D03*
%TO.P,SW8,1,A*%
%TO.N,SWDCLK*%
X189910000Y-81500000D03*
%TD*%
D13*
%TO.P,C9,1*%
%TO.N,VDD_3V*%
X155500000Y-84037500D03*
%TO.P,C9,2*%
%TO.N,GND*%
X155500000Y-81962500D03*
%TD*%
D17*
%TO.P,C5,1*%
%TO.N,BTN_KEY*%
X189462500Y-37000000D03*
%TO.P,C5,2*%
%TO.N,GND*%
X191537500Y-37000000D03*
%TD*%
D13*
%TO.P,C7,1*%
%TO.N,VDD_3V*%
X196000000Y-89537500D03*
%TO.P,C7,2*%
%TO.N,GND*%
X196000000Y-87462500D03*
%TD*%
%TO.P,C4,1*%
%TO.N,VDD_3V*%
X192000000Y-89537500D03*
%TO.P,C4,2*%
%TO.N,GND*%
X192000000Y-87462500D03*
%TD*%
D29*
%TO.P,U2,1,PB9*%
%TO.N,unconnected-(U2-PB9-Pad1)*%
X189175000Y-94300000D03*
%TO.P,U2,2,PC14*%
%TO.N,unconnected-(U2-PC14-Pad2)*%
X189175000Y-93500000D03*
%TO.P,U2,3,PC15*%
%TO.N,unconnected-(U2-PC15-Pad3)*%
X189175000Y-92700000D03*
%TO.P,U2,4,VDD*%
%TO.N,VDD_3V*%
X189175000Y-91900000D03*
%TO.P,U2,5,VSS*%
%TO.N,GND*%
X189175000Y-91100000D03*
%TO.P,U2,6,PF2*%
%TO.N,NRST*%
X189175000Y-90300000D03*
%TO.P,U2,7,PA0*%
%TO.N,HW_CFG_1*%
X189175000Y-89500000D03*
%TO.P,U2,8,PA1*%
%TO.N,HW_CFG_2*%
X189175000Y-88700000D03*
D30*
%TO.P,U2,9,PA2*%
%TO.N,Net-(J7-Pin_1)*%
X187800000Y-87325000D03*
%TO.P,U2,10,PA3*%
%TO.N,unconnected-(U2-PA3-Pad10)*%
X187000000Y-87325000D03*
%TO.P,U2,11,PA4*%
%TO.N,unconnected-(U2-PA4-Pad11)*%
X186200000Y-87325000D03*
%TO.P,U2,12,PA5*%
%TO.N,USR_LED_1*%
X185400000Y-87325000D03*
%TO.P,U2,13,PA6*%
%TO.N,USR_LED_2*%
X184600000Y-87325000D03*
%TO.P,U2,14,PA7*%
%TO.N,BTN_KEY*%
X183800000Y-87325000D03*
%TO.P,U2,15,PB0*%
%TO.N,unconnected-(U2-PB0-Pad15)*%
X183000000Y-87325000D03*
%TO.P,U2,16,PB1*%
%TO.N,unconnected-(U2-PB1-Pad16)*%
X182200000Y-87325000D03*
D29*
%TO.P,U2,17,PB2*%
%TO.N,unconnected-(U2-PB2-Pad17)*%
X180825000Y-88700000D03*
%TO.P,U2,18,PA8*%
%TO.N,BTN_HI*%
X180825000Y-89500000D03*
%TO.P,U2,19,PA9*%
%TO.N,BTN_LO*%
X180825000Y-90300000D03*
%TO.P,U2,20,PC6*%
%TO.N,unconnected-(U2-PC6-Pad20)*%
X180825000Y-91100000D03*
%TO.P,U2,21,PA10*%
%TO.N,unconnected-(U2-PA10-Pad21)*%
X180825000Y-91900000D03*
%TO.P,U2,22,PA11*%
%TO.N,D_N*%
X180825000Y-92700000D03*
%TO.P,U2,23,PA12*%
%TO.N,D_P*%
X180825000Y-93500000D03*
%TO.P,U2,24,PA13*%
%TO.N,SWDIO*%
X180825000Y-94300000D03*
D30*
%TO.P,U2,25,PA14*%
%TO.N,SWDCLK*%
X182200000Y-95675000D03*
%TO.P,U2,26,PA15*%
%TO.N,unconnected-(U2-PA15-Pad26)*%
X183000000Y-95675000D03*
%TO.P,U2,27,PB3*%
%TO.N,unconnected-(U2-PB3-Pad27)*%
X183800000Y-95675000D03*
%TO.P,U2,28,PB4*%
%TO.N,unconnected-(U2-PB4-Pad28)*%
X184600000Y-95675000D03*
%TO.P,U2,29,PB5*%
%TO.N,unconnected-(U2-PB5-Pad29)*%
X185400000Y-95675000D03*
%TO.P,U2,30,PB6*%
%TO.N,unconnected-(U2-PB6-Pad30)*%
X186200000Y-95675000D03*
%TO.P,U2,31,PB7*%
%TO.N,unconnected-(U2-PB7-Pad31)*%
X187000000Y-95675000D03*
%TO.P,U2,32,PB8*%
%TO.N,unconnected-(U2-PB8-Pad32)*%
X187800000Y-95675000D03*
%TD*%
D19*
%TO.P,J4,1,Pin_1*%
%TO.N,BTN_LO*%
X179975000Y-30750000D03*
D20*
%TO.P,J4,2,Pin_2*%
%TO.N,GND*%
X179975000Y-28250000D03*
%TD*%
D31*
%TO.N,HW_CFG_1*%
X187941167Y-88967837D03*
%TO.N,HW_CFG_2*%
X189000000Y-88000000D03*
%TO.N,GND*%
X177637500Y-91000000D03*
X184500000Y-97250000D03*
X191000000Y-93500000D03*
X189730000Y-87152933D03*
X196750000Y-83000000D03*
X171250000Y-82750000D03*
X180500000Y-86250000D03*
X183250000Y-90500000D03*
X184750000Y-93750000D03*
X187250000Y-94000000D03*
X198250000Y-84750000D03*
X194000000Y-83000000D03*
X189000000Y-84000000D03*
X190000000Y-96250000D03*
X173750000Y-94250000D03*
X170500000Y-86750000D03*
X171000000Y-98000000D03*
X164500000Y-94250000D03*
X152250000Y-82000000D03*
X161500000Y-83250000D03*
X169500000Y-42250000D03*
X171250000Y-44000000D03*
X172750000Y-46750000D03*
X174250000Y-49750000D03*
X174250000Y-63500000D03*
X174250000Y-77250000D03*
X172750000Y-74250000D03*
X171250000Y-70500000D03*
X169500000Y-66250000D03*
X169500000Y-55500000D03*
X171250000Y-58250000D03*
X172750000Y-60750000D03*
X172750000Y-39750000D03*
X171500000Y-37500000D03*
X177500000Y-36500000D03*
X168000000Y-36500000D03*
X167000000Y-41000000D03*
X167000000Y-50000000D03*
X167000000Y-63000000D03*
X167000000Y-76500000D03*
X167500000Y-85000000D03*
X169500000Y-81500000D03*
X173500000Y-82500000D03*
%TO.N,Net-(J7-Pin_1)*%
X168500000Y-83500000D03*
X178000000Y-83500000D03*
%TO.N,BTN_HI*%
X171000000Y-85000000D03*
X174000000Y-85000000D03*
%TO.N,USR_LED_1*%
X187000000Y-90000000D03*
X173500000Y-96500000D03*
%TO.N,USR_LED_2*%
X184000000Y-89500000D03*
X179505241Y-95505241D03*
%TO.N,VDD_3V*%
X166000000Y-81500000D03*
%TO.N,SWDIO*%
X182500002Y-92000000D03*
%TO.N,SWDCLK*%
X185000000Y-84500000D03*
X185230000Y-91500000D03*
%TO.N,VDD_3V*%
X199090000Y-81500000D03*
%TO.N,VDDA_5V*%
X167500000Y-90500000D03*
%TO.N,Net-(J2-CC2)*%
X174111199Y-89078823D03*
%TO.N,D_N*%
X175362514Y-90050000D03*
%TO.N,GND*%
X152500000Y-89000000D03*
X161750000Y-87250000D03*
X159750000Y-92250000D03*
X157500000Y-96500000D03*
%TD*%
D32*
%TO.N,HW_CFG_1*%
X189175000Y-89500000D02*
X188473330Y-89500000D01*
X188473330Y-89500000D02*
X187941167Y-88967837D01*
%TO.N,HW_CFG_2*%
X189175000Y-88700000D02*
X189175000Y-88175000D01*
X189175000Y-88175000D02*
X189000000Y-88000000D01*
%TO.N,BTN_HI*%
X170462500Y-35500000D02*
X170462500Y-84462500D01*
X170462500Y-84462500D02*
X171000000Y-85000000D01*
%TO.N,Net-(J2-CC2)*%
X175500000Y-88000000D02*
X175500000Y-88700000D01*
X175500000Y-88700000D02*
X175121177Y-89078823D01*
%TO.N,D_N*%
X174050000Y-90050000D02*
X173500000Y-89500000D01*
%TO.N,VDDA_5V*%
X175362500Y-91000000D02*
X171930001Y-91000000D01*
%TO.N,D_N*%
X172500000Y-87500000D02*
X169000000Y-87500000D01*
X168000000Y-90000000D02*
X169104799Y-91104799D01*
%TO.N,Net-(J2-CC2)*%
X175121177Y-89078823D02*
X174111199Y-89078823D01*
%TO.N,VDDA_5V*%
X171930001Y-91000000D02*
X171280001Y-90350000D01*
%TO.N,D_N*%
X173500000Y-88500000D02*
X172500000Y-87500000D01*
X175362514Y-90050000D02*
X174050000Y-90050000D01*
X173500000Y-89500000D02*
X173500000Y-88500000D01*
X169000000Y-87500000D02*
X168000000Y-88500000D01*
X168000000Y-88500000D02*
X168000000Y-90000000D01*
X170195200Y-91104799D02*
X170500000Y-90799999D01*
X169104799Y-91104799D02*
X170195200Y-91104799D01*
%TO.N,GND*%
X171280001Y-94849999D02*
X170950000Y-94849999D01*
X170950000Y-94849999D02*
X170500000Y-94399999D01*
X171280001Y-89450000D02*
X170950000Y-89450000D01*
X170950000Y-89450000D02*
X170500000Y-89000000D01*
%TO.N,BTN_HI*%
X170462500Y-35500000D02*
X170462500Y-33537500D01*
X170462500Y-33537500D02*
X170500000Y-33500000D01*
X170500000Y-33500000D02*
X169975000Y-32975000D01*
X169975000Y-32975000D02*
X169975000Y-30750000D01*
%TO.N,VDD_3V*%
X149000000Y-88500000D02*
X150000000Y-88500000D01*
X150000000Y-88500000D02*
X154462500Y-84037500D01*
X154462500Y-84037500D02*
X155500000Y-84037500D01*
%TO.N,BTN_LO*%
X172000000Y-38500000D02*
X172000000Y-84750000D01*
X180075001Y-90300000D02*
X180825000Y-90300000D01*
X172000000Y-84750000D02*
X173500000Y-86250000D01*
X173500000Y-86250000D02*
X178250000Y-86250000D01*
X175000000Y-35500000D02*
X172000000Y-38500000D01*
X180462500Y-35500000D02*
X175000000Y-35500000D01*
X178250000Y-86250000D02*
X179000000Y-87000000D01*
X179000000Y-87000000D02*
X179000000Y-89224999D01*
X179000000Y-89224999D02*
X180075001Y-90300000D01*
%TO.N,BTN_KEY*%
X174500000Y-37500000D02*
X185500000Y-37500000D01*
X185500000Y-37500000D02*
X186000000Y-37000000D01*
X186000000Y-37000000D02*
X189462500Y-37000000D01*
%TO.N,Net-(J7-Pin_1)*%
X168500000Y-39500000D02*
X168500000Y-83500000D01*
X164500000Y-35500000D02*
X168500000Y-39500000D01*
X162000000Y-35500000D02*
X164500000Y-35500000D01*
D33*
%TO.N,VDD_3V*%
X164650000Y-82850000D02*
X166000000Y-81500000D01*
X164650000Y-85500000D02*
X164650000Y-82850000D01*
D32*
%TO.N,USR_LED_2*%
X184600000Y-88900000D02*
X184000000Y-89500000D01*
X184600000Y-87325000D02*
X184600000Y-88900000D01*
%TO.N,SWDIO*%
X181574999Y-94300000D02*
X182500002Y-93374997D01*
X180825000Y-94300000D02*
X181574999Y-94300000D01*
X182500002Y-93374997D02*
X182500002Y-92000000D01*
%TO.N,USR_LED_2*%
X177550000Y-96500000D02*
X178510482Y-96500000D01*
X178510482Y-96500000D02*
X179505241Y-95505241D01*
%TO.N,USR_LED_1*%
X185400000Y-88400000D02*
X187000000Y-90000000D01*
X185400000Y-87325000D02*
X185400000Y-88400000D01*
%TO.N,SWDCLK*%
X182200000Y-95675000D02*
X182200000Y-95120494D01*
X182200000Y-95120494D02*
X182695494Y-94625000D01*
X182875000Y-94625000D02*
X185230000Y-92270000D01*
X182695494Y-94625000D02*
X182875000Y-94625000D01*
X185230000Y-92270000D02*
X185230000Y-91500000D01*
%TO.N,Net-(J7-Pin_1)*%
X187500000Y-86000000D02*
X184915256Y-86000000D01*
X184915256Y-86000000D02*
X183000000Y-84084744D01*
X187800000Y-87325000D02*
X187800000Y-86300000D01*
X187800000Y-86300000D02*
X187500000Y-86000000D01*
X178500000Y-84000000D02*
X178000000Y-83500000D01*
X183000000Y-84084744D02*
X183000000Y-84000000D01*
X183000000Y-84000000D02*
X178500000Y-84000000D01*
%TO.N,BTN_HI*%
X180075001Y-89500000D02*
X179500000Y-88924999D01*
X179500000Y-88924999D02*
X179500000Y-86500000D01*
X180825000Y-89500000D02*
X180075001Y-89500000D01*
X179500000Y-86500000D02*
X178000000Y-85000000D01*
X178000000Y-85000000D02*
X174000000Y-85000000D01*
%TO.N,BTN_KEY*%
X189462500Y-37500000D02*
X189462500Y-33012500D01*
X189462500Y-33012500D02*
X189475000Y-33000000D01*
%TO.N,BTN_LO*%
X180462500Y-35500000D02*
X180462500Y-34462500D01*
X180462500Y-34462500D02*
X179975000Y-33975000D01*
X179975000Y-33975000D02*
X179975000Y-30750000D01*
%TO.N,BTN_HI*%
X170462500Y-35500000D02*
X170462500Y-35462500D01*
X170462500Y-35462500D02*
X169975000Y-34975000D01*
%TO.N,USR_LED_1*%
X166500000Y-96500000D02*
X173500000Y-96500000D01*
D33*
%TO.N,VDD_3V*%
X189175000Y-91900000D02*
X190600000Y-91900000D01*
X190600000Y-91900000D02*
X191000000Y-91500000D01*
X191000000Y-91500000D02*
X191000000Y-90537500D01*
X192000000Y-89537500D02*
X191000000Y-90537500D01*
X198000000Y-89537500D02*
X192000000Y-89537500D01*
X199090000Y-81500000D02*
X199090000Y-84090000D01*
X199500000Y-88037500D02*
X198000000Y-89537500D01*
X199090000Y-84090000D02*
X199500000Y-84500000D01*
X199500000Y-84500000D02*
X199500000Y-88037500D01*
X164650000Y-85500000D02*
X158350000Y-85500000D01*
D32*
%TO.N,SWDCLK*%
X185000000Y-84500000D02*
X186850000Y-82650000D01*
X186850000Y-82650000D02*
X188760000Y-82650000D01*
X188760000Y-82650000D02*
X189910000Y-81500000D01*
%TO.N,NRST*%
X178930000Y-81500000D02*
X180430000Y-80000000D01*
X191500000Y-80000000D02*
X192000000Y-80500000D01*
X192000000Y-81000000D02*
X191962500Y-81037500D01*
X180430000Y-80000000D02*
X191500000Y-80000000D01*
X192000000Y-80500000D02*
X192000000Y-81000000D01*
X191962500Y-81037500D02*
X191962500Y-85500000D01*
%TO.N,SWDCLK*%
X184470000Y-84500000D02*
X185000000Y-84500000D01*
%TO.N,NRST*%
X191962500Y-85500000D02*
X190500000Y-86962500D01*
X190500000Y-86962500D02*
X190500000Y-89724999D01*
X190500000Y-89724999D02*
X189924999Y-90300000D01*
X189924999Y-90300000D02*
X189175000Y-90300000D01*
%TO.N,Net-(D1-A)*%
X149000000Y-86000000D02*
X149000000Y-84025000D01*
%TO.N,VDD_3V*%
X155500000Y-84037500D02*
X156537500Y-84037500D01*
X156537500Y-84037500D02*
X158000000Y-85500000D01*
X158000000Y-85500000D02*
X158350000Y-85500000D01*
%TO.N,Net-(D4-K)*%
X162000000Y-96500000D02*
X164450000Y-96500000D01*
%TO.N,VDDA_5V*%
X155500000Y-88537500D02*
X156462500Y-88537500D01*
X156462500Y-88537500D02*
X157200000Y-87800000D01*
X157200000Y-87800000D02*
X158350000Y-87800000D01*
X167500000Y-90500000D02*
X162500000Y-90500000D01*
X162500000Y-90500000D02*
X159800000Y-87800000D01*
X159800000Y-87800000D02*
X158350000Y-87800000D01*
%TO.N,D_N*%
X175362500Y-90050000D02*
X175362514Y-90050000D01*
%TO.N,Net-(D3-K)*%
X175500000Y-94000000D02*
X175500000Y-96500000D01*
%TO.N,Net-(J2-CC1)*%
X170500000Y-92600000D02*
X166600000Y-92600000D01*
X166600000Y-92600000D02*
X166500000Y-92500000D01*
%TO.N,VDDA_5V*%
X171280001Y-93949998D02*
X170950000Y-93949998D01*
X170950000Y-93949998D02*
X170500000Y-93499998D01*
X170500000Y-89900000D02*
X170830001Y-89900000D01*
X170830001Y-89900000D02*
X171280001Y-90350000D01*
%TO.N,D_N*%
X177637500Y-90050000D02*
X175362500Y-90050000D01*
X177637500Y-90050000D02*
X178550000Y-90050000D01*
X178550000Y-90050000D02*
X179000000Y-90500000D01*
X179000000Y-90500000D02*
X179000000Y-91624999D01*
X179000000Y-91624999D02*
X180075001Y-92700000D01*
X180075001Y-92700000D02*
X180825000Y-92700000D01*
%TO.N,D_P*%
X179000000Y-92500000D02*
X179000000Y-93000000D01*
X179500000Y-93500000D02*
X180825000Y-93500000D01*
X178450000Y-91950000D02*
X179000000Y-92500000D01*
X177637500Y-91950000D02*
X178450000Y-91950000D01*
X179000000Y-93000000D02*
X179500000Y-93500000D01*
X171280001Y-92149999D02*
X173350001Y-92149999D01*
X173350001Y-92149999D02*
X173550000Y-91950000D01*
X173550000Y-91950000D02*
X177637500Y-91950000D01*
X170500000Y-91699999D02*
X170830001Y-91699999D01*
X170830001Y-91699999D02*
X171280001Y-92149999D01*
%TO.N,SWDCLK*%
X181470000Y-81500000D02*
X184470000Y-84500000D01*
%TO.N,BTN_KEY*%
X183800000Y-85800000D02*
X183800000Y-87325000D01*
X174500000Y-37500000D02*
X173500000Y-38500000D01*
X182500000Y-84500000D02*
X183800000Y-85800000D01*
X173500000Y-81000000D02*
X177000000Y-84500000D01*
X177000000Y-84500000D02*
X182500000Y-84500000D01*
X173500000Y-38500000D02*
X173500000Y-81000000D01*
%TD*%
%TA.AperFunction,Conductor*%
%TO.N,GND*%
G36*
X194508691Y-24469407D02*
G01*
X194544655Y-24518907D01*
X194549500Y-24549500D01*
X194549500Y-38450500D01*
X194530593Y-38508691D01*
X194481093Y-38544655D01*
X194450500Y-38549500D01*
X175059309Y-38549500D01*
X174940691Y-38549500D01*
X174870567Y-38568289D01*
X174826109Y-38580202D01*
X174723391Y-38639507D01*
X174639507Y-38723391D01*
X174580202Y-38826109D01*
X174580201Y-38826114D01*
X174549500Y-38940691D01*
X174549500Y-79559309D01*
X174576574Y-79660351D01*
X174580202Y-79673890D01*
X174639507Y-79776608D01*
X174639509Y-79776610D01*
X174639511Y-79776613D01*
X174723387Y-79860489D01*
X174723389Y-79860490D01*
X174723391Y-79860492D01*
X174826110Y-79919797D01*
X174826111Y-79919797D01*
X174826114Y-79919799D01*
X174940691Y-79950500D01*
X175059309Y-79950500D01*
X179815521Y-79950500D01*
X179873712Y-79969407D01*
X179909676Y-80018907D01*
X179909676Y-80080093D01*
X179885524Y-80119504D01*
X179481214Y-80523812D01*
X179426698Y-80551589D01*
X179366266Y-80542018D01*
X179364583Y-80541139D01*
X179333954Y-80524768D01*
X179135934Y-80464699D01*
X179135929Y-80464698D01*
X178930003Y-80444417D01*
X178929997Y-80444417D01*
X178724070Y-80464698D01*
X178724065Y-80464699D01*
X178526045Y-80524768D01*
X178343547Y-80622316D01*
X178183595Y-80753585D01*
X178183585Y-80753595D01*
X178052316Y-80913547D01*
X177984701Y-81040046D01*
X177954768Y-81096046D01*
X177948152Y-81117857D01*
X177909180Y-81246329D01*
X177874195Y-81296525D01*
X177816386Y-81316571D01*
X177757836Y-81298810D01*
X177720907Y-81250025D01*
X177718816Y-81243213D01*
X177663429Y-81036504D01*
X177563605Y-80822432D01*
X177563601Y-80822424D01*
X177428113Y-80628926D01*
X177261073Y-80461886D01*
X177067577Y-80326399D01*
X176853489Y-80226569D01*
X176640000Y-80169364D01*
X176640000Y-81066988D01*
X176582993Y-81034075D01*
X176455826Y-81000000D01*
X176324174Y-81000000D01*
X176197007Y-81034075D01*
X176140000Y-81066988D01*
X176140000Y-80169364D01*
X175926505Y-80226570D01*
X175712432Y-80326394D01*
X175712424Y-80326398D01*
X175518926Y-80461886D01*
X175351886Y-80628926D01*
X175216398Y-80822424D01*
X175216394Y-80822432D01*
X175116570Y-81036505D01*
X175059364Y-81250000D01*
X175956988Y-81250000D01*
X175924075Y-81307007D01*
X175890000Y-81434174D01*
X175890000Y-81565826D01*
X175924075Y-81692993D01*
X175956988Y-81750000D01*
X175059364Y-81750000D01*
X175104435Y-81918206D01*
X175101233Y-81979307D01*
X175062727Y-82026857D01*
X175003627Y-82042693D01*
X174946505Y-82020767D01*
X174938804Y-82013833D01*
X173829496Y-80904525D01*
X173801719Y-80850008D01*
X173800500Y-80834521D01*
X173800500Y-38665479D01*
X173819407Y-38607288D01*
X173829496Y-38595475D01*
X174595475Y-37829496D01*
X174649992Y-37801719D01*
X174665479Y-37800500D01*
X185539563Y-37800500D01*
X185539563Y-37800499D01*
X185615989Y-37780021D01*
X185684511Y-37740460D01*
X185740460Y-37684511D01*
X186095475Y-37329496D01*
X186149992Y-37301719D01*
X186165479Y-37300500D01*
X188575500Y-37300500D01*
X188633691Y-37319407D01*
X188669655Y-37368907D01*
X188674500Y-37399500D01*
X188674500Y-37529274D01*
X188677353Y-37559694D01*
X188677355Y-37559703D01*
X188722207Y-37687883D01*
X188802845Y-37797144D01*
X188802847Y-37797146D01*
X188802850Y-37797150D01*
X188802853Y-37797152D01*
X188802855Y-37797154D01*
X188912116Y-37877792D01*
X188912117Y-37877792D01*
X188912118Y-37877793D01*
X189040301Y-37922646D01*
X189070725Y-37925499D01*
X189070727Y-37925500D01*
X189070734Y-37925500D01*
X189854273Y-37925500D01*
X189854273Y-37925499D01*
X189884699Y-37922646D01*
X190012882Y-37877793D01*
X190122150Y-37797150D01*
X190202793Y-37687882D01*
X190247646Y-37559699D01*
X190250499Y-37529273D01*
X190250500Y-37529273D01*
X190250500Y-37250001D01*
X190450001Y-37250001D01*
X190450001Y-37524986D01*
X190460492Y-37627687D01*
X190460495Y-37627699D01*
X190515643Y-37794124D01*
X190607680Y-37943340D01*
X190731659Y-38067319D01*
X190880875Y-38159356D01*
X191047306Y-38214506D01*
X191150013Y-38224999D01*
X191287500Y-38224999D01*
X191287500Y-37250001D01*
X191787500Y-37250001D01*
X191787500Y-38224998D01*
X191787501Y-38224999D01*
X191924986Y-38224999D01*
X192027687Y-38214507D01*
X192027699Y-38214504D01*
X192194124Y-38159356D01*
X192343340Y-38067319D01*
X192467319Y-37943340D01*
X192559356Y-37794124D01*
X192614506Y-37627693D01*
X192625000Y-37524987D01*
X192625000Y-37250001D01*
X192624999Y-37250000D01*
X191787501Y-37250000D01*
X191787500Y-37250001D01*
X191287500Y-37250001D01*
X191287499Y-37250000D01*
X190450002Y-37250000D01*
X190450001Y-37250001D01*
X190250500Y-37250001D01*
X190250500Y-36475012D01*
X190450000Y-36475012D01*
X190450000Y-36749999D01*
X190450001Y-36750000D01*
X191287499Y-36750000D01*
X191287500Y-36749999D01*
X191287500Y-35775001D01*
X191787500Y-35775001D01*
X191787500Y-36749999D01*
X191787501Y-36750000D01*
X192624998Y-36750000D01*
X192624999Y-36749999D01*
X192624999Y-36475013D01*
X192614507Y-36372312D01*
X192614504Y-36372300D01*
X192559356Y-36205875D01*
X192467319Y-36056659D01*
X192343340Y-35932680D01*
X192194124Y-35840643D01*
X192027693Y-35785493D01*
X191924987Y-35775000D01*
X191787501Y-35775000D01*
X191787500Y-35775001D01*
X191287500Y-35775001D01*
X191287499Y-35775000D01*
X191150013Y-35775000D01*
X191150013Y-35775001D01*
X191047312Y-35785492D01*
X191047300Y-35785495D01*
X190880875Y-35840643D01*
X190731659Y-35932680D01*
X190607680Y-36056659D01*
X190515643Y-36205875D01*
X190460493Y-36372306D01*
X190450000Y-36475012D01*
X190250500Y-36475012D01*
X190250500Y-36470727D01*
X190250499Y-36470725D01*
X190247646Y-36440305D01*
X190247646Y-36440301D01*
X190202793Y-36312118D01*
X190197568Y-36305039D01*
X190122154Y-36202855D01*
X190122152Y-36202853D01*
X190122150Y-36202850D01*
X190122146Y-36202847D01*
X190122144Y-36202845D01*
X190012883Y-36122207D01*
X189884703Y-36077355D01*
X189884694Y-36077353D01*
X189852754Y-36074357D01*
X189796583Y-36050098D01*
X189765400Y-35997455D01*
X189763000Y-35975790D01*
X189763000Y-34016230D01*
X190624500Y-34016230D01*
X190624500Y-34183769D01*
X190657183Y-34348079D01*
X190657185Y-34348085D01*
X190721296Y-34502862D01*
X190721297Y-34502863D01*
X190814374Y-34642162D01*
X190932838Y-34760626D01*
X191072137Y-34853703D01*
X191226918Y-34917816D01*
X191391233Y-34950500D01*
X191391234Y-34950500D01*
X191558766Y-34950500D01*
X191558767Y-34950500D01*
X191723082Y-34917816D01*
X191877863Y-34853703D01*
X192017162Y-34760626D01*
X192135626Y-34642162D01*
X192228703Y-34502863D01*
X192292816Y-34348082D01*
X192325500Y-34183767D01*
X192325500Y-34016233D01*
X192292816Y-33851918D01*
X192228703Y-33697137D01*
X192135626Y-33557838D01*
X192017162Y-33439374D01*
X191877863Y-33346297D01*
X191877864Y-33346297D01*
X191877862Y-33346296D01*
X191723085Y-33282185D01*
X191723079Y-33282183D01*
X191558769Y-33249500D01*
X191558767Y-33249500D01*
X191391233Y-33249500D01*
X191391230Y-33249500D01*
X191226920Y-33282183D01*
X191226914Y-33282185D01*
X191072137Y-33346296D01*
X190932838Y-33439374D01*
X190932834Y-33439377D01*
X190814377Y-33557834D01*
X190814374Y-33557838D01*
X190721296Y-33697137D01*
X190657185Y-33851914D01*
X190657183Y-33851920D01*
X190624500Y-34016230D01*
X189763000Y-34016230D01*
X189763000Y-33649500D01*
X189781907Y-33591309D01*
X189831407Y-33555345D01*
X189862000Y-33550500D01*
X190254273Y-33550500D01*
X190254273Y-33550499D01*
X190284699Y-33547646D01*
X190412882Y-33502793D01*
X190522150Y-33422150D01*
X190602793Y-33312882D01*
X190647646Y-33184699D01*
X190650500Y-33154266D01*
X190650500Y-31845734D01*
X190650500Y-31845727D01*
X190650499Y-31845725D01*
X190647646Y-31815305D01*
X190647646Y-31815301D01*
X190602793Y-31687118D01*
X190591749Y-31672154D01*
X190522154Y-31577855D01*
X190522152Y-31577853D01*
X190522150Y-31577850D01*
X190522146Y-31577847D01*
X190522144Y-31577845D01*
X190412883Y-31497207D01*
X190284703Y-31452355D01*
X190284694Y-31452353D01*
X190254274Y-31449500D01*
X190254266Y-31449500D01*
X190132652Y-31449500D01*
X190074461Y-31430593D01*
X190038497Y-31381093D01*
X190038497Y-31319907D01*
X190074461Y-31270407D01*
X190102059Y-31256346D01*
X190118209Y-31251098D01*
X190307552Y-31154624D01*
X190479464Y-31029722D01*
X190629722Y-30879464D01*
X190754624Y-30707552D01*
X190851095Y-30518215D01*
X190916758Y-30316122D01*
X190927231Y-30250000D01*
X189879146Y-30250000D01*
X189917630Y-30183343D01*
X189950000Y-30062535D01*
X189950000Y-29937465D01*
X189917630Y-29816657D01*
X189879146Y-29750000D01*
X190927231Y-29750000D01*
X190927231Y-29749999D01*
X190916758Y-29683877D01*
X190851095Y-29481784D01*
X190754624Y-29292447D01*
X190629722Y-29120535D01*
X190479464Y-28970277D01*
X190307552Y-28845375D01*
X190118215Y-28748904D01*
X189931694Y-28688300D01*
X189882194Y-28652336D01*
X189863287Y-28594145D01*
X189882194Y-28535954D01*
X189924400Y-28502682D01*
X190097598Y-28430941D01*
X190269655Y-28315977D01*
X190415977Y-28169655D01*
X190530941Y-27997598D01*
X190610130Y-27806420D01*
X190650500Y-27603465D01*
X190650500Y-27396535D01*
X190610130Y-27193580D01*
X190530941Y-27002402D01*
X190415977Y-26830345D01*
X190269655Y-26684023D01*
X190097598Y-26569059D01*
X190097599Y-26569059D01*
X190097597Y-26569058D01*
X189906418Y-26489869D01*
X189703467Y-26449500D01*
X189703465Y-26449500D01*
X189246535Y-26449500D01*
X189246532Y-26449500D01*
X189043581Y-26489869D01*
X188852402Y-26569058D01*
X188680348Y-26684020D01*
X188534020Y-26830348D01*
X188419058Y-27002402D01*
X188339869Y-27193581D01*
X188299500Y-27396532D01*
X188299500Y-27603467D01*
X188339869Y-27806418D01*
X188419058Y-27997597D01*
X188501705Y-28121288D01*
X188534023Y-28169655D01*
X188680345Y-28315977D01*
X188852402Y-28430941D01*
X189025599Y-28502682D01*
X189072123Y-28542418D01*
X189086407Y-28601912D01*
X189062992Y-28658440D01*
X189018305Y-28688300D01*
X188831784Y-28748904D01*
X188642447Y-28845375D01*
X188470535Y-28970277D01*
X188320277Y-29120535D01*
X188195375Y-29292447D01*
X188098904Y-29481784D01*
X188033241Y-29683877D01*
X188022768Y-29749999D01*
X188022769Y-29750000D01*
X189070854Y-29750000D01*
X189032370Y-29816657D01*
X189000000Y-29937465D01*
X189000000Y-30062535D01*
X189032370Y-30183343D01*
X189070854Y-30250000D01*
X188022769Y-30250000D01*
X188033241Y-30316122D01*
X188098904Y-30518215D01*
X188195375Y-30707552D01*
X188320277Y-30879464D01*
X188470535Y-31029722D01*
X188642447Y-31154624D01*
X188831790Y-31251098D01*
X188847941Y-31256346D01*
X188897441Y-31292310D01*
X188916348Y-31350500D01*
X188897440Y-31408691D01*
X188847940Y-31444655D01*
X188817348Y-31449500D01*
X188695725Y-31449500D01*
X188665305Y-31452353D01*
X188665296Y-31452355D01*
X188537116Y-31497207D01*
X188427855Y-31577845D01*
X188427845Y-31577855D01*
X188347207Y-31687116D01*
X188302355Y-31815296D01*
X188302353Y-31815305D01*
X188299500Y-31845725D01*
X188299500Y-33154274D01*
X188302353Y-33184694D01*
X188302355Y-33184703D01*
X188347207Y-33312883D01*
X188427845Y-33422144D01*
X188427847Y-33422146D01*
X188427850Y-33422150D01*
X188427853Y-33422152D01*
X188427855Y-33422154D01*
X188537116Y-33502792D01*
X188537117Y-33502792D01*
X188537118Y-33502793D01*
X188665301Y-33547646D01*
X188695725Y-33550499D01*
X188695727Y-33550500D01*
X188695734Y-33550500D01*
X189063000Y-33550500D01*
X189121191Y-33569407D01*
X189157155Y-33618907D01*
X189162000Y-33649500D01*
X189162000Y-35975790D01*
X189143093Y-36033981D01*
X189093593Y-36069945D01*
X189072246Y-36074357D01*
X189040305Y-36077353D01*
X189040296Y-36077355D01*
X188912116Y-36122207D01*
X188802855Y-36202845D01*
X188802845Y-36202855D01*
X188722207Y-36312116D01*
X188677355Y-36440296D01*
X188677353Y-36440305D01*
X188674500Y-36470725D01*
X188674500Y-36600500D01*
X188655593Y-36658691D01*
X188606093Y-36694655D01*
X188575500Y-36699500D01*
X186039562Y-36699500D01*
X185960438Y-36699500D01*
X185913661Y-36712033D01*
X185884007Y-36719979D01*
X185815493Y-36759536D01*
X185815488Y-36759540D01*
X185404524Y-37170504D01*
X185350008Y-37198281D01*
X185334521Y-37199500D01*
X174539562Y-37199500D01*
X174460438Y-37199500D01*
X174413661Y-37212033D01*
X174384007Y-37219979D01*
X174315493Y-37259536D01*
X173315489Y-38259540D01*
X173315488Y-38259539D01*
X173259539Y-38315489D01*
X173219980Y-38384007D01*
X173219978Y-38384011D01*
X173199500Y-38460435D01*
X173199500Y-81039564D01*
X173219977Y-81115985D01*
X173219979Y-81115990D01*
X173239326Y-81149500D01*
X173252315Y-81171997D01*
X173259540Y-81184511D01*
X174965489Y-82890460D01*
X176605525Y-84530496D01*
X176633302Y-84585013D01*
X176623731Y-84645445D01*
X176580466Y-84688710D01*
X176535521Y-84699500D01*
X174447083Y-84699500D01*
X174388892Y-84680593D01*
X174372264Y-84665331D01*
X174331128Y-84617857D01*
X174284491Y-84587885D01*
X174210057Y-84540049D01*
X174210054Y-84540047D01*
X174210053Y-84540047D01*
X174210050Y-84540046D01*
X174071964Y-84499500D01*
X174071961Y-84499500D01*
X173928039Y-84499500D01*
X173928035Y-84499500D01*
X173789949Y-84540046D01*
X173789942Y-84540049D01*
X173668873Y-84617855D01*
X173574622Y-84726628D01*
X173514834Y-84857543D01*
X173494353Y-84999997D01*
X173494353Y-85000002D01*
X173514834Y-85142456D01*
X173572683Y-85269125D01*
X173574623Y-85273373D01*
X173668870Y-85382141D01*
X173668873Y-85382144D01*
X173789942Y-85459950D01*
X173789947Y-85459953D01*
X173896403Y-85491211D01*
X173928035Y-85500499D01*
X173928036Y-85500499D01*
X173928039Y-85500500D01*
X173928041Y-85500500D01*
X174071959Y-85500500D01*
X174071961Y-85500500D01*
X174210053Y-85459953D01*
X174331128Y-85382143D01*
X174372264Y-85334668D01*
X174424660Y-85303073D01*
X174447083Y-85300500D01*
X177834521Y-85300500D01*
X177892712Y-85319407D01*
X177904525Y-85329496D01*
X178355525Y-85780496D01*
X178383302Y-85835013D01*
X178373731Y-85895445D01*
X178330466Y-85938710D01*
X178285521Y-85949500D01*
X173665479Y-85949500D01*
X173607288Y-85930593D01*
X173595475Y-85920504D01*
X172329496Y-84654525D01*
X172301719Y-84600008D01*
X172300500Y-84584521D01*
X172300500Y-38665479D01*
X172319407Y-38607288D01*
X172329496Y-38595475D01*
X175095475Y-35829496D01*
X175149992Y-35801719D01*
X175165479Y-35800500D01*
X179575500Y-35800500D01*
X179633691Y-35819407D01*
X179669655Y-35868907D01*
X179674500Y-35899500D01*
X179674500Y-36029274D01*
X179677353Y-36059694D01*
X179677355Y-36059703D01*
X179722207Y-36187883D01*
X179802845Y-36297144D01*
X179802847Y-36297146D01*
X179802850Y-36297150D01*
X179802853Y-36297152D01*
X179802855Y-36297154D01*
X179912116Y-36377792D01*
X179912117Y-36377792D01*
X179912118Y-36377793D01*
X180040301Y-36422646D01*
X180070725Y-36425499D01*
X180070727Y-36425500D01*
X180070734Y-36425500D01*
X180854273Y-36425500D01*
X180854273Y-36425499D01*
X180884699Y-36422646D01*
X181012882Y-36377793D01*
X181122150Y-36297150D01*
X181202793Y-36187882D01*
X181247646Y-36059699D01*
X181250499Y-36029273D01*
X181250500Y-36029273D01*
X181250500Y-35750001D01*
X181450001Y-35750001D01*
X181450001Y-36024986D01*
X181460492Y-36127687D01*
X181460495Y-36127699D01*
X181515643Y-36294124D01*
X181607680Y-36443340D01*
X181731659Y-36567319D01*
X181880875Y-36659356D01*
X182047306Y-36714506D01*
X182150013Y-36724999D01*
X182287500Y-36724999D01*
X182287500Y-35750001D01*
X182787500Y-35750001D01*
X182787500Y-36724998D01*
X182787501Y-36724999D01*
X182924986Y-36724999D01*
X183027687Y-36714507D01*
X183027699Y-36714504D01*
X183194124Y-36659356D01*
X183343340Y-36567319D01*
X183467319Y-36443340D01*
X183559356Y-36294124D01*
X183614506Y-36127693D01*
X183625000Y-36024987D01*
X183625000Y-35750001D01*
X183624999Y-35750000D01*
X182787501Y-35750000D01*
X182787500Y-35750001D01*
X182287500Y-35750001D01*
X182287499Y-35750000D01*
X181450002Y-35750000D01*
X181450001Y-35750001D01*
X181250500Y-35750001D01*
X181250500Y-34975012D01*
X181450000Y-34975012D01*
X181450000Y-35249999D01*
X181450001Y-35250000D01*
X182287499Y-35250000D01*
X182287500Y-35249999D01*
X182287500Y-34275001D01*
X182787500Y-34275001D01*
X182787500Y-35249999D01*
X182787501Y-35250000D01*
X183624998Y-35250000D01*
X183624999Y-35249999D01*
X183624999Y-34975013D01*
X183614507Y-34872312D01*
X183614504Y-34872300D01*
X183559356Y-34705875D01*
X183467319Y-34556659D01*
X183343340Y-34432680D01*
X183194124Y-34340643D01*
X183027693Y-34285493D01*
X182924987Y-34275000D01*
X182787501Y-34275000D01*
X182787500Y-34275001D01*
X182287500Y-34275001D01*
X182287499Y-34275000D01*
X182150013Y-34275000D01*
X182150013Y-34275001D01*
X182047312Y-34285492D01*
X182047300Y-34285495D01*
X181880875Y-34340643D01*
X181731659Y-34432680D01*
X181607680Y-34556659D01*
X181515643Y-34705875D01*
X181460493Y-34872306D01*
X181450000Y-34975012D01*
X181250500Y-34975012D01*
X181250500Y-34970727D01*
X181250499Y-34970725D01*
X181247646Y-34940305D01*
X181247646Y-34940301D01*
X181202793Y-34812118D01*
X181186830Y-34790489D01*
X181122154Y-34702855D01*
X181122151Y-34702852D01*
X181122150Y-34702850D01*
X181122146Y-34702847D01*
X181122144Y-34702845D01*
X181012883Y-34622207D01*
X180884703Y-34577355D01*
X180884694Y-34577353D01*
X180852754Y-34574357D01*
X180796583Y-34550098D01*
X180765400Y-34497455D01*
X180763000Y-34475790D01*
X180763000Y-34422937D01*
X180762999Y-34422935D01*
X180742521Y-34346511D01*
X180742519Y-34346507D01*
X180702960Y-34277989D01*
X180647011Y-34222039D01*
X180647011Y-34222040D01*
X180304496Y-33879525D01*
X180276719Y-33825008D01*
X180275500Y-33809521D01*
X180275500Y-32266230D01*
X181124500Y-32266230D01*
X181124500Y-32433769D01*
X181157183Y-32598079D01*
X181157185Y-32598085D01*
X181221296Y-32752862D01*
X181221297Y-32752863D01*
X181314374Y-32892162D01*
X181432838Y-33010626D01*
X181572137Y-33103703D01*
X181726918Y-33167816D01*
X181891233Y-33200500D01*
X181891234Y-33200500D01*
X182058766Y-33200500D01*
X182058767Y-33200500D01*
X182223082Y-33167816D01*
X182377863Y-33103703D01*
X182517162Y-33010626D01*
X182635626Y-32892162D01*
X182728703Y-32752863D01*
X182792816Y-32598082D01*
X182825500Y-32433767D01*
X182825500Y-32266233D01*
X182792816Y-32101918D01*
X182728703Y-31947137D01*
X182635626Y-31807838D01*
X182517162Y-31689374D01*
X182377863Y-31596297D01*
X182377864Y-31596297D01*
X182377862Y-31596296D01*
X182223085Y-31532185D01*
X182223079Y-31532183D01*
X182058769Y-31499500D01*
X182058767Y-31499500D01*
X181891233Y-31499500D01*
X181891230Y-31499500D01*
X181726920Y-31532183D01*
X181726914Y-31532185D01*
X181572137Y-31596296D01*
X181432838Y-31689374D01*
X181432834Y-31689377D01*
X181314377Y-31807834D01*
X181314374Y-31807838D01*
X181221296Y-31947137D01*
X181157185Y-32101914D01*
X181157183Y-32101920D01*
X181124500Y-32266230D01*
X180275500Y-32266230D01*
X180275500Y-31899500D01*
X180294407Y-31841309D01*
X180343907Y-31805345D01*
X180374500Y-31800500D01*
X180779273Y-31800500D01*
X180779273Y-31800499D01*
X180809699Y-31797646D01*
X180937882Y-31752793D01*
X181047150Y-31672150D01*
X181127793Y-31562882D01*
X181172646Y-31434699D01*
X181175499Y-31404273D01*
X181175500Y-31404273D01*
X181175500Y-30095727D01*
X181175499Y-30095725D01*
X181172646Y-30065305D01*
X181172646Y-30065301D01*
X181127793Y-29937118D01*
X181063866Y-29850500D01*
X181047154Y-29827855D01*
X181047152Y-29827853D01*
X181047150Y-29827850D01*
X181047146Y-29827847D01*
X181047144Y-29827845D01*
X180937883Y-29747207D01*
X180809703Y-29702355D01*
X180809694Y-29702353D01*
X180779274Y-29699500D01*
X180779266Y-29699500D01*
X180657652Y-29699500D01*
X180599461Y-29680593D01*
X180563497Y-29631093D01*
X180563497Y-29569907D01*
X180599461Y-29520407D01*
X180627059Y-29506346D01*
X180643209Y-29501098D01*
X180832552Y-29404624D01*
X181004464Y-29279722D01*
X181154722Y-29129464D01*
X181279624Y-28957552D01*
X181376095Y-28768215D01*
X181441758Y-28566122D01*
X181452231Y-28500000D01*
X180408012Y-28500000D01*
X180440925Y-28442993D01*
X180475000Y-28315826D01*
X180475000Y-28184174D01*
X180440925Y-28057007D01*
X180408012Y-28000000D01*
X181452231Y-28000000D01*
X181452231Y-27999999D01*
X181441758Y-27933877D01*
X181376095Y-27731784D01*
X181279624Y-27542447D01*
X181154722Y-27370535D01*
X181004464Y-27220277D01*
X180832552Y-27095375D01*
X180643215Y-26998904D01*
X180441121Y-26933240D01*
X180231250Y-26900000D01*
X180225001Y-26900000D01*
X180225000Y-26900001D01*
X180225000Y-27816988D01*
X180167993Y-27784075D01*
X180040826Y-27750000D01*
X179909174Y-27750000D01*
X179782007Y-27784075D01*
X179725000Y-27816988D01*
X179725000Y-26900001D01*
X179724999Y-26900000D01*
X179718750Y-26900000D01*
X179508878Y-26933240D01*
X179306784Y-26998904D01*
X179117447Y-27095375D01*
X178945535Y-27220277D01*
X178795277Y-27370535D01*
X178670375Y-27542447D01*
X178573904Y-27731784D01*
X178508241Y-27933877D01*
X178497768Y-27999999D01*
X178497769Y-28000000D01*
X179541988Y-28000000D01*
X179509075Y-28057007D01*
X179475000Y-28184174D01*
X179475000Y-28315826D01*
X179509075Y-28442993D01*
X179541988Y-28500000D01*
X178497769Y-28500000D01*
X178508241Y-28566122D01*
X178573904Y-28768215D01*
X178670375Y-28957552D01*
X178795277Y-29129464D01*
X178945535Y-29279722D01*
X179117447Y-29404624D01*
X179306790Y-29501098D01*
X179322941Y-29506346D01*
X179372441Y-29542310D01*
X179391348Y-29600500D01*
X179372440Y-29658691D01*
X179322940Y-29694655D01*
X179292348Y-29699500D01*
X179170725Y-29699500D01*
X179140305Y-29702353D01*
X179140296Y-29702355D01*
X179012116Y-29747207D01*
X178902855Y-29827845D01*
X178902845Y-29827855D01*
X178822207Y-29937116D01*
X178777355Y-30065296D01*
X178777353Y-30065305D01*
X178774500Y-30095725D01*
X178774500Y-31404274D01*
X178777353Y-31434694D01*
X178777355Y-31434703D01*
X178822207Y-31562883D01*
X178902845Y-31672144D01*
X178902847Y-31672146D01*
X178902850Y-31672150D01*
X178902853Y-31672152D01*
X178902855Y-31672154D01*
X179012116Y-31752792D01*
X179012117Y-31752792D01*
X179012118Y-31752793D01*
X179140301Y-31797646D01*
X179170725Y-31800499D01*
X179170727Y-31800500D01*
X179170734Y-31800500D01*
X179575500Y-31800500D01*
X179633691Y-31819407D01*
X179669655Y-31868907D01*
X179674500Y-31899500D01*
X179674500Y-34014564D01*
X179694978Y-34090988D01*
X179694980Y-34090992D01*
X179734539Y-34159510D01*
X180011919Y-34436891D01*
X180039696Y-34491407D01*
X180030125Y-34551839D01*
X179986860Y-34595104D01*
X179974614Y-34600338D01*
X179912115Y-34622207D01*
X179802855Y-34702845D01*
X179802845Y-34702855D01*
X179722207Y-34812116D01*
X179677355Y-34940296D01*
X179677353Y-34940305D01*
X179674500Y-34970725D01*
X179674500Y-35100500D01*
X179655593Y-35158691D01*
X179606093Y-35194655D01*
X179575500Y-35199500D01*
X175039562Y-35199500D01*
X174960438Y-35199500D01*
X174913661Y-35212033D01*
X174884007Y-35219979D01*
X174815493Y-35259536D01*
X174815492Y-35259537D01*
X173744930Y-36330098D01*
X173690413Y-36357875D01*
X173629981Y-36348304D01*
X173586716Y-36305039D01*
X173577145Y-36244607D01*
X173580951Y-36228953D01*
X173614506Y-36127691D01*
X173625000Y-36024987D01*
X173625000Y-35750001D01*
X173624999Y-35750000D01*
X172787501Y-35750000D01*
X172787500Y-35750001D01*
X172787500Y-36724998D01*
X172787501Y-36724999D01*
X172924986Y-36724999D01*
X173027687Y-36714507D01*
X173027695Y-36714505D01*
X173128953Y-36680951D01*
X173190137Y-36680595D01*
X173239846Y-36716269D01*
X173259092Y-36774349D01*
X173240525Y-36832649D01*
X173230098Y-36844930D01*
X171815489Y-38259540D01*
X171815488Y-38259539D01*
X171759539Y-38315489D01*
X171719980Y-38384007D01*
X171719978Y-38384011D01*
X171699500Y-38460435D01*
X171699500Y-84789564D01*
X171718179Y-84859273D01*
X171719979Y-84865989D01*
X171730384Y-84884011D01*
X171759540Y-84934511D01*
X173259540Y-86434511D01*
X173259539Y-86434511D01*
X173315489Y-86490460D01*
X173384007Y-86530019D01*
X173384011Y-86530021D01*
X173460435Y-86550499D01*
X173460437Y-86550500D01*
X173460438Y-86550500D01*
X178084521Y-86550500D01*
X178142712Y-86569407D01*
X178154525Y-86579496D01*
X178280922Y-86705893D01*
X178308699Y-86760410D01*
X178299128Y-86820842D01*
X178255863Y-86864107D01*
X178195431Y-86873678D01*
X178174639Y-86867322D01*
X178174595Y-86867456D01*
X178002693Y-86810493D01*
X177899987Y-86800000D01*
X177750001Y-86800000D01*
X177750000Y-86800001D01*
X177750000Y-89199998D01*
X177750001Y-89199999D01*
X177899986Y-89199999D01*
X178002687Y-89189507D01*
X178002699Y-89189504D01*
X178169124Y-89134356D01*
X178318340Y-89042319D01*
X178442319Y-88918340D01*
X178516239Y-88798498D01*
X178562880Y-88758896D01*
X178623891Y-88754273D01*
X178675967Y-88786394D01*
X178699217Y-88842989D01*
X178699500Y-88850470D01*
X178699500Y-89264563D01*
X178719978Y-89340987D01*
X178730288Y-89358844D01*
X178755327Y-89402212D01*
X178759540Y-89409510D01*
X179298971Y-89948941D01*
X179834541Y-90484511D01*
X179886018Y-90535988D01*
X179905738Y-90564152D01*
X179929251Y-90614576D01*
X179929252Y-90614577D01*
X179929253Y-90614579D01*
X179944672Y-90629998D01*
X179972448Y-90684513D01*
X179962877Y-90744945D01*
X179944673Y-90770000D01*
X179934654Y-90780020D01*
X179929253Y-90785421D01*
X179880741Y-90889455D01*
X179874500Y-90936862D01*
X179874500Y-91263133D01*
X179874501Y-91263145D01*
X179880740Y-91310544D01*
X179880740Y-91310546D01*
X179929251Y-91414576D01*
X179929252Y-91414577D01*
X179929253Y-91414579D01*
X179944672Y-91429998D01*
X179972448Y-91484513D01*
X179962877Y-91544945D01*
X179944673Y-91570000D01*
X179933015Y-91581659D01*
X179929253Y-91585421D01*
X179880741Y-91689455D01*
X179874500Y-91736862D01*
X179874500Y-91835520D01*
X179855593Y-91893711D01*
X179806093Y-91929675D01*
X179744907Y-91929675D01*
X179705496Y-91905524D01*
X179329496Y-91529524D01*
X179301719Y-91475007D01*
X179300500Y-91459520D01*
X179300500Y-90460437D01*
X179300499Y-90460435D01*
X179295855Y-90443105D01*
X179280021Y-90384011D01*
X179276586Y-90378062D01*
X179240460Y-90315489D01*
X179184512Y-90259540D01*
X178734510Y-89809539D01*
X178734508Y-89809538D01*
X178715576Y-89798608D01*
X178715576Y-89798607D01*
X178715572Y-89798606D01*
X178671868Y-89773373D01*
X178665988Y-89769978D01*
X178589564Y-89749500D01*
X178589562Y-89749500D01*
X178528365Y-89749500D01*
X178470174Y-89730593D01*
X178444389Y-89699891D01*
X178443965Y-89700194D01*
X178440115Y-89694802D01*
X178439423Y-89693978D01*
X178439198Y-89693518D01*
X178439198Y-89693517D01*
X178356483Y-89610802D01*
X178335467Y-89600528D01*
X178251395Y-89559427D01*
X178224139Y-89555456D01*
X178183260Y-89549500D01*
X177091740Y-89549500D01*
X177057673Y-89554463D01*
X177023604Y-89559427D01*
X176918518Y-89610801D01*
X176835801Y-89693518D01*
X176835577Y-89693978D01*
X176835180Y-89694387D01*
X176831035Y-89700194D01*
X176830164Y-89699572D01*
X176793035Y-89737953D01*
X176746635Y-89749500D01*
X176253365Y-89749500D01*
X176195174Y-89730593D01*
X176169389Y-89699891D01*
X176168965Y-89700194D01*
X176165115Y-89694802D01*
X176164423Y-89693978D01*
X176164198Y-89693518D01*
X176164198Y-89693517D01*
X176081483Y-89610802D01*
X176060467Y-89600528D01*
X175976395Y-89559427D01*
X175949139Y-89555456D01*
X175908260Y-89549500D01*
X175274588Y-89549500D01*
X175216397Y-89530593D01*
X175180433Y-89481093D01*
X175180433Y-89419907D01*
X175216397Y-89370407D01*
X175236707Y-89359034D01*
X175237159Y-89358845D01*
X175237166Y-89358844D01*
X175305688Y-89319283D01*
X175361637Y-89263334D01*
X175695475Y-88929496D01*
X175749992Y-88901719D01*
X175765479Y-88900500D01*
X175904273Y-88900500D01*
X175904273Y-88900499D01*
X175934699Y-88897646D01*
X176062882Y-88852793D01*
X176172150Y-88772150D01*
X176252793Y-88662882D01*
X176252796Y-88662871D01*
X176253495Y-88661552D01*
X176254483Y-88660592D01*
X176257199Y-88656913D01*
X176257809Y-88657363D01*
X176297396Y-88618934D01*
X176357964Y-88610260D01*
X176412062Y-88638844D01*
X176435003Y-88676660D01*
X176465643Y-88769125D01*
X176557680Y-88918340D01*
X176681659Y-89042319D01*
X176830875Y-89134356D01*
X176997306Y-89189506D01*
X177100013Y-89199999D01*
X177250000Y-89199999D01*
X177250000Y-86800001D01*
X177249999Y-86800000D01*
X177100013Y-86800000D01*
X177100013Y-86800001D01*
X176997312Y-86810492D01*
X176997300Y-86810495D01*
X176830875Y-86865643D01*
X176681659Y-86957680D01*
X176557680Y-87081659D01*
X176465643Y-87230874D01*
X176435003Y-87323339D01*
X176398751Y-87372629D01*
X176340451Y-87391196D01*
X176282371Y-87371950D01*
X176257378Y-87342954D01*
X176257199Y-87343087D01*
X176255448Y-87340714D01*
X176253497Y-87338451D01*
X176252794Y-87337122D01*
X176252793Y-87337118D01*
X176251366Y-87335185D01*
X176172154Y-87227855D01*
X176172152Y-87227853D01*
X176172150Y-87227850D01*
X176172146Y-87227847D01*
X176172144Y-87227845D01*
X176062883Y-87147207D01*
X175934703Y-87102355D01*
X175934694Y-87102353D01*
X175904274Y-87099500D01*
X175904266Y-87099500D01*
X175095734Y-87099500D01*
X175095725Y-87099500D01*
X175065305Y-87102353D01*
X175065296Y-87102355D01*
X174937116Y-87147207D01*
X174827855Y-87227845D01*
X174827845Y-87227855D01*
X174747207Y-87337116D01*
X174702355Y-87465296D01*
X174702353Y-87465305D01*
X174699500Y-87495725D01*
X174699500Y-88504274D01*
X174702353Y-88534694D01*
X174702353Y-88534697D01*
X174702354Y-88534699D01*
X174741519Y-88646626D01*
X174742891Y-88707795D01*
X174708047Y-88758090D01*
X174650295Y-88778298D01*
X174648074Y-88778323D01*
X174558282Y-88778323D01*
X174500091Y-88759416D01*
X174483463Y-88744154D01*
X174442327Y-88696680D01*
X174386173Y-88660592D01*
X174321256Y-88618872D01*
X174321253Y-88618870D01*
X174321252Y-88618870D01*
X174319672Y-88618406D01*
X174183163Y-88578323D01*
X174183160Y-88578323D01*
X174039238Y-88578323D01*
X174039234Y-88578323D01*
X173927391Y-88611163D01*
X173866230Y-88609415D01*
X173817778Y-88572052D01*
X173800500Y-88516173D01*
X173800500Y-88460442D01*
X173800500Y-88460438D01*
X173800271Y-88459585D01*
X173800273Y-88459537D01*
X173800259Y-88459541D01*
X173800259Y-88459540D01*
X173780022Y-88384012D01*
X173774803Y-88374972D01*
X173740463Y-88315493D01*
X173740461Y-88315491D01*
X173740460Y-88315489D01*
X172684511Y-87259540D01*
X172684508Y-87259538D01*
X172651464Y-87240460D01*
X172651462Y-87240459D01*
X172615989Y-87219979D01*
X172615986Y-87219978D01*
X172539564Y-87199500D01*
X172539562Y-87199500D01*
X169039562Y-87199500D01*
X168960438Y-87199500D01*
X168913661Y-87212033D01*
X168884007Y-87219979D01*
X168815493Y-87259536D01*
X167815489Y-88259540D01*
X167815488Y-88259539D01*
X167759539Y-88315489D01*
X167719980Y-88384007D01*
X167719978Y-88384011D01*
X167699500Y-88460435D01*
X167699500Y-89904700D01*
X167680593Y-89962891D01*
X167631093Y-89998855D01*
X167579101Y-89999597D01*
X167578971Y-90000508D01*
X167573220Y-89999681D01*
X167572610Y-89999690D01*
X167571966Y-89999501D01*
X167571962Y-89999500D01*
X167571961Y-89999500D01*
X167428039Y-89999500D01*
X167428035Y-89999500D01*
X167289949Y-90040046D01*
X167289942Y-90040049D01*
X167168876Y-90117854D01*
X167168871Y-90117858D01*
X167127736Y-90165331D01*
X167075340Y-90196927D01*
X167052917Y-90199500D01*
X162665479Y-90199500D01*
X162607288Y-90180593D01*
X162595475Y-90170504D01*
X161297663Y-88872692D01*
X159984511Y-87559540D01*
X159984508Y-87559538D01*
X159915992Y-87519980D01*
X159915988Y-87519978D01*
X159839564Y-87499500D01*
X159839562Y-87499500D01*
X159649500Y-87499500D01*
X159591309Y-87480593D01*
X159555345Y-87431093D01*
X159550500Y-87400500D01*
X159550500Y-87387281D01*
X159550500Y-87387280D01*
X159535687Y-87274764D01*
X159477698Y-87134767D01*
X159385451Y-87014549D01*
X159265233Y-86922302D01*
X159221707Y-86904273D01*
X159147845Y-86873678D01*
X159125236Y-86864313D01*
X159125234Y-86864312D01*
X159125232Y-86864312D01*
X159012720Y-86849500D01*
X157687280Y-86849500D01*
X157687279Y-86849500D01*
X157574767Y-86864312D01*
X157574761Y-86864314D01*
X157434768Y-86922301D01*
X157314551Y-87014547D01*
X157314547Y-87014551D01*
X157222301Y-87134768D01*
X157164314Y-87274761D01*
X157164312Y-87274767D01*
X157149500Y-87387279D01*
X157149500Y-87426702D01*
X157130593Y-87484893D01*
X157088386Y-87518166D01*
X157084008Y-87519979D01*
X157015493Y-87559536D01*
X157015488Y-87559540D01*
X156543667Y-88031360D01*
X156489151Y-88059137D01*
X156428719Y-88049566D01*
X156385454Y-88006301D01*
X156380222Y-87994061D01*
X156377793Y-87987118D01*
X156377791Y-87987116D01*
X156377791Y-87987114D01*
X156297154Y-87877855D01*
X156297152Y-87877853D01*
X156297150Y-87877850D01*
X156297146Y-87877847D01*
X156297144Y-87877845D01*
X156187883Y-87797207D01*
X156059703Y-87752355D01*
X156059694Y-87752353D01*
X156029274Y-87749500D01*
X156029266Y-87749500D01*
X154970734Y-87749500D01*
X154970725Y-87749500D01*
X154940305Y-87752353D01*
X154940296Y-87752355D01*
X154812116Y-87797207D01*
X154702855Y-87877845D01*
X154702845Y-87877855D01*
X154622207Y-87987116D01*
X154577355Y-88115296D01*
X154577353Y-88115305D01*
X154574500Y-88145725D01*
X154574500Y-88929274D01*
X154577353Y-88959694D01*
X154577355Y-88959703D01*
X154622207Y-89087883D01*
X154702845Y-89197144D01*
X154702847Y-89197146D01*
X154702850Y-89197150D01*
X154702853Y-89197152D01*
X154702855Y-89197154D01*
X154812116Y-89277792D01*
X154812117Y-89277792D01*
X154812118Y-89277793D01*
X154940301Y-89322646D01*
X154970725Y-89325499D01*
X154970727Y-89325500D01*
X154970734Y-89325500D01*
X156029273Y-89325500D01*
X156029273Y-89325499D01*
X156059699Y-89322646D01*
X156187882Y-89277793D01*
X156297150Y-89197150D01*
X156377793Y-89087882D01*
X156422646Y-88959699D01*
X156423833Y-88947037D01*
X156425717Y-88926960D01*
X156426563Y-88927039D01*
X156447039Y-88872692D01*
X156498145Y-88839050D01*
X156498739Y-88838889D01*
X156502057Y-88838000D01*
X156502062Y-88838000D01*
X156578489Y-88817521D01*
X156578492Y-88817519D01*
X156578493Y-88817519D01*
X156614379Y-88796800D01*
X156647011Y-88777960D01*
X156688495Y-88736476D01*
X156702961Y-88722011D01*
X157040630Y-88384340D01*
X157095147Y-88356562D01*
X157155579Y-88366133D01*
X157198844Y-88409398D01*
X157202098Y-88416457D01*
X157220316Y-88460438D01*
X157222302Y-88465233D01*
X157314549Y-88585451D01*
X157434767Y-88677698D01*
X157574764Y-88735687D01*
X157687280Y-88750500D01*
X157687281Y-88750500D01*
X159012719Y-88750500D01*
X159012720Y-88750500D01*
X159125236Y-88735687D01*
X159265233Y-88677698D01*
X159385451Y-88585451D01*
X159477698Y-88465233D01*
X159535687Y-88325236D01*
X159550500Y-88212720D01*
X159550500Y-88212704D01*
X159550712Y-88209485D01*
X159552092Y-88209575D01*
X159569407Y-88156287D01*
X159618907Y-88120323D01*
X159680093Y-88120323D01*
X159719501Y-88144472D01*
X162315489Y-90740460D01*
X162315491Y-90740461D01*
X162315493Y-90740463D01*
X162384008Y-90780020D01*
X162384006Y-90780020D01*
X162384010Y-90780021D01*
X162384012Y-90780022D01*
X162460438Y-90800500D01*
X162539562Y-90800500D01*
X167052917Y-90800500D01*
X167111108Y-90819407D01*
X167127733Y-90834667D01*
X167168872Y-90882143D01*
X167289947Y-90959953D01*
X167396403Y-90991211D01*
X167428035Y-91000499D01*
X167428036Y-91000499D01*
X167428039Y-91000500D01*
X167428041Y-91000500D01*
X167571959Y-91000500D01*
X167571961Y-91000500D01*
X167710053Y-90959953D01*
X167831128Y-90882143D01*
X167925377Y-90773373D01*
X167985165Y-90642457D01*
X167986221Y-90635109D01*
X168013214Y-90580201D01*
X168067326Y-90551644D01*
X168127889Y-90560348D01*
X168154218Y-90579189D01*
X168920288Y-91345259D01*
X168920290Y-91345260D01*
X168920291Y-91345261D01*
X168920292Y-91345262D01*
X168988807Y-91384819D01*
X168988805Y-91384819D01*
X168988809Y-91384820D01*
X168988811Y-91384821D01*
X169065237Y-91405299D01*
X169925039Y-91405299D01*
X169983230Y-91424206D01*
X170019194Y-91473706D01*
X170019194Y-91534892D01*
X170015093Y-91545424D01*
X170010183Y-91556175D01*
X170010181Y-91556181D01*
X169989504Y-91699996D01*
X169989504Y-91700001D01*
X170010181Y-91843816D01*
X170010182Y-91843819D01*
X170010182Y-91843820D01*
X170010183Y-91843822D01*
X170065660Y-91965301D01*
X170070544Y-91975996D01*
X170165143Y-92085168D01*
X170188961Y-92141527D01*
X170175103Y-92201122D01*
X170165144Y-92214829D01*
X170139915Y-92243946D01*
X170121384Y-92265330D01*
X170068991Y-92296927D01*
X170046566Y-92299500D01*
X167399500Y-92299500D01*
X167341309Y-92280593D01*
X167305345Y-92231093D01*
X167300500Y-92200500D01*
X167300500Y-91995727D01*
X167300499Y-91995725D01*
X167298649Y-91975996D01*
X167297646Y-91965301D01*
X167252793Y-91837118D01*
X167232417Y-91809510D01*
X167172154Y-91727855D01*
X167172152Y-91727853D01*
X167172150Y-91727850D01*
X167172146Y-91727847D01*
X167172144Y-91727845D01*
X167062883Y-91647207D01*
X166934703Y-91602355D01*
X166934694Y-91602353D01*
X166904274Y-91599500D01*
X166904266Y-91599500D01*
X166095734Y-91599500D01*
X166095725Y-91599500D01*
X166065305Y-91602353D01*
X166065296Y-91602355D01*
X165937116Y-91647207D01*
X165827855Y-91727845D01*
X165827845Y-91727855D01*
X165747206Y-91837118D01*
X165746497Y-91838460D01*
X165745506Y-91839421D01*
X165742801Y-91843087D01*
X165742192Y-91842637D01*
X165702589Y-91881071D01*
X165642020Y-91889736D01*
X165587926Y-91861145D01*
X165564996Y-91823338D01*
X165534356Y-91730875D01*
X165442319Y-91581659D01*
X165318340Y-91457680D01*
X165169124Y-91365643D01*
X165002693Y-91310493D01*
X164899987Y-91300000D01*
X164750001Y-91300000D01*
X164750000Y-91300001D01*
X164750000Y-93699998D01*
X164750001Y-93699999D01*
X164899986Y-93699999D01*
X165002687Y-93689507D01*
X165002699Y-93689504D01*
X165169124Y-93634356D01*
X165318340Y-93542319D01*
X165442319Y-93418340D01*
X165534356Y-93269124D01*
X165564996Y-93176661D01*
X165601247Y-93127371D01*
X165659547Y-93108803D01*
X165717627Y-93128048D01*
X165742622Y-93157045D01*
X165742801Y-93156913D01*
X165744544Y-93159275D01*
X165746500Y-93161544D01*
X165747209Y-93162885D01*
X165827845Y-93272144D01*
X165827847Y-93272146D01*
X165827850Y-93272150D01*
X165827853Y-93272152D01*
X165827855Y-93272154D01*
X165937116Y-93352792D01*
X165937117Y-93352792D01*
X165937118Y-93352793D01*
X166065301Y-93397646D01*
X166095725Y-93400499D01*
X166095727Y-93400500D01*
X166095734Y-93400500D01*
X166904273Y-93400500D01*
X166904273Y-93400499D01*
X166934699Y-93397646D01*
X167062882Y-93352793D01*
X167172150Y-93272150D01*
X167252793Y-93162882D01*
X167297646Y-93034699D01*
X167300499Y-93004273D01*
X167300500Y-93004273D01*
X167300500Y-92999500D01*
X167319407Y-92941309D01*
X167368907Y-92905345D01*
X167399500Y-92900500D01*
X170046566Y-92900500D01*
X170104757Y-92919407D01*
X170121383Y-92934667D01*
X170165142Y-92985168D01*
X170188960Y-93041526D01*
X170175102Y-93101121D01*
X170165142Y-93114829D01*
X170070544Y-93224000D01*
X170010182Y-93356177D01*
X170010181Y-93356179D01*
X170001076Y-93419505D01*
X169974079Y-93474413D01*
X169919964Y-93502965D01*
X169859402Y-93494257D01*
X169820771Y-93460419D01*
X169801004Y-93430835D01*
X169711164Y-93340995D01*
X169605522Y-93270407D01*
X169605521Y-93270406D01*
X169605519Y-93270405D01*
X169488140Y-93221786D01*
X169363529Y-93196999D01*
X169363527Y-93196999D01*
X169236473Y-93196999D01*
X169236470Y-93196999D01*
X169111860Y-93221786D01*
X169111858Y-93221786D01*
X168994480Y-93270405D01*
X168888836Y-93340995D01*
X168888832Y-93340998D01*
X168798999Y-93430831D01*
X168798996Y-93430835D01*
X168728406Y-93536479D01*
X168679787Y-93653857D01*
X168679787Y-93653859D01*
X168655000Y-93778469D01*
X168655000Y-94921528D01*
X168670510Y-94999500D01*
X168672969Y-95011865D01*
X168679787Y-95046138D01*
X168679787Y-95046140D01*
X168728406Y-95163518D01*
X168728407Y-95163520D01*
X168728408Y-95163521D01*
X168798996Y-95269163D01*
X168888836Y-95359003D01*
X168994478Y-95429591D01*
X169111860Y-95478212D01*
X169236473Y-95502999D01*
X169236474Y-95502999D01*
X169363526Y-95502999D01*
X169363527Y-95502999D01*
X169488140Y-95478212D01*
X169605522Y-95429591D01*
X169711164Y-95359003D01*
X169801004Y-95269163D01*
X169871592Y-95163521D01*
X169895054Y-95106876D01*
X169934788Y-95060354D01*
X169994283Y-95046069D01*
X170039188Y-95060938D01*
X170148599Y-95129685D01*
X170319775Y-95189583D01*
X170319787Y-95189586D01*
X170499996Y-95209891D01*
X170500933Y-95209891D01*
X170501430Y-95210052D01*
X170505525Y-95210514D01*
X170505430Y-95211352D01*
X170512220Y-95213558D01*
X170512481Y-95211249D01*
X170559857Y-95216587D01*
X171033220Y-94743225D01*
X171087737Y-94715448D01*
X171121789Y-94720841D01*
X171107736Y-94734895D01*
X171076801Y-94809580D01*
X171076801Y-94890418D01*
X171107736Y-94965103D01*
X171164897Y-95022264D01*
X171239582Y-95053199D01*
X171320420Y-95053199D01*
X171395105Y-95022264D01*
X171452266Y-94965103D01*
X171483201Y-94890418D01*
X171483201Y-94809580D01*
X171452266Y-94734895D01*
X171435678Y-94718307D01*
X171441291Y-94715448D01*
X171501723Y-94725019D01*
X171526782Y-94743226D01*
X171901283Y-95117728D01*
X171922741Y-95149841D01*
X171928408Y-95163521D01*
X171998996Y-95269163D01*
X172088836Y-95359003D01*
X172194478Y-95429591D01*
X172311860Y-95478212D01*
X172436473Y-95502999D01*
X172436474Y-95502999D01*
X172563526Y-95502999D01*
X172563527Y-95502999D01*
X172688140Y-95478212D01*
X172805522Y-95429591D01*
X172911164Y-95359003D01*
X173001004Y-95269163D01*
X173071592Y-95163521D01*
X173120213Y-95046139D01*
X173145000Y-94921526D01*
X173145000Y-93778472D01*
X173120213Y-93653859D01*
X173083336Y-93564830D01*
X173071593Y-93536479D01*
X173071592Y-93536477D01*
X173001004Y-93430835D01*
X172911164Y-93340995D01*
X172805522Y-93270407D01*
X172805521Y-93270406D01*
X172805519Y-93270405D01*
X172688140Y-93221786D01*
X172563529Y-93196999D01*
X172563527Y-93196999D01*
X172436473Y-93196999D01*
X172436470Y-93196999D01*
X172311860Y-93221786D01*
X172311858Y-93221786D01*
X172194480Y-93270405D01*
X172088836Y-93340995D01*
X172088832Y-93340998D01*
X171998999Y-93430831D01*
X171998996Y-93430835D01*
X171928406Y-93536479D01*
X171880384Y-93652417D01*
X171840648Y-93698943D01*
X171781153Y-93713227D01*
X171724625Y-93689812D01*
X171714799Y-93678743D01*
X171714095Y-93679354D01*
X171614859Y-93564830D01*
X171591041Y-93508471D01*
X171604899Y-93448876D01*
X171614859Y-93435168D01*
X171686238Y-93352792D01*
X171709458Y-93325995D01*
X171769818Y-93193823D01*
X171774459Y-93161544D01*
X171790497Y-93050002D01*
X171790497Y-93049997D01*
X171769819Y-92906182D01*
X171769818Y-92906179D01*
X171769818Y-92906177D01*
X171709458Y-92774005D01*
X171709456Y-92774003D01*
X171709456Y-92774002D01*
X171614857Y-92664830D01*
X171591039Y-92608471D01*
X171604897Y-92548876D01*
X171614854Y-92535171D01*
X171649385Y-92495322D01*
X171658618Y-92484667D01*
X171711014Y-92453071D01*
X171733436Y-92450499D01*
X173389564Y-92450499D01*
X173389564Y-92450498D01*
X173465990Y-92430020D01*
X173534512Y-92390459D01*
X173590461Y-92334510D01*
X173645475Y-92279496D01*
X173699992Y-92251719D01*
X173715479Y-92250500D01*
X174471635Y-92250500D01*
X174529826Y-92269407D01*
X174555610Y-92300108D01*
X174556035Y-92299806D01*
X174559884Y-92305197D01*
X174560576Y-92306020D01*
X174560802Y-92306483D01*
X174643517Y-92389198D01*
X174697285Y-92415483D01*
X174748604Y-92440572D01*
X174748605Y-92440572D01*
X174748607Y-92440573D01*
X174816740Y-92450500D01*
X174816743Y-92450500D01*
X175908257Y-92450500D01*
X175908260Y-92450500D01*
X175976393Y-92440573D01*
X176081483Y-92389198D01*
X176164198Y-92306483D01*
X176164423Y-92306021D01*
X176164819Y-92305612D01*
X176168965Y-92299806D01*
X176169835Y-92300427D01*
X176206965Y-92262047D01*
X176253365Y-92250500D01*
X176746635Y-92250500D01*
X176804826Y-92269407D01*
X176830610Y-92300108D01*
X176831035Y-92299806D01*
X176834884Y-92305197D01*
X176835576Y-92306020D01*
X176835802Y-92306483D01*
X176918517Y-92389198D01*
X176972285Y-92415483D01*
X177023604Y-92440572D01*
X177023605Y-92440572D01*
X177023607Y-92440573D01*
X177091740Y-92450500D01*
X177091743Y-92450500D01*
X178183257Y-92450500D01*
X178183260Y-92450500D01*
X178251393Y-92440573D01*
X178356483Y-92389198D01*
X178356483Y-92389197D01*
X178363853Y-92385595D01*
X178365303Y-92388561D01*
X178409400Y-92374612D01*
X178467442Y-92393971D01*
X178478634Y-92403605D01*
X178670504Y-92595475D01*
X178698281Y-92649992D01*
X178699500Y-92665479D01*
X178699500Y-93039564D01*
X178719978Y-93115988D01*
X178739903Y-93150498D01*
X178739903Y-93150499D01*
X178747053Y-93162883D01*
X178759540Y-93184511D01*
X179315489Y-93740460D01*
X179315491Y-93740461D01*
X179315493Y-93740463D01*
X179384008Y-93780020D01*
X179384006Y-93780020D01*
X179384010Y-93780021D01*
X179384012Y-93780022D01*
X179460438Y-93800500D01*
X179539562Y-93800500D01*
X179874167Y-93800500D01*
X179932358Y-93819407D01*
X179944164Y-93829490D01*
X179944672Y-93829998D01*
X179972448Y-93884513D01*
X179962877Y-93944945D01*
X179944673Y-93970000D01*
X179929253Y-93985421D01*
X179880741Y-94089455D01*
X179874500Y-94136862D01*
X179874500Y-94463133D01*
X179874501Y-94463145D01*
X179880740Y-94510544D01*
X179880740Y-94510546D01*
X179929251Y-94614576D01*
X179929252Y-94614577D01*
X179929253Y-94614579D01*
X180010421Y-94695747D01*
X180114455Y-94744259D01*
X180161861Y-94750500D01*
X181488138Y-94750499D01*
X181535545Y-94744259D01*
X181535546Y-94744259D01*
X181597330Y-94715448D01*
X181639579Y-94695747D01*
X181720747Y-94614579D01*
X181744260Y-94564152D01*
X181763980Y-94535990D01*
X181815459Y-94484511D01*
X182015075Y-94284895D01*
X182740462Y-93559508D01*
X182761118Y-93523731D01*
X182780022Y-93490989D01*
X182780022Y-93490987D01*
X182780024Y-93490985D01*
X182800502Y-93414559D01*
X182800502Y-93335435D01*
X182800502Y-92453893D01*
X182819409Y-92395702D01*
X182826743Y-92387711D01*
X182826493Y-92387494D01*
X182831130Y-92382143D01*
X182925379Y-92273373D01*
X182985167Y-92142457D01*
X182996572Y-92063133D01*
X183005649Y-92000002D01*
X183005649Y-91999997D01*
X182985167Y-91857543D01*
X182942826Y-91764831D01*
X182925379Y-91726627D01*
X182831130Y-91617857D01*
X182831129Y-91617856D01*
X182831128Y-91617855D01*
X182710059Y-91540049D01*
X182710056Y-91540047D01*
X182710055Y-91540047D01*
X182710052Y-91540046D01*
X182571966Y-91499500D01*
X182571963Y-91499500D01*
X182428041Y-91499500D01*
X182428037Y-91499500D01*
X182289951Y-91540046D01*
X182289944Y-91540049D01*
X182168875Y-91617855D01*
X182074624Y-91726628D01*
X182014836Y-91857543D01*
X181994355Y-91999997D01*
X181994355Y-92000002D01*
X182014836Y-92142456D01*
X182070952Y-92265330D01*
X182074625Y-92273373D01*
X182162348Y-92374612D01*
X182173511Y-92387494D01*
X182171473Y-92389259D01*
X182196927Y-92431458D01*
X182199502Y-92453893D01*
X182199502Y-93209518D01*
X182180595Y-93267709D01*
X182170506Y-93279521D01*
X181944501Y-93505525D01*
X181889986Y-93533302D01*
X181829554Y-93523731D01*
X181786289Y-93480466D01*
X181775499Y-93435521D01*
X181775499Y-93336866D01*
X181775498Y-93336854D01*
X181769259Y-93289455D01*
X181769259Y-93289453D01*
X181720748Y-93185423D01*
X181720747Y-93185422D01*
X181720747Y-93185421D01*
X181705327Y-93170001D01*
X181677552Y-93115487D01*
X181687123Y-93055055D01*
X181705326Y-93029999D01*
X181720747Y-93014579D01*
X181769259Y-92910545D01*
X181775500Y-92863139D01*
X181775499Y-92536862D01*
X181769259Y-92489455D01*
X181769259Y-92489453D01*
X181720748Y-92385423D01*
X181720747Y-92385422D01*
X181720747Y-92385421D01*
X181705327Y-92370001D01*
X181677552Y-92315487D01*
X181687123Y-92255055D01*
X181705326Y-92229999D01*
X181720747Y-92214579D01*
X181769259Y-92110545D01*
X181775500Y-92063139D01*
X181775499Y-91736862D01*
X181769259Y-91689455D01*
X181769259Y-91689453D01*
X181720748Y-91585423D01*
X181720747Y-91585422D01*
X181720747Y-91585421D01*
X181705327Y-91570001D01*
X181677552Y-91515487D01*
X181687123Y-91455055D01*
X181705326Y-91429999D01*
X181720747Y-91414579D01*
X181769259Y-91310545D01*
X181775500Y-91263139D01*
X181775499Y-90936862D01*
X181769259Y-90889455D01*
X181769259Y-90889453D01*
X181720748Y-90785423D01*
X181720747Y-90785422D01*
X181720747Y-90785421D01*
X181705327Y-90770001D01*
X181677552Y-90715487D01*
X181687123Y-90655055D01*
X181705326Y-90629999D01*
X181720747Y-90614579D01*
X181769259Y-90510545D01*
X181775500Y-90463139D01*
X181775499Y-90136862D01*
X181769259Y-90089455D01*
X181769259Y-90089453D01*
X181720748Y-89985423D01*
X181720747Y-89985422D01*
X181720747Y-89985421D01*
X181705327Y-89970001D01*
X181677552Y-89915487D01*
X181687123Y-89855055D01*
X181705326Y-89829999D01*
X181720747Y-89814579D01*
X181769259Y-89710545D01*
X181775500Y-89663139D01*
X181775499Y-89336862D01*
X181774003Y-89325500D01*
X181769259Y-89289455D01*
X181769259Y-89289453D01*
X181720748Y-89185423D01*
X181720747Y-89185422D01*
X181720747Y-89185421D01*
X181705327Y-89170001D01*
X181677552Y-89115487D01*
X181687123Y-89055055D01*
X181705326Y-89029999D01*
X181720747Y-89014579D01*
X181769259Y-88910545D01*
X181775500Y-88863139D01*
X181775499Y-88536862D01*
X181769259Y-88489455D01*
X181769259Y-88489453D01*
X181720748Y-88385423D01*
X181720747Y-88385422D01*
X181720747Y-88385421D01*
X181639579Y-88304253D01*
X181535545Y-88255741D01*
X181488139Y-88249500D01*
X181488137Y-88249500D01*
X180161865Y-88249500D01*
X180161854Y-88249501D01*
X180114455Y-88255740D01*
X180114453Y-88255740D01*
X180010423Y-88304251D01*
X180010421Y-88304252D01*
X180010421Y-88304253D01*
X179969501Y-88345172D01*
X179914987Y-88372948D01*
X179854555Y-88363377D01*
X179811290Y-88320112D01*
X179800500Y-88275167D01*
X179800500Y-86460437D01*
X179800499Y-86460435D01*
X179780021Y-86384011D01*
X179780019Y-86384007D01*
X179740460Y-86315489D01*
X179684511Y-86259539D01*
X179684511Y-86259540D01*
X178394475Y-84969504D01*
X178366698Y-84914987D01*
X178376269Y-84854555D01*
X178419534Y-84811290D01*
X178464479Y-84800500D01*
X182334521Y-84800500D01*
X182392712Y-84819407D01*
X182404525Y-84829496D01*
X183470504Y-85895475D01*
X183498281Y-85949992D01*
X183499500Y-85965479D01*
X183499500Y-86374167D01*
X183480593Y-86432358D01*
X183470509Y-86444164D01*
X183470001Y-86444672D01*
X183415487Y-86472448D01*
X183355055Y-86462877D01*
X183329999Y-86444673D01*
X183314579Y-86429253D01*
X183210545Y-86380741D01*
X183163139Y-86374500D01*
X183163137Y-86374500D01*
X182836866Y-86374500D01*
X182836854Y-86374501D01*
X182789455Y-86380740D01*
X182789453Y-86380740D01*
X182685423Y-86429251D01*
X182685421Y-86429252D01*
X182685421Y-86429253D01*
X182670001Y-86444672D01*
X182615487Y-86472448D01*
X182555055Y-86462877D01*
X182529999Y-86444673D01*
X182514579Y-86429253D01*
X182410545Y-86380741D01*
X182363139Y-86374500D01*
X182363137Y-86374500D01*
X182036866Y-86374500D01*
X182036854Y-86374501D01*
X181989455Y-86380740D01*
X181989453Y-86380740D01*
X181885423Y-86429251D01*
X181804253Y-86510421D01*
X181755741Y-86614455D01*
X181749500Y-86661862D01*
X181749500Y-87988134D01*
X181749501Y-87988145D01*
X181755740Y-88035544D01*
X181755740Y-88035546D01*
X181804251Y-88139576D01*
X181804252Y-88139577D01*
X181804253Y-88139579D01*
X181885421Y-88220747D01*
X181989455Y-88269259D01*
X182036861Y-88275500D01*
X182363138Y-88275499D01*
X182410545Y-88269259D01*
X182410546Y-88269259D01*
X182500500Y-88227312D01*
X182514579Y-88220747D01*
X182529998Y-88205327D01*
X182584513Y-88177552D01*
X182644945Y-88187123D01*
X182670000Y-88205326D01*
X182685421Y-88220747D01*
X182789455Y-88269259D01*
X182836861Y-88275500D01*
X183163138Y-88275499D01*
X183210545Y-88269259D01*
X183210546Y-88269259D01*
X183300500Y-88227312D01*
X183314579Y-88220747D01*
X183329998Y-88205327D01*
X183384513Y-88177552D01*
X183444945Y-88187123D01*
X183470000Y-88205326D01*
X183485421Y-88220747D01*
X183589455Y-88269259D01*
X183636861Y-88275500D01*
X183963138Y-88275499D01*
X184010545Y-88269259D01*
X184010546Y-88269259D01*
X184100500Y-88227312D01*
X184114579Y-88220747D01*
X184129998Y-88205327D01*
X184184513Y-88177552D01*
X184244945Y-88187123D01*
X184270000Y-88205326D01*
X184270505Y-88205831D01*
X184298281Y-88260346D01*
X184299500Y-88275833D01*
X184299500Y-88734521D01*
X184280593Y-88792712D01*
X184270504Y-88804524D01*
X184104523Y-88970504D01*
X184050008Y-88998281D01*
X184034521Y-88999500D01*
X183928035Y-88999500D01*
X183789949Y-89040046D01*
X183789942Y-89040049D01*
X183668873Y-89117855D01*
X183574622Y-89226628D01*
X183514834Y-89357543D01*
X183494353Y-89499997D01*
X183494353Y-89500002D01*
X183514834Y-89642456D01*
X183573073Y-89769979D01*
X183574623Y-89773373D01*
X183647556Y-89857543D01*
X183668873Y-89882144D01*
X183789558Y-89959703D01*
X183789947Y-89959953D01*
X183873551Y-89984501D01*
X183928035Y-90000499D01*
X183928036Y-90000499D01*
X183928039Y-90000500D01*
X183928041Y-90000500D01*
X184071959Y-90000500D01*
X184071961Y-90000500D01*
X184210053Y-89959953D01*
X184331128Y-89882143D01*
X184425377Y-89773373D01*
X184485165Y-89642457D01*
X184500072Y-89538775D01*
X184505647Y-89500002D01*
X184505647Y-89499998D01*
X184502558Y-89478516D01*
X184512991Y-89418227D01*
X184530543Y-89394426D01*
X184840460Y-89084511D01*
X184854668Y-89059901D01*
X184860674Y-89049500D01*
X184880020Y-89015990D01*
X184880021Y-89015989D01*
X184900500Y-88939562D01*
X184900500Y-88275833D01*
X184919407Y-88217642D01*
X184929490Y-88205835D01*
X184929998Y-88205327D01*
X184984513Y-88177552D01*
X185044945Y-88187123D01*
X185070000Y-88205326D01*
X185070505Y-88205831D01*
X185098281Y-88260346D01*
X185099500Y-88275833D01*
X185099500Y-88439564D01*
X185119978Y-88515987D01*
X185132029Y-88536861D01*
X185152168Y-88571742D01*
X185159540Y-88584511D01*
X185816237Y-89241208D01*
X186469453Y-89894424D01*
X186497230Y-89948941D01*
X186497441Y-89978514D01*
X186494354Y-89999997D01*
X186494353Y-90000002D01*
X186514834Y-90142456D01*
X186568950Y-90260952D01*
X186574623Y-90273373D01*
X186665336Y-90378062D01*
X186668873Y-90382144D01*
X186789942Y-90459950D01*
X186789947Y-90459953D01*
X186896403Y-90491211D01*
X186928035Y-90500499D01*
X186928036Y-90500499D01*
X186928039Y-90500500D01*
X186928041Y-90500500D01*
X187071959Y-90500500D01*
X187071961Y-90500500D01*
X187210053Y-90459953D01*
X187331128Y-90382143D01*
X187425377Y-90273373D01*
X187485165Y-90142457D01*
X187496873Y-90061025D01*
X187505647Y-90000002D01*
X187505647Y-89999997D01*
X187485165Y-89857543D01*
X187479300Y-89844700D01*
X187425377Y-89726627D01*
X187331128Y-89617857D01*
X187331127Y-89617856D01*
X187331126Y-89617855D01*
X187210057Y-89540049D01*
X187210054Y-89540047D01*
X187210053Y-89540047D01*
X187210050Y-89540046D01*
X187071964Y-89499500D01*
X187071961Y-89499500D01*
X186965479Y-89499500D01*
X186907288Y-89480593D01*
X186895475Y-89470504D01*
X185833291Y-88408320D01*
X185805514Y-88353803D01*
X185815085Y-88293371D01*
X185858350Y-88250106D01*
X185918782Y-88240535D01*
X185945134Y-88248592D01*
X185989452Y-88269258D01*
X185989453Y-88269258D01*
X185989455Y-88269259D01*
X186036861Y-88275500D01*
X186363138Y-88275499D01*
X186410545Y-88269259D01*
X186410546Y-88269259D01*
X186500500Y-88227312D01*
X186514579Y-88220747D01*
X186529998Y-88205327D01*
X186584513Y-88177552D01*
X186644945Y-88187123D01*
X186670000Y-88205326D01*
X186685421Y-88220747D01*
X186789455Y-88269259D01*
X186836861Y-88275500D01*
X187163138Y-88275499D01*
X187210545Y-88269259D01*
X187210546Y-88269259D01*
X187300500Y-88227312D01*
X187314579Y-88220747D01*
X187329998Y-88205327D01*
X187384513Y-88177552D01*
X187444945Y-88187123D01*
X187470000Y-88205326D01*
X187485421Y-88220747D01*
X187589455Y-88269259D01*
X187636861Y-88275500D01*
X187833985Y-88275499D01*
X187892174Y-88294406D01*
X187922973Y-88336797D01*
X187958250Y-88288244D01*
X188003522Y-88270184D01*
X188009262Y-88269427D01*
X188010545Y-88269259D01*
X188010546Y-88269259D01*
X188100500Y-88227312D01*
X188114579Y-88220747D01*
X188195747Y-88139579D01*
X188244259Y-88035545D01*
X188250500Y-87988139D01*
X188250499Y-86661862D01*
X188244259Y-86614455D01*
X188244259Y-86614453D01*
X188195748Y-86510423D01*
X188195747Y-86510422D01*
X188195747Y-86510421D01*
X188129494Y-86444168D01*
X188101719Y-86389654D01*
X188100500Y-86374167D01*
X188100500Y-86260437D01*
X188100499Y-86260435D01*
X188099568Y-86256962D01*
X188080021Y-86184011D01*
X188069178Y-86165231D01*
X188040460Y-86115489D01*
X187984512Y-86059540D01*
X187689749Y-85764778D01*
X187661971Y-85710261D01*
X187671542Y-85649829D01*
X187707780Y-85610513D01*
X187818340Y-85542319D01*
X187942319Y-85418340D01*
X188034356Y-85269124D01*
X188089506Y-85102693D01*
X188100000Y-84999987D01*
X188100000Y-84750001D01*
X188099999Y-84750000D01*
X187099000Y-84750000D01*
X187040809Y-84731093D01*
X187004845Y-84681593D01*
X187000000Y-84651000D01*
X187000000Y-84500001D01*
X186999999Y-84500000D01*
X186849000Y-84500000D01*
X186790809Y-84481093D01*
X186754845Y-84431593D01*
X186750000Y-84401000D01*
X186750000Y-83300001D01*
X187250000Y-83300001D01*
X187250000Y-84249999D01*
X187250001Y-84250000D01*
X188099998Y-84250000D01*
X188099999Y-84249999D01*
X188099999Y-84000013D01*
X188089507Y-83897312D01*
X188089504Y-83897300D01*
X188034356Y-83730875D01*
X187942319Y-83581659D01*
X187818340Y-83457680D01*
X187669124Y-83365643D01*
X187502693Y-83310493D01*
X187399987Y-83300000D01*
X187250001Y-83300000D01*
X187250000Y-83300001D01*
X186750000Y-83300001D01*
X186750000Y-83292792D01*
X186729711Y-83252972D01*
X186739282Y-83192540D01*
X186757486Y-83167484D01*
X186945475Y-82979496D01*
X186999991Y-82951719D01*
X187015478Y-82950500D01*
X188799563Y-82950500D01*
X188799563Y-82950499D01*
X188875989Y-82930021D01*
X188944511Y-82890460D01*
X189000460Y-82834511D01*
X189305475Y-82529496D01*
X189359992Y-82501719D01*
X189375479Y-82500500D01*
X191019747Y-82500500D01*
X191019748Y-82500500D01*
X191078231Y-82488867D01*
X191144552Y-82444552D01*
X191188867Y-82378231D01*
X191200500Y-82319748D01*
X191200500Y-80680252D01*
X191188867Y-80621769D01*
X191144552Y-80555448D01*
X191098637Y-80524768D01*
X191078233Y-80511134D01*
X191078231Y-80511133D01*
X191078228Y-80511132D01*
X191078227Y-80511132D01*
X191019758Y-80499501D01*
X191019748Y-80499500D01*
X188800252Y-80499500D01*
X188800251Y-80499500D01*
X188800241Y-80499501D01*
X188741772Y-80511132D01*
X188741766Y-80511134D01*
X188675451Y-80555445D01*
X188675445Y-80555451D01*
X188631134Y-80621766D01*
X188631132Y-80621772D01*
X188619501Y-80680241D01*
X188619500Y-80680253D01*
X188619500Y-82250500D01*
X188600593Y-82308691D01*
X188551093Y-82344655D01*
X188520500Y-82349500D01*
X187699500Y-82349500D01*
X187641309Y-82330593D01*
X187605345Y-82281093D01*
X187600500Y-82250500D01*
X187600500Y-80630253D01*
X187600498Y-80630241D01*
X187593582Y-80595475D01*
X187588867Y-80571769D01*
X187544552Y-80505448D01*
X187509182Y-80481814D01*
X187471304Y-80433765D01*
X187468902Y-80372627D01*
X187502895Y-80321753D01*
X187560299Y-80300576D01*
X187564185Y-80300500D01*
X191334521Y-80300500D01*
X191392712Y-80319407D01*
X191404525Y-80329496D01*
X191670504Y-80595475D01*
X191698281Y-80649992D01*
X191699500Y-80665479D01*
X191699500Y-80865502D01*
X191686239Y-80914998D01*
X191682479Y-80921510D01*
X191682477Y-80921514D01*
X191662000Y-80997935D01*
X191662000Y-84475790D01*
X191643093Y-84533981D01*
X191593593Y-84569945D01*
X191572246Y-84574357D01*
X191540305Y-84577353D01*
X191540296Y-84577355D01*
X191412116Y-84622207D01*
X191302855Y-84702845D01*
X191302845Y-84702855D01*
X191222207Y-84812116D01*
X191177355Y-84940296D01*
X191177353Y-84940305D01*
X191174500Y-84970725D01*
X191174500Y-85822021D01*
X191155593Y-85880212D01*
X191145504Y-85892025D01*
X190315489Y-86722040D01*
X190315488Y-86722039D01*
X190259539Y-86777989D01*
X190219980Y-86846507D01*
X190219978Y-86846511D01*
X190199500Y-86922935D01*
X190199500Y-88275167D01*
X190180593Y-88333358D01*
X190131093Y-88369322D01*
X190069907Y-88369322D01*
X190030498Y-88345172D01*
X189989579Y-88304253D01*
X189885545Y-88255741D01*
X189838139Y-88249500D01*
X189838138Y-88249500D01*
X189584027Y-88249500D01*
X189525836Y-88230593D01*
X189489872Y-88181093D01*
X189486035Y-88136411D01*
X189505647Y-88000002D01*
X189505647Y-87999997D01*
X189485165Y-87857543D01*
X189471607Y-87827855D01*
X189425377Y-87726627D01*
X189331128Y-87617857D01*
X189331127Y-87617856D01*
X189331126Y-87617855D01*
X189210057Y-87540049D01*
X189210054Y-87540047D01*
X189210053Y-87540047D01*
X189208204Y-87539504D01*
X189071964Y-87499500D01*
X189071961Y-87499500D01*
X188928039Y-87499500D01*
X188928035Y-87499500D01*
X188789949Y-87540046D01*
X188789942Y-87540049D01*
X188668873Y-87617855D01*
X188574622Y-87726628D01*
X188514834Y-87857543D01*
X188494353Y-87999997D01*
X188494353Y-88000002D01*
X188515842Y-88149466D01*
X188513766Y-88149764D01*
X188512298Y-88200952D01*
X188474931Y-88249401D01*
X188460899Y-88257398D01*
X188360423Y-88304251D01*
X188279251Y-88385423D01*
X188249569Y-88449077D01*
X188207840Y-88493825D01*
X188147779Y-88505499D01*
X188131954Y-88502227D01*
X188013131Y-88467337D01*
X188006121Y-88466330D01*
X188006443Y-88464088D01*
X187958250Y-88448430D01*
X187927450Y-88406038D01*
X187892175Y-88454591D01*
X187861876Y-88469489D01*
X187731114Y-88507884D01*
X187731109Y-88507886D01*
X187610040Y-88585692D01*
X187515789Y-88694465D01*
X187456001Y-88825380D01*
X187435520Y-88967834D01*
X187435520Y-88967839D01*
X187456001Y-89110293D01*
X187515789Y-89241208D01*
X187515790Y-89241210D01*
X187610039Y-89349980D01*
X187610040Y-89349981D01*
X187731109Y-89427787D01*
X187731114Y-89427790D01*
X187837570Y-89459048D01*
X187869202Y-89468336D01*
X187869203Y-89468336D01*
X187869206Y-89468337D01*
X187869208Y-89468337D01*
X187975688Y-89468337D01*
X188033879Y-89487244D01*
X188045692Y-89497333D01*
X188202708Y-89654349D01*
X188227762Y-89703523D01*
X188228621Y-89703273D01*
X188229938Y-89707793D01*
X188230485Y-89708866D01*
X188230717Y-89710464D01*
X188230740Y-89710546D01*
X188279251Y-89814576D01*
X188279252Y-89814577D01*
X188279253Y-89814579D01*
X188294672Y-89829998D01*
X188322448Y-89884513D01*
X188312877Y-89944945D01*
X188294673Y-89970000D01*
X188286159Y-89978515D01*
X188279253Y-89985421D01*
X188230741Y-90089455D01*
X188224500Y-90136862D01*
X188224500Y-90384914D01*
X188205593Y-90443105D01*
X188175897Y-90470126D01*
X188163891Y-90477226D01*
X188052227Y-90588890D01*
X187971845Y-90724810D01*
X187935474Y-90849999D01*
X187935475Y-90850000D01*
X190414525Y-90850000D01*
X190414525Y-90849999D01*
X190378154Y-90724810D01*
X190297772Y-90588890D01*
X190249429Y-90540547D01*
X190221652Y-90486030D01*
X190231223Y-90425598D01*
X190249423Y-90400546D01*
X190740460Y-89909510D01*
X190743493Y-89904255D01*
X190743496Y-89904253D01*
X190743495Y-89904253D01*
X190780021Y-89840988D01*
X190800500Y-89764561D01*
X190800500Y-88375168D01*
X190819407Y-88316977D01*
X190868907Y-88281013D01*
X190930093Y-88281013D01*
X190969504Y-88305164D01*
X191056659Y-88392319D01*
X191205875Y-88484356D01*
X191372306Y-88539506D01*
X191475013Y-88549999D01*
X191749998Y-88549999D01*
X191750000Y-88549998D01*
X191750000Y-87712501D01*
X192250000Y-87712501D01*
X192250000Y-88549998D01*
X192250001Y-88549999D01*
X192524986Y-88549999D01*
X192627687Y-88539507D01*
X192627699Y-88539504D01*
X192794122Y-88484357D01*
X192948027Y-88389428D01*
X193007480Y-88374972D01*
X193051973Y-88389428D01*
X193205877Y-88484357D01*
X193372306Y-88539506D01*
X193475013Y-88549999D01*
X193749998Y-88549999D01*
X193750000Y-88549998D01*
X193750000Y-87712501D01*
X194250000Y-87712501D01*
X194250000Y-88549998D01*
X194250001Y-88549999D01*
X194524986Y-88549999D01*
X194627687Y-88539507D01*
X194627699Y-88539504D01*
X194794122Y-88484357D01*
X194948027Y-88389428D01*
X195007480Y-88374972D01*
X195051973Y-88389428D01*
X195205877Y-88484357D01*
X195372306Y-88539506D01*
X195475013Y-88549999D01*
X195749998Y-88549999D01*
X195750000Y-88549998D01*
X195750000Y-87712501D01*
X196250000Y-87712501D01*
X196250000Y-88549998D01*
X196250001Y-88549999D01*
X196524986Y-88549999D01*
X196627687Y-88539507D01*
X196627699Y-88539504D01*
X196794122Y-88484357D01*
X196948027Y-88389428D01*
X197007480Y-88374972D01*
X197051973Y-88389428D01*
X197205877Y-88484357D01*
X197372306Y-88539506D01*
X197475013Y-88549999D01*
X197749998Y-88549999D01*
X197750000Y-88549998D01*
X197750000Y-87712501D01*
X197749999Y-87712500D01*
X196250001Y-87712500D01*
X196250000Y-87712501D01*
X195750000Y-87712501D01*
X195749999Y-87712500D01*
X194250001Y-87712500D01*
X194250000Y-87712501D01*
X193750000Y-87712501D01*
X193749999Y-87712500D01*
X192250001Y-87712500D01*
X192250000Y-87712501D01*
X191750000Y-87712501D01*
X191750000Y-87561500D01*
X191768907Y-87503309D01*
X191818407Y-87467345D01*
X191849000Y-87462500D01*
X191999999Y-87462500D01*
X192000000Y-87462499D01*
X192000000Y-87311500D01*
X192018907Y-87253309D01*
X192068407Y-87217345D01*
X192099000Y-87212500D01*
X193749999Y-87212500D01*
X193750000Y-87212499D01*
X193750000Y-86830001D01*
X194250000Y-86830001D01*
X194250000Y-87212499D01*
X194250001Y-87212500D01*
X195749999Y-87212500D01*
X195750000Y-87212499D01*
X195750000Y-86375001D01*
X196250000Y-86375001D01*
X196250000Y-87212499D01*
X196250001Y-87212500D01*
X197749999Y-87212500D01*
X197750000Y-87212499D01*
X197750000Y-86375001D01*
X197749999Y-86375000D01*
X197475013Y-86375000D01*
X197372312Y-86385492D01*
X197372300Y-86385495D01*
X197205875Y-86440643D01*
X197051972Y-86535571D01*
X196992519Y-86550027D01*
X196948028Y-86535571D01*
X196794124Y-86440643D01*
X196627693Y-86385493D01*
X196524987Y-86375000D01*
X196250001Y-86375000D01*
X196250000Y-86375001D01*
X195750000Y-86375001D01*
X195749999Y-86375000D01*
X195475013Y-86375000D01*
X195372312Y-86385492D01*
X195372300Y-86385495D01*
X195205876Y-86440643D01*
X195179032Y-86457200D01*
X195119579Y-86471655D01*
X195062983Y-86448404D01*
X195030864Y-86396327D01*
X195035488Y-86335317D01*
X195042801Y-86320964D01*
X195059357Y-86294123D01*
X195114506Y-86127693D01*
X195125000Y-86024987D01*
X195125000Y-85750001D01*
X195124999Y-85750000D01*
X194287501Y-85750000D01*
X194287500Y-85750001D01*
X194287500Y-86751493D01*
X194268593Y-86809684D01*
X194258504Y-86821497D01*
X194250000Y-86830001D01*
X193750000Y-86830001D01*
X193750000Y-86348507D01*
X193768907Y-86290316D01*
X193778996Y-86278503D01*
X193787500Y-86269999D01*
X193787500Y-85750001D01*
X193787499Y-85750000D01*
X192950002Y-85750000D01*
X192950001Y-85750001D01*
X192950001Y-86024986D01*
X192960492Y-86127687D01*
X192960495Y-86127699D01*
X193015642Y-86294122D01*
X193078255Y-86395633D01*
X193092711Y-86455086D01*
X193069461Y-86511682D01*
X193017385Y-86543803D01*
X192956374Y-86539180D01*
X192942022Y-86531867D01*
X192794124Y-86440643D01*
X192700422Y-86409593D01*
X192651132Y-86373341D01*
X192632564Y-86315041D01*
X192651810Y-86256962D01*
X192651816Y-86256953D01*
X192702793Y-86187882D01*
X192747646Y-86059699D01*
X192750499Y-86029273D01*
X192750500Y-86029273D01*
X192750500Y-84975012D01*
X192950000Y-84975012D01*
X192950000Y-85249999D01*
X192950001Y-85250000D01*
X193787499Y-85250000D01*
X193787500Y-85249999D01*
X193787500Y-84275001D01*
X194287500Y-84275001D01*
X194287500Y-85249999D01*
X194287501Y-85250000D01*
X195124998Y-85250000D01*
X195124999Y-85249999D01*
X195124999Y-84975013D01*
X195114507Y-84872312D01*
X195114504Y-84872300D01*
X195059356Y-84705875D01*
X194967319Y-84556659D01*
X194843340Y-84432680D01*
X194694124Y-84340643D01*
X194527693Y-84285493D01*
X194424987Y-84275000D01*
X194287501Y-84275000D01*
X194287500Y-84275001D01*
X193787500Y-84275001D01*
X193787499Y-84275000D01*
X193650013Y-84275000D01*
X193650013Y-84275001D01*
X193547312Y-84285492D01*
X193547300Y-84285495D01*
X193380875Y-84340643D01*
X193231659Y-84432680D01*
X193107680Y-84556659D01*
X193015643Y-84705875D01*
X192960493Y-84872306D01*
X192950000Y-84975012D01*
X192750500Y-84975012D01*
X192750500Y-84970727D01*
X192750499Y-84970725D01*
X192747646Y-84940301D01*
X192702793Y-84812118D01*
X192686147Y-84789564D01*
X192622154Y-84702855D01*
X192622152Y-84702853D01*
X192622150Y-84702850D01*
X192622146Y-84702847D01*
X192622144Y-84702845D01*
X192512883Y-84622207D01*
X192384703Y-84577355D01*
X192384694Y-84577353D01*
X192352754Y-84574357D01*
X192296583Y-84550098D01*
X192265400Y-84497455D01*
X192263000Y-84475790D01*
X192263000Y-81171997D01*
X192276265Y-81122494D01*
X192280021Y-81115989D01*
X192300500Y-81039562D01*
X192300500Y-80460438D01*
X192296207Y-80444417D01*
X192280022Y-80384012D01*
X192280020Y-80384009D01*
X192280020Y-80384007D01*
X192240463Y-80315493D01*
X192240459Y-80315488D01*
X192044475Y-80119503D01*
X192016698Y-80064987D01*
X192026269Y-80004555D01*
X192069534Y-79961290D01*
X192114479Y-79950500D01*
X199950500Y-79950500D01*
X200008691Y-79969407D01*
X200044655Y-80018907D01*
X200049500Y-80049500D01*
X200049500Y-80400500D01*
X200030593Y-80458691D01*
X199981093Y-80494655D01*
X199950500Y-80499500D01*
X197980252Y-80499500D01*
X197980251Y-80499500D01*
X197980241Y-80499501D01*
X197921772Y-80511132D01*
X197921766Y-80511134D01*
X197855451Y-80555445D01*
X197855445Y-80555451D01*
X197811134Y-80621766D01*
X197811132Y-80621772D01*
X197799501Y-80680241D01*
X197799500Y-80680253D01*
X197799500Y-82319746D01*
X197799501Y-82319758D01*
X197811132Y-82378227D01*
X197811134Y-82378233D01*
X197855445Y-82444548D01*
X197855448Y-82444552D01*
X197921769Y-82488867D01*
X197966231Y-82497711D01*
X197980241Y-82500498D01*
X197980246Y-82500498D01*
X197980252Y-82500500D01*
X198640500Y-82500500D01*
X198698691Y-82519407D01*
X198734655Y-82568907D01*
X198739500Y-82599500D01*
X198739500Y-84136144D01*
X198762508Y-84222011D01*
X198762507Y-84222011D01*
X198762508Y-84222013D01*
X198763383Y-84225280D01*
X198763384Y-84225283D01*
X198763386Y-84225288D01*
X198809530Y-84305212D01*
X199120505Y-84616187D01*
X199148281Y-84670702D01*
X199149500Y-84686189D01*
X199149500Y-86499832D01*
X199130593Y-86558023D01*
X199081093Y-86593987D01*
X199019907Y-86593987D01*
X198980496Y-86569836D01*
X198943340Y-86532680D01*
X198794124Y-86440643D01*
X198627693Y-86385493D01*
X198524987Y-86375000D01*
X198250001Y-86375000D01*
X198250000Y-86375001D01*
X198250000Y-88549998D01*
X198250001Y-88549999D01*
X198252812Y-88549999D01*
X198311003Y-88568906D01*
X198346967Y-88618406D01*
X198346967Y-88679592D01*
X198322817Y-88719000D01*
X198321312Y-88720505D01*
X198266798Y-88748281D01*
X198251311Y-88749500D01*
X197470725Y-88749500D01*
X197440305Y-88752353D01*
X197440296Y-88752355D01*
X197312116Y-88797207D01*
X197202855Y-88877845D01*
X197202845Y-88877855D01*
X197122207Y-88987116D01*
X197093444Y-89069317D01*
X197056379Y-89117997D01*
X196997778Y-89135594D01*
X196940027Y-89115386D01*
X196906556Y-89069317D01*
X196882409Y-89000309D01*
X196877793Y-88987118D01*
X196871411Y-88978471D01*
X196797154Y-88877855D01*
X196797152Y-88877853D01*
X196797150Y-88877850D01*
X196797146Y-88877847D01*
X196797144Y-88877845D01*
X196687883Y-88797207D01*
X196559703Y-88752355D01*
X196559694Y-88752353D01*
X196529274Y-88749500D01*
X196529266Y-88749500D01*
X195470734Y-88749500D01*
X195470725Y-88749500D01*
X195440305Y-88752353D01*
X195440296Y-88752355D01*
X195312116Y-88797207D01*
X195202855Y-88877845D01*
X195202845Y-88877855D01*
X195122207Y-88987116D01*
X195093444Y-89069317D01*
X195056379Y-89117997D01*
X194997778Y-89135594D01*
X194940027Y-89115386D01*
X194906556Y-89069317D01*
X194882409Y-89000309D01*
X194877793Y-88987118D01*
X194871411Y-88978471D01*
X194797154Y-88877855D01*
X194797152Y-88877853D01*
X194797150Y-88877850D01*
X194797146Y-88877847D01*
X194797144Y-88877845D01*
X194687883Y-88797207D01*
X194559703Y-88752355D01*
X194559694Y-88752353D01*
X194529274Y-88749500D01*
X194529266Y-88749500D01*
X193470734Y-88749500D01*
X193470725Y-88749500D01*
X193440305Y-88752353D01*
X193440296Y-88752355D01*
X193312116Y-88797207D01*
X193202855Y-88877845D01*
X193202845Y-88877855D01*
X193122207Y-88987116D01*
X193093444Y-89069317D01*
X193056379Y-89117997D01*
X192997778Y-89135594D01*
X192940027Y-89115386D01*
X192906556Y-89069317D01*
X192882409Y-89000309D01*
X192877793Y-88987118D01*
X192871411Y-88978471D01*
X192797154Y-88877855D01*
X192797152Y-88877853D01*
X192797150Y-88877850D01*
X192797146Y-88877847D01*
X192797144Y-88877845D01*
X192687883Y-88797207D01*
X192559703Y-88752355D01*
X192559694Y-88752353D01*
X192529274Y-88749500D01*
X192529266Y-88749500D01*
X191470734Y-88749500D01*
X191470725Y-88749500D01*
X191440305Y-88752353D01*
X191440296Y-88752355D01*
X191312116Y-88797207D01*
X191202855Y-88877845D01*
X191202845Y-88877855D01*
X191122207Y-88987116D01*
X191077355Y-89115296D01*
X191077353Y-89115305D01*
X191074500Y-89145725D01*
X191074500Y-89926310D01*
X191055593Y-89984501D01*
X191045504Y-89996313D01*
X190719532Y-90322285D01*
X190719530Y-90322287D01*
X190719530Y-90322288D01*
X190673386Y-90402212D01*
X190657785Y-90460438D01*
X190649500Y-90491357D01*
X190649500Y-91313810D01*
X190630593Y-91372001D01*
X190620502Y-91383815D01*
X190588976Y-91415340D01*
X190534459Y-91443116D01*
X190474028Y-91433544D01*
X190430764Y-91390279D01*
X190427020Y-91366642D01*
X190414525Y-91350000D01*
X187935474Y-91350000D01*
X187971845Y-91475189D01*
X188052227Y-91611109D01*
X188163891Y-91722773D01*
X188175892Y-91729870D01*
X188216356Y-91775764D01*
X188224500Y-91815085D01*
X188224500Y-92063133D01*
X188224501Y-92063145D01*
X188230740Y-92110544D01*
X188230740Y-92110546D01*
X188279251Y-92214576D01*
X188279252Y-92214577D01*
X188279253Y-92214579D01*
X188294672Y-92229998D01*
X188322448Y-92284513D01*
X188312877Y-92344945D01*
X188294673Y-92370000D01*
X188282531Y-92382143D01*
X188279253Y-92385421D01*
X188230741Y-92489455D01*
X188224500Y-92536862D01*
X188224500Y-92863133D01*
X188224501Y-92863145D01*
X188230740Y-92910544D01*
X188230740Y-92910546D01*
X188279251Y-93014576D01*
X188279252Y-93014577D01*
X188279253Y-93014579D01*
X188294672Y-93029998D01*
X188322448Y-93084513D01*
X188312877Y-93144945D01*
X188294673Y-93170000D01*
X188284886Y-93179788D01*
X188279253Y-93185421D01*
X188230741Y-93289455D01*
X188224500Y-93336862D01*
X188224500Y-93663133D01*
X188224501Y-93663145D01*
X188230740Y-93710544D01*
X188230740Y-93710546D01*
X188279251Y-93814576D01*
X188279252Y-93814577D01*
X188279253Y-93814579D01*
X188294672Y-93829998D01*
X188322448Y-93884513D01*
X188312877Y-93944945D01*
X188294673Y-93970000D01*
X188279253Y-93985421D01*
X188230741Y-94089455D01*
X188224500Y-94136862D01*
X188224500Y-94463133D01*
X188224501Y-94463145D01*
X188230740Y-94510544D01*
X188230740Y-94510546D01*
X188279251Y-94614576D01*
X188279252Y-94614577D01*
X188279253Y-94614579D01*
X188360421Y-94695747D01*
X188464455Y-94744259D01*
X188511861Y-94750500D01*
X189838138Y-94750499D01*
X189885545Y-94744259D01*
X189885546Y-94744259D01*
X189947330Y-94715448D01*
X189989579Y-94695747D01*
X190070747Y-94614579D01*
X190119259Y-94510545D01*
X190125500Y-94463139D01*
X190125499Y-94136862D01*
X190119259Y-94089455D01*
X190119259Y-94089453D01*
X190070748Y-93985423D01*
X190070747Y-93985422D01*
X190070747Y-93985421D01*
X190055327Y-93970001D01*
X190027552Y-93915487D01*
X190037123Y-93855055D01*
X190055326Y-93829999D01*
X190070747Y-93814579D01*
X190119259Y-93710545D01*
X190125500Y-93663139D01*
X190125499Y-93336862D01*
X190119259Y-93289455D01*
X190119259Y-93289453D01*
X190070748Y-93185423D01*
X190070747Y-93185422D01*
X190070747Y-93185421D01*
X190055327Y-93170001D01*
X190027552Y-93115487D01*
X190037123Y-93055055D01*
X190055326Y-93029999D01*
X190070747Y-93014579D01*
X190119259Y-92910545D01*
X190125500Y-92863139D01*
X190125499Y-92536862D01*
X190119259Y-92489455D01*
X190073506Y-92391339D01*
X190066050Y-92330610D01*
X190095713Y-92277096D01*
X190151166Y-92251238D01*
X190163231Y-92250500D01*
X190646142Y-92250500D01*
X190646144Y-92250500D01*
X190735288Y-92226614D01*
X190756130Y-92214580D01*
X190756132Y-92214580D01*
X190779441Y-92201122D01*
X190815212Y-92180470D01*
X191280469Y-91715212D01*
X191326614Y-91635288D01*
X191330836Y-91619531D01*
X191331286Y-91617855D01*
X191346836Y-91559817D01*
X191350500Y-91546144D01*
X191350500Y-90723690D01*
X191369407Y-90665499D01*
X191379496Y-90653686D01*
X191678686Y-90354496D01*
X191733203Y-90326719D01*
X191748690Y-90325500D01*
X192529273Y-90325500D01*
X192529273Y-90325499D01*
X192559699Y-90322646D01*
X192687882Y-90277793D01*
X192797150Y-90197150D01*
X192877793Y-90087882D01*
X192906556Y-90005682D01*
X192943621Y-89957002D01*
X193002221Y-89939405D01*
X193059973Y-89959613D01*
X193093444Y-90005682D01*
X193122207Y-90087883D01*
X193202845Y-90197144D01*
X193202847Y-90197146D01*
X193202850Y-90197150D01*
X193202853Y-90197152D01*
X193202855Y-90197154D01*
X193312116Y-90277792D01*
X193312117Y-90277792D01*
X193312118Y-90277793D01*
X193440301Y-90322646D01*
X193470725Y-90325499D01*
X193470727Y-90325500D01*
X193470734Y-90325500D01*
X194529273Y-90325500D01*
X194529273Y-90325499D01*
X194559699Y-90322646D01*
X194687882Y-90277793D01*
X194797150Y-90197150D01*
X194877793Y-90087882D01*
X194906556Y-90005682D01*
X194943621Y-89957002D01*
X195002221Y-89939405D01*
X195059973Y-89959613D01*
X195093444Y-90005682D01*
X195122207Y-90087883D01*
X195202845Y-90197144D01*
X195202847Y-90197146D01*
X195202850Y-90197150D01*
X195202853Y-90197152D01*
X195202855Y-90197154D01*
X195312116Y-90277792D01*
X195312117Y-90277792D01*
X195312118Y-90277793D01*
X195440301Y-90322646D01*
X195470725Y-90325499D01*
X195470727Y-90325500D01*
X195470734Y-90325500D01*
X196529273Y-90325500D01*
X196529273Y-90325499D01*
X196559699Y-90322646D01*
X196687882Y-90277793D01*
X196797150Y-90197150D01*
X196877793Y-90087882D01*
X196906556Y-90005682D01*
X196943621Y-89957002D01*
X197002221Y-89939405D01*
X197059973Y-89959613D01*
X197093444Y-90005682D01*
X197122207Y-90087883D01*
X197202845Y-90197144D01*
X197202847Y-90197146D01*
X197202850Y-90197150D01*
X197202853Y-90197152D01*
X197202855Y-90197154D01*
X197312116Y-90277792D01*
X197312117Y-90277792D01*
X197312118Y-90277793D01*
X197440301Y-90322646D01*
X197470725Y-90325499D01*
X197470727Y-90325500D01*
X197470734Y-90325500D01*
X198529273Y-90325500D01*
X198529273Y-90325499D01*
X198559699Y-90322646D01*
X198687882Y-90277793D01*
X198797150Y-90197150D01*
X198877793Y-90087882D01*
X198922646Y-89959699D01*
X198925499Y-89929273D01*
X198925500Y-89929273D01*
X198925500Y-89148688D01*
X198944407Y-89090497D01*
X198954496Y-89078684D01*
X199349629Y-88683551D01*
X199780469Y-88252712D01*
X199826614Y-88172788D01*
X199835512Y-88139579D01*
X199850500Y-88083644D01*
X199850500Y-84453856D01*
X199826614Y-84364712D01*
X199798195Y-84315489D01*
X199780470Y-84284788D01*
X199631824Y-84136142D01*
X199469496Y-83973813D01*
X199441719Y-83919297D01*
X199440500Y-83903810D01*
X199440500Y-82599500D01*
X199459407Y-82541309D01*
X199508907Y-82505345D01*
X199539500Y-82500500D01*
X199950500Y-82500500D01*
X200008691Y-82519407D01*
X200044655Y-82568907D01*
X200049500Y-82599500D01*
X200049500Y-90450500D01*
X200030593Y-90508691D01*
X199981093Y-90544655D01*
X199950500Y-90549500D01*
X192059309Y-90549500D01*
X191940691Y-90549500D01*
X191870567Y-90568289D01*
X191826109Y-90580202D01*
X191723391Y-90639507D01*
X191639507Y-90723391D01*
X191580202Y-90826109D01*
X191549500Y-90940692D01*
X191549500Y-97450500D01*
X191530593Y-97508691D01*
X191481093Y-97544655D01*
X191450500Y-97549500D01*
X178108397Y-97549500D01*
X178050206Y-97530593D01*
X178014242Y-97481093D01*
X178014242Y-97419907D01*
X178050206Y-97370407D01*
X178075696Y-97357056D01*
X178087882Y-97352793D01*
X178197150Y-97272150D01*
X178277793Y-97162882D01*
X178322646Y-97034699D01*
X178325499Y-97004273D01*
X178325500Y-97004273D01*
X178325500Y-96899500D01*
X178344407Y-96841309D01*
X178393907Y-96805345D01*
X178424500Y-96800500D01*
X178550045Y-96800500D01*
X178550045Y-96800499D01*
X178626471Y-96780021D01*
X178694993Y-96740460D01*
X178750942Y-96684511D01*
X179400715Y-96034736D01*
X179455232Y-96006960D01*
X179470719Y-96005741D01*
X179577200Y-96005741D01*
X179577202Y-96005741D01*
X179715294Y-95965194D01*
X179836369Y-95887384D01*
X179930618Y-95778614D01*
X179990406Y-95647698D01*
X180005613Y-95541933D01*
X180010888Y-95505243D01*
X180010888Y-95505238D01*
X179990406Y-95362784D01*
X179966525Y-95310492D01*
X179930618Y-95231868D01*
X179836369Y-95123098D01*
X179836368Y-95123097D01*
X179836367Y-95123096D01*
X179715298Y-95045290D01*
X179715295Y-95045288D01*
X179715294Y-95045288D01*
X179715291Y-95045287D01*
X179601457Y-95011862D01*
X181749500Y-95011862D01*
X181749500Y-96338134D01*
X181749501Y-96338145D01*
X181755740Y-96385544D01*
X181755740Y-96385546D01*
X181804251Y-96489576D01*
X181804252Y-96489577D01*
X181804253Y-96489579D01*
X181885421Y-96570747D01*
X181989455Y-96619259D01*
X182036861Y-96625500D01*
X182363138Y-96625499D01*
X182410545Y-96619259D01*
X182410546Y-96619259D01*
X182466611Y-96593114D01*
X182514579Y-96570747D01*
X182529998Y-96555327D01*
X182584513Y-96527552D01*
X182644945Y-96537123D01*
X182670000Y-96555326D01*
X182685421Y-96570747D01*
X182789455Y-96619259D01*
X182836861Y-96625500D01*
X183163138Y-96625499D01*
X183210545Y-96619259D01*
X183210546Y-96619259D01*
X183266611Y-96593114D01*
X183314579Y-96570747D01*
X183329998Y-96555327D01*
X183384513Y-96527552D01*
X183444945Y-96537123D01*
X183470000Y-96555326D01*
X183485421Y-96570747D01*
X183589455Y-96619259D01*
X183636861Y-96625500D01*
X183963138Y-96625499D01*
X184010545Y-96619259D01*
X184010546Y-96619259D01*
X184066611Y-96593114D01*
X184114579Y-96570747D01*
X184129998Y-96555327D01*
X184184513Y-96527552D01*
X184244945Y-96537123D01*
X184270000Y-96555326D01*
X184285421Y-96570747D01*
X184389455Y-96619259D01*
X184436861Y-96625500D01*
X184763138Y-96625499D01*
X184810545Y-96619259D01*
X184810546Y-96619259D01*
X184866611Y-96593114D01*
X184914579Y-96570747D01*
X184929998Y-96555327D01*
X184984513Y-96527552D01*
X185044945Y-96537123D01*
X185070000Y-96555326D01*
X185085421Y-96570747D01*
X185189455Y-96619259D01*
X185236861Y-96625500D01*
X185563138Y-96625499D01*
X185610545Y-96619259D01*
X185610546Y-96619259D01*
X185666611Y-96593114D01*
X185714579Y-96570747D01*
X185729998Y-96555327D01*
X185784513Y-96527552D01*
X185844945Y-96537123D01*
X185870000Y-96555326D01*
X185885421Y-96570747D01*
X185989455Y-96619259D01*
X186036861Y-96625500D01*
X186363138Y-96625499D01*
X186410545Y-96619259D01*
X186410546Y-96619259D01*
X186466611Y-96593114D01*
X186514579Y-96570747D01*
X186529998Y-96555327D01*
X186584513Y-96527552D01*
X186644945Y-96537123D01*
X186670000Y-96555326D01*
X186685421Y-96570747D01*
X186789455Y-96619259D01*
X186836861Y-96625500D01*
X187163138Y-96625499D01*
X187210545Y-96619259D01*
X187210546Y-96619259D01*
X187266611Y-96593114D01*
X187314579Y-96570747D01*
X187329998Y-96555327D01*
X187384513Y-96527552D01*
X187444945Y-96537123D01*
X187470000Y-96555326D01*
X187485421Y-96570747D01*
X187589455Y-96619259D01*
X187636861Y-96625500D01*
X187963138Y-96625499D01*
X188010545Y-96619259D01*
X188010546Y-96619259D01*
X188066611Y-96593114D01*
X188114579Y-96570747D01*
X188195747Y-96489579D01*
X188244259Y-96385545D01*
X188250500Y-96338139D01*
X188250499Y-95011862D01*
X188244259Y-94964455D01*
X188244259Y-94964453D01*
X188195748Y-94860423D01*
X188195747Y-94860422D01*
X188195747Y-94860421D01*
X188114579Y-94779253D01*
X188010545Y-94730741D01*
X187963139Y-94724500D01*
X187963137Y-94724500D01*
X187636866Y-94724500D01*
X187636854Y-94724501D01*
X187589455Y-94730740D01*
X187589453Y-94730740D01*
X187485423Y-94779251D01*
X187485421Y-94779252D01*
X187485421Y-94779253D01*
X187470001Y-94794672D01*
X187415487Y-94822448D01*
X187355055Y-94812877D01*
X187329999Y-94794673D01*
X187314579Y-94779253D01*
X187210545Y-94730741D01*
X187163139Y-94724500D01*
X187163137Y-94724500D01*
X186836866Y-94724500D01*
X186836854Y-94724501D01*
X186789455Y-94730740D01*
X186789453Y-94730740D01*
X186685423Y-94779251D01*
X186685421Y-94779252D01*
X186685421Y-94779253D01*
X186670001Y-94794672D01*
X186615487Y-94822448D01*
X186555055Y-94812877D01*
X186529999Y-94794673D01*
X186514579Y-94779253D01*
X186410545Y-94730741D01*
X186363139Y-94724500D01*
X186363137Y-94724500D01*
X186036866Y-94724500D01*
X186036854Y-94724501D01*
X185989455Y-94730740D01*
X185989453Y-94730740D01*
X185885423Y-94779251D01*
X185885421Y-94779252D01*
X185885421Y-94779253D01*
X185870001Y-94794672D01*
X185815487Y-94822448D01*
X185755055Y-94812877D01*
X185729999Y-94794673D01*
X185714579Y-94779253D01*
X185610545Y-94730741D01*
X185563139Y-94724500D01*
X185563137Y-94724500D01*
X185236866Y-94724500D01*
X185236854Y-94724501D01*
X185189455Y-94730740D01*
X185189453Y-94730740D01*
X185085423Y-94779251D01*
X185085421Y-94779252D01*
X185085421Y-94779253D01*
X185070001Y-94794672D01*
X185015487Y-94822448D01*
X184955055Y-94812877D01*
X184929999Y-94794673D01*
X184914579Y-94779253D01*
X184810545Y-94730741D01*
X184763139Y-94724500D01*
X184763137Y-94724500D01*
X184436866Y-94724500D01*
X184436854Y-94724501D01*
X184389455Y-94730740D01*
X184389453Y-94730740D01*
X184285423Y-94779251D01*
X184285421Y-94779252D01*
X184285421Y-94779253D01*
X184270001Y-94794672D01*
X184215487Y-94822448D01*
X184155055Y-94812877D01*
X184129999Y-94794673D01*
X184114579Y-94779253D01*
X184010545Y-94730741D01*
X183963139Y-94724500D01*
X183963137Y-94724500D01*
X183636866Y-94724500D01*
X183636854Y-94724501D01*
X183589455Y-94730740D01*
X183589453Y-94730740D01*
X183485423Y-94779251D01*
X183485421Y-94779252D01*
X183485421Y-94779253D01*
X183470001Y-94794672D01*
X183415487Y-94822448D01*
X183355055Y-94812877D01*
X183329999Y-94794673D01*
X183314579Y-94779253D01*
X183314577Y-94779252D01*
X183314575Y-94779250D01*
X183311907Y-94777382D01*
X183309460Y-94774135D01*
X183308454Y-94773129D01*
X183308595Y-94772987D01*
X183275084Y-94728517D01*
X183274017Y-94667341D01*
X183298685Y-94626284D01*
X185470460Y-92454511D01*
X185486924Y-92425994D01*
X185510021Y-92385989D01*
X185530500Y-92309562D01*
X185530500Y-91953893D01*
X185549407Y-91895702D01*
X185556741Y-91887711D01*
X185556491Y-91887494D01*
X185561128Y-91882143D01*
X185655377Y-91773373D01*
X185715165Y-91642457D01*
X185727047Y-91559817D01*
X185735647Y-91500002D01*
X185735647Y-91499997D01*
X185715165Y-91357543D01*
X185713921Y-91354818D01*
X185655377Y-91226627D01*
X185561128Y-91117857D01*
X185561127Y-91117856D01*
X185561126Y-91117855D01*
X185440057Y-91040049D01*
X185440054Y-91040047D01*
X185440053Y-91040047D01*
X185440050Y-91040046D01*
X185301964Y-90999500D01*
X185301961Y-90999500D01*
X185158039Y-90999500D01*
X185158035Y-90999500D01*
X185019949Y-91040046D01*
X185019942Y-91040049D01*
X184898873Y-91117855D01*
X184804622Y-91226628D01*
X184744834Y-91357543D01*
X184724353Y-91499997D01*
X184724353Y-91500002D01*
X184744834Y-91642456D01*
X184789833Y-91740988D01*
X184804623Y-91773373D01*
X184880677Y-91861145D01*
X184903509Y-91887494D01*
X184901471Y-91889259D01*
X184926925Y-91931458D01*
X184929500Y-91953893D01*
X184929500Y-92104521D01*
X184910593Y-92162712D01*
X184900504Y-92174525D01*
X182779525Y-94295504D01*
X182725008Y-94323281D01*
X182709521Y-94324500D01*
X182655929Y-94324500D01*
X182579506Y-94344978D01*
X182531355Y-94372777D01*
X182531356Y-94372778D01*
X182510980Y-94384542D01*
X182200017Y-94695504D01*
X182145501Y-94723281D01*
X182130015Y-94724500D01*
X182036866Y-94724500D01*
X182036854Y-94724501D01*
X181989455Y-94730740D01*
X181989453Y-94730740D01*
X181885423Y-94779251D01*
X181804253Y-94860421D01*
X181755741Y-94964455D01*
X181749500Y-95011862D01*
X179601457Y-95011862D01*
X179577205Y-95004741D01*
X179577202Y-95004741D01*
X179433280Y-95004741D01*
X179433276Y-95004741D01*
X179295190Y-95045287D01*
X179295183Y-95045290D01*
X179174114Y-95123096D01*
X179079863Y-95231869D01*
X179020075Y-95362784D01*
X178999594Y-95505238D01*
X178999594Y-95505244D01*
X179002682Y-95526723D01*
X178992248Y-95587012D01*
X178974694Y-95610814D01*
X178494504Y-96091005D01*
X178439987Y-96118783D01*
X178379555Y-96109212D01*
X178336290Y-96065947D01*
X178325500Y-96021002D01*
X178325500Y-95995727D01*
X178325499Y-95995725D01*
X178322646Y-95965305D01*
X178322646Y-95965301D01*
X178277793Y-95837118D01*
X178234615Y-95778614D01*
X178197154Y-95727855D01*
X178197152Y-95727853D01*
X178197150Y-95727850D01*
X178197146Y-95727847D01*
X178197144Y-95727845D01*
X178087883Y-95647207D01*
X177959703Y-95602355D01*
X177959694Y-95602353D01*
X177929274Y-95599500D01*
X177929266Y-95599500D01*
X177170734Y-95599500D01*
X177170725Y-95599500D01*
X177140305Y-95602353D01*
X177140296Y-95602355D01*
X177012116Y-95647207D01*
X176902855Y-95727845D01*
X176902845Y-95727855D01*
X176822207Y-95837116D01*
X176777355Y-95965296D01*
X176777353Y-95965305D01*
X176774500Y-95995725D01*
X176774500Y-97004274D01*
X176777353Y-97034694D01*
X176777355Y-97034703D01*
X176822207Y-97162883D01*
X176902845Y-97272144D01*
X176902847Y-97272146D01*
X176902850Y-97272150D01*
X176902853Y-97272152D01*
X176902855Y-97272154D01*
X177012114Y-97352791D01*
X177012116Y-97352791D01*
X177012118Y-97352793D01*
X177024301Y-97357056D01*
X177072981Y-97394121D01*
X177090578Y-97452721D01*
X177070370Y-97510473D01*
X177020076Y-97545317D01*
X176991603Y-97549500D01*
X176058397Y-97549500D01*
X176000206Y-97530593D01*
X175964242Y-97481093D01*
X175964242Y-97419907D01*
X176000206Y-97370407D01*
X176025696Y-97357056D01*
X176037882Y-97352793D01*
X176147150Y-97272150D01*
X176227793Y-97162882D01*
X176272646Y-97034699D01*
X176275499Y-97004273D01*
X176275500Y-97004273D01*
X176275500Y-95995727D01*
X176275499Y-95995725D01*
X176272646Y-95965305D01*
X176272646Y-95965301D01*
X176227793Y-95837118D01*
X176184615Y-95778614D01*
X176147154Y-95727855D01*
X176147152Y-95727853D01*
X176147150Y-95727850D01*
X176147146Y-95727847D01*
X176147144Y-95727845D01*
X176037883Y-95647207D01*
X175909703Y-95602355D01*
X175909695Y-95602353D01*
X175890252Y-95600529D01*
X175834082Y-95576268D01*
X175802899Y-95523625D01*
X175800500Y-95501962D01*
X175800500Y-94999500D01*
X175819407Y-94941309D01*
X175868907Y-94905345D01*
X175899500Y-94900500D01*
X175904273Y-94900500D01*
X175904273Y-94900499D01*
X175934699Y-94897646D01*
X176062882Y-94852793D01*
X176172150Y-94772150D01*
X176252793Y-94662882D01*
X176252796Y-94662871D01*
X176253495Y-94661552D01*
X176254483Y-94660592D01*
X176257199Y-94656913D01*
X176257809Y-94657363D01*
X176297396Y-94618934D01*
X176357964Y-94610260D01*
X176412062Y-94638844D01*
X176435003Y-94676660D01*
X176465643Y-94769125D01*
X176557680Y-94918340D01*
X176681659Y-95042319D01*
X176830875Y-95134356D01*
X176997306Y-95189506D01*
X177100013Y-95199999D01*
X177250000Y-95199999D01*
X177250000Y-94250001D01*
X177750000Y-94250001D01*
X177750000Y-95199998D01*
X177750001Y-95199999D01*
X177899986Y-95199999D01*
X178002687Y-95189507D01*
X178002699Y-95189504D01*
X178169124Y-95134356D01*
X178318340Y-95042319D01*
X178442319Y-94918340D01*
X178534356Y-94769124D01*
X178589506Y-94602693D01*
X178600000Y-94499987D01*
X178600000Y-94250001D01*
X178599999Y-94250000D01*
X177750001Y-94250000D01*
X177750000Y-94250001D01*
X177250000Y-94250001D01*
X177250000Y-92800001D01*
X177750000Y-92800001D01*
X177750000Y-93749999D01*
X177750001Y-93750000D01*
X178599998Y-93750000D01*
X178599999Y-93749999D01*
X178599999Y-93500013D01*
X178589507Y-93397312D01*
X178589504Y-93397300D01*
X178534356Y-93230875D01*
X178442319Y-93081659D01*
X178318340Y-92957680D01*
X178169124Y-92865643D01*
X178002693Y-92810493D01*
X177899987Y-92800000D01*
X177750001Y-92800000D01*
X177750000Y-92800001D01*
X177250000Y-92800001D01*
X177249999Y-92800000D01*
X177100013Y-92800000D01*
X177100013Y-92800001D01*
X176997312Y-92810492D01*
X176997300Y-92810495D01*
X176830875Y-92865643D01*
X176681659Y-92957680D01*
X176557680Y-93081659D01*
X176465643Y-93230874D01*
X176435003Y-93323339D01*
X176398751Y-93372629D01*
X176340451Y-93391196D01*
X176282371Y-93371950D01*
X176257378Y-93342954D01*
X176257199Y-93343087D01*
X176255448Y-93340714D01*
X176253497Y-93338451D01*
X176252794Y-93337122D01*
X176252793Y-93337118D01*
X176252603Y-93336861D01*
X176172154Y-93227855D01*
X176172152Y-93227853D01*
X176172150Y-93227850D01*
X176172146Y-93227847D01*
X176172144Y-93227845D01*
X176062883Y-93147207D01*
X175934703Y-93102355D01*
X175934694Y-93102353D01*
X175904274Y-93099500D01*
X175904266Y-93099500D01*
X175095734Y-93099500D01*
X175095725Y-93099500D01*
X175065305Y-93102353D01*
X175065296Y-93102355D01*
X174937116Y-93147207D01*
X174827855Y-93227845D01*
X174827845Y-93227855D01*
X174747207Y-93337116D01*
X174702355Y-93465296D01*
X174702353Y-93465305D01*
X174699500Y-93495725D01*
X174699500Y-94504274D01*
X174702353Y-94534694D01*
X174702355Y-94534703D01*
X174747207Y-94662883D01*
X174827845Y-94772144D01*
X174827847Y-94772146D01*
X174827850Y-94772150D01*
X174827853Y-94772152D01*
X174827855Y-94772154D01*
X174937116Y-94852792D01*
X174937117Y-94852792D01*
X174937118Y-94852793D01*
X175065301Y-94897646D01*
X175095725Y-94900499D01*
X175095727Y-94900500D01*
X175095734Y-94900500D01*
X175100500Y-94900500D01*
X175158691Y-94919407D01*
X175194655Y-94968907D01*
X175199500Y-94999500D01*
X175199500Y-95501962D01*
X175180593Y-95560153D01*
X175131093Y-95596117D01*
X175109748Y-95600529D01*
X175090304Y-95602353D01*
X175090296Y-95602355D01*
X174962116Y-95647207D01*
X174852855Y-95727845D01*
X174852845Y-95727855D01*
X174772207Y-95837116D01*
X174727355Y-95965296D01*
X174727353Y-95965305D01*
X174724500Y-95995725D01*
X174724500Y-97004274D01*
X174727353Y-97034694D01*
X174727355Y-97034703D01*
X174772207Y-97162883D01*
X174852845Y-97272144D01*
X174852847Y-97272146D01*
X174852850Y-97272150D01*
X174852853Y-97272152D01*
X174852855Y-97272154D01*
X174962114Y-97352791D01*
X174962116Y-97352791D01*
X174962118Y-97352793D01*
X174974301Y-97357056D01*
X175022981Y-97394121D01*
X175040578Y-97452721D01*
X175020370Y-97510473D01*
X174970076Y-97545317D01*
X174941603Y-97549500D01*
X174940691Y-97549500D01*
X174870567Y-97568289D01*
X174826109Y-97580202D01*
X174723391Y-97639507D01*
X174639507Y-97723391D01*
X174580202Y-97826109D01*
X174549500Y-97940692D01*
X174549500Y-99450500D01*
X174530593Y-99508691D01*
X174481093Y-99544655D01*
X174450500Y-99549500D01*
X167549500Y-99549500D01*
X167491309Y-99530593D01*
X167455345Y-99481093D01*
X167450500Y-99450500D01*
X167450500Y-97940692D01*
X167450500Y-97940691D01*
X167419799Y-97826114D01*
X167419797Y-97826111D01*
X167419797Y-97826109D01*
X167360492Y-97723391D01*
X167360490Y-97723389D01*
X167360489Y-97723387D01*
X167276613Y-97639511D01*
X167276610Y-97639509D01*
X167276608Y-97639507D01*
X167173889Y-97580202D01*
X167173890Y-97580202D01*
X167160351Y-97576574D01*
X167059309Y-97549500D01*
X167059307Y-97549500D01*
X167058397Y-97549500D01*
X167057776Y-97549298D01*
X167052875Y-97548653D01*
X167052994Y-97547744D01*
X167000206Y-97530593D01*
X166964242Y-97481093D01*
X166964242Y-97419907D01*
X167000206Y-97370407D01*
X167025696Y-97357056D01*
X167037882Y-97352793D01*
X167147150Y-97272150D01*
X167227793Y-97162882D01*
X167272646Y-97034699D01*
X167275499Y-97004273D01*
X167275500Y-97004273D01*
X167275500Y-96899500D01*
X167294407Y-96841309D01*
X167343907Y-96805345D01*
X167374500Y-96800500D01*
X173052917Y-96800500D01*
X173111108Y-96819407D01*
X173127733Y-96834667D01*
X173168872Y-96882143D01*
X173289947Y-96959953D01*
X173396403Y-96991211D01*
X173428035Y-97000499D01*
X173428036Y-97000499D01*
X173428039Y-97000500D01*
X173428041Y-97000500D01*
X173571959Y-97000500D01*
X173571961Y-97000500D01*
X173710053Y-96959953D01*
X173831128Y-96882143D01*
X173925377Y-96773373D01*
X173985165Y-96642457D01*
X174005647Y-96500000D01*
X174004950Y-96495155D01*
X173985165Y-96357543D01*
X173936051Y-96250000D01*
X173925377Y-96226627D01*
X173831128Y-96117857D01*
X173831127Y-96117856D01*
X173831126Y-96117855D01*
X173710057Y-96040049D01*
X173710054Y-96040047D01*
X173710053Y-96040047D01*
X173691969Y-96034737D01*
X173571964Y-95999500D01*
X173571961Y-95999500D01*
X173428039Y-95999500D01*
X173428035Y-95999500D01*
X173289949Y-96040046D01*
X173289942Y-96040049D01*
X173168876Y-96117854D01*
X173168871Y-96117858D01*
X173158931Y-96129328D01*
X173133490Y-96158691D01*
X173127736Y-96165331D01*
X173075340Y-96196927D01*
X173052917Y-96199500D01*
X167374500Y-96199500D01*
X167316309Y-96180593D01*
X167280345Y-96131093D01*
X167275500Y-96100500D01*
X167275500Y-95995727D01*
X167275499Y-95995725D01*
X167272646Y-95965305D01*
X167272646Y-95965301D01*
X167227793Y-95837118D01*
X167184615Y-95778614D01*
X167147154Y-95727855D01*
X167147152Y-95727853D01*
X167147150Y-95727850D01*
X167147146Y-95727847D01*
X167147144Y-95727845D01*
X167037883Y-95647207D01*
X166909703Y-95602355D01*
X166909694Y-95602353D01*
X166879274Y-95599500D01*
X166879266Y-95599500D01*
X166120734Y-95599500D01*
X166120725Y-95599500D01*
X166090305Y-95602353D01*
X166090296Y-95602355D01*
X165962116Y-95647207D01*
X165852855Y-95727845D01*
X165852845Y-95727855D01*
X165772207Y-95837116D01*
X165727355Y-95965296D01*
X165727353Y-95965305D01*
X165724500Y-95995725D01*
X165724500Y-97004274D01*
X165727353Y-97034694D01*
X165727355Y-97034703D01*
X165772207Y-97162883D01*
X165852845Y-97272144D01*
X165852847Y-97272146D01*
X165852850Y-97272150D01*
X165852853Y-97272152D01*
X165852855Y-97272154D01*
X165962114Y-97352791D01*
X165962116Y-97352791D01*
X165962118Y-97352793D01*
X165974301Y-97357056D01*
X166022981Y-97394121D01*
X166040578Y-97452721D01*
X166020370Y-97510473D01*
X165970076Y-97545317D01*
X165941603Y-97549500D01*
X165008397Y-97549500D01*
X164950206Y-97530593D01*
X164914242Y-97481093D01*
X164914242Y-97419907D01*
X164950206Y-97370407D01*
X164975696Y-97357056D01*
X164987882Y-97352793D01*
X165097150Y-97272150D01*
X165177793Y-97162882D01*
X165222646Y-97034699D01*
X165225499Y-97004273D01*
X165225500Y-97004273D01*
X165225500Y-95995727D01*
X165225499Y-95995725D01*
X165222646Y-95965305D01*
X165222646Y-95965301D01*
X165177793Y-95837118D01*
X165134615Y-95778614D01*
X165097154Y-95727855D01*
X165097152Y-95727853D01*
X165097150Y-95727850D01*
X165097146Y-95727847D01*
X165097144Y-95727845D01*
X164987883Y-95647207D01*
X164859703Y-95602355D01*
X164859694Y-95602353D01*
X164829274Y-95599500D01*
X164829266Y-95599500D01*
X164070734Y-95599500D01*
X164070725Y-95599500D01*
X164040305Y-95602353D01*
X164040296Y-95602355D01*
X163912116Y-95647207D01*
X163802855Y-95727845D01*
X163802845Y-95727855D01*
X163722207Y-95837116D01*
X163677355Y-95965296D01*
X163677353Y-95965305D01*
X163674500Y-95995725D01*
X163674500Y-96100500D01*
X163655593Y-96158691D01*
X163606093Y-96194655D01*
X163575500Y-96199500D01*
X162899500Y-96199500D01*
X162841309Y-96180593D01*
X162805345Y-96131093D01*
X162800500Y-96100500D01*
X162800500Y-95995727D01*
X162800499Y-95995725D01*
X162797646Y-95965305D01*
X162797646Y-95965301D01*
X162752793Y-95837118D01*
X162709615Y-95778614D01*
X162672154Y-95727855D01*
X162672152Y-95727853D01*
X162672150Y-95727850D01*
X162672146Y-95727847D01*
X162672144Y-95727845D01*
X162562883Y-95647207D01*
X162434703Y-95602355D01*
X162434694Y-95602353D01*
X162404274Y-95599500D01*
X162404266Y-95599500D01*
X161595734Y-95599500D01*
X161595725Y-95599500D01*
X161565305Y-95602353D01*
X161565296Y-95602355D01*
X161437116Y-95647207D01*
X161327855Y-95727845D01*
X161327845Y-95727855D01*
X161247206Y-95837118D01*
X161246497Y-95838460D01*
X161245506Y-95839421D01*
X161242801Y-95843087D01*
X161242192Y-95842637D01*
X161202589Y-95881071D01*
X161142020Y-95889736D01*
X161087926Y-95861145D01*
X161064996Y-95823338D01*
X161034356Y-95730875D01*
X160942319Y-95581659D01*
X160930800Y-95570140D01*
X170913410Y-95570140D01*
X170928602Y-95579686D01*
X171099776Y-95639583D01*
X171099788Y-95639586D01*
X171279997Y-95659891D01*
X171280005Y-95659891D01*
X171460213Y-95639586D01*
X171460225Y-95639583D01*
X171631395Y-95579688D01*
X171631405Y-95579682D01*
X171646589Y-95570142D01*
X171646589Y-95570141D01*
X171280000Y-95203552D01*
X170913410Y-95570140D01*
X160930800Y-95570140D01*
X160818340Y-95457680D01*
X160669124Y-95365643D01*
X160502693Y-95310493D01*
X160399987Y-95300000D01*
X160250001Y-95300000D01*
X160250000Y-95300001D01*
X160250000Y-96401000D01*
X160231093Y-96459191D01*
X160181593Y-96495155D01*
X160151000Y-96500000D01*
X160000001Y-96500000D01*
X160000000Y-96500001D01*
X160000000Y-96651000D01*
X159981093Y-96709191D01*
X159931593Y-96745155D01*
X159901000Y-96750000D01*
X158900002Y-96750000D01*
X158900001Y-96750001D01*
X158900001Y-96999986D01*
X158910492Y-97102687D01*
X158910495Y-97102699D01*
X158965643Y-97269124D01*
X159045460Y-97398528D01*
X159059916Y-97457981D01*
X159036666Y-97514576D01*
X158984590Y-97546697D01*
X158961199Y-97549500D01*
X150549500Y-97549500D01*
X150491309Y-97530593D01*
X150455345Y-97481093D01*
X150450500Y-97450500D01*
X150450500Y-96000012D01*
X158900000Y-96000012D01*
X158900000Y-96249999D01*
X158900001Y-96250000D01*
X159749999Y-96250000D01*
X159750000Y-96249999D01*
X159750000Y-95300001D01*
X159749999Y-95300000D01*
X159600013Y-95300000D01*
X159600013Y-95300001D01*
X159497312Y-95310492D01*
X159497300Y-95310495D01*
X159330875Y-95365643D01*
X159181659Y-95457680D01*
X159057680Y-95581659D01*
X158965643Y-95730875D01*
X158910493Y-95897306D01*
X158900000Y-96000012D01*
X150450500Y-96000012D01*
X150450500Y-93878710D01*
X152149500Y-93878710D01*
X152149500Y-94121289D01*
X152181161Y-94361781D01*
X152181161Y-94361786D01*
X152243944Y-94596092D01*
X152243948Y-94596105D01*
X152336772Y-94820204D01*
X152336774Y-94820208D01*
X152336776Y-94820212D01*
X152420054Y-94964453D01*
X152458066Y-95030292D01*
X152605729Y-95222731D01*
X152605731Y-95222733D01*
X152605735Y-95222738D01*
X152777262Y-95394265D01*
X152777266Y-95394268D01*
X152777268Y-95394270D01*
X152949885Y-95526723D01*
X152969711Y-95541936D01*
X153179788Y-95663224D01*
X153403900Y-95756054D01*
X153638211Y-95818838D01*
X153878712Y-95850500D01*
X153878713Y-95850500D01*
X154121287Y-95850500D01*
X154121288Y-95850500D01*
X154361789Y-95818838D01*
X154596100Y-95756054D01*
X154820212Y-95663224D01*
X155030289Y-95541936D01*
X155222738Y-95394265D01*
X155394265Y-95222738D01*
X155541936Y-95030289D01*
X155663224Y-94820212D01*
X155756054Y-94596100D01*
X155818838Y-94361789D01*
X155850500Y-94121288D01*
X155850500Y-93878712D01*
X155818838Y-93638211D01*
X155756054Y-93403900D01*
X155670353Y-93196999D01*
X155663227Y-93179795D01*
X155663226Y-93179794D01*
X155663224Y-93179788D01*
X155541936Y-92969711D01*
X155541933Y-92969707D01*
X155394270Y-92777268D01*
X155394268Y-92777266D01*
X155394265Y-92777262D01*
X155367004Y-92750001D01*
X163400001Y-92750001D01*
X163400001Y-92999986D01*
X163410492Y-93102687D01*
X163410495Y-93102699D01*
X163465643Y-93269124D01*
X163557680Y-93418340D01*
X163681659Y-93542319D01*
X163830875Y-93634356D01*
X163997306Y-93689506D01*
X164100013Y-93699999D01*
X164250000Y-93699999D01*
X164250000Y-92750001D01*
X164249999Y-92750000D01*
X163400002Y-92750000D01*
X163400001Y-92750001D01*
X155367004Y-92750001D01*
X155222738Y-92605735D01*
X155222733Y-92605731D01*
X155222731Y-92605729D01*
X155030292Y-92458066D01*
X155024133Y-92454510D01*
X154820212Y-92336776D01*
X154820208Y-92336774D01*
X154820204Y-92336772D01*
X154596105Y-92243948D01*
X154596104Y-92243947D01*
X154596100Y-92243946D01*
X154361789Y-92181162D01*
X154361786Y-92181161D01*
X154361784Y-92181161D01*
X154121289Y-92149500D01*
X154121288Y-92149500D01*
X153878712Y-92149500D01*
X153878710Y-92149500D01*
X153638218Y-92181161D01*
X153638213Y-92181161D01*
X153403907Y-92243944D01*
X153403894Y-92243948D01*
X153179795Y-92336772D01*
X152969707Y-92458066D01*
X152777268Y-92605729D01*
X152605729Y-92777268D01*
X152458066Y-92969707D01*
X152336772Y-93179795D01*
X152243948Y-93403894D01*
X152243944Y-93403907D01*
X152181161Y-93638213D01*
X152181161Y-93638218D01*
X152149500Y-93878710D01*
X150450500Y-93878710D01*
X150450500Y-92000012D01*
X163400000Y-92000012D01*
X163400000Y-92249999D01*
X163400001Y-92250000D01*
X164249999Y-92250000D01*
X164250000Y-92249999D01*
X164250000Y-91300001D01*
X164249999Y-91300000D01*
X164100013Y-91300000D01*
X164100013Y-91300001D01*
X163997312Y-91310492D01*
X163997300Y-91310495D01*
X163830875Y-91365643D01*
X163681659Y-91457680D01*
X163557680Y-91581659D01*
X163465643Y-91730875D01*
X163410493Y-91897306D01*
X163400000Y-92000012D01*
X150450500Y-92000012D01*
X150450500Y-90940692D01*
X150449474Y-90936862D01*
X150419799Y-90826114D01*
X150419797Y-90826111D01*
X150419797Y-90826109D01*
X150360492Y-90723391D01*
X150360490Y-90723389D01*
X150360489Y-90723387D01*
X150276613Y-90639511D01*
X150276610Y-90639509D01*
X150276608Y-90639507D01*
X150173890Y-90580202D01*
X150135610Y-90569945D01*
X150059309Y-90549500D01*
X150059307Y-90549500D01*
X147049500Y-90549500D01*
X146991309Y-90530593D01*
X146955345Y-90481093D01*
X146950500Y-90450500D01*
X146950500Y-88095725D01*
X148099500Y-88095725D01*
X148099500Y-88904274D01*
X148102353Y-88934694D01*
X148102355Y-88934703D01*
X148147207Y-89062883D01*
X148227845Y-89172144D01*
X148227847Y-89172146D01*
X148227850Y-89172150D01*
X148227853Y-89172152D01*
X148227855Y-89172154D01*
X148337116Y-89252792D01*
X148337117Y-89252792D01*
X148337118Y-89252793D01*
X148465301Y-89297646D01*
X148495725Y-89300499D01*
X148495727Y-89300500D01*
X148495734Y-89300500D01*
X149504273Y-89300500D01*
X149504273Y-89300499D01*
X149534699Y-89297646D01*
X149662882Y-89252793D01*
X149772150Y-89172150D01*
X149852793Y-89062882D01*
X149897646Y-88934699D01*
X149900499Y-88904273D01*
X149900500Y-88904273D01*
X149900500Y-88899500D01*
X149919407Y-88841309D01*
X149968907Y-88805345D01*
X149999500Y-88800500D01*
X150039563Y-88800500D01*
X150039563Y-88800499D01*
X150115989Y-88780021D01*
X150184511Y-88740460D01*
X150240460Y-88684511D01*
X152212469Y-86712501D01*
X154275001Y-86712501D01*
X154275001Y-86849986D01*
X154285492Y-86952687D01*
X154285495Y-86952699D01*
X154340643Y-87119124D01*
X154432680Y-87268340D01*
X154556659Y-87392319D01*
X154705875Y-87484356D01*
X154872306Y-87539506D01*
X154975013Y-87549999D01*
X155249998Y-87549999D01*
X155250000Y-87549998D01*
X155250000Y-86712501D01*
X155750000Y-86712501D01*
X155750000Y-87549998D01*
X155750001Y-87549999D01*
X156024986Y-87549999D01*
X156127687Y-87539507D01*
X156127699Y-87539504D01*
X156294124Y-87484356D01*
X156443340Y-87392319D01*
X156567319Y-87268340D01*
X156659356Y-87119124D01*
X156714506Y-86952693D01*
X156725000Y-86849987D01*
X156725000Y-86712501D01*
X156724999Y-86712500D01*
X155750001Y-86712500D01*
X155750000Y-86712501D01*
X155250000Y-86712501D01*
X155249999Y-86712500D01*
X154275002Y-86712500D01*
X154275001Y-86712501D01*
X152212469Y-86712501D01*
X152849958Y-86075012D01*
X154275000Y-86075012D01*
X154275000Y-86212499D01*
X154275001Y-86212500D01*
X155249999Y-86212500D01*
X155250000Y-86212499D01*
X155250000Y-85375001D01*
X155750000Y-85375001D01*
X155750000Y-86212499D01*
X155750001Y-86212500D01*
X156724998Y-86212500D01*
X156724999Y-86212499D01*
X156724999Y-86075013D01*
X156714507Y-85972312D01*
X156714504Y-85972300D01*
X156659356Y-85805875D01*
X156567319Y-85656659D01*
X156443340Y-85532680D01*
X156294124Y-85440643D01*
X156127693Y-85385493D01*
X156024987Y-85375000D01*
X155750001Y-85375000D01*
X155750000Y-85375001D01*
X155250000Y-85375001D01*
X155249999Y-85375000D01*
X154975013Y-85375000D01*
X154872312Y-85385492D01*
X154872300Y-85385495D01*
X154705875Y-85440643D01*
X154556659Y-85532680D01*
X154432680Y-85656659D01*
X154340643Y-85805875D01*
X154285493Y-85972306D01*
X154275000Y-86075012D01*
X152849958Y-86075012D01*
X154436892Y-84488078D01*
X154491407Y-84460303D01*
X154551839Y-84469874D01*
X154595104Y-84513139D01*
X154600338Y-84525386D01*
X154622207Y-84587883D01*
X154702845Y-84697144D01*
X154702847Y-84697146D01*
X154702850Y-84697150D01*
X154702853Y-84697152D01*
X154702855Y-84697154D01*
X154812116Y-84777792D01*
X154812117Y-84777792D01*
X154812118Y-84777793D01*
X154940301Y-84822646D01*
X154970725Y-84825499D01*
X154970727Y-84825500D01*
X154970734Y-84825500D01*
X156029273Y-84825500D01*
X156029273Y-84825499D01*
X156059699Y-84822646D01*
X156187882Y-84777793D01*
X156297150Y-84697150D01*
X156368844Y-84600008D01*
X156377791Y-84587885D01*
X156377792Y-84587883D01*
X156377793Y-84587882D01*
X156399661Y-84525384D01*
X156436726Y-84476706D01*
X156495326Y-84459109D01*
X156553078Y-84479317D01*
X156563109Y-84488080D01*
X157120504Y-85045475D01*
X157148281Y-85099992D01*
X157149500Y-85115479D01*
X157149500Y-85912720D01*
X157162246Y-86009540D01*
X157164313Y-86025236D01*
X157222302Y-86165233D01*
X157314549Y-86285451D01*
X157434767Y-86377698D01*
X157574764Y-86435687D01*
X157687280Y-86450500D01*
X157687281Y-86450500D01*
X159012719Y-86450500D01*
X159012720Y-86450500D01*
X159125236Y-86435687D01*
X159265233Y-86377698D01*
X159385451Y-86285451D01*
X159477698Y-86165233D01*
X159535687Y-86025236D01*
X159547359Y-85936577D01*
X159573700Y-85881353D01*
X159627471Y-85852158D01*
X159645512Y-85850500D01*
X163350500Y-85850500D01*
X163408691Y-85869407D01*
X163444655Y-85918907D01*
X163449500Y-85949500D01*
X163449500Y-86956620D01*
X163455913Y-87027194D01*
X163506521Y-87189605D01*
X163506522Y-87189607D01*
X163558000Y-87274761D01*
X163594528Y-87335185D01*
X163714815Y-87455472D01*
X163787646Y-87499500D01*
X163854721Y-87540049D01*
X163860394Y-87543478D01*
X164022804Y-87594086D01*
X164093384Y-87600500D01*
X164093389Y-87600500D01*
X165206611Y-87600500D01*
X165206616Y-87600500D01*
X165277196Y-87594086D01*
X165439606Y-87543478D01*
X165585185Y-87455472D01*
X165705472Y-87335185D01*
X165793478Y-87189606D01*
X165844086Y-87027196D01*
X165850500Y-86956616D01*
X165850500Y-84043384D01*
X165844086Y-83972804D01*
X165793478Y-83810394D01*
X165780175Y-83788389D01*
X165765716Y-83764470D01*
X165705472Y-83664815D01*
X165585185Y-83544528D01*
X165547057Y-83521479D01*
X165439607Y-83456522D01*
X165439605Y-83456521D01*
X165277194Y-83405913D01*
X165206620Y-83399500D01*
X165206616Y-83399500D01*
X165099500Y-83399500D01*
X165041309Y-83380593D01*
X165005345Y-83331093D01*
X165000500Y-83300500D01*
X165000500Y-83036189D01*
X165019407Y-82977998D01*
X165029496Y-82966185D01*
X165966185Y-82029496D01*
X166020702Y-82001719D01*
X166036189Y-82000500D01*
X166071959Y-82000500D01*
X166071961Y-82000500D01*
X166210053Y-81959953D01*
X166331128Y-81882143D01*
X166425377Y-81773373D01*
X166485165Y-81642457D01*
X166500769Y-81533930D01*
X166505647Y-81500002D01*
X166505647Y-81499997D01*
X166485165Y-81357543D01*
X166425377Y-81226627D01*
X166331128Y-81117857D01*
X166331127Y-81117856D01*
X166331126Y-81117855D01*
X166210057Y-81040049D01*
X166210054Y-81040047D01*
X166210053Y-81040047D01*
X166208408Y-81039564D01*
X166071964Y-80999500D01*
X166071961Y-80999500D01*
X165928039Y-80999500D01*
X165928035Y-80999500D01*
X165789949Y-81040046D01*
X165789942Y-81040049D01*
X165668873Y-81117855D01*
X165574622Y-81226628D01*
X165514834Y-81357543D01*
X165497368Y-81479022D01*
X165470372Y-81533930D01*
X165469380Y-81534937D01*
X164917868Y-82086450D01*
X164369530Y-82634788D01*
X164323386Y-82714712D01*
X164304402Y-82785564D01*
X164299500Y-82803857D01*
X164299500Y-83300500D01*
X164280593Y-83358691D01*
X164231093Y-83394655D01*
X164200500Y-83399500D01*
X164093379Y-83399500D01*
X164022805Y-83405913D01*
X163860394Y-83456521D01*
X163860392Y-83456522D01*
X163714816Y-83544527D01*
X163594527Y-83664816D01*
X163506522Y-83810392D01*
X163506521Y-83810394D01*
X163455913Y-83972805D01*
X163449500Y-84043379D01*
X163449500Y-85050500D01*
X163430593Y-85108691D01*
X163381093Y-85144655D01*
X163350500Y-85149500D01*
X159645512Y-85149500D01*
X159587321Y-85130593D01*
X159551357Y-85081093D01*
X159547359Y-85063422D01*
X159544996Y-85045475D01*
X159535687Y-84974764D01*
X159477698Y-84834767D01*
X159385451Y-84714549D01*
X159265233Y-84622302D01*
X159265004Y-84622207D01*
X159214290Y-84601200D01*
X159167764Y-84561463D01*
X159153481Y-84501968D01*
X159176896Y-84445440D01*
X159228285Y-84413662D01*
X159278520Y-84401169D01*
X159449023Y-84316608D01*
X159449026Y-84316606D01*
X159597364Y-84197368D01*
X159597368Y-84197364D01*
X159716606Y-84049026D01*
X159716608Y-84049023D01*
X159801168Y-83878522D01*
X159847102Y-83693821D01*
X159849999Y-83651115D01*
X159850000Y-83651096D01*
X159850000Y-83450001D01*
X159849999Y-83450000D01*
X156850001Y-83450000D01*
X156850000Y-83450001D01*
X156850000Y-83651118D01*
X156852949Y-83694597D01*
X156838022Y-83753934D01*
X156791068Y-83793164D01*
X156730023Y-83797304D01*
X156704682Y-83787035D01*
X156700365Y-83784543D01*
X156700360Y-83784538D01*
X156700360Y-83784540D01*
X156653489Y-83757479D01*
X156653488Y-83757478D01*
X156653487Y-83757478D01*
X156577064Y-83737000D01*
X156577062Y-83737000D01*
X156524209Y-83737000D01*
X156466018Y-83718093D01*
X156430054Y-83668593D01*
X156425641Y-83647244D01*
X156425500Y-83645740D01*
X156425500Y-83645734D01*
X156422646Y-83615301D01*
X156377793Y-83487118D01*
X156355212Y-83456522D01*
X156297154Y-83377855D01*
X156297152Y-83377853D01*
X156297150Y-83377850D01*
X156297146Y-83377847D01*
X156297144Y-83377845D01*
X156187883Y-83297207D01*
X156059703Y-83252355D01*
X156059694Y-83252353D01*
X156029274Y-83249500D01*
X156029266Y-83249500D01*
X154970734Y-83249500D01*
X154970725Y-83249500D01*
X154940305Y-83252353D01*
X154940296Y-83252355D01*
X154812116Y-83297207D01*
X154702855Y-83377845D01*
X154702845Y-83377855D01*
X154622207Y-83487116D01*
X154577355Y-83615296D01*
X154577354Y-83615297D01*
X154577354Y-83615301D01*
X154574500Y-83645734D01*
X154574500Y-83645739D01*
X154574359Y-83647244D01*
X154550101Y-83703415D01*
X154497459Y-83734600D01*
X154475791Y-83737000D01*
X154422935Y-83737000D01*
X154346512Y-83757478D01*
X154299641Y-83784538D01*
X154299640Y-83784540D01*
X154292973Y-83788389D01*
X154277989Y-83797040D01*
X150038109Y-88036919D01*
X149983592Y-88064696D01*
X149923160Y-88055125D01*
X149879895Y-88011860D01*
X149874661Y-87999613D01*
X149852792Y-87937116D01*
X149772154Y-87827855D01*
X149772152Y-87827853D01*
X149772150Y-87827850D01*
X149772146Y-87827847D01*
X149772144Y-87827845D01*
X149662883Y-87747207D01*
X149534703Y-87702355D01*
X149534694Y-87702353D01*
X149504274Y-87699500D01*
X149504266Y-87699500D01*
X148495734Y-87699500D01*
X148495725Y-87699500D01*
X148465305Y-87702353D01*
X148465296Y-87702355D01*
X148337116Y-87747207D01*
X148227855Y-87827845D01*
X148227845Y-87827855D01*
X148147207Y-87937116D01*
X148102355Y-88065296D01*
X148102353Y-88065305D01*
X148099500Y-88095725D01*
X146950500Y-88095725D01*
X146950500Y-82725001D01*
X147800001Y-82725001D01*
X147800001Y-82849986D01*
X147810492Y-82952687D01*
X147810495Y-82952699D01*
X147865643Y-83119124D01*
X147957680Y-83268340D01*
X148081659Y-83392319D01*
X148230875Y-83484356D01*
X148397306Y-83539506D01*
X148500012Y-83549999D01*
X148859704Y-83549999D01*
X148917895Y-83568906D01*
X148953859Y-83618406D01*
X148953859Y-83679591D01*
X148917895Y-83729092D01*
X148885339Y-83744622D01*
X148879740Y-83746123D01*
X148854105Y-83749500D01*
X148495725Y-83749500D01*
X148465305Y-83752353D01*
X148465296Y-83752355D01*
X148337116Y-83797207D01*
X148227855Y-83877845D01*
X148227845Y-83877855D01*
X148147207Y-83987116D01*
X148102355Y-84115296D01*
X148102353Y-84115305D01*
X148099500Y-84145725D01*
X148099500Y-84904274D01*
X148102353Y-84934694D01*
X148102355Y-84934703D01*
X148147207Y-85062883D01*
X148227845Y-85172144D01*
X148227847Y-85172146D01*
X148227850Y-85172150D01*
X148227853Y-85172152D01*
X148227855Y-85172154D01*
X148337116Y-85252792D01*
X148337117Y-85252792D01*
X148337118Y-85252793D01*
X148465301Y-85297646D01*
X148495725Y-85300499D01*
X148495727Y-85300500D01*
X148495734Y-85300500D01*
X148600500Y-85300500D01*
X148658691Y-85319407D01*
X148694655Y-85368907D01*
X148699500Y-85399500D01*
X148699500Y-85600500D01*
X148680593Y-85658691D01*
X148631093Y-85694655D01*
X148600500Y-85699500D01*
X148495725Y-85699500D01*
X148465305Y-85702353D01*
X148465296Y-85702355D01*
X148337116Y-85747207D01*
X148227855Y-85827845D01*
X148227845Y-85827855D01*
X148147207Y-85937116D01*
X148102355Y-86065296D01*
X148102353Y-86065305D01*
X148099500Y-86095725D01*
X148099500Y-86904274D01*
X148102353Y-86934694D01*
X148102355Y-86934703D01*
X148147207Y-87062883D01*
X148227845Y-87172144D01*
X148227847Y-87172146D01*
X148227850Y-87172150D01*
X148227853Y-87172152D01*
X148227855Y-87172154D01*
X148337116Y-87252792D01*
X148337117Y-87252792D01*
X148337118Y-87252793D01*
X148465301Y-87297646D01*
X148495725Y-87300499D01*
X148495727Y-87300500D01*
X148495734Y-87300500D01*
X149504273Y-87300500D01*
X149504273Y-87300499D01*
X149534699Y-87297646D01*
X149662882Y-87252793D01*
X149772150Y-87172150D01*
X149852793Y-87062882D01*
X149897646Y-86934699D01*
X149900499Y-86904273D01*
X149900500Y-86904273D01*
X149900500Y-86095727D01*
X149900499Y-86095725D01*
X149897646Y-86065301D01*
X149852793Y-85937118D01*
X149852394Y-85936578D01*
X149772154Y-85827855D01*
X149772152Y-85827853D01*
X149772150Y-85827850D01*
X149772146Y-85827847D01*
X149772144Y-85827845D01*
X149662883Y-85747207D01*
X149534703Y-85702355D01*
X149534694Y-85702353D01*
X149504274Y-85699500D01*
X149504266Y-85699500D01*
X149399500Y-85699500D01*
X149341309Y-85680593D01*
X149305345Y-85631093D01*
X149300500Y-85600500D01*
X149300500Y-85399500D01*
X149319407Y-85341309D01*
X149368907Y-85305345D01*
X149399500Y-85300500D01*
X149504273Y-85300500D01*
X149504273Y-85300499D01*
X149534699Y-85297646D01*
X149662882Y-85252793D01*
X149772150Y-85172150D01*
X149852793Y-85062882D01*
X149897646Y-84934699D01*
X149900499Y-84904273D01*
X149900500Y-84904273D01*
X149900500Y-84145727D01*
X149900499Y-84145725D01*
X149900473Y-84145445D01*
X149897646Y-84115301D01*
X149852793Y-83987118D01*
X149832744Y-83959953D01*
X149772154Y-83877855D01*
X149772152Y-83877853D01*
X149772150Y-83877850D01*
X149772146Y-83877847D01*
X149772144Y-83877845D01*
X149662883Y-83797207D01*
X149534703Y-83752355D01*
X149534694Y-83752353D01*
X149504274Y-83749500D01*
X149504266Y-83749500D01*
X149145895Y-83749500D01*
X149120268Y-83746126D01*
X149115989Y-83744979D01*
X149114666Y-83744624D01*
X149063354Y-83711299D01*
X149041429Y-83654177D01*
X149057268Y-83595077D01*
X149104819Y-83556573D01*
X149140294Y-83549999D01*
X149499986Y-83549999D01*
X149602687Y-83539507D01*
X149602699Y-83539504D01*
X149769124Y-83484356D01*
X149918340Y-83392319D01*
X150042319Y-83268340D01*
X150134356Y-83119124D01*
X150189506Y-82952693D01*
X150200000Y-82849987D01*
X150200000Y-82725001D01*
X150199999Y-82725000D01*
X147800002Y-82725000D01*
X147800001Y-82725001D01*
X146950500Y-82725001D01*
X146950500Y-82100012D01*
X147800000Y-82100012D01*
X147800000Y-82224999D01*
X147800001Y-82225000D01*
X148749999Y-82225000D01*
X148750000Y-82224999D01*
X148750000Y-81400001D01*
X149250000Y-81400001D01*
X149250000Y-82224999D01*
X149250001Y-82225000D01*
X150199998Y-82225000D01*
X150199999Y-82224999D01*
X150199999Y-82212501D01*
X154275001Y-82212501D01*
X154275001Y-82349986D01*
X154285492Y-82452687D01*
X154285495Y-82452699D01*
X154340643Y-82619124D01*
X154432680Y-82768340D01*
X154556659Y-82892319D01*
X154705875Y-82984356D01*
X154872306Y-83039506D01*
X154975013Y-83049999D01*
X155249998Y-83049999D01*
X155250000Y-83049998D01*
X155250000Y-82212501D01*
X155750000Y-82212501D01*
X155750000Y-83049998D01*
X155750001Y-83049999D01*
X156024986Y-83049999D01*
X156127687Y-83039507D01*
X156127699Y-83039504D01*
X156294124Y-82984356D01*
X156443340Y-82892319D01*
X156567319Y-82768340D01*
X156579320Y-82748884D01*
X156850000Y-82748884D01*
X156850000Y-82949999D01*
X156850001Y-82950000D01*
X158099999Y-82950000D01*
X158100000Y-82949999D01*
X158100000Y-81950001D01*
X158600000Y-81950001D01*
X158600000Y-82949999D01*
X158600001Y-82950000D01*
X159849999Y-82950000D01*
X159850000Y-82949999D01*
X159850000Y-82748903D01*
X159849999Y-82748884D01*
X159847102Y-82706178D01*
X159847103Y-82706178D01*
X159801168Y-82521477D01*
X159716608Y-82350976D01*
X159716606Y-82350973D01*
X159597368Y-82202635D01*
X159597364Y-82202631D01*
X159449026Y-82083393D01*
X159449023Y-82083391D01*
X159278522Y-81998831D01*
X159093821Y-81952897D01*
X159051115Y-81950000D01*
X158600001Y-81950000D01*
X158600000Y-81950001D01*
X158100000Y-81950001D01*
X158099999Y-81950000D01*
X157648884Y-81950000D01*
X157606178Y-81952897D01*
X157421477Y-81998831D01*
X157250976Y-82083391D01*
X157250973Y-82083393D01*
X157102635Y-82202631D01*
X157102631Y-82202635D01*
X156983393Y-82350973D01*
X156983391Y-82350976D01*
X156899360Y-82520410D01*
X156894971Y-82524894D01*
X156895318Y-82535602D01*
X156852897Y-82706178D01*
X156850000Y-82748884D01*
X156579320Y-82748884D01*
X156659356Y-82619124D01*
X156705269Y-82480569D01*
X156713571Y-82469280D01*
X156713864Y-82455691D01*
X156714507Y-82452687D01*
X156725000Y-82349987D01*
X156725000Y-82212501D01*
X156724999Y-82212500D01*
X155750001Y-82212500D01*
X155750000Y-82212501D01*
X155250000Y-82212501D01*
X155249999Y-82212500D01*
X154275002Y-82212500D01*
X154275001Y-82212501D01*
X150199999Y-82212501D01*
X150199999Y-82100013D01*
X150189507Y-81997312D01*
X150189504Y-81997300D01*
X150134356Y-81830875D01*
X150042319Y-81681659D01*
X149935672Y-81575012D01*
X154275000Y-81575012D01*
X154275000Y-81712499D01*
X154275001Y-81712500D01*
X155249999Y-81712500D01*
X155250000Y-81712499D01*
X155250000Y-80875001D01*
X155750000Y-80875001D01*
X155750000Y-81712499D01*
X155750001Y-81712500D01*
X156724998Y-81712500D01*
X156724999Y-81712499D01*
X156724999Y-81575013D01*
X156714507Y-81472312D01*
X156714504Y-81472300D01*
X156659356Y-81305875D01*
X156567319Y-81156659D01*
X156443340Y-81032680D01*
X156294124Y-80940643D01*
X156127693Y-80885493D01*
X156024987Y-80875000D01*
X155750001Y-80875000D01*
X155750000Y-80875001D01*
X155250000Y-80875001D01*
X155249999Y-80875000D01*
X154975013Y-80875000D01*
X154872312Y-80885492D01*
X154872300Y-80885495D01*
X154705875Y-80940643D01*
X154556659Y-81032680D01*
X154432680Y-81156659D01*
X154340643Y-81305875D01*
X154285493Y-81472306D01*
X154275000Y-81575012D01*
X149935672Y-81575012D01*
X149918340Y-81557680D01*
X149769124Y-81465643D01*
X149602693Y-81410493D01*
X149499987Y-81400000D01*
X149250001Y-81400000D01*
X149250000Y-81400001D01*
X148750000Y-81400001D01*
X148749999Y-81400000D01*
X148500013Y-81400000D01*
X148397312Y-81410492D01*
X148397300Y-81410495D01*
X148230875Y-81465643D01*
X148081659Y-81557680D01*
X147957680Y-81681659D01*
X147865643Y-81830875D01*
X147810493Y-81997306D01*
X147800000Y-82100012D01*
X146950500Y-82100012D01*
X146950500Y-80049500D01*
X146969407Y-79991309D01*
X147018907Y-79955345D01*
X147049500Y-79950500D01*
X165559307Y-79950500D01*
X165559309Y-79950500D01*
X165673886Y-79919799D01*
X165673888Y-79919797D01*
X165673890Y-79919797D01*
X165776608Y-79860492D01*
X165776608Y-79860491D01*
X165776613Y-79860489D01*
X165860489Y-79776613D01*
X165919799Y-79673886D01*
X165950500Y-79559309D01*
X165950500Y-38940691D01*
X165919799Y-38826114D01*
X165919797Y-38826111D01*
X165919797Y-38826109D01*
X165860492Y-38723391D01*
X165860490Y-38723389D01*
X165860489Y-38723387D01*
X165776613Y-38639511D01*
X165776610Y-38639509D01*
X165776608Y-38639507D01*
X165673889Y-38580202D01*
X165673890Y-38580202D01*
X165660351Y-38576574D01*
X165559309Y-38549500D01*
X165559307Y-38549500D01*
X156049500Y-38549500D01*
X155991309Y-38530593D01*
X155955345Y-38481093D01*
X155950500Y-38450500D01*
X155950500Y-35250000D01*
X158129364Y-35250000D01*
X159026988Y-35250000D01*
X158994075Y-35307007D01*
X158960000Y-35434174D01*
X158960000Y-35565826D01*
X158994075Y-35692993D01*
X159026988Y-35750000D01*
X158129364Y-35750000D01*
X158186569Y-35963489D01*
X158286399Y-36177577D01*
X158421886Y-36371073D01*
X158588926Y-36538113D01*
X158782422Y-36673600D01*
X158996509Y-36773430D01*
X159210000Y-36830634D01*
X159210000Y-35933012D01*
X159267007Y-35965925D01*
X159394174Y-36000000D01*
X159525826Y-36000000D01*
X159652993Y-35965925D01*
X159710000Y-35933012D01*
X159710000Y-36830633D01*
X159923490Y-36773430D01*
X160137577Y-36673600D01*
X160331073Y-36538113D01*
X160498113Y-36371073D01*
X160633600Y-36177577D01*
X160733430Y-35963490D01*
X160754873Y-35883466D01*
X160788197Y-35832152D01*
X160845318Y-35810225D01*
X160904419Y-35826060D01*
X160942924Y-35873610D01*
X160949500Y-35909089D01*
X160949500Y-36369746D01*
X160949501Y-36369758D01*
X160961132Y-36428227D01*
X160961134Y-36428233D01*
X160992392Y-36475013D01*
X161005448Y-36494552D01*
X161071769Y-36538867D01*
X161116231Y-36547711D01*
X161130241Y-36550498D01*
X161130246Y-36550498D01*
X161130252Y-36550500D01*
X161130253Y-36550500D01*
X162869747Y-36550500D01*
X162869748Y-36550500D01*
X162928231Y-36538867D01*
X162994552Y-36494552D01*
X163038867Y-36428231D01*
X163050500Y-36369748D01*
X163050500Y-35899500D01*
X163069407Y-35841309D01*
X163118907Y-35805345D01*
X163149500Y-35800500D01*
X164334521Y-35800500D01*
X164392712Y-35819407D01*
X164404525Y-35829496D01*
X168170504Y-39595475D01*
X168198281Y-39649992D01*
X168199500Y-39665479D01*
X168199500Y-83046105D01*
X168180593Y-83104296D01*
X168173258Y-83112289D01*
X168173509Y-83112506D01*
X168074622Y-83226628D01*
X168014834Y-83357543D01*
X167994353Y-83499997D01*
X167994353Y-83500002D01*
X168014834Y-83642456D01*
X168070557Y-83764470D01*
X168074623Y-83773373D01*
X168168872Y-83882143D01*
X168168873Y-83882144D01*
X168266396Y-83944818D01*
X168289947Y-83959953D01*
X168382457Y-83987116D01*
X168428035Y-84000499D01*
X168428036Y-84000499D01*
X168428039Y-84000500D01*
X168428041Y-84000500D01*
X168571959Y-84000500D01*
X168571961Y-84000500D01*
X168710053Y-83959953D01*
X168831128Y-83882143D01*
X168925377Y-83773373D01*
X168985165Y-83642457D01*
X168999967Y-83539504D01*
X169005647Y-83500002D01*
X169005647Y-83499997D01*
X168985165Y-83357543D01*
X168925377Y-83226627D01*
X168831128Y-83117857D01*
X168831127Y-83117856D01*
X168826491Y-83112506D01*
X168828524Y-83110743D01*
X168803067Y-83068505D01*
X168800500Y-83046105D01*
X168800500Y-39460437D01*
X168800499Y-39460435D01*
X168789610Y-39419799D01*
X168780021Y-39384011D01*
X168766442Y-39360492D01*
X168740460Y-39315489D01*
X168684511Y-39259539D01*
X168684511Y-39259540D01*
X164684511Y-35259540D01*
X164684506Y-35259537D01*
X164615992Y-35219980D01*
X164615988Y-35219978D01*
X164539564Y-35199500D01*
X164539562Y-35199500D01*
X163149500Y-35199500D01*
X163091309Y-35180593D01*
X163055345Y-35131093D01*
X163050500Y-35100500D01*
X163050500Y-34630253D01*
X163050498Y-34630241D01*
X163044550Y-34600338D01*
X163038867Y-34571769D01*
X162994552Y-34505448D01*
X162994548Y-34505445D01*
X162928233Y-34461134D01*
X162928231Y-34461133D01*
X162928228Y-34461132D01*
X162928227Y-34461132D01*
X162869758Y-34449501D01*
X162869748Y-34449500D01*
X161130252Y-34449500D01*
X161130251Y-34449500D01*
X161130241Y-34449501D01*
X161071772Y-34461132D01*
X161071766Y-34461134D01*
X161005451Y-34505445D01*
X161005445Y-34505451D01*
X160961134Y-34571766D01*
X160961132Y-34571772D01*
X160949501Y-34630241D01*
X160949500Y-34630253D01*
X160949500Y-35090910D01*
X160930593Y-35149101D01*
X160881093Y-35185065D01*
X160819907Y-35185065D01*
X160770407Y-35149101D01*
X160754873Y-35116533D01*
X160733429Y-35036505D01*
X160633605Y-34822432D01*
X160633601Y-34822424D01*
X160498113Y-34628926D01*
X160331073Y-34461886D01*
X160137577Y-34326399D01*
X159923489Y-34226569D01*
X159710000Y-34169364D01*
X159710000Y-35066988D01*
X159652993Y-35034075D01*
X159525826Y-35000000D01*
X159394174Y-35000000D01*
X159267007Y-35034075D01*
X159210000Y-35066988D01*
X159210000Y-34169364D01*
X158996505Y-34226570D01*
X158782432Y-34326394D01*
X158782424Y-34326398D01*
X158588926Y-34461886D01*
X158421886Y-34628926D01*
X158286398Y-34822424D01*
X158286394Y-34822432D01*
X158186570Y-35036505D01*
X158129364Y-35250000D01*
X155950500Y-35250000D01*
X155950500Y-27878710D01*
X158149500Y-27878710D01*
X158149500Y-28121289D01*
X158181161Y-28361781D01*
X158181161Y-28361786D01*
X158243944Y-28596092D01*
X158243948Y-28596105D01*
X158336772Y-28820204D01*
X158336774Y-28820208D01*
X158336776Y-28820212D01*
X158423416Y-28970277D01*
X158458066Y-29030292D01*
X158605729Y-29222731D01*
X158605731Y-29222733D01*
X158605735Y-29222738D01*
X158777262Y-29394265D01*
X158777266Y-29394268D01*
X158777268Y-29394270D01*
X158969707Y-29541933D01*
X158969711Y-29541936D01*
X159179788Y-29663224D01*
X159403900Y-29756054D01*
X159638211Y-29818838D01*
X159878712Y-29850500D01*
X159878713Y-29850500D01*
X160121287Y-29850500D01*
X160121288Y-29850500D01*
X160361789Y-29818838D01*
X160596100Y-29756054D01*
X160820212Y-29663224D01*
X161030289Y-29541936D01*
X161222738Y-29394265D01*
X161394265Y-29222738D01*
X161541936Y-29030289D01*
X161663224Y-28820212D01*
X161756054Y-28596100D01*
X161818838Y-28361789D01*
X161850500Y-28121288D01*
X161850500Y-27999999D01*
X168497768Y-27999999D01*
X168497769Y-28000000D01*
X169541988Y-28000000D01*
X169509075Y-28057007D01*
X169475000Y-28184174D01*
X169475000Y-28315826D01*
X169509075Y-28442993D01*
X169541988Y-28500000D01*
X168497769Y-28500000D01*
X168508241Y-28566122D01*
X168573904Y-28768215D01*
X168670375Y-28957552D01*
X168795277Y-29129464D01*
X168945535Y-29279722D01*
X169117447Y-29404624D01*
X169306790Y-29501098D01*
X169322941Y-29506346D01*
X169372441Y-29542310D01*
X169391348Y-29600500D01*
X169372440Y-29658691D01*
X169322940Y-29694655D01*
X169292348Y-29699500D01*
X169170725Y-29699500D01*
X169140305Y-29702353D01*
X169140296Y-29702355D01*
X169012116Y-29747207D01*
X168902855Y-29827845D01*
X168902845Y-29827855D01*
X168822207Y-29937116D01*
X168777355Y-30065296D01*
X168777353Y-30065305D01*
X168774500Y-30095725D01*
X168774500Y-31404274D01*
X168777353Y-31434694D01*
X168777355Y-31434703D01*
X168822207Y-31562883D01*
X168902845Y-31672144D01*
X168902847Y-31672146D01*
X168902850Y-31672150D01*
X168902853Y-31672152D01*
X168902855Y-31672154D01*
X169012116Y-31752792D01*
X169012117Y-31752792D01*
X169012118Y-31752793D01*
X169140301Y-31797646D01*
X169170725Y-31800499D01*
X169170727Y-31800500D01*
X169170734Y-31800500D01*
X169575500Y-31800500D01*
X169633691Y-31819407D01*
X169669655Y-31868907D01*
X169674500Y-31899500D01*
X169674500Y-33014564D01*
X169694978Y-33090987D01*
X169731511Y-33154265D01*
X169734536Y-33159505D01*
X169734537Y-33159507D01*
X169734540Y-33159511D01*
X170133005Y-33557976D01*
X170160781Y-33612491D01*
X170162000Y-33627978D01*
X170162000Y-34475790D01*
X170143093Y-34533981D01*
X170093593Y-34569945D01*
X170072246Y-34574357D01*
X170040305Y-34577353D01*
X170040296Y-34577355D01*
X169912116Y-34622207D01*
X169802855Y-34702845D01*
X169802848Y-34702852D01*
X169752796Y-34770668D01*
X169743151Y-34781876D01*
X169734540Y-34790487D01*
X169694979Y-34859011D01*
X169694977Y-34859015D01*
X169674500Y-34935435D01*
X169674500Y-36029274D01*
X169677353Y-36059694D01*
X169677355Y-36059703D01*
X169722207Y-36187883D01*
X169802845Y-36297144D01*
X169802847Y-36297146D01*
X169802850Y-36297150D01*
X169802853Y-36297152D01*
X169802855Y-36297154D01*
X169912116Y-36377792D01*
X169912117Y-36377792D01*
X169912118Y-36377793D01*
X170040296Y-36422644D01*
X170040297Y-36422645D01*
X170040298Y-36422645D01*
X170040301Y-36422646D01*
X170070734Y-36425500D01*
X170070740Y-36425500D01*
X170072244Y-36425641D01*
X170128415Y-36449899D01*
X170159600Y-36502541D01*
X170162000Y-36524209D01*
X170162000Y-84502064D01*
X170182478Y-84578488D01*
X170187904Y-84587885D01*
X170209508Y-84625304D01*
X170222040Y-84647011D01*
X170222043Y-84647014D01*
X170469453Y-84894425D01*
X170497230Y-84948941D01*
X170497441Y-84978514D01*
X170494354Y-84999997D01*
X170494353Y-85000002D01*
X170514834Y-85142456D01*
X170572683Y-85269125D01*
X170574623Y-85273373D01*
X170668870Y-85382141D01*
X170668873Y-85382144D01*
X170789942Y-85459950D01*
X170789947Y-85459953D01*
X170896403Y-85491211D01*
X170928035Y-85500499D01*
X170928036Y-85500499D01*
X170928039Y-85500500D01*
X170928041Y-85500500D01*
X171071959Y-85500500D01*
X171071961Y-85500500D01*
X171210053Y-85459953D01*
X171331128Y-85382143D01*
X171425377Y-85273373D01*
X171485165Y-85142457D01*
X171505647Y-85000000D01*
X171505645Y-84999987D01*
X171485165Y-84857543D01*
X171459114Y-84800500D01*
X171425377Y-84726627D01*
X171331128Y-84617857D01*
X171331127Y-84617856D01*
X171331126Y-84617855D01*
X171210057Y-84540049D01*
X171210054Y-84540047D01*
X171210053Y-84540047D01*
X171210050Y-84540046D01*
X171071964Y-84499500D01*
X171071961Y-84499500D01*
X170965479Y-84499500D01*
X170907288Y-84480593D01*
X170895475Y-84470504D01*
X170791996Y-84367025D01*
X170764219Y-84312508D01*
X170763000Y-84297021D01*
X170763000Y-36524209D01*
X170781907Y-36466018D01*
X170831407Y-36430054D01*
X170852756Y-36425641D01*
X170854259Y-36425500D01*
X170854266Y-36425500D01*
X170884699Y-36422646D01*
X171012882Y-36377793D01*
X171122150Y-36297150D01*
X171202793Y-36187882D01*
X171247646Y-36059699D01*
X171250499Y-36029273D01*
X171250500Y-36029273D01*
X171250500Y-35750001D01*
X171450001Y-35750001D01*
X171450001Y-36024986D01*
X171460492Y-36127687D01*
X171460495Y-36127699D01*
X171515643Y-36294124D01*
X171607680Y-36443340D01*
X171731659Y-36567319D01*
X171880875Y-36659356D01*
X172047306Y-36714506D01*
X172150013Y-36724999D01*
X172287500Y-36724999D01*
X172287500Y-35750001D01*
X172287499Y-35750000D01*
X171450002Y-35750000D01*
X171450001Y-35750001D01*
X171250500Y-35750001D01*
X171250500Y-34975012D01*
X171450000Y-34975012D01*
X171450000Y-35249999D01*
X171450001Y-35250000D01*
X172287499Y-35250000D01*
X172287500Y-35249999D01*
X172287500Y-34275001D01*
X172787500Y-34275001D01*
X172787500Y-35249999D01*
X172787501Y-35250000D01*
X173624998Y-35250000D01*
X173624999Y-35249999D01*
X173624999Y-34975013D01*
X173614507Y-34872312D01*
X173614504Y-34872300D01*
X173559356Y-34705875D01*
X173467319Y-34556659D01*
X173343340Y-34432680D01*
X173194124Y-34340643D01*
X173027693Y-34285493D01*
X172924987Y-34275000D01*
X172787501Y-34275000D01*
X172787500Y-34275001D01*
X172287500Y-34275001D01*
X172287499Y-34275000D01*
X172150013Y-34275000D01*
X172150013Y-34275001D01*
X172047312Y-34285492D01*
X172047300Y-34285495D01*
X171880875Y-34340643D01*
X171731659Y-34432680D01*
X171607680Y-34556659D01*
X171515643Y-34705875D01*
X171460493Y-34872306D01*
X171450000Y-34975012D01*
X171250500Y-34975012D01*
X171250500Y-34970727D01*
X171250499Y-34970725D01*
X171247646Y-34940305D01*
X171247646Y-34940301D01*
X171202793Y-34812118D01*
X171186830Y-34790489D01*
X171122154Y-34702855D01*
X171122151Y-34702852D01*
X171122150Y-34702850D01*
X171122146Y-34702847D01*
X171122144Y-34702845D01*
X171012883Y-34622207D01*
X170884703Y-34577355D01*
X170884694Y-34577353D01*
X170852754Y-34574357D01*
X170796583Y-34550098D01*
X170765400Y-34497455D01*
X170763000Y-34475790D01*
X170763000Y-33671996D01*
X170776265Y-33622493D01*
X170780021Y-33615988D01*
X170800500Y-33539562D01*
X170800500Y-33460438D01*
X170780021Y-33384012D01*
X170740460Y-33315489D01*
X170737853Y-33312882D01*
X170684511Y-33259539D01*
X170684511Y-33259540D01*
X170304496Y-32879525D01*
X170276719Y-32825008D01*
X170275500Y-32809521D01*
X170275500Y-32266230D01*
X171124500Y-32266230D01*
X171124500Y-32433769D01*
X171157183Y-32598079D01*
X171157185Y-32598085D01*
X171221296Y-32752862D01*
X171221297Y-32752863D01*
X171314374Y-32892162D01*
X171432838Y-33010626D01*
X171572137Y-33103703D01*
X171726918Y-33167816D01*
X171891233Y-33200500D01*
X171891234Y-33200500D01*
X172058766Y-33200500D01*
X172058767Y-33200500D01*
X172223082Y-33167816D01*
X172377863Y-33103703D01*
X172517162Y-33010626D01*
X172635626Y-32892162D01*
X172728703Y-32752863D01*
X172792816Y-32598082D01*
X172825500Y-32433767D01*
X172825500Y-32266233D01*
X172792816Y-32101918D01*
X172728703Y-31947137D01*
X172635626Y-31807838D01*
X172517162Y-31689374D01*
X172377863Y-31596297D01*
X172377864Y-31596297D01*
X172377862Y-31596296D01*
X172223085Y-31532185D01*
X172223079Y-31532183D01*
X172058769Y-31499500D01*
X172058767Y-31499500D01*
X171891233Y-31499500D01*
X171891230Y-31499500D01*
X171726920Y-31532183D01*
X171726914Y-31532185D01*
X171572137Y-31596296D01*
X171432838Y-31689374D01*
X171432834Y-31689377D01*
X171314377Y-31807834D01*
X171314374Y-31807838D01*
X171221296Y-31947137D01*
X171157185Y-32101914D01*
X171157183Y-32101920D01*
X171124500Y-32266230D01*
X170275500Y-32266230D01*
X170275500Y-31899500D01*
X170294407Y-31841309D01*
X170343907Y-31805345D01*
X170374500Y-31800500D01*
X170779273Y-31800500D01*
X170779273Y-31800499D01*
X170809699Y-31797646D01*
X170937882Y-31752793D01*
X171047150Y-31672150D01*
X171127793Y-31562882D01*
X171172646Y-31434699D01*
X171175499Y-31404273D01*
X171175500Y-31404273D01*
X171175500Y-30095727D01*
X171175499Y-30095725D01*
X171172646Y-30065305D01*
X171172646Y-30065301D01*
X171127793Y-29937118D01*
X171063866Y-29850500D01*
X171047154Y-29827855D01*
X171047152Y-29827853D01*
X171047150Y-29827850D01*
X171047146Y-29827847D01*
X171047144Y-29827845D01*
X170937883Y-29747207D01*
X170809703Y-29702355D01*
X170809694Y-29702353D01*
X170779274Y-29699500D01*
X170779266Y-29699500D01*
X170657652Y-29699500D01*
X170599461Y-29680593D01*
X170563497Y-29631093D01*
X170563497Y-29569907D01*
X170599461Y-29520407D01*
X170627059Y-29506346D01*
X170643209Y-29501098D01*
X170832552Y-29404624D01*
X171004464Y-29279722D01*
X171154722Y-29129464D01*
X171279624Y-28957552D01*
X171376095Y-28768215D01*
X171441758Y-28566122D01*
X171452231Y-28500000D01*
X170408012Y-28500000D01*
X170440925Y-28442993D01*
X170475000Y-28315826D01*
X170475000Y-28184174D01*
X170440925Y-28057007D01*
X170408012Y-28000000D01*
X171452231Y-28000000D01*
X171452231Y-27999999D01*
X171441758Y-27933877D01*
X171376095Y-27731784D01*
X171279624Y-27542447D01*
X171154722Y-27370535D01*
X171004464Y-27220277D01*
X170832552Y-27095375D01*
X170643215Y-26998904D01*
X170441121Y-26933240D01*
X170231250Y-26900000D01*
X170225001Y-26900000D01*
X170225000Y-26900001D01*
X170225000Y-27816988D01*
X170167993Y-27784075D01*
X170040826Y-27750000D01*
X169909174Y-27750000D01*
X169782007Y-27784075D01*
X169725000Y-27816988D01*
X169725000Y-26900001D01*
X169724999Y-26900000D01*
X169718750Y-26900000D01*
X169508878Y-26933240D01*
X169306784Y-26998904D01*
X169117447Y-27095375D01*
X168945535Y-27220277D01*
X168795277Y-27370535D01*
X168670375Y-27542447D01*
X168573904Y-27731784D01*
X168508241Y-27933877D01*
X168497768Y-27999999D01*
X161850500Y-27999999D01*
X161850500Y-27878712D01*
X161818838Y-27638211D01*
X161756054Y-27403900D01*
X161663224Y-27179788D01*
X161541936Y-26969711D01*
X161488445Y-26900000D01*
X161394270Y-26777268D01*
X161394268Y-26777266D01*
X161394265Y-26777262D01*
X161222738Y-26605735D01*
X161222733Y-26605731D01*
X161222731Y-26605729D01*
X161030292Y-26458066D01*
X161030289Y-26458064D01*
X160820212Y-26336776D01*
X160820208Y-26336774D01*
X160820204Y-26336772D01*
X160596105Y-26243948D01*
X160596104Y-26243947D01*
X160596100Y-26243946D01*
X160361789Y-26181162D01*
X160361786Y-26181161D01*
X160361784Y-26181161D01*
X160121289Y-26149500D01*
X160121288Y-26149500D01*
X159878712Y-26149500D01*
X159878710Y-26149500D01*
X159638218Y-26181161D01*
X159638213Y-26181161D01*
X159403907Y-26243944D01*
X159403894Y-26243948D01*
X159179795Y-26336772D01*
X158969707Y-26458066D01*
X158777268Y-26605729D01*
X158605729Y-26777268D01*
X158458066Y-26969707D01*
X158336772Y-27179795D01*
X158243948Y-27403894D01*
X158243944Y-27403907D01*
X158181161Y-27638213D01*
X158181161Y-27638218D01*
X158149500Y-27878710D01*
X155950500Y-27878710D01*
X155950500Y-24549500D01*
X155969407Y-24491309D01*
X156018907Y-24455345D01*
X156049500Y-24450500D01*
X194450500Y-24450500D01*
X194508691Y-24469407D01*
G37*
%TD.AperFunction*%
%TA.AperFunction,Conductor*%
G36*
X176549866Y-90369407D02*
G01*
X176585830Y-90418907D01*
X176585830Y-90480093D01*
X176576889Y-90499895D01*
X176523718Y-90589802D01*
X176477901Y-90747506D01*
X176477899Y-90747513D01*
X176477704Y-90750000D01*
X177538500Y-90750000D01*
X177596691Y-90768907D01*
X177632655Y-90818407D01*
X177637500Y-90849000D01*
X177637500Y-91151000D01*
X177618593Y-91209191D01*
X177569093Y-91245155D01*
X177538500Y-91250000D01*
X176477704Y-91250000D01*
X176477899Y-91252486D01*
X176477901Y-91252493D01*
X176523718Y-91410197D01*
X176576889Y-91500105D01*
X176590236Y-91559817D01*
X176565936Y-91615970D01*
X176513271Y-91647116D01*
X176491675Y-91649500D01*
X176253365Y-91649500D01*
X176195174Y-91630593D01*
X176169389Y-91599891D01*
X176168965Y-91600194D01*
X176165115Y-91594802D01*
X176164423Y-91593978D01*
X176164198Y-91593518D01*
X176164198Y-91593517D01*
X176115682Y-91545001D01*
X176087907Y-91490487D01*
X176097478Y-91430055D01*
X176115681Y-91404999D01*
X176164198Y-91356483D01*
X176215573Y-91251393D01*
X176225500Y-91183260D01*
X176225500Y-90816740D01*
X176215573Y-90748607D01*
X176215038Y-90747513D01*
X176190483Y-90697285D01*
X176164198Y-90643517D01*
X176115682Y-90595001D01*
X176087907Y-90540487D01*
X176097478Y-90480055D01*
X176115681Y-90454999D01*
X176164198Y-90406483D01*
X176164423Y-90406021D01*
X176164819Y-90405612D01*
X176168965Y-90399806D01*
X176169835Y-90400427D01*
X176206965Y-90362047D01*
X176253365Y-90350500D01*
X176491675Y-90350500D01*
X176549866Y-90369407D01*
G37*
%TD.AperFunction*%
%TA.AperFunction,Conductor*%
G36*
X172392712Y-87819407D02*
G01*
X172404525Y-87829496D01*
X172863146Y-88288117D01*
X172890923Y-88342634D01*
X172881352Y-88403066D01*
X172838087Y-88446331D01*
X172777655Y-88455902D01*
X172755257Y-88449585D01*
X172688140Y-88421785D01*
X172563529Y-88396998D01*
X172563527Y-88396998D01*
X172436473Y-88396998D01*
X172436470Y-88396998D01*
X172311860Y-88421785D01*
X172311858Y-88421785D01*
X172194480Y-88470404D01*
X172088836Y-88540994D01*
X172088832Y-88540997D01*
X171998999Y-88630830D01*
X171998996Y-88630834D01*
X171928406Y-88736478D01*
X171928405Y-88736481D01*
X171917247Y-88763418D01*
X171877510Y-88809943D01*
X171818015Y-88824226D01*
X171773113Y-88809357D01*
X171631401Y-88720313D01*
X171460225Y-88660415D01*
X171460213Y-88660412D01*
X171280005Y-88640108D01*
X171279065Y-88640108D01*
X171278565Y-88639945D01*
X171274476Y-88639485D01*
X171274570Y-88638647D01*
X171267779Y-88636441D01*
X171267519Y-88638749D01*
X171220142Y-88633411D01*
X170746780Y-89106773D01*
X170692263Y-89134550D01*
X170658211Y-89129157D01*
X170672265Y-89115104D01*
X170703200Y-89040419D01*
X170703200Y-88959581D01*
X170672265Y-88884896D01*
X170615104Y-88827735D01*
X170540419Y-88796800D01*
X170459581Y-88796800D01*
X170384896Y-88827735D01*
X170327735Y-88884896D01*
X170296800Y-88959581D01*
X170296800Y-89040419D01*
X170327735Y-89115104D01*
X170344321Y-89131690D01*
X170338708Y-89134550D01*
X170278276Y-89124978D01*
X170253218Y-89106772D01*
X169855669Y-88709222D01*
X169843358Y-88694221D01*
X169836870Y-88684511D01*
X169801004Y-88630834D01*
X169711164Y-88540994D01*
X169605522Y-88470406D01*
X169605521Y-88470405D01*
X169605519Y-88470404D01*
X169488140Y-88421785D01*
X169363529Y-88396998D01*
X169363527Y-88396998D01*
X169236473Y-88396998D01*
X169236470Y-88396998D01*
X169111860Y-88421785D01*
X169111858Y-88421785D01*
X168994480Y-88470404D01*
X168888836Y-88540994D01*
X168888832Y-88540997D01*
X168798999Y-88630830D01*
X168798996Y-88630834D01*
X168728406Y-88736478D01*
X168679787Y-88853856D01*
X168679787Y-88853858D01*
X168655000Y-88978468D01*
X168655000Y-89991021D01*
X168636093Y-90049212D01*
X168586593Y-90085176D01*
X168525407Y-90085176D01*
X168485996Y-90061025D01*
X168329496Y-89904525D01*
X168301719Y-89850008D01*
X168300500Y-89834521D01*
X168300500Y-88665479D01*
X168319407Y-88607288D01*
X168329496Y-88595475D01*
X168645114Y-88279857D01*
X170133409Y-88279857D01*
X170499999Y-88646445D01*
X170866588Y-88279856D01*
X170851401Y-88270314D01*
X170851393Y-88270310D01*
X170680224Y-88210415D01*
X170680212Y-88210412D01*
X170500004Y-88190108D01*
X170499996Y-88190108D01*
X170319787Y-88210412D01*
X170319775Y-88210415D01*
X170148605Y-88270310D01*
X170133409Y-88279857D01*
X168645114Y-88279857D01*
X169095475Y-87829496D01*
X169149992Y-87801719D01*
X169165479Y-87800500D01*
X172334521Y-87800500D01*
X172392712Y-87819407D01*
G37*
%TD.AperFunction*%
%TA.AperFunction,Conductor*%
G36*
X181196147Y-80319407D02*
G01*
X181232111Y-80368907D01*
X181232111Y-80430093D01*
X181196147Y-80479593D01*
X181166694Y-80494237D01*
X181066045Y-80524768D01*
X180883547Y-80622316D01*
X180723595Y-80753585D01*
X180723585Y-80753595D01*
X180592316Y-80913547D01*
X180494768Y-81096045D01*
X180434699Y-81294065D01*
X180434698Y-81294070D01*
X180414417Y-81499996D01*
X180414417Y-81500003D01*
X180434698Y-81705929D01*
X180434699Y-81705934D01*
X180494768Y-81903954D01*
X180592316Y-82086452D01*
X180706019Y-82225000D01*
X180723590Y-82246410D01*
X180723595Y-82246414D01*
X180883547Y-82377683D01*
X180883548Y-82377683D01*
X180883550Y-82377685D01*
X181066046Y-82475232D01*
X181203997Y-82517078D01*
X181264065Y-82535300D01*
X181264070Y-82535301D01*
X181469997Y-82555583D01*
X181470000Y-82555583D01*
X181470003Y-82555583D01*
X181675929Y-82535301D01*
X181675934Y-82535300D01*
X181710238Y-82524894D01*
X181873954Y-82475232D01*
X181904542Y-82458881D01*
X181964775Y-82448124D01*
X182019826Y-82474825D01*
X182021216Y-82476187D01*
X183075525Y-83530496D01*
X183103302Y-83585013D01*
X183093731Y-83645445D01*
X183050466Y-83688710D01*
X183005521Y-83699500D01*
X178665479Y-83699500D01*
X178607288Y-83680593D01*
X178595475Y-83670504D01*
X178530546Y-83605575D01*
X178502769Y-83551058D01*
X178502558Y-83521482D01*
X178505647Y-83500000D01*
X178499562Y-83457680D01*
X178485165Y-83357543D01*
X178425377Y-83226627D01*
X178331128Y-83117857D01*
X178331127Y-83117856D01*
X178331126Y-83117855D01*
X178210057Y-83040049D01*
X178210054Y-83040047D01*
X178210053Y-83040047D01*
X178196914Y-83036189D01*
X178071964Y-82999500D01*
X178071961Y-82999500D01*
X177928039Y-82999500D01*
X177928035Y-82999500D01*
X177789949Y-83040046D01*
X177789942Y-83040049D01*
X177668873Y-83117855D01*
X177574622Y-83226628D01*
X177514834Y-83357543D01*
X177494353Y-83499997D01*
X177494353Y-83500002D01*
X177514834Y-83642456D01*
X177570557Y-83764470D01*
X177574623Y-83773373D01*
X177668872Y-83882143D01*
X177668873Y-83882144D01*
X177766396Y-83944818D01*
X177789947Y-83959953D01*
X177882457Y-83987116D01*
X177928035Y-84000499D01*
X177928036Y-84000499D01*
X177928039Y-84000500D01*
X177928041Y-84000500D01*
X178034521Y-84000500D01*
X178092712Y-84019407D01*
X178104525Y-84029496D01*
X178105525Y-84030496D01*
X178133302Y-84085013D01*
X178123731Y-84145445D01*
X178080466Y-84188710D01*
X178035521Y-84199500D01*
X177165479Y-84199500D01*
X177107288Y-84180593D01*
X177095475Y-84170504D01*
X175876166Y-82951195D01*
X175848389Y-82896678D01*
X175857960Y-82836246D01*
X175901225Y-82792981D01*
X175961657Y-82783410D01*
X175971793Y-82785564D01*
X176140000Y-82830634D01*
X176140000Y-81933012D01*
X176197007Y-81965925D01*
X176324174Y-82000000D01*
X176455826Y-82000000D01*
X176582993Y-81965925D01*
X176640000Y-81933012D01*
X176640000Y-82830633D01*
X176853490Y-82773430D01*
X177067577Y-82673600D01*
X177261073Y-82538113D01*
X177428113Y-82371073D01*
X177563600Y-82177577D01*
X177663430Y-81963490D01*
X177718816Y-81756786D01*
X177752140Y-81705472D01*
X177809261Y-81683545D01*
X177868362Y-81699380D01*
X177906867Y-81746930D01*
X177909180Y-81753671D01*
X177954768Y-81903954D01*
X178052316Y-82086452D01*
X178166019Y-82225000D01*
X178183590Y-82246410D01*
X178183595Y-82246414D01*
X178343547Y-82377683D01*
X178343548Y-82377683D01*
X178343550Y-82377685D01*
X178526046Y-82475232D01*
X178663997Y-82517078D01*
X178724065Y-82535300D01*
X178724070Y-82535301D01*
X178929997Y-82555583D01*
X178930000Y-82555583D01*
X178930003Y-82555583D01*
X179135929Y-82535301D01*
X179135934Y-82535300D01*
X179170238Y-82524894D01*
X179333954Y-82475232D01*
X179516450Y-82377685D01*
X179676410Y-82246410D01*
X179807685Y-82086450D01*
X179905232Y-81903954D01*
X179965300Y-81705934D01*
X179965301Y-81705929D01*
X179985583Y-81500003D01*
X179985583Y-81499996D01*
X179965301Y-81294070D01*
X179965300Y-81294065D01*
X179932067Y-81184511D01*
X179905232Y-81096046D01*
X179888880Y-81065455D01*
X179878125Y-81005223D01*
X179904826Y-80950172D01*
X179906187Y-80948783D01*
X180204979Y-80649992D01*
X180525475Y-80329496D01*
X180579992Y-80301719D01*
X180595479Y-80300500D01*
X181137956Y-80300500D01*
X181196147Y-80319407D01*
G37*
%TD.AperFunction*%
%TD*%
M02*
